<svg width="1044" height="182" viewBox="0 0 1044 182" fill="none" xmlns="http://www.w3.org/2000/svg">
<g filter="url(#filter0_f_42_8)">
<path d="M17.5 84L161.5 84" stroke="#FF2D87" stroke-width="7" stroke-linecap="round"/>
</g>
<path d="M20.5 84L158.5 84" stroke="#FF2D87" stroke-width="2" stroke-linecap="round"/>
<path d="M13.5455 19.8182H21.6136L37.75 46.9773H38.4318L54.5682 19.8182H62.6364L41.6136 54.0227V78H34.5682V54.0227L13.5455 19.8182ZM82.3949 78.9091C78.4555 78.9091 74.9991 77.9716 72.0256 76.0966C69.071 74.2216 66.7604 71.5985 65.0938 68.2273C63.446 64.8561 62.6222 60.9167 62.6222 56.4091C62.6222 51.8636 63.446 47.8958 65.0938 44.5057C66.7604 41.1155 69.071 38.483 72.0256 36.608C74.9991 34.733 78.4555 33.7955 82.3949 33.7955C86.3343 33.7955 89.7813 34.733 92.7358 36.608C95.7093 38.483 98.0199 41.1155 99.6676 44.5057C101.334 47.8958 102.168 51.8636 102.168 56.4091C102.168 60.9167 101.334 64.8561 99.6676 68.2273C98.0199 71.5985 95.7093 74.2216 92.7358 76.0966C89.7813 77.9716 86.3343 78.9091 82.3949 78.9091ZM82.3949 72.8864C85.3873 72.8864 87.8494 72.1193 89.7812 70.5852C91.7131 69.0511 93.143 67.0341 94.071 64.5341C94.9991 62.0341 95.4631 59.3258 95.4631 56.4091C95.4631 53.4924 94.9991 50.7746 94.071 48.2557C93.143 45.7367 91.7131 43.7008 89.7812 42.1477C87.8494 40.5947 85.3873 39.8182 82.3949 39.8182C79.4025 39.8182 76.9403 40.5947 75.0085 42.1477C73.0767 43.7008 71.6468 45.7367 70.7188 48.2557C69.7907 50.7746 69.3267 53.4924 69.3267 56.4091C69.3267 59.3258 69.7907 62.0341 70.7188 64.5341C71.6468 67.0341 73.0767 69.0511 75.0085 70.5852C76.9403 72.1193 79.4025 72.8864 82.3949 72.8864ZM139.902 60.1591V34.3636H146.607V78H139.902V70.6136H139.447C138.425 72.8295 136.834 74.714 134.675 76.267C132.516 77.8011 129.788 78.5682 126.493 78.5682C123.766 78.5682 121.341 77.9716 119.22 76.7784C117.099 75.5663 115.432 73.7481 114.22 71.3239C113.008 68.8807 112.402 65.803 112.402 62.0909V34.3636H119.107V61.6364C119.107 64.8182 119.997 67.3561 121.777 69.25C123.576 71.1439 125.868 72.0909 128.652 72.0909C130.319 72.0909 132.014 71.6648 133.737 70.8125C135.48 69.9602 136.938 68.6534 138.112 66.892C139.305 65.1307 139.902 62.8864 139.902 60.1591ZM199.114 78.9091C195.023 78.9091 191.5 77.9432 188.545 76.0114C185.591 74.0795 183.318 71.4186 181.727 68.0284C180.136 64.6383 179.341 60.7652 179.341 56.4091C179.341 51.9773 180.155 48.0663 181.784 44.6761C183.432 41.267 185.723 38.6061 188.659 36.6932C191.614 34.7614 195.061 33.7955 199 33.7955C202.068 33.7955 204.833 34.3636 207.295 35.5C209.758 36.6364 211.775 38.2273 213.347 40.2727C214.919 42.3182 215.894 44.7045 216.273 47.4318H209.568C209.057 45.4432 207.92 43.6818 206.159 42.1477C204.417 40.5947 202.068 39.8182 199.114 39.8182C196.5 39.8182 194.208 40.5 192.239 41.8636C190.288 43.2083 188.763 45.1117 187.665 47.5739C186.585 50.017 186.045 52.8864 186.045 56.1818C186.045 59.553 186.576 62.4886 187.636 64.9886C188.716 67.4886 190.231 69.4299 192.182 70.8125C194.152 72.1951 196.462 72.8864 199.114 72.8864C200.856 72.8864 202.438 72.5833 203.858 71.9773C205.278 71.3712 206.481 70.5 207.466 69.3636C208.451 68.2273 209.152 66.8636 209.568 65.2727H216.273C215.894 67.8485 214.956 70.1686 213.46 72.233C211.983 74.2784 210.023 75.9072 207.58 77.1193C205.155 78.3125 202.333 78.9091 199.114 78.9091ZM238.915 79.0227C236.15 79.0227 233.64 78.5019 231.386 77.4602C229.133 76.3996 227.343 74.875 226.017 72.8864C224.691 70.8788 224.028 68.4545 224.028 65.6136C224.028 63.1136 224.521 61.0871 225.506 59.5341C226.491 57.9621 227.807 56.7311 229.455 55.8409C231.102 54.9508 232.92 54.2879 234.909 53.8523C236.917 53.3977 238.934 53.0379 240.96 52.7727C243.612 52.4318 245.761 52.1761 247.409 52.0057C249.076 51.8163 250.288 51.5038 251.045 51.0682C251.822 50.6326 252.21 49.875 252.21 48.7955V48.5682C252.21 45.7652 251.443 43.5871 249.909 42.0341C248.394 40.4811 246.093 39.7045 243.006 39.7045C239.805 39.7045 237.295 40.4053 235.477 41.8068C233.659 43.2083 232.381 44.7045 231.642 46.2955L225.278 44.0227C226.415 41.3712 227.93 39.3068 229.824 37.8295C231.737 36.3333 233.82 35.2917 236.074 34.7045C238.347 34.0985 240.581 33.7955 242.778 33.7955C244.18 33.7955 245.79 33.9659 247.608 34.3068C249.445 34.6288 251.216 35.3011 252.92 36.3239C254.644 37.3466 256.074 38.8902 257.21 40.9545C258.347 43.0189 258.915 45.7841 258.915 49.25V78H252.21V72.0909H251.869C251.415 73.0379 250.657 74.0511 249.597 75.1307C248.536 76.2102 247.125 77.1288 245.364 77.8864C243.602 78.6439 241.453 79.0227 238.915 79.0227ZM239.938 73C242.589 73 244.824 72.4792 246.642 71.4375C248.479 70.3958 249.862 69.0511 250.79 67.4034C251.737 65.7557 252.21 64.0227 252.21 62.2045V56.0682C251.926 56.4091 251.301 56.7216 250.335 57.0057C249.388 57.2708 248.29 57.5076 247.04 57.7159C245.809 57.9053 244.606 58.0758 243.432 58.2273C242.277 58.3598 241.339 58.4735 240.619 58.5682C238.877 58.7955 237.248 59.1648 235.733 59.6761C234.237 60.1686 233.025 60.9167 232.097 61.9205C231.188 62.9053 230.733 64.25 230.733 65.9545C230.733 68.2841 231.595 70.0455 233.318 71.2386C235.061 72.4129 237.267 73 239.938 73ZM277.857 51.75V78H271.152V34.3636H277.629V41.1818H278.197C279.22 38.9659 280.773 37.1856 282.857 35.8409C284.94 34.4773 287.629 33.7955 290.925 33.7955C293.879 33.7955 296.464 34.4015 298.68 35.6136C300.896 36.8068 302.62 38.625 303.851 41.0682C305.082 43.4924 305.697 46.5606 305.697 50.2727V78H298.993V50.7273C298.993 47.2992 298.103 44.6288 296.322 42.7159C294.542 40.7841 292.099 39.8182 288.993 39.8182C286.853 39.8182 284.94 40.2822 283.254 41.2102C281.588 42.1383 280.271 43.4924 279.305 45.2727C278.339 47.053 277.857 49.2121 277.857 51.75ZM341.358 78V19.8182H348.062V41.2955H348.631C349.123 40.5379 349.805 39.572 350.676 38.3977C351.566 37.2045 352.835 36.1439 354.483 35.2159C356.15 34.2689 358.403 33.7955 361.244 33.7955C364.919 33.7955 368.157 34.714 370.96 36.5511C373.763 38.3883 375.951 40.9924 377.523 44.3636C379.095 47.7348 379.881 51.7121 379.881 56.2955C379.881 60.9167 379.095 64.9223 377.523 68.3125C375.951 71.6837 373.773 74.2973 370.989 76.1534C368.205 77.9905 364.994 78.9091 361.358 78.9091C358.555 78.9091 356.311 78.4451 354.625 77.517C352.939 76.5701 351.642 75.5 350.733 74.3068C349.824 73.0947 349.123 72.0909 348.631 71.2955H347.835V78H341.358ZM347.949 56.1818C347.949 59.4773 348.432 62.3845 349.398 64.9034C350.364 67.4034 351.775 69.3636 353.631 70.7841C355.487 72.1856 357.759 72.8864 360.449 72.8864C363.252 72.8864 365.591 72.1477 367.466 70.6705C369.36 69.1742 370.78 67.1667 371.727 64.6477C372.693 62.1098 373.176 59.2879 373.176 56.1818C373.176 53.1136 372.703 50.3485 371.756 47.8864C370.828 45.4053 369.417 43.4451 367.523 42.0057C365.648 40.5473 363.29 39.8182 360.449 39.8182C357.722 39.8182 355.43 40.5095 353.574 41.892C351.718 43.2557 350.316 45.1686 349.369 47.6307C348.422 50.0739 347.949 52.9242 347.949 56.1818ZM408.432 78.9091C404.227 78.9091 400.6 77.9811 397.551 76.125C394.521 74.25 392.182 71.6364 390.534 68.2841C388.905 64.9129 388.091 60.9924 388.091 56.5227C388.091 52.053 388.905 48.1136 390.534 44.7045C392.182 41.2765 394.473 38.6061 397.409 36.6932C400.364 34.7614 403.811 33.7955 407.75 33.7955C410.023 33.7955 412.267 34.1742 414.483 34.9318C416.699 35.6894 418.716 36.9205 420.534 38.625C422.352 40.3106 423.801 42.5455 424.881 45.3295C425.96 48.1136 426.5 51.5417 426.5 55.6136V58.4545H392.864V52.6591H419.682C419.682 50.197 419.189 48 418.205 46.0682C417.239 44.1364 415.856 42.6117 414.057 41.4943C412.277 40.3769 410.174 39.8182 407.75 39.8182C405.08 39.8182 402.769 40.4811 400.818 41.8068C398.886 43.1136 397.4 44.8182 396.358 46.9205C395.316 49.0227 394.795 51.2765 394.795 53.6818V57.5455C394.795 60.8409 395.364 63.6345 396.5 65.9261C397.655 68.1989 399.256 69.9318 401.301 71.125C403.347 72.2992 405.723 72.8864 408.432 72.8864C410.193 72.8864 411.784 72.6402 413.205 72.1477C414.644 71.6364 415.884 70.8788 416.926 69.875C417.968 68.8523 418.773 67.5833 419.341 66.0682L425.818 67.8864C425.136 70.0833 423.991 72.0152 422.381 73.6818C420.771 75.3295 418.782 76.6174 416.415 77.5455C414.047 78.4545 411.386 78.9091 408.432 78.9091ZM454.426 78.9091C450.335 78.9091 446.813 77.9432 443.858 76.0114C440.903 74.0795 438.631 71.4186 437.04 68.0284C435.449 64.6383 434.653 60.7652 434.653 56.4091C434.653 51.9773 435.468 48.0663 437.097 44.6761C438.744 41.267 441.036 38.6061 443.972 36.6932C446.926 34.7614 450.373 33.7955 454.312 33.7955C457.381 33.7955 460.146 34.3636 462.608 35.5C465.07 36.6364 467.087 38.2273 468.659 40.2727C470.231 42.3182 471.206 44.7045 471.585 47.4318H464.881C464.369 45.4432 463.233 43.6818 461.472 42.1477C459.729 40.5947 457.381 39.8182 454.426 39.8182C451.813 39.8182 449.521 40.5 447.551 41.8636C445.6 43.2083 444.076 45.1117 442.977 47.5739C441.898 50.017 441.358 52.8864 441.358 56.1818C441.358 59.553 441.888 62.4886 442.949 64.9886C444.028 67.4886 445.544 69.4299 447.494 70.8125C449.464 72.1951 451.775 72.8864 454.426 72.8864C456.169 72.8864 457.75 72.5833 459.17 71.9773C460.591 71.3712 461.794 70.5 462.778 69.3636C463.763 68.2273 464.464 66.8636 464.881 65.2727H471.585C471.206 67.8485 470.269 70.1686 468.773 72.233C467.295 74.2784 465.335 75.9072 462.892 77.1193C460.468 78.3125 457.646 78.9091 454.426 78.9091ZM499.114 78.9091C495.174 78.9091 491.718 77.9716 488.744 76.0966C485.79 74.2216 483.479 71.5985 481.812 68.2273C480.165 64.8561 479.341 60.9167 479.341 56.4091C479.341 51.8636 480.165 47.8958 481.812 44.5057C483.479 41.1155 485.79 38.483 488.744 36.608C491.718 34.733 495.174 33.7955 499.114 33.7955C503.053 33.7955 506.5 34.733 509.455 36.608C512.428 38.483 514.739 41.1155 516.386 44.5057C518.053 47.8958 518.886 51.8636 518.886 56.4091C518.886 60.9167 518.053 64.8561 516.386 68.2273C514.739 71.5985 512.428 74.2216 509.455 76.0966C506.5 77.9716 503.053 78.9091 499.114 78.9091ZM499.114 72.8864C502.106 72.8864 504.568 72.1193 506.5 70.5852C508.432 69.0511 509.862 67.0341 510.79 64.5341C511.718 62.0341 512.182 59.3258 512.182 56.4091C512.182 53.4924 511.718 50.7746 510.79 48.2557C509.862 45.7367 508.432 43.7008 506.5 42.1477C504.568 40.5947 502.106 39.8182 499.114 39.8182C496.121 39.8182 493.659 40.5947 491.727 42.1477C489.795 43.7008 488.366 45.7367 487.438 48.2557C486.509 50.7746 486.045 53.4924 486.045 56.4091C486.045 59.3258 486.509 62.0341 487.438 64.5341C488.366 67.0341 489.795 69.0511 491.727 70.5852C493.659 72.1193 496.121 72.8864 499.114 72.8864ZM529.121 78V34.3636H535.598V41.1818H536.166C537.075 38.8523 538.543 37.0436 540.57 35.7557C542.596 34.4489 545.03 33.7955 547.871 33.7955C550.75 33.7955 553.145 34.4489 555.058 35.7557C556.99 37.0436 558.496 38.8523 559.575 41.1818H560.03C561.147 38.928 562.823 37.1383 565.058 35.8125C567.293 34.4678 569.973 33.7955 573.098 33.7955C577 33.7955 580.191 35.017 582.672 37.4602C585.153 39.8845 586.393 43.6629 586.393 48.7955V78H579.689V48.7955C579.689 45.5758 578.808 43.2746 577.047 41.892C575.286 40.5095 573.212 39.8182 570.825 39.8182C567.757 39.8182 565.38 40.7462 563.695 42.6023C562.009 44.4394 561.166 46.7689 561.166 49.5909V78H554.348V48.1136C554.348 45.6326 553.543 43.6345 551.933 42.1193C550.323 40.5852 548.25 39.8182 545.712 39.8182C543.969 39.8182 542.34 40.2822 540.825 41.2102C539.329 42.1383 538.117 43.4261 537.189 45.0739C536.28 46.7027 535.825 48.5871 535.825 50.7273V78H529.121ZM616.947 78.9091C612.743 78.9091 609.116 77.9811 606.067 76.125C603.036 74.25 600.697 71.6364 599.05 68.2841C597.421 64.9129 596.607 60.9924 596.607 56.5227C596.607 52.053 597.421 48.1136 599.05 44.7045C600.697 41.2765 602.989 38.6061 605.925 36.6932C608.879 34.7614 612.326 33.7955 616.266 33.7955C618.538 33.7955 620.783 34.1742 622.999 34.9318C625.214 35.6894 627.232 36.9205 629.05 38.625C630.868 40.3106 632.317 42.5455 633.396 45.3295C634.476 48.1136 635.016 51.5417 635.016 55.6136V58.4545H601.379V52.6591H628.197C628.197 50.197 627.705 48 626.72 46.0682C625.754 44.1364 624.372 42.6117 622.572 41.4943C620.792 40.3769 618.69 39.8182 616.266 39.8182C613.595 39.8182 611.285 40.4811 609.334 41.8068C607.402 43.1136 605.915 44.8182 604.874 46.9205C603.832 49.0227 603.311 51.2765 603.311 53.6818V57.5455C603.311 60.8409 603.879 63.6345 605.016 65.9261C606.171 68.1989 607.771 69.9318 609.817 71.125C611.862 72.2992 614.239 72.8864 616.947 72.8864C618.709 72.8864 620.3 72.6402 621.72 72.1477C623.16 71.6364 624.4 70.8788 625.442 69.875C626.483 68.8523 627.288 67.5833 627.857 66.0682L634.334 67.8864C633.652 70.0833 632.506 72.0152 630.896 73.6818C629.286 75.3295 627.298 76.6174 624.93 77.5455C622.563 78.4545 619.902 78.9091 616.947 78.9091ZM680.555 79.0227C677.79 79.0227 675.281 78.5019 673.027 77.4602C670.773 76.3996 668.983 74.875 667.658 72.8864C666.332 70.8788 665.669 68.4545 665.669 65.6136C665.669 63.1136 666.161 61.0871 667.146 59.5341C668.131 57.9621 669.447 56.7311 671.095 55.8409C672.743 54.9508 674.561 54.2879 676.55 53.8523C678.557 53.3977 680.574 53.0379 682.601 52.7727C685.252 52.4318 687.402 52.1761 689.05 52.0057C690.716 51.8163 691.929 51.5038 692.686 51.0682C693.463 50.6326 693.851 49.875 693.851 48.7955V48.5682C693.851 45.7652 693.084 43.5871 691.55 42.0341C690.035 40.4811 687.733 39.7045 684.646 39.7045C681.446 39.7045 678.936 40.4053 677.118 41.8068C675.3 43.2083 674.021 44.7045 673.283 46.2955L666.919 44.0227C668.055 41.3712 669.571 39.3068 671.464 37.8295C673.377 36.3333 675.461 35.2917 677.714 34.7045C679.987 34.0985 682.222 33.7955 684.419 33.7955C685.821 33.7955 687.43 33.9659 689.249 34.3068C691.086 34.6288 692.857 35.3011 694.561 36.3239C696.285 37.3466 697.714 38.8902 698.851 40.9545C699.987 43.0189 700.555 45.7841 700.555 49.25V78H693.851V72.0909H693.51C693.055 73.0379 692.298 74.0511 691.237 75.1307C690.177 76.2102 688.766 77.1288 687.004 77.8864C685.243 78.6439 683.093 79.0227 680.555 79.0227ZM681.578 73C684.23 73 686.464 72.4792 688.283 71.4375C690.12 70.3958 691.502 69.0511 692.43 67.4034C693.377 65.7557 693.851 64.0227 693.851 62.2045V56.0682C693.567 56.4091 692.942 56.7216 691.976 57.0057C691.029 57.2708 689.93 57.5076 688.68 57.7159C687.449 57.9053 686.247 58.0758 685.072 58.2273C683.917 58.3598 682.98 58.4735 682.26 58.5682C680.518 58.7955 678.889 59.1648 677.374 59.6761C675.877 60.1686 674.665 60.9167 673.737 61.9205C672.828 62.9053 672.374 64.25 672.374 65.9545C672.374 68.2841 673.235 70.0455 674.959 71.2386C676.701 72.4129 678.908 73 681.578 73ZM766.202 44.1364L760.179 45.8409C759.8 44.8371 759.241 43.8617 758.503 42.9148C757.783 41.9489 756.798 41.1534 755.548 40.5284C754.298 39.9034 752.698 39.5909 750.747 39.5909C748.077 39.5909 745.851 40.2064 744.071 41.4375C742.31 42.6496 741.429 44.1932 741.429 46.0682C741.429 47.7348 742.035 49.0511 743.247 50.017C744.459 50.983 746.353 51.7879 748.929 52.4318L755.406 54.0227C759.308 54.9697 762.215 56.4186 764.128 58.3693C766.041 60.3011 766.997 62.7917 766.997 65.8409C766.997 68.3409 766.277 70.5758 764.838 72.5455C763.418 74.5152 761.429 76.0682 758.872 77.2045C756.315 78.3409 753.342 78.9091 749.952 78.9091C745.501 78.9091 741.817 77.9432 738.901 76.0114C735.984 74.0795 734.137 71.2576 733.361 67.5455L739.724 65.9545C740.33 68.303 741.476 70.0644 743.162 71.2386C744.866 72.4129 747.092 73 749.838 73C752.963 73 755.444 72.3371 757.281 71.0114C759.137 69.6667 760.065 68.0568 760.065 66.1818C760.065 64.6667 759.535 63.3977 758.474 62.375C757.414 61.3333 755.785 60.5568 753.588 60.0455L746.315 58.3409C742.319 57.3939 739.384 55.9261 737.509 53.9375C735.652 51.9299 734.724 49.4205 734.724 46.4091C734.724 43.947 735.416 41.7689 736.798 39.875C738.2 37.9811 740.103 36.4943 742.509 35.4148C744.933 34.3352 747.679 33.7955 750.747 33.7955C755.065 33.7955 758.455 34.7424 760.918 36.6364C763.399 38.5303 765.16 41.0303 766.202 44.1364ZM796.067 34.3636V40.0455H773.453V34.3636H796.067ZM780.044 23.9091H786.749V65.5C786.749 67.3939 787.023 68.8144 787.572 69.7614C788.141 70.6894 788.86 71.3144 789.732 71.6364C790.622 71.9394 791.559 72.0909 792.544 72.0909C793.283 72.0909 793.889 72.053 794.362 71.9773C794.836 71.8826 795.214 71.8068 795.499 71.75L796.862 77.7727C796.408 77.9432 795.773 78.1136 794.959 78.2841C794.144 78.4735 793.112 78.5682 791.862 78.5682C789.968 78.5682 788.112 78.161 786.294 77.3466C784.495 76.5322 782.999 75.2917 781.805 73.625C780.631 71.9583 780.044 69.8561 780.044 67.3182V23.9091ZM818.993 79.0227C816.228 79.0227 813.718 78.5019 811.464 77.4602C809.211 76.3996 807.421 74.875 806.095 72.8864C804.769 70.8788 804.107 68.4545 804.107 65.6136C804.107 63.1136 804.599 61.0871 805.584 59.5341C806.569 57.9621 807.885 56.7311 809.533 55.8409C811.18 54.9508 812.999 54.2879 814.987 53.8523C816.995 53.3977 819.012 53.0379 821.038 52.7727C823.69 52.4318 825.839 52.1761 827.487 52.0057C829.154 51.8163 830.366 51.5038 831.124 51.0682C831.9 50.6326 832.288 49.875 832.288 48.7955V48.5682C832.288 45.7652 831.521 43.5871 829.987 42.0341C828.472 40.4811 826.171 39.7045 823.084 39.7045C819.883 39.7045 817.374 40.4053 815.555 41.8068C813.737 43.2083 812.459 44.7045 811.72 46.2955L805.357 44.0227C806.493 41.3712 808.008 39.3068 809.902 37.8295C811.815 36.3333 813.898 35.2917 816.152 34.7045C818.425 34.0985 820.66 33.7955 822.857 33.7955C824.258 33.7955 825.868 33.9659 827.686 34.3068C829.523 34.6288 831.294 35.3011 832.999 36.3239C834.722 37.3466 836.152 38.8902 837.288 40.9545C838.425 43.0189 838.993 45.7841 838.993 49.25V78H832.288V72.0909H831.947C831.493 73.0379 830.735 74.0511 829.675 75.1307C828.614 76.2102 827.203 77.1288 825.442 77.8864C823.68 78.6439 821.531 79.0227 818.993 79.0227ZM820.016 73C822.667 73 824.902 72.4792 826.72 71.4375C828.557 70.3958 829.94 69.0511 830.868 67.4034C831.815 65.7557 832.288 64.0227 832.288 62.2045V56.0682C832.004 56.4091 831.379 56.7216 830.413 57.0057C829.466 57.2708 828.368 57.5076 827.118 57.7159C825.887 57.9053 824.684 58.0758 823.51 58.2273C822.355 58.3598 821.417 58.4735 820.697 58.5682C818.955 58.7955 817.326 59.1648 815.811 59.6761C814.315 60.1686 813.103 60.9167 812.175 61.9205C811.266 62.9053 810.811 64.25 810.811 65.9545C810.811 68.2841 811.673 70.0455 813.396 71.2386C815.139 72.4129 817.345 73 820.016 73ZM851.23 78V34.3636H857.707V40.9545H858.162C858.957 38.7955 860.397 37.0436 862.48 35.6989C864.563 34.3542 866.912 33.6818 869.526 33.6818C870.018 33.6818 870.634 33.6913 871.372 33.7102C872.111 33.7292 872.67 33.7576 873.048 33.7955V40.6136C872.821 40.5568 872.3 40.4716 871.486 40.358C870.69 40.2254 869.848 40.1591 868.957 40.1591C866.836 40.1591 864.942 40.6042 863.276 41.4943C861.628 42.3655 860.321 43.5777 859.355 45.1307C858.408 46.6648 857.935 48.4167 857.935 50.3864V78H851.23Z" fill="#F5F5F7"/>
<g filter="url(#filter1_d_42_8)">
<path d="M217.568 146L211.773 102.364H215.324L220.182 140.915H220.494L238.165 102.364H241.773L246.631 140.886H246.915L264.585 102.364H268.278L247.938 146H244.074L239.188 108.074H238.818L221.432 146H217.568ZM287.22 146.909C283.281 146.909 280.014 145.934 277.419 143.983C274.824 142.032 273.016 139.362 271.993 135.972C270.97 132.581 270.819 128.718 271.538 124.381C272.258 120.025 273.697 116.142 275.857 112.733C278.016 109.324 280.658 106.634 283.783 104.665C286.908 102.695 290.279 101.71 293.896 101.71C296.339 101.71 298.565 102.203 300.572 103.188C302.599 104.172 304.304 105.583 305.686 107.42C307.069 109.239 308.025 111.445 308.555 114.04C309.086 116.634 309.086 119.551 308.555 122.79L308.158 124.949H273.612L274.152 121.795H305.203C305.733 118.652 305.582 115.811 304.749 113.273C303.915 110.716 302.533 108.689 300.601 107.193C298.688 105.697 296.339 104.949 293.555 104.949C290.714 104.949 288.006 105.773 285.43 107.42C282.874 109.049 280.677 111.227 278.839 113.955C277.021 116.682 275.809 119.684 275.203 122.96L274.862 124.722C274.256 128.472 274.332 131.777 275.089 134.636C275.866 137.477 277.305 139.703 279.408 141.312C281.51 142.903 284.256 143.699 287.646 143.699C290.014 143.699 292.116 143.301 293.953 142.506C295.809 141.691 297.381 140.706 298.669 139.551C299.976 138.396 300.999 137.278 301.737 136.199L304.607 137.477C303.735 138.936 302.485 140.394 300.857 141.852C299.228 143.292 297.268 144.494 294.976 145.46C292.684 146.426 290.099 146.909 287.22 146.909ZM329.145 87.8182L326.02 106.597H322.724L325.849 87.8182H329.145ZM333.442 146L340.714 102.364H344.095L342.959 109.182H343.271C344.559 106.947 346.453 105.157 348.953 103.812C351.453 102.449 354.143 101.767 357.021 101.767C357.343 101.767 357.646 101.767 357.93 101.767C358.214 101.767 358.499 101.777 358.783 101.795L358.186 105.29C357.959 105.271 357.684 105.242 357.362 105.205C357.059 105.148 356.68 105.119 356.226 105.119C353.802 105.119 351.557 105.64 349.493 106.682C347.429 107.723 345.705 109.163 344.322 111C342.94 112.818 342.059 114.902 341.68 117.25L336.908 146H333.442ZM376.283 146.909C372.343 146.909 369.076 145.934 366.482 143.983C363.887 142.032 362.078 139.362 361.055 135.972C360.033 132.581 359.881 128.718 360.601 124.381C361.321 120.025 362.76 116.142 364.919 112.733C367.078 109.324 369.72 106.634 372.845 104.665C375.97 102.695 379.341 101.71 382.959 101.71C385.402 101.71 387.627 102.203 389.635 103.188C391.661 104.172 393.366 105.583 394.749 107.42C396.131 109.239 397.088 111.445 397.618 114.04C398.148 116.634 398.148 119.551 397.618 122.79L397.22 124.949H362.675L363.214 121.795H394.266C394.796 118.652 394.644 115.811 393.811 113.273C392.978 110.716 391.595 108.689 389.663 107.193C387.75 105.697 385.402 104.949 382.618 104.949C379.777 104.949 377.069 105.773 374.493 107.42C371.936 109.049 369.739 111.227 367.902 113.955C366.084 116.682 364.872 119.684 364.266 122.96L363.925 124.722C363.319 128.472 363.394 131.777 364.152 134.636C364.929 137.477 366.368 139.703 368.47 141.312C370.572 142.903 373.319 143.699 376.709 143.699C379.076 143.699 381.179 143.301 383.016 142.506C384.872 141.691 386.444 140.706 387.732 139.551C389.038 138.396 390.061 137.278 390.8 136.199L393.669 137.477C392.798 138.936 391.548 140.394 389.919 141.852C388.29 143.292 386.33 144.494 384.038 145.46C381.747 146.426 379.161 146.909 376.283 146.909ZM428.207 146L435.48 102.364H438.861L437.724 109.182H438.037C439.325 106.947 441.219 105.157 443.719 103.812C446.219 102.449 448.908 101.767 451.787 101.767C452.109 101.767 452.412 101.767 452.696 101.767C452.98 101.767 453.264 101.777 453.548 101.795L452.952 105.29C452.724 105.271 452.45 105.242 452.128 105.205C451.825 105.148 451.446 105.119 450.991 105.119C448.567 105.119 446.323 105.64 444.259 106.682C442.194 107.723 440.471 109.163 439.088 111C437.705 112.818 436.825 114.902 436.446 117.25L431.673 146H428.207ZM471.048 146.909C467.109 146.909 463.842 145.934 461.247 143.983C458.652 142.032 456.844 139.362 455.821 135.972C454.798 132.581 454.647 128.718 455.366 124.381C456.086 120.025 457.526 116.142 459.685 112.733C461.844 109.324 464.486 106.634 467.611 104.665C470.736 102.695 474.107 101.71 477.724 101.71C480.168 101.71 482.393 102.203 484.401 103.188C486.427 104.172 488.132 105.583 489.514 107.42C490.897 109.239 491.853 111.445 492.384 114.04C492.914 116.634 492.914 119.551 492.384 122.79L491.986 124.949H457.44L457.98 121.795H489.031C489.562 118.652 489.41 115.811 488.577 113.273C487.743 110.716 486.361 108.689 484.429 107.193C482.516 105.697 480.168 104.949 477.384 104.949C474.543 104.949 471.834 105.773 469.259 107.42C466.702 109.049 464.505 111.227 462.668 113.955C460.849 116.682 459.637 119.684 459.031 122.96L458.69 124.722C458.084 128.472 458.16 131.777 458.918 134.636C459.694 137.477 461.134 139.703 463.236 141.312C465.338 142.903 468.084 143.699 471.474 143.699C473.842 143.699 475.944 143.301 477.781 142.506C479.637 141.691 481.209 140.706 482.497 139.551C483.804 138.396 484.827 137.278 485.565 136.199L488.435 137.477C487.563 138.936 486.313 140.394 484.685 141.852C483.056 143.292 481.096 144.494 478.804 145.46C476.512 146.426 473.927 146.909 471.048 146.909ZM511.922 146.938C509.403 146.938 507.178 146.436 505.246 145.432C503.333 144.428 501.903 142.96 500.956 141.028C500.009 139.097 499.753 136.748 500.189 133.983C500.511 132.165 501.107 130.564 501.979 129.182C502.85 127.799 504.043 126.606 505.558 125.602C507.073 124.598 508.929 123.775 511.126 123.131C513.342 122.468 515.928 121.956 518.882 121.597C521.155 121.331 523.181 121.066 524.962 120.801C526.742 120.536 528.181 120.129 529.28 119.58C530.378 119.03 531.022 118.206 531.212 117.108L531.496 115.29C532.026 112.127 531.486 109.608 529.876 107.733C528.267 105.839 525.7 104.892 522.178 104.892C519.071 104.892 516.287 105.593 513.825 106.994C511.363 108.377 509.526 110.129 508.314 112.25L505.303 111.028C506.477 108.945 507.964 107.212 509.763 105.83C511.581 104.447 513.57 103.415 515.729 102.733C517.907 102.051 520.123 101.71 522.376 101.71C524.327 101.71 526.145 101.985 527.831 102.534C529.517 103.083 530.956 103.917 532.149 105.034C533.361 106.152 534.223 107.581 534.734 109.324C535.265 111.047 535.321 113.112 534.905 115.517L529.848 146H526.382L527.717 138.131H527.462C526.439 139.759 525.151 141.246 523.598 142.591C522.064 143.917 520.312 144.977 518.342 145.773C516.373 146.549 514.232 146.938 511.922 146.938ZM512.575 143.727C515.303 143.727 517.84 143.064 520.189 141.739C522.556 140.394 524.545 138.557 526.155 136.227C527.784 133.898 528.835 131.256 529.308 128.301L530.416 121.881C529.905 122.259 529.214 122.6 528.342 122.903C527.471 123.187 526.496 123.443 525.416 123.67C524.356 123.879 523.248 124.068 522.092 124.239C520.956 124.39 519.848 124.532 518.768 124.665C515.53 125.044 512.85 125.631 510.729 126.426C508.607 127.203 506.969 128.225 505.814 129.494C504.678 130.763 503.948 132.297 503.626 134.097C503.153 137.07 503.759 139.419 505.445 141.142C507.149 142.866 509.526 143.727 512.575 143.727ZM559.266 146.909C555.743 146.909 552.836 145.943 550.544 144.011C548.252 142.08 546.671 139.419 545.8 136.028C544.929 132.619 544.853 128.708 545.572 124.295C546.311 119.92 547.684 116.038 549.692 112.648C551.699 109.239 554.171 106.568 557.107 104.636C560.042 102.686 563.252 101.71 566.737 101.71C569.237 101.71 571.33 102.193 573.016 103.159C574.72 104.106 576.065 105.366 577.05 106.938C578.054 108.509 578.735 110.233 579.095 112.108H579.436L583.47 87.8182H586.908L577.249 146H573.868L575.459 136.483H575.061C574.057 138.358 572.798 140.091 571.283 141.682C569.768 143.254 568.006 144.523 565.999 145.489C563.991 146.436 561.747 146.909 559.266 146.909ZM559.805 143.699C562.76 143.699 565.459 142.856 567.902 141.17C570.345 139.466 572.391 137.155 574.038 134.239C575.686 131.303 576.822 127.979 577.447 124.267C578.072 120.555 578.063 117.25 577.419 114.352C576.794 111.436 575.572 109.144 573.754 107.477C571.936 105.792 569.55 104.949 566.595 104.949C563.603 104.949 560.894 105.801 558.47 107.506C556.046 109.191 554.019 111.492 552.391 114.409C550.762 117.326 549.644 120.612 549.038 124.267C548.432 127.922 548.423 131.218 549.01 134.153C549.616 137.089 550.819 139.419 552.618 141.142C554.417 142.847 556.813 143.699 559.805 143.699ZM592.874 162.364C592.002 162.364 591.16 162.269 590.345 162.08C589.55 161.89 588.83 161.644 588.186 161.341L589.692 158.301C591.321 158.983 592.864 159.21 594.322 158.983C595.8 158.775 597.182 158.083 598.47 156.909C599.777 155.735 601.008 154.068 602.163 151.909L605.061 146.455L596.538 102.364H600.089L607.419 141.568H607.732L628.101 102.364H631.993L605.089 153.415C604.029 155.403 602.855 157.061 601.567 158.386C600.279 159.712 598.896 160.706 597.419 161.369C595.961 162.032 594.446 162.364 592.874 162.364ZM680.75 102.364L680.21 105.46H661.176L661.688 102.364H680.75ZM669.841 91.9091H673.278L666.062 135.688C665.759 137.468 665.854 138.926 666.347 140.062C666.858 141.18 667.625 142.013 668.648 142.562C669.689 143.093 670.873 143.358 672.199 143.358C672.786 143.358 673.316 143.311 673.79 143.216C674.263 143.102 674.737 142.979 675.21 142.847L675.523 146C674.936 146.208 674.311 146.379 673.648 146.511C672.985 146.644 672.218 146.71 671.347 146.71C669.528 146.71 667.881 146.303 666.403 145.489C664.945 144.674 663.837 143.491 663.08 141.938C662.341 140.384 662.161 138.509 662.54 136.312L669.841 91.9091ZM702.17 146.909C698.534 146.909 695.456 145.934 692.938 143.983C690.438 142.013 688.657 139.305 687.597 135.858C686.536 132.411 686.375 128.472 687.114 124.04C687.833 119.722 689.254 115.886 691.375 112.534C693.515 109.163 696.129 106.521 699.216 104.608C702.303 102.676 705.617 101.71 709.159 101.71C712.814 101.71 715.892 102.705 718.392 104.693C720.911 106.663 722.701 109.381 723.761 112.847C724.822 116.294 725.002 120.223 724.301 124.636C723.581 128.936 722.142 132.771 719.983 136.142C717.843 139.494 715.229 142.127 712.142 144.04C709.055 145.953 705.731 146.909 702.17 146.909ZM702.227 143.699C705.333 143.699 708.193 142.828 710.807 141.085C713.42 139.343 715.608 136.985 717.369 134.011C719.15 131.038 720.333 127.714 720.92 124.04C721.508 120.479 721.422 117.259 720.665 114.381C719.907 111.483 718.553 109.191 716.602 107.506C714.652 105.801 712.18 104.949 709.188 104.949C706.1 104.949 703.241 105.83 700.608 107.591C697.994 109.352 695.797 111.72 694.017 114.693C692.237 117.667 691.053 120.981 690.466 124.636C689.86 128.178 689.936 131.398 690.693 134.295C691.47 137.174 692.833 139.466 694.784 141.17C696.754 142.856 699.235 143.699 702.227 143.699ZM752.49 162.364L762.49 102.364H765.871L764.28 112.108H764.706C765.691 110.233 766.922 108.509 768.399 106.938C769.895 105.366 771.647 104.106 773.655 103.159C775.681 102.193 777.945 101.71 780.445 101.71C783.967 101.71 786.875 102.676 789.166 104.608C791.458 106.54 793.039 109.201 793.911 112.591C794.782 115.981 794.857 119.883 794.138 124.295C793.399 128.689 792.017 132.591 789.99 136C787.982 139.39 785.52 142.061 782.604 144.011C779.687 145.943 776.486 146.909 773.001 146.909C770.52 146.909 768.418 146.436 766.695 145.489C764.99 144.542 763.645 143.282 762.661 141.71C761.676 140.119 760.994 138.377 760.615 136.483H760.274L755.956 162.364H752.49ZM762.263 124.267C761.657 127.979 761.657 131.303 762.263 134.239C762.888 137.155 764.1 139.466 765.899 141.17C767.717 142.856 770.094 143.699 773.03 143.699C776.003 143.699 778.702 142.847 781.126 141.142C783.57 139.419 785.615 137.089 787.263 134.153C788.929 131.218 790.066 127.922 790.672 124.267C791.278 120.612 791.278 117.326 790.672 114.409C790.066 111.492 788.863 109.191 787.064 107.506C785.265 105.801 782.859 104.949 779.848 104.949C776.893 104.949 774.195 105.792 771.751 107.477C769.308 109.144 767.263 111.436 765.615 114.352C763.986 117.25 762.869 120.555 762.263 124.267ZM802.426 146L809.699 102.364H813.08L811.943 109.182H812.256C813.544 106.947 815.438 105.157 817.938 103.812C820.438 102.449 823.127 101.767 826.006 101.767C826.328 101.767 826.631 101.767 826.915 101.767C827.199 101.767 827.483 101.777 827.767 101.795L827.17 105.29C826.943 105.271 826.669 105.242 826.347 105.205C826.044 105.148 825.665 105.119 825.21 105.119C822.786 105.119 820.542 105.64 818.477 106.682C816.413 107.723 814.689 109.163 813.307 111C811.924 112.818 811.044 114.902 810.665 117.25L805.892 146H802.426ZM844.67 146.909C841.034 146.909 837.956 145.934 835.438 143.983C832.938 142.013 831.157 139.305 830.097 135.858C829.036 132.411 828.875 128.472 829.614 124.04C830.333 119.722 831.754 115.886 833.875 112.534C836.015 109.163 838.629 106.521 841.716 104.608C844.803 102.676 848.117 101.71 851.659 101.71C855.314 101.71 858.392 102.705 860.892 104.693C863.411 106.663 865.201 109.381 866.261 112.847C867.322 116.294 867.502 120.223 866.801 124.636C866.081 128.936 864.642 132.771 862.483 136.142C860.343 139.494 857.729 142.127 854.642 144.04C851.555 145.953 848.231 146.909 844.67 146.909ZM844.727 143.699C847.833 143.699 850.693 142.828 853.307 141.085C855.92 139.343 858.108 136.985 859.869 134.011C861.65 131.038 862.833 127.714 863.42 124.04C864.008 120.479 863.922 117.259 863.165 114.381C862.407 111.483 861.053 109.191 859.102 107.506C857.152 105.801 854.68 104.949 851.688 104.949C848.6 104.949 845.741 105.83 843.108 107.591C840.494 109.352 838.297 111.72 836.517 114.693C834.737 117.667 833.553 120.981 832.966 124.636C832.36 128.178 832.436 131.398 833.193 134.295C833.97 137.174 835.333 139.466 837.284 141.17C839.254 142.856 841.735 143.699 844.727 143.699ZM912.774 102.364L889.734 146H885.814L877.32 102.364H880.871L888.2 141.54H888.513L908.882 102.364H912.774ZM931.673 146.909C927.734 146.909 924.467 145.934 921.872 143.983C919.277 142.032 917.469 139.362 916.446 135.972C915.423 132.581 915.272 128.718 915.991 124.381C916.711 120.025 918.151 116.142 920.31 112.733C922.469 109.324 925.111 106.634 928.236 104.665C931.361 102.695 934.732 101.71 938.349 101.71C940.793 101.71 943.018 102.203 945.026 103.188C947.052 104.172 948.757 105.583 950.139 107.42C951.522 109.239 952.478 111.445 953.009 114.04C953.539 116.634 953.539 119.551 953.009 122.79L952.611 124.949H918.065L918.605 121.795H949.656C950.187 118.652 950.035 115.811 949.202 113.273C948.368 110.716 946.986 108.689 945.054 107.193C943.141 105.697 940.793 104.949 938.009 104.949C935.168 104.949 932.459 105.773 929.884 107.42C927.327 109.049 925.13 111.227 923.293 113.955C921.474 116.682 920.262 119.684 919.656 122.96L919.315 124.722C918.709 128.472 918.785 131.777 919.543 134.636C920.319 137.477 921.759 139.703 923.861 141.312C925.963 142.903 928.709 143.699 932.099 143.699C934.467 143.699 936.569 143.301 938.406 142.506C940.262 141.691 941.834 140.706 943.122 139.551C944.429 138.396 945.452 137.278 946.19 136.199L949.06 137.477C948.188 138.936 946.938 140.394 945.31 141.852C943.681 143.292 941.721 144.494 939.429 145.46C937.137 146.426 934.552 146.909 931.673 146.909ZM983.768 146L991.041 102.364H994.479L987.206 146H983.768ZM994.393 94.608C993.579 94.608 992.897 94.3333 992.348 93.7841C991.818 93.2159 991.59 92.5246 991.666 91.7102C991.704 91.0284 992.007 90.4318 992.575 89.9205C993.143 89.4091 993.797 89.1534 994.536 89.1534C995.35 89.1534 996.022 89.4375 996.553 90.0057C997.083 90.5549 997.32 91.2273 997.263 92.0227C997.206 92.7235 996.893 93.3295 996.325 93.8409C995.776 94.3523 995.132 94.608 994.393 94.608ZM1024.42 102.364L1023.88 105.46H1004.85L1005.36 102.364H1024.42ZM1013.51 91.9091H1016.95L1009.73 135.688C1009.43 137.468 1009.53 138.926 1010.02 140.062C1010.53 141.18 1011.3 142.013 1012.32 142.562C1013.36 143.093 1014.54 143.358 1015.87 143.358C1016.46 143.358 1016.99 143.311 1017.46 143.216C1017.94 143.102 1018.41 142.979 1018.88 142.847L1019.19 146C1018.61 146.208 1017.98 146.379 1017.32 146.511C1016.66 146.644 1015.89 146.71 1015.02 146.71C1013.2 146.71 1011.55 146.303 1010.08 145.489C1008.62 144.674 1007.51 143.491 1006.75 141.938C1006.01 140.384 1005.83 138.509 1006.21 136.312L1013.51 91.9091Z" fill="#FF2D87"/>
</g>
<defs>
<filter id="filter0_f_42_8" x="0" y="66.5" width="179" height="35" filterUnits="userSpaceOnUse" color-interpolation-filters="sRGB">
<feFlood flood-opacity="0" result="BackgroundImageFix"/>
<feBlend mode="normal" in="SourceGraphic" in2="BackgroundImageFix" result="shape"/>
<feGaussianBlur stdDeviation="7" result="effect1_foregroundBlur_42_8"/>
</filter>
<filter id="filter1_d_42_8" x="192.973" y="69.0182" width="850.249" height="112.145" filterUnits="userSpaceOnUse" color-interpolation-filters="sRGB">
<feFlood flood-opacity="0" result="BackgroundImageFix"/>
<feColorMatrix in="SourceAlpha" type="matrix" values="0 0 0 0 0 0 0 0 0 0 0 0 0 0 0 0 0 0 127 0" result="hardAlpha"/>
<feOffset/>
<feGaussianBlur stdDeviation="9.4"/>
<feComposite in2="hardAlpha" operator="out"/>
<feColorMatrix type="matrix" values="0 0 0 0 1 0 0 0 0 0.176471 0 0 0 0 0.529412 0 0 0 1 0"/>
<feBlend mode="normal" in2="BackgroundImageFix" result="effect1_dropShadow_42_8"/>
<feBlend mode="normal" in="SourceGraphic" in2="effect1_dropShadow_42_8" result="shape"/>
</filter>
</defs>
</svg>
