<svg width="216" height="15" viewBox="0 0 216 15" fill="none" xmlns="http://www.w3.org/2000/svg">
<path d="M1.12057e-05 14.5454V-4.48227e-05H1.76137V12.9829H8.52274V14.5454H1.12057e-05ZM15.5966 14.7727C14.5455 14.7727 13.6387 14.5407 12.8764 14.0767C12.1189 13.6079 11.5341 12.9545 11.1222 12.1164C10.715 11.2736 10.5114 10.2935 10.5114 9.17609C10.5114 8.05867 10.715 7.07382 11.1222 6.22155C11.5341 5.36454 12.107 4.69693 12.8409 4.21871C13.5796 3.73575 14.4413 3.49427 15.4261 3.49427C15.9943 3.49427 16.5554 3.58897 17.1094 3.77836C17.6634 3.96776 18.1676 4.27552 18.6222 4.70166C19.0767 5.12306 19.4389 5.68177 19.7088 6.3778C19.9787 7.07382 20.1136 7.93083 20.1136 8.94882V9.65905H11.7046V8.21018H18.4091C18.4091 7.59465 18.286 7.04541 18.0398 6.56246C17.7983 6.0795 17.4527 5.69835 17.0029 5.41899C16.5578 5.13963 16.0322 4.99996 15.4261 4.99996C14.7585 4.99996 14.1809 5.16567 13.6932 5.49711C13.2102 5.82382 12.8386 6.24996 12.5781 6.77552C12.3177 7.30109 12.1875 7.86454 12.1875 8.46586V9.43177C12.1875 10.2556 12.3296 10.954 12.6136 11.5269C12.9025 12.0951 13.3026 12.5284 13.8139 12.8267C14.3253 13.1202 14.9195 13.267 15.5966 13.267C16.0369 13.267 16.4347 13.2054 16.7898 13.0823C17.1496 12.9545 17.4598 12.7651 17.7202 12.5142C17.9806 12.2585 18.1818 11.9412 18.3239 11.5625L19.9432 12.017C19.7727 12.5662 19.4863 13.0492 19.0838 13.4659C18.6814 13.8778 18.1842 14.1998 17.5923 14.4318C17.0005 14.659 16.3352 14.7727 15.5966 14.7727ZM25.8736 14.8011C25.1823 14.8011 24.5549 14.6709 23.9915 14.4105C23.428 14.1453 22.9806 13.7642 22.6492 13.267C22.3177 12.7651 22.152 12.159 22.152 11.4488C22.152 10.8238 22.2751 10.3172 22.5213 9.92893C22.7675 9.53594 23.0966 9.22817 23.5085 9.00564C23.9205 8.7831 24.375 8.61738 24.8722 8.50848C25.3741 8.39484 25.8783 8.30488 26.385 8.23859C27.0478 8.15336 27.5852 8.08944 27.9972 8.04683C28.4138 7.99948 28.7169 7.92136 28.9063 7.81246C29.1004 7.70355 29.1975 7.51416 29.1975 7.24427V7.18746C29.1975 6.4867 29.0057 5.94219 28.6222 5.55393C28.2434 5.16568 27.6681 4.97155 26.8963 4.97155C26.0961 4.97155 25.4688 5.14674 25.0142 5.49711C24.5597 5.84749 24.2401 6.22155 24.0554 6.61927L22.4645 6.05109C22.7486 5.38821 23.1274 4.87211 23.6009 4.5028C24.0791 4.12874 24.5999 3.86833 25.1634 3.72155C25.7315 3.57003 26.2903 3.49427 26.8395 3.49427C27.1899 3.49427 27.5923 3.53689 28.0469 3.62211C28.5062 3.70261 28.9489 3.87069 29.375 4.12638C29.8059 4.38206 30.1634 4.76795 30.4475 5.28405C30.7315 5.80014 30.8736 6.49143 30.8736 7.35791V14.5454H29.1975V13.0681H29.1122C28.9986 13.3049 28.8092 13.5582 28.544 13.8281C28.2789 14.098 27.9261 14.3276 27.4858 14.517C27.0455 14.7064 26.5081 14.8011 25.8736 14.8011ZM26.1293 13.2954C26.7922 13.2954 27.3509 13.1652 27.8054 12.9048C28.2647 12.6444 28.6103 12.3082 28.8423 11.8963C29.0791 11.4843 29.1975 11.0511 29.1975 10.5965V9.06246C29.1264 9.14768 28.9702 9.22581 28.7287 9.29683C28.492 9.36312 28.2173 9.4223 27.9048 9.47439C27.5971 9.52174 27.2964 9.56435 27.0029 9.60223C26.714 9.63537 26.4797 9.66378 26.2997 9.68746C25.8641 9.74427 25.4569 9.8366 25.0781 9.96444C24.7041 10.0876 24.4011 10.2746 24.169 10.5255C23.9418 10.7717 23.8281 11.1079 23.8281 11.534C23.8281 12.1164 24.0436 12.5568 24.4744 12.8551C24.91 13.1486 25.4617 13.2954 26.1293 13.2954ZM33.9329 14.5454V3.63632H35.5522V5.28405H35.6658C35.8647 4.74427 36.2246 4.3063 36.7454 3.97013C37.2662 3.63395 37.8533 3.46586 38.5068 3.46586C38.6299 3.46586 38.7837 3.46823 38.9684 3.47297C39.1531 3.4777 39.2927 3.4848 39.3874 3.49427V5.19882C39.3306 5.18461 39.2004 5.16331 38.9968 5.1349C38.798 5.10175 38.5873 5.08518 38.3647 5.08518C37.8344 5.08518 37.3609 5.19645 36.9443 5.41899C36.5323 5.63679 36.2056 5.93982 35.9641 6.32808C35.7274 6.7116 35.609 7.14958 35.609 7.642V14.5454H33.9329ZM43.0504 7.98291V14.5454H41.3743V3.63632H42.9936V5.34086H43.1357C43.3913 4.78689 43.7796 4.34181 44.3004 4.00564C44.8213 3.66473 45.4936 3.49427 46.3175 3.49427C47.0561 3.49427 47.7024 3.64579 48.2564 3.94882C48.8104 4.24711 49.2413 4.70166 49.549 5.31246C49.8568 5.91852 50.0107 6.68556 50.0107 7.61359V14.5454H48.3345V7.72723C48.3345 6.87022 48.112 6.20261 47.6669 5.72439C47.2218 5.24143 46.611 4.99996 45.8345 4.99996C45.2995 4.99996 44.8213 5.11596 44.3999 5.34797C43.9832 5.57997 43.6541 5.91852 43.4127 6.36359C43.1712 6.80867 43.0504 7.34844 43.0504 7.98291ZM58.6985 14.5454V3.63632H60.3178V5.34086H60.4599C60.6872 4.75848 61.0541 4.3063 61.5607 3.98433C62.0674 3.65763 62.6758 3.49427 63.386 3.49427C64.1057 3.49427 64.7047 3.65763 65.1829 3.98433C65.6658 4.3063 66.0423 4.75848 66.3122 5.34086H66.4258C66.7051 4.77742 67.1242 4.32997 67.6829 3.99854C68.2416 3.66236 68.9116 3.49427 69.6928 3.49427C70.6682 3.49427 71.466 3.79967 72.0863 4.41047C72.7066 5.01653 73.0167 5.96113 73.0167 7.24427V14.5454H71.3406V7.24427C71.3406 6.43935 71.1204 5.86407 70.6801 5.51842C70.2397 5.17278 69.7212 4.99996 69.1247 4.99996C68.3576 4.99996 67.7634 5.23196 67.342 5.69598C66.9206 6.15526 66.7099 6.73764 66.7099 7.44314V14.5454H65.0053V7.07382C65.0053 6.45355 64.8041 5.95403 64.4016 5.57524C63.9992 5.19172 63.4807 4.99996 62.8462 4.99996C62.4106 4.99996 62.0034 5.11596 61.6247 5.34797C61.2506 5.57997 60.9476 5.90194 60.7156 6.31388C60.4883 6.72107 60.3747 7.19219 60.3747 7.72723V14.5454H58.6985ZM80.5132 14.7727C79.5283 14.7727 78.6642 14.5383 77.9208 14.0696C77.1822 13.6008 76.6045 12.945 76.1879 12.1022C75.7759 11.2594 75.57 10.2746 75.57 9.14768C75.57 8.01132 75.7759 7.01937 76.1879 6.17183C76.6045 5.32429 77.1822 4.66615 77.9208 4.1974C78.6642 3.72865 79.5283 3.49427 80.5132 3.49427C81.498 3.49427 82.3597 3.72865 83.0984 4.1974C83.8417 4.66615 84.4194 5.32429 84.8313 6.17183C85.248 7.01937 85.4563 8.01132 85.4563 9.14768C85.4563 10.2746 85.248 11.2594 84.8313 12.1022C84.4194 12.945 83.8417 13.6008 83.0984 14.0696C82.3597 14.5383 81.498 14.7727 80.5132 14.7727ZM80.5132 13.267C81.2613 13.267 81.8768 13.0752 82.3597 12.6917C82.8427 12.3082 83.2002 11.8039 83.4322 11.1789C83.6642 10.5539 83.7802 9.87685 83.7802 9.14768C83.7802 8.41852 83.6642 7.73907 83.4322 7.10933C83.2002 6.4796 82.8427 5.9706 82.3597 5.58234C81.8768 5.19408 81.2613 4.99996 80.5132 4.99996C79.765 4.99996 79.1495 5.19408 78.6666 5.58234C78.1836 5.9706 77.8261 6.4796 77.5941 7.10933C77.3621 7.73907 77.2461 8.41852 77.2461 9.14768C77.2461 9.87685 77.3621 10.5539 77.5941 11.1789C77.8261 11.8039 78.1836 12.3082 78.6666 12.6917C79.1495 13.0752 79.765 13.267 80.5132 13.267ZM88.0149 14.5454V3.63632H89.6342V5.28405H89.7479C89.9467 4.74427 90.3066 4.3063 90.8274 3.97013C91.3483 3.63395 91.9354 3.46586 92.5888 3.46586C92.7119 3.46586 92.8658 3.46823 93.0504 3.47297C93.2351 3.4777 93.3748 3.4848 93.4695 3.49427V5.19882C93.4127 5.18461 93.2824 5.16331 93.0788 5.1349C92.88 5.10175 92.6693 5.08518 92.4467 5.08518C91.9164 5.08518 91.443 5.19645 91.0263 5.41899C90.6144 5.63679 90.2877 5.93982 90.0462 6.32808C89.8094 6.7116 89.6911 7.14958 89.6911 7.642V14.5454H88.0149ZM99.6982 14.7727C98.647 14.7727 97.7403 14.5407 96.978 14.0767C96.2204 13.6079 95.6357 12.9545 95.2237 12.1164C94.8165 11.2736 94.6129 10.2935 94.6129 9.17609C94.6129 8.05867 94.8165 7.07382 95.2237 6.22155C95.6357 5.36454 96.2086 4.69693 96.9425 4.21871C97.6811 3.73575 98.5429 3.49427 99.5277 3.49427C100.096 3.49427 100.657 3.58897 101.211 3.77836C101.765 3.96776 102.269 4.27552 102.724 4.70166C103.178 5.12306 103.54 5.68177 103.81 6.3778C104.08 7.07382 104.215 7.93083 104.215 8.94882V9.65905H95.8061V8.21018H102.511C102.511 7.59465 102.388 7.04541 102.141 6.56246C101.9 6.0795 101.554 5.69835 101.104 5.41899C100.659 5.13963 100.134 4.99996 99.5277 4.99996C98.8601 4.99996 98.2824 5.16567 97.7948 5.49711C97.3118 5.82382 96.9401 6.24996 96.6797 6.77552C96.4193 7.30109 96.2891 7.86454 96.2891 8.46586V9.43177C96.2891 10.2556 96.4311 10.954 96.7152 11.5269C97.004 12.0951 97.4041 12.5284 97.9155 12.8267C98.4269 13.1202 99.0211 13.267 99.6982 13.267C100.139 13.267 100.536 13.2054 100.891 13.0823C101.251 12.9545 101.561 12.7651 101.822 12.5142C102.082 12.2585 102.283 11.9412 102.425 11.5625L104.045 12.017C103.874 12.5662 103.588 13.0492 103.185 13.4659C102.783 13.8778 102.286 14.1998 101.694 14.4318C101.102 14.659 100.437 14.7727 99.6982 14.7727ZM115.6 14.8011C114.909 14.8011 114.281 14.6709 113.718 14.4105C113.155 14.1453 112.707 13.7642 112.376 13.267C112.044 12.7651 111.879 12.159 111.879 11.4488C111.879 10.8238 112.002 10.3172 112.248 9.92893C112.494 9.53594 112.823 9.22817 113.235 9.00564C113.647 8.7831 114.102 8.61738 114.599 8.50848C115.101 8.39484 115.605 8.30488 116.112 8.23859C116.774 8.15336 117.312 8.08944 117.724 8.04683C118.14 7.99948 118.443 7.92136 118.633 7.81246C118.827 7.70355 118.924 7.51416 118.924 7.24427V7.18746C118.924 6.4867 118.732 5.94219 118.349 5.55393C117.97 5.16568 117.395 4.97155 116.623 4.97155C115.823 4.97155 115.195 5.14674 114.741 5.49711C114.286 5.84749 113.967 6.22155 113.782 6.61927L112.191 6.05109C112.475 5.38821 112.854 4.87211 113.327 4.5028C113.806 4.12874 114.326 3.86833 114.89 3.72155C115.458 3.57003 116.017 3.49427 116.566 3.49427C116.916 3.49427 117.319 3.53689 117.773 3.62211C118.233 3.70261 118.675 3.87069 119.102 4.12638C119.532 4.38206 119.89 4.76795 120.174 5.28405C120.458 5.80014 120.6 6.49143 120.6 7.35791V14.5454H118.924V13.0681H118.839C118.725 13.3049 118.536 13.5582 118.271 13.8281C118.005 14.098 117.653 14.3276 117.212 14.517C116.772 14.7064 116.235 14.8011 115.6 14.8011ZM115.856 13.2954C116.519 13.2954 117.077 13.1652 117.532 12.9048C117.991 12.6444 118.337 12.3082 118.569 11.8963C118.806 11.4843 118.924 11.0511 118.924 10.5965V9.06246C118.853 9.14768 118.697 9.22581 118.455 9.29683C118.219 9.36312 117.944 9.4223 117.631 9.47439C117.324 9.52174 117.023 9.56435 116.729 9.60223C116.441 9.63537 116.206 9.66378 116.026 9.68746C115.591 9.74427 115.183 9.8366 114.805 9.96444C114.431 10.0876 114.128 10.2746 113.896 10.5255C113.668 10.7717 113.555 11.1079 113.555 11.534C113.555 12.1164 113.77 12.5568 114.201 12.8551C114.637 13.1486 115.188 13.2954 115.856 13.2954ZM123.887 14.5454V-4.48227e-05H125.563V5.36927H125.705C125.828 5.17988 125.998 4.9384 126.216 4.64484C126.439 4.34655 126.756 4.0814 127.168 3.84939C127.585 3.61265 128.148 3.49427 128.858 3.49427C129.777 3.49427 130.587 3.72391 131.287 4.18319C131.988 4.64247 132.535 5.29352 132.928 6.13632C133.321 6.97912 133.517 7.97344 133.517 9.11927C133.517 10.2746 133.321 11.276 132.928 12.1235C132.535 12.9663 131.99 13.6197 131.294 14.0838C130.598 14.543 129.796 14.7727 128.887 14.7727C128.186 14.7727 127.625 14.6567 127.203 14.4247C126.782 14.1879 126.458 13.9204 126.23 13.6221C126.003 13.3191 125.828 13.0681 125.705 12.8693H125.506V14.5454H123.887ZM125.534 9.09086C125.534 9.91473 125.655 10.6415 125.897 11.2713C126.138 11.8963 126.491 12.3863 126.955 12.7414C127.419 13.0918 127.987 13.267 128.659 13.267C129.36 13.267 129.945 13.0823 130.414 12.713C130.887 12.339 131.242 11.8371 131.479 11.2073C131.721 10.5729 131.841 9.86738 131.841 9.09086C131.841 8.32382 131.723 7.63253 131.486 7.017C131.254 6.39674 130.901 5.90668 130.428 5.54683C129.959 5.18225 129.37 4.99996 128.659 4.99996C127.978 4.99996 127.405 5.17278 126.941 5.51842C126.477 5.85933 126.126 6.33755 125.89 6.95308C125.653 7.56388 125.534 8.27647 125.534 9.09086ZM140.513 14.7727C139.528 14.7727 138.664 14.5383 137.921 14.0696C137.182 13.6008 136.605 12.945 136.188 12.1022C135.776 11.2594 135.57 10.2746 135.57 9.14768C135.57 8.01132 135.776 7.01937 136.188 6.17183C136.605 5.32429 137.182 4.66615 137.921 4.1974C138.664 3.72865 139.528 3.49427 140.513 3.49427C141.498 3.49427 142.36 3.72865 143.098 4.1974C143.842 4.66615 144.419 5.32429 144.831 6.17183C145.248 7.01937 145.456 8.01132 145.456 9.14768C145.456 10.2746 145.248 11.2594 144.831 12.1022C144.419 12.945 143.842 13.6008 143.098 14.0696C142.36 14.5383 141.498 14.7727 140.513 14.7727ZM140.513 13.267C141.261 13.267 141.877 13.0752 142.36 12.6917C142.843 12.3082 143.2 11.8039 143.432 11.1789C143.664 10.5539 143.78 9.87685 143.78 9.14768C143.78 8.41852 143.664 7.73907 143.432 7.10933C143.2 6.4796 142.843 5.9706 142.36 5.58234C141.877 5.19408 141.261 4.99996 140.513 4.99996C139.765 4.99996 139.15 5.19408 138.667 5.58234C138.184 5.9706 137.826 6.4796 137.594 7.10933C137.362 7.73907 137.246 8.41852 137.246 9.14768C137.246 9.87685 137.362 10.5539 137.594 11.1789C137.826 11.8039 138.184 12.3082 138.667 12.6917C139.15 13.0752 139.765 13.267 140.513 13.267ZM154.89 10.0852V3.63632H156.566V14.5454H154.89V12.6988H154.776C154.521 13.2528 154.123 13.7239 153.583 14.1122C153.043 14.4957 152.362 14.6875 151.538 14.6875C150.856 14.6875 150.25 14.5383 149.719 14.24C149.189 13.937 148.773 13.4824 148.469 12.8764C148.166 12.2656 148.015 11.4962 148.015 10.5681V3.63632H149.691V10.4545C149.691 11.25 149.914 11.8844 150.359 12.3579C150.808 12.8314 151.381 13.0681 152.077 13.0681C152.494 13.0681 152.918 12.9616 153.349 12.7485C153.784 12.5355 154.149 12.2088 154.442 11.7684C154.741 11.3281 154.89 10.767 154.89 10.0852ZM164.38 3.63632V5.05677H158.727V3.63632H164.38ZM160.375 1.02268H162.051V11.4204C162.051 11.8939 162.119 12.249 162.257 12.4858C162.399 12.7178 162.579 12.874 162.797 12.9545C163.019 13.0303 163.253 13.0681 163.5 13.0681C163.684 13.0681 163.836 13.0587 163.954 13.0397C164.073 13.0161 164.167 12.9971 164.238 12.9829L164.579 14.4886C164.466 14.5312 164.307 14.5738 164.103 14.6164C163.9 14.6638 163.642 14.6875 163.329 14.6875C162.856 14.6875 162.392 14.5857 161.937 14.3821C161.487 14.1785 161.113 13.8683 160.815 13.4517C160.521 13.035 160.375 12.5094 160.375 11.875V1.02268ZM179.402 10.0852V3.63632H181.078V14.5454H179.402V12.6988H179.288C179.032 13.2528 178.635 13.7239 178.095 14.1122C177.555 14.4957 176.873 14.6875 176.049 14.6875C175.368 14.6875 174.761 14.5383 174.231 14.24C173.701 13.937 173.284 13.4824 172.981 12.8764C172.678 12.2656 172.527 11.4962 172.527 10.5681V3.63632H174.203V10.4545C174.203 11.25 174.425 11.8844 174.87 12.3579C175.32 12.8314 175.893 13.0681 176.589 13.0681C177.006 13.0681 177.43 12.9616 177.86 12.7485C178.296 12.5355 178.661 12.2088 178.954 11.7684C179.252 11.3281 179.402 10.767 179.402 10.0852ZM191.875 6.0795L190.369 6.50564C190.275 6.25469 190.135 6.01085 189.95 5.7741C189.77 5.53263 189.524 5.33376 189.212 5.17751C188.899 5.02126 188.499 4.94314 188.011 4.94314C187.344 4.94314 186.787 5.09702 186.342 5.40479C185.902 5.70782 185.682 6.09371 185.682 6.56246C185.682 6.97912 185.833 7.30819 186.136 7.54967C186.439 7.79115 186.913 7.99238 187.557 8.15336L189.176 8.55109C190.152 8.78783 190.878 9.15005 191.357 9.63774C191.835 10.1207 192.074 10.7433 192.074 11.5056C192.074 12.1306 191.894 12.6893 191.534 13.1818C191.179 13.6742 190.682 14.0625 190.043 14.3465C189.403 14.6306 188.66 14.7727 187.813 14.7727C186.7 14.7727 185.779 14.5312 185.05 14.0483C184.321 13.5653 183.859 12.8598 183.665 11.9318L185.256 11.534C185.407 12.1212 185.694 12.5615 186.115 12.8551C186.541 13.1486 187.098 13.2954 187.784 13.2954C188.565 13.2954 189.186 13.1297 189.645 12.7983C190.109 12.4621 190.341 12.0596 190.341 11.5909C190.341 11.2121 190.208 10.8948 189.943 10.6392C189.678 10.3787 189.271 10.1846 188.722 10.0568L186.903 9.63064C185.904 9.3939 185.17 9.02694 184.702 8.52979C184.238 8.02789 184.006 7.40052 184.006 6.64768C184.006 6.03215 184.179 5.48764 184.524 5.01416C184.875 4.54068 185.35 4.16899 185.952 3.8991C186.558 3.62922 187.244 3.49427 188.011 3.49427C189.091 3.49427 189.938 3.73102 190.554 4.2045C191.174 4.67799 191.615 5.30299 191.875 6.0795Z" fill="#F5F5F7"/>
<path d="M209.441 14.5454L208.347 13.4659L212.85 8.96302H201.188V7.40052H212.85L208.347 2.91189L209.441 1.81814L215.804 8.18177L209.441 14.5454Z" fill="#FF2D87"/>
</svg>
