<svg width="82" height="15" viewBox="0 0 82 15" fill="none" xmlns="http://www.w3.org/2000/svg">
<path d="M-0.000110865 14.5455V1.62125e-05H1.76125V12.983H8.52262V14.5455H-0.000110865ZM15.5965 14.7727C14.5453 14.7727 13.6386 14.5407 12.8763 14.0767C12.1187 13.608 11.534 12.9546 11.122 12.1165C10.7149 11.2737 10.5113 10.2936 10.5113 9.17615C10.5113 8.05873 10.7149 7.07388 11.122 6.22161C11.534 5.3646 12.1069 4.69699 12.8408 4.21877C13.5794 3.73581 14.4412 3.49433 15.426 3.49433C15.9942 3.49433 16.5553 3.58903 17.1093 3.77842C17.6632 3.96782 18.1675 4.27558 18.622 4.70172C19.0766 5.12312 19.4388 5.68183 19.7087 6.37786C19.9786 7.07388 20.1135 7.93089 20.1135 8.94888V9.65911H11.7044V8.21024H18.409C18.409 7.59471 18.2859 7.04547 18.0397 6.56252C17.7982 6.07956 17.4525 5.69841 17.0027 5.41905C16.5577 5.13969 16.0321 5.00002 15.426 5.00002C14.7584 5.00002 14.1808 5.16574 13.6931 5.49718C13.2101 5.82388 12.8384 6.25002 12.578 6.77558C12.3176 7.30115 12.1874 7.8646 12.1874 8.46593V9.43183C12.1874 10.2557 12.3294 10.9541 12.6135 11.527C12.9024 12.0952 13.3024 12.5284 13.8138 12.8267C14.3252 13.1203 14.9194 13.2671 15.5965 13.2671C16.0368 13.2671 16.4345 13.2055 16.7897 13.0824C17.1495 12.9546 17.4596 12.7652 17.7201 12.5142C17.9805 12.2585 18.1817 11.9413 18.3238 11.5625L19.9431 12.0171C19.7726 12.5663 19.4862 13.0493 19.0837 13.4659C18.6812 13.8779 18.1841 14.1998 17.5922 14.4318C17.0004 14.6591 16.3351 14.7727 15.5965 14.7727ZM27.4076 3.63638V5.05683H21.7542V3.63638H27.4076ZM23.4019 1.02274H25.078V11.4205C25.078 11.894 25.1467 12.2491 25.284 12.4858C25.426 12.7178 25.6059 12.8741 25.8238 12.9546C26.0463 13.0303 26.2807 13.0682 26.5269 13.0682C26.7115 13.0682 26.8631 13.0587 26.9814 13.0398C27.0998 13.0161 27.1945 12.9972 27.2655 12.983L27.6064 14.4887C27.4928 14.5313 27.3342 14.5739 27.1306 14.6165C26.927 14.6638 26.6689 14.6875 26.3564 14.6875C25.8829 14.6875 25.4189 14.5857 24.9644 14.3821C24.5146 14.1785 24.1405 13.8684 23.8422 13.4517C23.5487 13.0351 23.4019 12.5095 23.4019 11.875V1.02274ZM31.9725 1.62125e-05V1.27842C31.9725 1.66668 31.9015 2.08098 31.7595 2.52132C31.6222 2.95693 31.4186 3.3807 31.1487 3.79263C30.8835 4.19983 30.5616 4.55494 30.1828 4.85797L29.2737 4.11933C29.572 3.6932 29.83 3.25049 30.0478 2.79121C30.2704 2.32719 30.3816 1.8324 30.3816 1.30683V1.62125e-05H31.9725ZM40.371 6.07956L38.8653 6.5057C38.7706 6.25475 38.6309 6.01091 38.4463 5.77416C38.2663 5.53269 38.0201 5.33382 37.7076 5.17757C37.3951 5.02132 36.995 4.9432 36.5073 4.9432C35.8397 4.9432 35.2834 5.09708 34.8383 5.40485C34.398 5.70788 34.1778 6.09377 34.1778 6.56252C34.1778 6.97918 34.3293 7.30825 34.6323 7.54973C34.9354 7.79121 35.4089 7.99244 36.0528 8.15343L37.6721 8.55115C38.6475 8.7879 39.3743 9.15011 39.8525 9.6378C40.3307 10.1208 40.5698 10.7434 40.5698 11.5057C40.5698 12.1307 40.3899 12.6894 40.0301 13.1818C39.675 13.6743 39.1778 14.0625 38.5386 14.3466C37.8994 14.6307 37.156 14.7727 36.3085 14.7727C35.1958 14.7727 34.2749 14.5313 33.5457 14.0483C32.8165 13.5654 32.3549 12.8599 32.1608 11.9318L33.7517 11.5341C33.9032 12.1212 34.1896 12.5616 34.611 12.8551C35.0372 13.1487 35.5935 13.2955 36.2801 13.2955C37.0613 13.2955 37.6816 13.1298 38.1409 12.7983C38.6049 12.4621 38.8369 12.0597 38.8369 11.5909C38.8369 11.2121 38.7043 10.8949 38.4392 10.6392C38.174 10.3788 37.7668 10.1847 37.2176 10.0568L35.3994 9.6307C34.4003 9.39396 33.6664 9.02701 33.1977 8.52985C32.7337 8.02795 32.5017 7.40058 32.5017 6.64774C32.5017 6.03221 32.6745 5.48771 33.0201 5.01422C33.3705 4.54074 33.8464 4.16905 34.4477 3.89916C35.0537 3.62928 35.7403 3.49433 36.5073 3.49433C37.5869 3.49433 38.4344 3.73108 39.05 4.20456C39.6702 4.67805 40.1106 5.30305 40.371 6.07956ZM53.4622 3.63638V5.05683H47.8088V3.63638H53.4622ZM49.4566 1.02274H51.1327V11.4205C51.1327 11.894 51.2014 12.2491 51.3387 12.4858C51.4807 12.7178 51.6606 12.8741 51.8784 12.9546C52.101 13.0303 52.3354 13.0682 52.5816 13.0682C52.7662 13.0682 52.9177 13.0587 53.0361 13.0398C53.1545 13.0161 53.2492 12.9972 53.3202 12.983L53.6611 14.4887C53.5475 14.5313 53.3889 14.5739 53.1853 14.6165C52.9817 14.6638 52.7236 14.6875 52.4111 14.6875C51.9376 14.6875 51.4736 14.5857 51.0191 14.3821C50.5693 14.1785 50.1952 13.8684 49.8969 13.4517C49.6033 13.0351 49.4566 12.5095 49.4566 11.875V1.02274ZM59.1938 14.8012C58.5025 14.8012 57.8751 14.6709 57.3117 14.4105C56.7482 14.1454 56.3008 13.7642 55.9693 13.2671C55.6379 12.7652 55.4722 12.1591 55.4722 11.4489C55.4722 10.8239 55.5953 10.3173 55.8415 9.92899C56.0877 9.536 56.4168 9.22824 56.8287 9.0057C57.2407 8.78316 57.6952 8.61744 58.1924 8.50854C58.6943 8.3949 59.1985 8.30494 59.7051 8.23865C60.368 8.15343 60.9054 8.0895 61.3174 8.04689C61.734 7.99954 62.0371 7.92142 62.2265 7.81252C62.4206 7.70361 62.5176 7.51422 62.5176 7.24433V7.18752C62.5176 6.48676 62.3259 5.94225 61.9424 5.55399C61.5636 5.16574 60.9883 4.97161 60.2165 4.97161C59.4163 4.97161 58.789 5.1468 58.3344 5.49718C57.8799 5.84755 57.5603 6.22161 57.3756 6.61933L55.7847 6.05115C56.0688 5.38827 56.4476 4.87218 56.9211 4.50286C57.3993 4.1288 57.9201 3.86839 58.4836 3.72161C59.0517 3.57009 59.6104 3.49433 60.1597 3.49433C60.5101 3.49433 60.9125 3.53695 61.3671 3.62217C61.8264 3.70267 62.2691 3.87075 62.6952 4.12644C63.1261 4.38212 63.4836 4.76801 63.7676 5.28411C64.0517 5.80021 64.1938 6.49149 64.1938 7.35797V14.5455H62.5176V13.0682H62.4324C62.3188 13.3049 62.1294 13.5583 61.8642 13.8281C61.5991 14.098 61.2463 14.3277 60.806 14.5171C60.3657 14.7065 59.8283 14.8012 59.1938 14.8012ZM59.4495 13.2955C60.1123 13.2955 60.6711 13.1653 61.1256 12.9048C61.5849 12.6444 61.9305 12.3083 62.1625 11.8963C62.3993 11.4844 62.5176 11.0512 62.5176 10.5966V9.06252C62.4466 9.14774 62.2904 9.22587 62.0489 9.29689C61.8122 9.36318 61.5375 9.42236 61.225 9.47445C60.9173 9.5218 60.6166 9.56441 60.323 9.60229C60.0342 9.63543 59.7998 9.66384 59.6199 9.68752C59.1843 9.74433 58.7771 9.83666 58.3983 9.96451C58.0243 10.0876 57.7212 10.2746 57.4892 10.5256C57.262 10.7718 57.1483 11.108 57.1483 11.5341C57.1483 12.1165 57.3638 12.5568 57.7946 12.8551C58.2302 13.1487 58.7818 13.2955 59.4495 13.2955ZM68.9292 1.62125e-05V14.5455H67.2531V1.62125e-05H68.9292ZM73.5617 10.5682L73.5333 8.49433H73.8742L78.6469 3.63638H80.7208L75.6355 8.77843H75.4935L73.5617 10.5682ZM71.9992 14.5455V1.62125e-05H73.6753V14.5455H71.9992ZM78.931 14.5455L74.6696 9.14774L75.8628 7.98297L81.0617 14.5455H78.931Z" fill="#F5F5F7"/>
</svg>
