<svg width="517" height="28" viewBox="0 0 517 28" fill="none" xmlns="http://www.w3.org/2000/svg">
<path d="M2.58519 21.3182H-3.32445e-05L7.47724 0.954539H10.0227L17.5 21.3182H14.9147L8.82951 4.17613H8.67042L2.58519 21.3182ZM3.53974 13.3636H13.9602V15.5511H3.53974V13.3636ZM20.3537 27.0454V6.04545H22.6207V8.47158H22.8991C23.0715 8.20643 23.3101 7.86837 23.615 7.45738C23.9266 7.03977 24.3707 6.66856 24.9474 6.34374C25.5307 6.01231 26.3196 5.84659 27.3139 5.84659C28.5999 5.84659 29.7334 6.16808 30.7145 6.81107C31.6955 7.45407 32.4611 8.36552 33.0113 9.54545C33.5615 10.7254 33.8366 12.1174 33.8366 13.7216C33.8366 15.339 33.5615 16.741 33.0113 17.9276C32.4611 19.1075 31.6988 20.0222 30.7244 20.6719C29.75 21.3149 28.6264 21.6364 27.3537 21.6364C26.3726 21.6364 25.5871 21.474 24.9971 21.1491C24.4072 20.8177 23.9531 20.4432 23.6349 20.0256C23.3167 19.6013 23.0715 19.25 22.8991 18.9716H22.7003V27.0454H20.3537ZM22.6605 13.6818C22.6605 14.8352 22.8295 15.8527 23.1676 16.7344C23.5056 17.6094 23.9995 18.2954 24.6491 18.7926C25.2987 19.2831 26.0942 19.5284 27.0355 19.5284C28.0165 19.5284 28.8352 19.2699 29.4914 18.7528C30.1543 18.2292 30.6515 17.5265 30.9829 16.6449C31.321 15.7566 31.49 14.7689 31.49 13.6818C31.49 12.6079 31.3243 11.6401 30.9929 10.7784C30.6681 9.91003 30.1742 9.22395 29.5113 8.72016C28.8551 8.20975 28.0298 7.95454 27.0355 7.95454C26.0809 7.95454 25.2788 8.19649 24.6292 8.68039C23.9796 9.15766 23.4891 9.82717 23.1576 10.6889C22.8262 11.544 22.6605 12.5417 22.6605 13.6818ZM37.4162 27.0454V6.04545H39.6832V8.47158H39.9616C40.134 8.20643 40.3726 7.86837 40.6775 7.45738C40.9891 7.03977 41.4332 6.66856 42.0099 6.34374C42.5932 6.01231 43.3821 5.84659 44.3764 5.84659C45.6624 5.84659 46.7959 6.16808 47.777 6.81107C48.758 7.45407 49.5236 8.36552 50.0738 9.54545C50.624 10.7254 50.8991 12.1174 50.8991 13.7216C50.8991 15.339 50.624 16.741 50.0738 17.9276C49.5236 19.1075 48.7613 20.0222 47.7869 20.6719C46.8125 21.3149 45.6889 21.6364 44.4162 21.6364C43.4351 21.6364 42.6496 21.474 42.0596 21.1491C41.4697 20.8177 41.0156 20.4432 40.6974 20.0256C40.3792 19.6013 40.134 19.25 39.9616 18.9716H39.7628V27.0454H37.4162ZM39.723 13.6818C39.723 14.8352 39.892 15.8527 40.2301 16.7344C40.5681 17.6094 41.062 18.2954 41.7116 18.7926C42.3612 19.2831 43.1567 19.5284 44.098 19.5284C45.079 19.5284 45.8977 19.2699 46.5539 18.7528C47.2168 18.2292 47.714 17.5265 48.0454 16.6449C48.3835 15.7566 48.5525 14.7689 48.5525 13.6818C48.5525 12.6079 48.3868 11.6401 48.0554 10.7784C47.7306 9.91003 47.2367 9.22395 46.5738 8.72016C45.9176 8.20975 45.0923 7.95454 44.098 7.95454C43.1434 7.95454 42.3413 8.19649 41.6917 8.68039C41.0421 9.15766 40.5516 9.82717 40.2201 10.6889C39.8887 11.544 39.723 12.5417 39.723 13.6818ZM56.8253 0.954539V21.3182H54.4787V0.954539H56.8253ZM62.6346 27.0454C62.2368 27.0454 61.8822 27.0123 61.5706 26.946C61.2591 26.8864 61.0436 26.8267 60.9243 26.767L61.5209 24.6989C62.091 24.8447 62.5948 24.8977 63.0323 24.8579C63.4698 24.8182 63.8576 24.6226 64.1956 24.2713C64.5403 23.9266 64.8552 23.3665 65.1402 22.5909L65.5777 21.3977L59.93 6.04545H62.4755L66.6914 18.2159H66.8505L71.0664 6.04545H73.6118L67.1289 23.5454C66.8372 24.3343 66.4759 24.9872 66.0451 25.5043C65.6142 26.0279 65.1137 26.4157 64.5436 26.6676C63.9802 26.9195 63.3438 27.0454 62.6346 27.0454ZM86.9307 12.1307V21.3182H84.5841V6.04545H86.8512V8.43181H87.05C87.408 7.65624 87.9516 7.03314 88.6807 6.56249C89.4099 6.08522 90.3512 5.84659 91.5046 5.84659C92.5387 5.84659 93.4435 6.05871 94.2191 6.48295C94.9946 6.90056 95.5979 7.53693 96.0287 8.39204C96.4596 9.24052 96.675 10.3144 96.675 11.6136V21.3182H94.3284V11.7727C94.3284 10.5729 94.0169 9.63825 93.3938 8.96874C92.7707 8.29261 91.9156 7.95454 90.8284 7.95454C90.0794 7.95454 89.4099 8.11694 88.8199 8.44176C88.2366 8.76657 87.7759 9.24052 87.4378 9.86363C87.0998 10.4867 86.9307 11.2424 86.9307 12.1307ZM107.168 21.6364C105.789 21.6364 104.579 21.3082 103.538 20.652C102.504 19.9957 101.696 19.0776 101.112 17.8977C100.535 16.7178 100.247 15.339 100.247 13.7614C100.247 12.1704 100.535 10.7817 101.112 9.59516C101.696 8.40861 102.504 7.48721 103.538 6.83096C104.579 6.17471 105.789 5.84659 107.168 5.84659C108.546 5.84659 109.753 6.17471 110.787 6.83096C111.828 7.48721 112.636 8.40861 113.213 9.59516C113.796 10.7817 114.088 12.1704 114.088 13.7614C114.088 15.339 113.796 16.7178 113.213 17.8977C112.636 19.0776 111.828 19.9957 110.787 20.652C109.753 21.3082 108.546 21.6364 107.168 21.6364ZM107.168 19.5284C108.215 19.5284 109.077 19.2599 109.753 18.723C110.429 18.1861 110.929 17.4801 111.254 16.6051C111.579 15.7301 111.741 14.7822 111.741 13.7614C111.741 12.7405 111.579 11.7893 111.254 10.9077C110.929 10.026 110.429 9.31344 109.753 8.76988C109.077 8.22632 108.215 7.95454 107.168 7.95454C106.12 7.95454 105.258 8.22632 104.582 8.76988C103.906 9.31344 103.406 10.026 103.081 10.9077C102.756 11.7893 102.594 12.7405 102.594 13.7614C102.594 14.7822 102.756 15.7301 103.081 16.6051C103.406 17.4801 103.906 18.1861 104.582 18.723C105.258 19.2599 106.12 19.5284 107.168 19.5284ZM120.611 21.3182L115.957 6.04545H118.423L121.724 17.7386H121.883L125.145 6.04545H127.651L130.872 17.6989H131.031L134.332 6.04545H136.798L132.145 21.3182H129.838L126.497 9.58522H126.258L122.918 21.3182H120.611ZM141.322 18.5341L141.163 19.6079C141.051 20.3636 140.878 21.1723 140.646 22.0341C140.421 22.8958 140.186 23.7079 139.94 24.4702C139.695 25.2325 139.493 25.839 139.334 26.2898H137.544C137.63 25.8655 137.743 25.3054 137.882 24.6094C138.021 23.9133 138.16 23.1345 138.3 22.2727C138.446 21.4176 138.565 20.5426 138.658 19.6477L138.777 18.5341H141.322ZM158.039 21.6761C157.072 21.6761 156.193 21.4938 155.404 21.1293C154.616 20.758 153.989 20.2244 153.525 19.5284C153.061 18.8258 152.829 17.9773 152.829 16.9829C152.829 16.1079 153.002 15.3987 153.346 14.8551C153.691 14.3049 154.152 13.874 154.728 13.5625C155.305 13.2509 155.941 13.0189 156.637 12.8665C157.34 12.7074 158.046 12.5814 158.755 12.4886C159.683 12.3693 160.436 12.2798 161.012 12.2202C161.596 12.1539 162.02 12.0445 162.285 11.892C162.557 11.7396 162.693 11.4744 162.693 11.0966V11.017C162.693 10.036 162.424 9.27367 161.887 8.73011C161.357 8.18655 160.552 7.91477 159.471 7.91477C158.351 7.91477 157.473 8.16003 156.836 8.65056C156.2 9.14109 155.752 9.66477 155.494 10.2216L153.267 9.42613C153.664 8.4981 154.195 7.77556 154.858 7.25852C155.527 6.73484 156.256 6.37026 157.045 6.16477C157.841 5.95265 158.623 5.84659 159.392 5.84659C159.882 5.84659 160.446 5.90624 161.082 6.02556C161.725 6.13825 162.345 6.37357 162.941 6.73153C163.545 7.08948 164.045 7.62973 164.443 8.35227C164.841 9.0748 165.039 10.0426 165.039 11.2557V21.3182H162.693V19.25H162.573C162.414 19.5814 162.149 19.9361 161.778 20.3139C161.407 20.6918 160.913 21.0133 160.296 21.2784C159.68 21.5436 158.928 21.6761 158.039 21.6761ZM158.397 19.5682C159.325 19.5682 160.108 19.3859 160.744 19.0213C161.387 18.6567 161.871 18.1861 162.196 17.6094C162.527 17.0327 162.693 16.4261 162.693 15.7898V13.642C162.593 13.7614 162.375 13.8707 162.037 13.9702C161.705 14.063 161.321 14.1458 160.883 14.2187C160.452 14.285 160.031 14.3447 159.62 14.3977C159.216 14.4441 158.888 14.4839 158.636 14.517C158.026 14.5966 157.456 14.7258 156.926 14.9048C156.402 15.0772 155.978 15.339 155.653 15.6903C155.335 16.035 155.176 16.5057 155.176 17.1023C155.176 17.9176 155.477 18.5341 156.081 18.9517C156.69 19.3627 157.463 19.5682 158.397 19.5682ZM171.669 12.1307V21.3182H169.322V6.04545H171.589V8.43181H171.788C172.146 7.65624 172.69 7.03314 173.419 6.56249C174.148 6.08522 175.089 5.84659 176.243 5.84659C177.277 5.84659 178.182 6.05871 178.957 6.48295C179.733 6.90056 180.336 7.53693 180.767 8.39204C181.198 9.24052 181.413 10.3144 181.413 11.6136V21.3182H179.067V11.7727C179.067 10.5729 178.755 9.63825 178.132 8.96874C177.509 8.29261 176.654 7.95454 175.567 7.95454C174.818 7.95454 174.148 8.11694 173.558 8.44176C172.975 8.76657 172.514 9.24052 172.176 9.86363C171.838 10.4867 171.669 11.2424 171.669 12.1307ZM191.468 21.6364C190.196 21.6364 189.072 21.3149 188.098 20.6719C187.123 20.0222 186.361 19.1075 185.811 17.9276C185.261 16.741 184.985 15.339 184.985 13.7216C184.985 12.1174 185.261 10.7254 185.811 9.54545C186.361 8.36552 187.127 7.45407 188.108 6.81107C189.089 6.16808 190.222 5.84659 191.508 5.84659C192.502 5.84659 193.288 6.01231 193.865 6.34374C194.448 6.66856 194.892 7.03977 195.197 7.45738C195.509 7.86837 195.751 8.20643 195.923 8.47158H196.122V0.954539H198.468V21.3182H196.201V18.9716H195.923C195.751 19.25 195.505 19.6013 195.187 20.0256C194.869 20.4432 194.415 20.8177 193.825 21.1491C193.235 21.474 192.449 21.6364 191.468 21.6364ZM191.787 19.5284C192.728 19.5284 193.523 19.2831 194.173 18.7926C194.823 18.2954 195.316 17.6094 195.654 16.7344C195.993 15.8527 196.162 14.8352 196.162 13.6818C196.162 12.5417 195.996 11.544 195.664 10.6889C195.333 9.82717 194.842 9.15766 194.193 8.68039C193.543 8.19649 192.741 7.95454 191.787 7.95454C190.792 7.95454 189.964 8.20975 189.301 8.72016C188.644 9.22395 188.151 9.91003 187.819 10.7784C187.494 11.6401 187.332 12.6079 187.332 13.6818C187.332 14.7689 187.498 15.7566 187.829 16.6449C188.167 17.5265 188.664 18.2292 189.321 18.7528C189.984 19.2699 190.805 19.5284 191.787 19.5284Z" fill="#F5F5F7"/>
<path d="M213.314 0.954539V21.3182H210.967V0.954539H213.314ZM224.015 21.6364C222.543 21.6364 221.274 21.3115 220.207 20.6619C219.146 20.0057 218.327 19.0909 217.751 17.9176C217.181 16.7377 216.896 15.3655 216.896 13.8011C216.896 12.2367 217.181 10.8579 217.751 9.66477C218.327 8.46496 219.129 7.5303 220.157 6.86079C221.191 6.18465 222.397 5.84659 223.776 5.84659C224.572 5.84659 225.357 5.97916 226.133 6.24431C226.908 6.50946 227.614 6.94033 228.251 7.53693C228.887 8.12689 229.394 8.90908 229.772 9.88352C230.15 10.8579 230.339 12.0578 230.339 13.4829V14.4773H218.566V12.4489H227.952C227.952 11.5871 227.78 10.8182 227.435 10.142C227.097 9.4659 226.613 8.93229 225.984 8.54119C225.361 8.15009 224.625 7.95454 223.776 7.95454C222.842 7.95454 222.033 8.18655 221.35 8.65056C220.674 9.10795 220.154 9.70454 219.789 10.4403C219.424 11.1761 219.242 11.965 219.242 12.8068V14.1591C219.242 15.3125 219.441 16.2902 219.839 17.0923C220.243 17.8878 220.803 18.4943 221.519 18.9119C222.235 19.3229 223.067 19.5284 224.015 19.5284C224.631 19.5284 225.188 19.4422 225.685 19.2699C226.189 19.0909 226.623 18.8258 226.988 18.4744C227.352 18.1165 227.634 17.6723 227.833 17.142L230.1 17.7784C229.861 18.5473 229.46 19.2235 228.897 19.8068C228.334 20.3835 227.638 20.8343 226.809 21.1591C225.98 21.4773 225.049 21.6364 224.015 21.6364ZM240.55 6.04545V8.03408H232.636V6.04545H240.55ZM234.942 2.38636H237.289V16.9432C237.289 17.6061 237.385 18.1032 237.577 18.4347C237.776 18.7595 238.028 18.9782 238.333 19.0909C238.645 19.197 238.973 19.25 239.317 19.25C239.576 19.25 239.788 19.2367 239.954 19.2102C240.12 19.1771 240.252 19.1506 240.352 19.1307L240.829 21.2386C240.67 21.2983 240.448 21.3579 240.163 21.4176C239.878 21.4839 239.516 21.517 239.079 21.517C238.416 21.517 237.766 21.3745 237.13 21.0895C236.5 20.8044 235.977 20.3703 235.559 19.7869C235.148 19.2036 234.942 18.4678 234.942 17.5795V2.38636ZM246.109 0.954539V7.95454H243.921V0.954539H246.109ZM261.105 9.4659L258.997 10.0625C258.865 9.71117 258.669 9.36979 258.411 9.03835C258.159 8.70028 257.814 8.42187 257.377 8.20312C256.939 7.98437 256.379 7.87499 255.696 7.87499C254.762 7.87499 253.983 8.09043 253.36 8.5213C252.743 8.94554 252.435 9.48579 252.435 10.142C252.435 10.7254 252.647 11.1861 253.071 11.5241C253.496 11.8622 254.158 12.1439 255.06 12.3693L257.327 12.9261C258.693 13.2576 259.71 13.7647 260.38 14.4474C261.049 15.1236 261.384 15.9953 261.384 17.0625C261.384 17.9375 261.132 18.7197 260.628 19.4091C260.131 20.0985 259.435 20.642 258.54 21.0398C257.645 21.4375 256.604 21.6364 255.418 21.6364C253.86 21.6364 252.571 21.2983 251.55 20.6222C250.529 19.946 249.883 18.9583 249.611 17.6591L251.838 17.1023C252.051 17.9242 252.452 18.5407 253.042 18.9517C253.638 19.3627 254.417 19.5682 255.378 19.5682C256.472 19.5682 257.34 19.3362 257.983 18.8722C258.633 18.4015 258.958 17.8381 258.958 17.1818C258.958 16.6515 258.772 16.2074 258.401 15.8494C258.03 15.4848 257.46 15.2131 256.691 15.0341L254.145 14.4375C252.747 14.1061 251.719 13.5923 251.063 12.8963C250.413 12.1936 250.088 11.3153 250.088 10.2614C250.088 9.39962 250.33 8.6373 250.814 7.97443C251.305 7.31155 251.971 6.79119 252.813 6.41335C253.661 6.03551 254.622 5.84659 255.696 5.84659C257.208 5.84659 258.394 6.17802 259.256 6.8409C260.124 7.50378 260.741 8.37878 261.105 9.4659ZM273.945 21.3182H271.359L278.837 0.954539H281.382L288.859 21.3182H286.274L280.189 4.17613H280.03L273.945 21.3182ZM274.899 13.3636H285.32V15.5511H274.899V13.3636ZM291.713 21.3182V6.04545H293.98V8.43181H294.179C294.497 7.61647 295.011 6.98342 295.72 6.53266C296.429 6.07528 297.281 5.84659 298.276 5.84659C299.283 5.84659 300.122 6.07528 300.791 6.53266C301.467 6.98342 301.994 7.61647 302.372 8.43181H302.531C302.922 7.64299 303.509 7.01657 304.291 6.55255C305.073 6.08191 306.011 5.84659 307.105 5.84659C308.471 5.84659 309.588 6.27414 310.456 7.12926C311.324 7.97774 311.758 9.30018 311.758 11.0966V21.3182H309.412V11.0966C309.412 9.96969 309.104 9.16429 308.487 8.68039C307.871 8.19649 307.145 7.95454 306.31 7.95454C305.236 7.95454 304.404 8.27935 303.814 8.92897C303.224 9.57196 302.929 10.3873 302.929 11.375V21.3182H300.543V10.8579C300.543 9.98958 300.261 9.29024 299.697 8.75994C299.134 8.22301 298.408 7.95454 297.52 7.95454C296.91 7.95454 296.34 8.11694 295.81 8.44176C295.286 8.76657 294.862 9.21732 294.537 9.79403C294.219 10.3641 294.06 11.0237 294.06 11.7727V21.3182H291.713ZM316.049 27.0454V6.04545H318.316V8.47158H318.594C318.767 8.20643 319.005 7.86837 319.31 7.45738C319.622 7.03977 320.066 6.66856 320.643 6.34374C321.226 6.01231 322.015 5.84659 323.009 5.84659C324.295 5.84659 325.429 6.16808 326.41 6.81107C327.391 7.45407 328.156 8.36552 328.707 9.54545C329.257 10.7254 329.532 12.1174 329.532 13.7216C329.532 15.339 329.257 16.741 328.707 17.9276C328.156 19.1075 327.394 20.0222 326.42 20.6719C325.445 21.3149 324.322 21.6364 323.049 21.6364C322.068 21.6364 321.282 21.474 320.692 21.1491C320.102 20.8177 319.648 20.4432 319.33 20.0256C319.012 19.6013 318.767 19.25 318.594 18.9716H318.396V27.0454H316.049ZM318.356 13.6818C318.356 14.8352 318.525 15.8527 318.863 16.7344C319.201 17.6094 319.695 18.2954 320.344 18.7926C320.994 19.2831 321.79 19.5284 322.731 19.5284C323.712 19.5284 324.531 19.2699 325.187 18.7528C325.85 18.2292 326.347 17.5265 326.678 16.6449C327.016 15.7566 327.185 14.7689 327.185 13.6818C327.185 12.6079 327.02 11.6401 326.688 10.7784C326.363 9.91003 325.87 9.22395 325.207 8.72016C324.55 8.20975 323.725 7.95454 322.731 7.95454C321.776 7.95454 320.974 8.19649 320.325 8.68039C319.675 9.15766 319.184 9.82717 318.853 10.6889C318.522 11.544 318.356 12.5417 318.356 13.6818ZM335.458 0.954539V21.3182H333.111V0.954539H335.458ZM339.756 21.3182V6.04545H342.103V21.3182H339.756ZM340.949 3.49999C340.492 3.49999 340.097 3.34422 339.766 3.03266C339.441 2.72111 339.279 2.34659 339.279 1.90909C339.279 1.47159 339.441 1.09706 339.766 0.785505C340.097 0.473953 340.492 0.318176 340.949 0.318176C341.407 0.318176 341.798 0.473953 342.122 0.785505C342.454 1.09706 342.62 1.47159 342.62 1.90909C342.62 2.34659 342.454 2.72111 342.122 3.03266C341.798 3.34422 341.407 3.49999 340.949 3.49999ZM353.202 6.04545V8.03408H344.969V6.04545H353.202ZM347.435 21.3182V3.93749C347.435 3.06249 347.64 2.33333 348.051 1.74999C348.462 1.16666 348.996 0.72916 349.652 0.437493C350.308 0.145826 351.001 -6.91414e-06 351.73 -6.91414e-06C352.307 -6.91414e-06 352.777 0.0463949 353.142 0.139199C353.507 0.232001 353.778 0.318175 353.957 0.397721L353.281 2.42613C353.162 2.38636 352.996 2.33664 352.784 2.27698C352.579 2.21732 352.307 2.18749 351.969 2.18749C351.193 2.18749 350.633 2.38304 350.288 2.77414C349.95 3.16524 349.781 3.73863 349.781 4.49431V21.3182H347.435ZM358.002 27.0454C357.604 27.0454 357.249 27.0123 356.938 26.946C356.626 26.8864 356.411 26.8267 356.292 26.767L356.888 24.6989C357.458 24.8447 357.962 24.8977 358.399 24.8579C358.837 24.8182 359.225 24.6226 359.563 24.2713C359.908 23.9266 360.222 23.3665 360.507 22.5909L360.945 21.3977L355.297 6.04545H357.843L362.059 18.2159H362.218L366.434 6.04545H368.979L362.496 23.5454C362.204 24.3343 361.843 24.9872 361.412 25.5043C360.981 26.0279 360.481 26.4157 359.911 26.6676C359.347 26.9195 358.711 27.0454 358.002 27.0454ZM381.463 27.0454C381.065 27.0454 380.71 27.0123 380.399 26.946C380.087 26.8864 379.872 26.8267 379.752 26.767L380.349 24.6989C380.919 24.8447 381.423 24.8977 381.86 24.8579C382.298 24.8182 382.686 24.6226 383.024 24.2713C383.368 23.9266 383.683 23.3665 383.968 22.5909L384.406 21.3977L378.758 6.04545H381.304L385.519 18.2159H385.679L389.894 6.04545H392.44L385.957 23.5454C385.665 24.3343 385.304 24.9872 384.873 25.5043C384.442 26.0279 383.942 26.4157 383.372 26.6676C382.808 26.9195 382.172 27.0454 381.463 27.0454ZM401.195 21.6364C399.816 21.6364 398.606 21.3082 397.566 20.652C396.532 19.9957 395.723 19.0776 395.14 17.8977C394.563 16.7178 394.274 15.339 394.274 13.7614C394.274 12.1704 394.563 10.7817 395.14 9.59516C395.723 8.40861 396.532 7.48721 397.566 6.83096C398.606 6.17471 399.816 5.84659 401.195 5.84659C402.574 5.84659 403.78 6.17471 404.814 6.83096C405.855 7.48721 406.664 8.40861 407.24 9.59516C407.824 10.7817 408.115 12.1704 408.115 13.7614C408.115 15.339 407.824 16.7178 407.24 17.8977C406.664 19.0776 405.855 19.9957 404.814 20.652C403.78 21.3082 402.574 21.6364 401.195 21.6364ZM401.195 19.5284C402.242 19.5284 403.104 19.2599 403.78 18.723C404.456 18.1861 404.957 17.4801 405.282 16.6051C405.606 15.7301 405.769 14.7822 405.769 13.7614C405.769 12.7405 405.606 11.7893 405.282 10.9077C404.957 10.026 404.456 9.31344 403.78 8.76988C403.104 8.22632 402.242 7.95454 401.195 7.95454C400.148 7.95454 399.286 8.22632 398.61 8.76988C397.934 9.31344 397.433 10.026 397.108 10.9077C396.783 11.7893 396.621 12.7405 396.621 13.7614C396.621 14.7822 396.783 15.7301 397.108 16.6051C397.433 17.4801 397.934 18.1861 398.61 18.723C399.286 19.2599 400.148 19.5284 401.195 19.5284ZM421.322 15.0739V6.04545H423.669V21.3182H421.322V18.7329H421.163C420.805 19.5085 420.249 20.1681 419.493 20.7116C418.737 21.2486 417.783 21.517 416.629 21.517C415.675 21.517 414.826 21.3082 414.084 20.8906C413.341 20.4664 412.758 19.83 412.334 18.9815C411.91 18.1264 411.697 17.0492 411.697 15.75V6.04545H414.044V15.5909C414.044 16.7045 414.356 17.5928 414.979 18.2557C415.608 18.9186 416.41 19.25 417.385 19.25C417.968 19.25 418.562 19.1008 419.165 18.8026C419.775 18.5043 420.285 18.0469 420.696 17.4304C421.114 16.8139 421.322 16.0284 421.322 15.0739ZM427.967 21.3182V6.04545H430.234V8.35227H430.393C430.671 7.59659 431.175 6.98342 431.904 6.51278C432.634 6.04213 433.456 5.80681 434.37 5.80681C434.543 5.80681 434.758 5.81013 435.017 5.81676C435.275 5.82338 435.471 5.83333 435.603 5.84659V8.23295C435.524 8.21306 435.341 8.18323 435.056 8.14346C434.778 8.09706 434.483 8.07386 434.171 8.07386C433.429 8.07386 432.766 8.22963 432.183 8.54119C431.606 8.84611 431.149 9.27035 430.811 9.81391C430.479 10.3508 430.314 10.964 430.314 11.6534V21.3182H427.967ZM457.078 9.4659L454.97 10.0625C454.838 9.71117 454.642 9.36979 454.383 9.03835C454.132 8.70028 453.787 8.42187 453.349 8.20312C452.912 7.98437 452.352 7.87499 451.669 7.87499C450.734 7.87499 449.955 8.09043 449.332 8.5213C448.716 8.94554 448.408 9.48579 448.408 10.142C448.408 10.7254 448.62 11.1861 449.044 11.5241C449.468 11.8622 450.131 12.1439 451.033 12.3693L453.3 12.9261C454.665 13.2576 455.683 13.7647 456.352 14.4474C457.022 15.1236 457.357 15.9953 457.357 17.0625C457.357 17.9375 457.105 18.7197 456.601 19.4091C456.104 20.0985 455.408 20.642 454.513 21.0398C453.618 21.4375 452.577 21.6364 451.391 21.6364C449.833 21.6364 448.544 21.2983 447.523 20.6222C446.502 19.946 445.856 18.9583 445.584 17.6591L447.811 17.1023C448.023 17.9242 448.424 18.5407 449.014 18.9517C449.611 19.3627 450.39 19.5682 451.351 19.5682C452.445 19.5682 453.313 19.3362 453.956 18.8722C454.606 18.4015 454.93 17.8381 454.93 17.1818C454.93 16.6515 454.745 16.2074 454.374 15.8494C454.002 15.4848 453.432 15.2131 452.663 15.0341L450.118 14.4375C448.719 14.1061 447.692 13.5923 447.035 12.8963C446.386 12.1936 446.061 11.3153 446.061 10.2614C446.061 9.39962 446.303 8.6373 446.787 7.97443C447.277 7.31155 447.944 6.79119 448.785 6.41335C449.634 6.03551 450.595 5.84659 451.669 5.84659C453.18 5.84659 454.367 6.17802 455.229 6.8409C456.097 7.50378 456.714 8.37878 457.078 9.4659ZM467.531 6.04545V8.03408H459.616V6.04545H467.531ZM461.923 2.38636H464.269V16.9432C464.269 17.6061 464.366 18.1032 464.558 18.4347C464.757 18.7595 465.009 18.9782 465.314 19.0909C465.625 19.197 465.953 19.25 466.298 19.25C466.556 19.25 466.769 19.2367 466.934 19.2102C467.1 19.1771 467.233 19.1506 467.332 19.1307L467.809 21.2386C467.65 21.2983 467.428 21.3579 467.143 21.4176C466.858 21.4839 466.497 21.517 466.059 21.517C465.396 21.517 464.747 21.3745 464.11 21.0895C463.481 20.8044 462.957 20.3703 462.539 19.7869C462.128 19.2036 461.923 18.4678 461.923 17.5795V2.38636ZM477.101 21.6364C475.722 21.6364 474.513 21.3082 473.472 20.652C472.438 19.9957 471.629 19.0776 471.046 17.8977C470.469 16.7178 470.181 15.339 470.181 13.7614C470.181 12.1704 470.469 10.7817 471.046 9.59516C471.629 8.40861 472.438 7.48721 473.472 6.83096C474.513 6.17471 475.722 5.84659 477.101 5.84659C478.48 5.84659 479.686 6.17471 480.72 6.83096C481.761 7.48721 482.57 8.40861 483.147 9.59516C483.73 10.7817 484.022 12.1704 484.022 13.7614C484.022 15.339 483.73 16.7178 483.147 17.8977C482.57 19.0776 481.761 19.9957 480.72 20.652C479.686 21.3082 478.48 21.6364 477.101 21.6364ZM477.101 19.5284C478.149 19.5284 479.01 19.2599 479.686 18.723C480.363 18.1861 480.863 17.4801 481.188 16.6051C481.513 15.7301 481.675 14.7822 481.675 13.7614C481.675 12.7405 481.513 11.7893 481.188 10.9077C480.863 10.026 480.363 9.31344 479.686 8.76988C479.01 8.22632 478.149 7.95454 477.101 7.95454C476.054 7.95454 475.192 8.22632 474.516 8.76988C473.84 9.31344 473.339 10.026 473.015 10.9077C472.69 11.7893 472.527 12.7405 472.527 13.7614C472.527 14.7822 472.69 15.7301 473.015 16.6051C473.339 17.4801 473.84 18.1861 474.516 18.723C475.192 19.2599 476.054 19.5284 477.101 19.5284ZM487.604 21.3182V6.04545H489.871V8.35227H490.03C490.308 7.59659 490.812 6.98342 491.541 6.51278C492.27 6.04213 493.092 5.80681 494.007 5.80681C494.179 5.80681 494.395 5.81013 494.653 5.81676C494.912 5.82338 495.107 5.83333 495.24 5.84659V8.23295C495.16 8.21306 494.978 8.18323 494.693 8.14346C494.415 8.09706 494.12 8.07386 493.808 8.07386C493.066 8.07386 492.403 8.22963 491.82 8.54119C491.243 8.84611 490.785 9.27035 490.447 9.81391C490.116 10.3508 489.95 10.964 489.95 11.6534V21.3182H487.604ZM499.998 27.0454C499.6 27.0454 499.245 27.0123 498.934 26.946C498.622 26.8864 498.407 26.8267 498.288 26.767L498.884 24.6989C499.454 24.8447 499.958 24.8977 500.396 24.8579C500.833 24.8182 501.221 24.6226 501.559 24.2713C501.904 23.9266 502.218 23.3665 502.504 22.5909L502.941 21.3977L497.293 6.04545H499.839L504.055 18.2159H504.214L508.43 6.04545H510.975L504.492 23.5454C504.2 24.3343 503.839 24.9872 503.408 25.5043C502.977 26.0279 502.477 26.4157 501.907 26.6676C501.343 26.9195 500.707 27.0454 499.998 27.0454ZM514.826 21.4773C514.335 21.4773 513.914 21.3016 513.563 20.9503C513.211 20.599 513.036 20.178 513.036 19.6875C513.036 19.197 513.211 18.776 513.563 18.4247C513.914 18.0734 514.335 17.8977 514.826 17.8977C515.316 17.8977 515.737 18.0734 516.088 18.4247C516.44 18.776 516.615 19.197 516.615 19.6875C516.615 20.0123 516.533 20.3106 516.367 20.5824C516.208 20.8542 515.992 21.0729 515.72 21.2386C515.455 21.3977 515.157 21.4773 514.826 21.4773Z" fill="#FF2D87"/>
</svg>
