<svg width="887" height="28" viewBox="0 0 887 28" fill="none" xmlns="http://www.w3.org/2000/svg">
<path d="M5.56822 21.3182L3.32966e-05 0.954539H2.50572L6.7614 17.5398H6.96026L11.2955 0.954539H14.0796L18.4148 17.5398H18.6137L22.8694 0.954539H25.375L19.8069 21.3182H17.2614L12.7671 5.0909H12.608L8.11367 21.3182H5.56822ZM33.1108 21.6364C31.6392 21.6364 30.3698 21.3115 29.3026 20.6619C28.242 20.0057 27.4233 19.0909 26.8466 17.9176C26.2765 16.7377 25.9915 15.3655 25.9915 13.8011C25.9915 12.2367 26.2765 10.8579 26.8466 9.66477C27.4233 8.46496 28.2254 7.5303 29.2529 6.86079C30.287 6.18465 31.4934 5.84659 32.8722 5.84659C33.6676 5.84659 34.4532 5.97916 35.2287 6.24431C36.0043 6.50946 36.7103 6.94033 37.3466 7.53693C37.983 8.12689 38.4901 8.90908 38.8679 9.88352C39.2458 10.8579 39.4347 12.0578 39.4347 13.4829V14.4773H27.662V12.4489H37.0483C37.0483 11.5871 36.876 10.8182 36.5313 10.142C36.1932 9.4659 35.7093 8.93229 35.0796 8.54119C34.4565 8.15009 33.7207 7.95454 32.8722 7.95454C31.9375 7.95454 31.1288 8.18655 30.4461 8.65056C29.7699 9.10795 29.2496 9.70454 28.885 10.4403C28.5204 11.1761 28.3381 11.965 28.3381 12.8068V14.1591C28.3381 15.3125 28.537 16.2902 28.9347 17.0923C29.339 17.8878 29.8992 18.4943 30.6151 18.9119C31.331 19.3229 32.1629 19.5284 33.1108 19.5284C33.7273 19.5284 34.2841 19.4422 34.7813 19.2699C35.2851 19.0909 35.7193 18.8258 36.0838 18.4744C36.4484 18.1165 36.7301 17.6723 36.929 17.142L39.1961 17.7784C38.9574 18.5473 38.5564 19.2235 37.9929 19.8068C37.4295 20.3835 36.7335 20.8343 35.9049 21.1591C35.0763 21.4773 34.1449 21.6364 33.1108 21.6364ZM55.3736 21.6761C54.4058 21.6761 53.5275 21.4938 52.7387 21.1293C51.9498 20.758 51.3234 20.2244 50.8594 19.5284C50.3954 18.8258 50.1634 17.9773 50.1634 16.9829C50.1634 16.1079 50.3357 15.3987 50.6804 14.8551C51.0251 14.3049 51.4858 13.874 52.0625 13.5625C52.6392 13.2509 53.2756 13.0189 53.9716 12.8665C54.6743 12.7074 55.3802 12.5814 56.0895 12.4886C57.0176 12.3693 57.7699 12.2798 58.3466 12.2202C58.93 12.1539 59.3542 12.0445 59.6194 11.892C59.8911 11.7396 60.027 11.4744 60.027 11.0966V11.017C60.027 10.036 59.7586 9.27367 59.2216 8.73011C58.6913 8.18655 57.8859 7.91477 56.8054 7.91477C55.6852 7.91477 54.8069 8.16003 54.1705 8.65056C53.5341 9.14109 53.0867 9.66477 52.8282 10.2216L50.6009 9.42613C50.9986 8.4981 51.5289 7.77556 52.1918 7.25852C52.8613 6.73484 53.5905 6.37026 54.3793 6.16477C55.1747 5.95265 55.9569 5.84659 56.7259 5.84659C57.2164 5.84659 57.7799 5.90624 58.4162 6.02556C59.0592 6.13825 59.679 6.37357 60.2756 6.73153C60.8788 7.08948 61.3793 7.62973 61.777 8.35227C62.1747 9.0748 62.3736 10.0426 62.3736 11.2557V21.3182H60.027V19.25H59.9077C59.7486 19.5814 59.4835 19.9361 59.1122 20.3139C58.741 20.6918 58.2472 21.0133 57.6307 21.2784C57.0142 21.5436 56.2619 21.6761 55.3736 21.6761ZM55.7316 19.5682C56.6596 19.5682 57.4418 19.3859 58.0782 19.0213C58.7212 18.6567 59.2051 18.1861 59.5299 17.6094C59.8613 17.0327 60.027 16.4261 60.027 15.7898V13.642C59.9276 13.7614 59.7088 13.8707 59.3708 13.9702C59.0393 14.063 58.6549 14.1458 58.2174 14.2187C57.7865 14.285 57.3656 14.3447 56.9546 14.3977C56.5502 14.4441 56.2221 14.4839 55.9702 14.517C55.3604 14.5966 54.7903 14.7258 54.26 14.9048C53.7363 15.0772 53.3121 15.339 52.9872 15.6903C52.6691 16.035 52.51 16.5057 52.51 17.1023C52.51 17.9176 52.8116 18.5341 53.4148 18.9517C54.0247 19.3627 54.7969 19.5682 55.7316 19.5682ZM66.6566 21.3182V6.04545H68.9237V8.35227H69.0828C69.3612 7.59659 69.865 6.98342 70.5941 6.51278C71.3233 6.04213 72.1453 5.80681 73.06 5.80681C73.2324 5.80681 73.4478 5.81013 73.7064 5.81676C73.9649 5.82338 74.1604 5.83333 74.293 5.84659V8.23295C74.2135 8.21306 74.0312 8.18323 73.7461 8.14346C73.4677 8.09706 73.1727 8.07386 72.8612 8.07386C72.1188 8.07386 71.4559 8.22963 70.8725 8.54119C70.2958 8.84611 69.8385 9.27035 69.5004 9.81391C69.1689 10.3508 69.0032 10.964 69.0032 11.6534V21.3182H66.6566ZM83.0132 21.6364C81.5416 21.6364 80.2722 21.3115 79.2049 20.6619C78.1443 20.0057 77.3257 19.0909 76.749 17.9176C76.1789 16.7377 75.8939 15.3655 75.8939 13.8011C75.8939 12.2367 76.1789 10.8579 76.749 9.66477C77.3257 8.46496 78.1278 7.5303 79.1552 6.86079C80.1893 6.18465 81.3957 5.84659 82.7745 5.84659C83.57 5.84659 84.3555 5.97916 85.1311 6.24431C85.9066 6.50946 86.6126 6.94033 87.249 7.53693C87.8853 8.12689 88.3924 8.90908 88.7703 9.88352C89.1481 10.8579 89.337 12.0578 89.337 13.4829V14.4773H77.5643V12.4489H86.9507C86.9507 11.5871 86.7783 10.8182 86.4336 10.142C86.0956 9.4659 85.6117 8.93229 84.9819 8.54119C84.3588 8.15009 83.623 7.95454 82.7745 7.95454C81.8399 7.95454 81.0312 8.18655 80.3484 8.65056C79.6723 9.10795 79.1519 9.70454 78.7873 10.4403C78.4227 11.1761 78.2404 11.965 78.2404 12.8068V14.1591C78.2404 15.3125 78.4393 16.2902 78.837 17.0923C79.2414 17.8878 79.8015 18.4943 80.5174 18.9119C81.2333 19.3229 82.0653 19.5284 83.0132 19.5284C83.6297 19.5284 84.1865 19.4422 84.6836 19.2699C85.1874 19.0909 85.6216 18.8258 85.9862 18.4744C86.3508 18.1165 86.6325 17.6723 86.8314 17.142L89.0984 17.7784C88.8598 18.5473 88.4587 19.2235 87.8953 19.8068C87.3318 20.3835 86.6358 20.8343 85.8072 21.1591C84.9786 21.4773 84.0473 21.6364 83.0132 21.6364ZM100.782 21.3182V6.04545H103.049V8.35227H103.208C103.486 7.59659 103.99 6.98342 104.719 6.51278C105.448 6.04213 106.27 5.80681 107.185 5.80681C107.357 5.80681 107.573 5.81013 107.831 5.81676C108.09 5.82338 108.285 5.83333 108.418 5.84659V8.23295C108.338 8.21306 108.156 8.18323 107.871 8.14346C107.593 8.09706 107.298 8.07386 106.986 8.07386C106.244 8.07386 105.581 8.22963 104.998 8.54119C104.421 8.84611 103.963 9.27035 103.625 9.81391C103.294 10.3508 103.128 10.964 103.128 11.6534V21.3182H100.782ZM117.138 21.6364C115.667 21.6364 114.397 21.3115 113.33 20.6619C112.269 20.0057 111.451 19.0909 110.874 17.9176C110.304 16.7377 110.019 15.3655 110.019 13.8011C110.019 12.2367 110.304 10.8579 110.874 9.66477C111.451 8.46496 112.253 7.5303 113.28 6.86079C114.314 6.18465 115.521 5.84659 116.9 5.84659C117.695 5.84659 118.481 5.97916 119.256 6.24431C120.032 6.50946 120.738 6.94033 121.374 7.53693C122.01 8.12689 122.517 8.90908 122.895 9.88352C123.273 10.8579 123.462 12.0578 123.462 13.4829V14.4773H111.689V12.4489H121.076C121.076 11.5871 120.903 10.8182 120.559 10.142C120.221 9.4659 119.737 8.93229 119.107 8.54119C118.484 8.15009 117.748 7.95454 116.9 7.95454C115.965 7.95454 115.156 8.18655 114.473 8.65056C113.797 9.10795 113.277 9.70454 112.912 10.4403C112.548 11.1761 112.365 11.965 112.365 12.8068V14.1591C112.365 15.3125 112.564 16.2902 112.962 17.0923C113.366 17.8878 113.927 18.4943 114.642 18.9119C115.358 19.3229 116.19 19.5284 117.138 19.5284C117.755 19.5284 118.311 19.4422 118.809 19.2699C119.312 19.0909 119.747 18.8258 120.111 18.4744C120.476 18.1165 120.757 17.6723 120.956 17.142L123.223 17.7784C122.985 18.5473 122.584 19.2235 122.02 19.8068C121.457 20.3835 120.761 20.8343 119.932 21.1591C119.104 21.4773 118.172 21.6364 117.138 21.6364ZM131.526 21.6761C130.558 21.6761 129.68 21.4938 128.891 21.1293C128.102 20.758 127.476 20.2244 127.012 19.5284C126.548 18.8258 126.316 17.9773 126.316 16.9829C126.316 16.1079 126.488 15.3987 126.833 14.8551C127.177 14.3049 127.638 13.874 128.215 13.5625C128.792 13.2509 129.428 13.0189 130.124 12.8665C130.827 12.7074 131.533 12.5814 132.242 12.4886C133.17 12.3693 133.922 12.2798 134.499 12.2202C135.082 12.1539 135.507 12.0445 135.772 11.892C136.043 11.7396 136.179 11.4744 136.179 11.0966V11.017C136.179 10.036 135.911 9.27367 135.374 8.73011C134.844 8.18655 134.038 7.91477 132.958 7.91477C131.838 7.91477 130.959 8.16003 130.323 8.65056C129.686 9.14109 129.239 9.66477 128.981 10.2216L126.753 9.42613C127.151 8.4981 127.681 7.77556 128.344 7.25852C129.014 6.73484 129.743 6.37026 130.532 6.16477C131.327 5.95265 132.109 5.84659 132.878 5.84659C133.369 5.84659 133.932 5.90624 134.569 6.02556C135.212 6.13825 135.831 6.37357 136.428 6.73153C137.031 7.08948 137.532 7.62973 137.929 8.35227C138.327 9.0748 138.526 10.0426 138.526 11.2557V21.3182H136.179V19.25H136.06C135.901 19.5814 135.636 19.9361 135.265 20.3139C134.893 20.6918 134.4 21.0133 133.783 21.2784C133.167 21.5436 132.414 21.6761 131.526 21.6761ZM131.884 19.5682C132.812 19.5682 133.594 19.3859 134.231 19.0213C134.873 18.6567 135.357 18.1861 135.682 17.6094C136.014 17.0327 136.179 16.4261 136.179 15.7898V13.642C136.08 13.7614 135.861 13.8707 135.523 13.9702C135.192 14.063 134.807 14.1458 134.37 14.2187C133.939 14.285 133.518 14.3447 133.107 14.3977C132.703 14.4441 132.374 14.4839 132.123 14.517C131.513 14.5966 130.943 14.7258 130.412 14.9048C129.889 15.0772 129.464 15.339 129.14 15.6903C128.821 16.035 128.662 16.5057 128.662 17.1023C128.662 17.9176 128.964 18.5341 129.567 18.9517C130.177 19.3627 130.949 19.5682 131.884 19.5682ZM148.576 21.6364C147.303 21.6364 146.18 21.3149 145.205 20.6719C144.231 20.0222 143.469 19.1075 142.918 17.9276C142.368 16.741 142.093 15.339 142.093 13.7216C142.093 12.1174 142.368 10.7254 142.918 9.54545C143.469 8.36552 144.234 7.45407 145.215 6.81107C146.196 6.16808 147.33 5.84659 148.616 5.84659C149.61 5.84659 150.396 6.01231 150.972 6.34374C151.556 6.66856 152 7.03977 152.305 7.45738C152.616 7.86837 152.858 8.20643 153.031 8.47158H153.229V0.954539H155.576V21.3182H153.309V18.9716H153.031C152.858 19.25 152.613 19.6013 152.295 20.0256C151.977 20.4432 151.523 20.8177 150.933 21.1491C150.343 21.474 149.557 21.6364 148.576 21.6364ZM148.894 19.5284C149.835 19.5284 150.631 19.2831 151.281 18.7926C151.93 18.2954 152.424 17.6094 152.762 16.7344C153.1 15.8527 153.269 14.8352 153.269 13.6818C153.269 12.5417 153.103 11.544 152.772 10.6889C152.441 9.82717 151.95 9.15766 151.3 8.68039C150.651 8.19649 149.849 7.95454 148.894 7.95454C147.9 7.95454 147.071 8.20975 146.408 8.72016C145.752 9.22395 145.258 9.91003 144.927 10.7784C144.602 11.6401 144.44 12.6079 144.44 13.6818C144.44 14.7689 144.605 15.7566 144.937 16.6449C145.275 17.5265 145.772 18.2292 146.428 18.7528C147.091 19.2699 147.913 19.5284 148.894 19.5284ZM161.711 27.0454C161.313 27.0454 160.959 27.0123 160.647 26.946C160.335 26.8864 160.12 26.8267 160.001 26.767L160.597 24.6989C161.167 24.8447 161.671 24.8977 162.109 24.8579C162.546 24.8182 162.934 24.6226 163.272 24.2713C163.617 23.9266 163.932 23.3665 164.217 22.5909L164.654 21.3977L159.006 6.04545H161.552L165.768 18.2159H165.927L170.143 6.04545H172.688L166.205 23.5454C165.914 24.3343 165.552 24.9872 165.121 25.5043C164.691 26.0279 164.19 26.4157 163.62 26.6676C163.057 26.9195 162.42 27.0454 161.711 27.0454ZM190.303 6.04545V8.03408H182.388V6.04545H190.303ZM184.695 2.38636H187.041V16.9432C187.041 17.6061 187.137 18.1032 187.33 18.4347C187.528 18.7595 187.78 18.9782 188.085 19.0909C188.397 19.197 188.725 19.25 189.07 19.25C189.328 19.25 189.54 19.2367 189.706 19.2102C189.872 19.1771 190.004 19.1506 190.104 19.1307L190.581 21.2386C190.422 21.2983 190.2 21.3579 189.915 21.4176C189.63 21.4839 189.268 21.517 188.831 21.517C188.168 21.517 187.518 21.3745 186.882 21.0895C186.252 20.8044 185.729 20.3703 185.311 19.7869C184.9 19.2036 184.695 18.4678 184.695 17.5795V2.38636ZM199.873 21.6364C198.494 21.6364 197.284 21.3082 196.244 20.652C195.21 19.9957 194.401 19.0776 193.818 17.8977C193.241 16.7178 192.952 15.339 192.952 13.7614C192.952 12.1704 193.241 10.7817 193.818 9.59516C194.401 8.40861 195.21 7.48721 196.244 6.83096C197.284 6.17471 198.494 5.84659 199.873 5.84659C201.252 5.84659 202.458 6.17471 203.492 6.83096C204.533 7.48721 205.342 8.40861 205.918 9.59516C206.502 10.7817 206.793 12.1704 206.793 13.7614C206.793 15.339 206.502 16.7178 205.918 17.8977C205.342 19.0776 204.533 19.9957 203.492 20.652C202.458 21.3082 201.252 21.6364 199.873 21.6364ZM199.873 19.5284C200.92 19.5284 201.782 19.2599 202.458 18.723C203.134 18.1861 203.635 17.4801 203.96 16.6051C204.284 15.7301 204.447 14.7822 204.447 13.7614C204.447 12.7405 204.284 11.7893 203.96 10.9077C203.635 10.026 203.134 9.31344 202.458 8.76988C201.782 8.22632 200.92 7.95454 199.873 7.95454C198.826 7.95454 197.964 8.22632 197.288 8.76988C196.612 9.31344 196.111 10.026 195.786 10.9077C195.461 11.7893 195.299 12.7405 195.299 13.7614C195.299 14.7822 195.461 15.7301 195.786 16.6051C196.111 17.4801 196.612 18.1861 197.288 18.723C197.964 19.2599 198.826 19.5284 199.873 19.5284ZM218.569 21.3182V0.954539H220.915V8.47158H221.114C221.286 8.20643 221.525 7.86837 221.83 7.45738C222.141 7.03977 222.586 6.66856 223.162 6.34374C223.746 6.01231 224.534 5.84659 225.529 5.84659C226.815 5.84659 227.948 6.16808 228.929 6.81107C229.91 7.45407 230.676 8.36552 231.226 9.54545C231.776 10.7254 232.052 12.1174 232.052 13.7216C232.052 15.339 231.776 16.741 231.226 17.9276C230.676 19.1075 229.914 20.0222 228.939 20.6719C227.965 21.3149 226.841 21.6364 225.569 21.6364C224.588 21.6364 223.802 21.474 223.212 21.1491C222.622 20.8177 222.168 20.4432 221.85 20.0256C221.532 19.6013 221.286 19.25 221.114 18.9716H220.836V21.3182H218.569ZM220.875 13.6818C220.875 14.8352 221.044 15.8527 221.382 16.7344C221.721 17.6094 222.214 18.2954 222.864 18.7926C223.514 19.2831 224.309 19.5284 225.25 19.5284C226.231 19.5284 227.05 19.2699 227.706 18.7528C228.369 18.2292 228.866 17.5265 229.198 16.6449C229.536 15.7566 229.705 14.7689 229.705 13.6818C229.705 12.6079 229.539 11.6401 229.208 10.7784C228.883 9.91003 228.389 9.22395 227.726 8.72016C227.07 8.20975 226.245 7.95454 225.25 7.95454C224.296 7.95454 223.494 8.19649 222.844 8.68039C222.195 9.15766 221.704 9.82717 221.373 10.6889C221.041 11.544 220.875 12.5417 220.875 13.6818ZM242.044 21.6364C240.573 21.6364 239.303 21.3115 238.236 20.6619C237.176 20.0057 236.357 19.0909 235.78 17.9176C235.21 16.7377 234.925 15.3655 234.925 13.8011C234.925 12.2367 235.21 10.8579 235.78 9.66477C236.357 8.46496 237.159 7.5303 238.186 6.86079C239.221 6.18465 240.427 5.84659 241.806 5.84659C242.601 5.84659 243.387 5.97916 244.162 6.24431C244.938 6.50946 245.644 6.94033 246.28 7.53693C246.917 8.12689 247.424 8.90908 247.802 9.88352C248.179 10.8579 248.368 12.0578 248.368 13.4829V14.4773H236.596V12.4489H245.982C245.982 11.5871 245.81 10.8182 245.465 10.142C245.127 9.4659 244.643 8.93229 244.013 8.54119C243.39 8.15009 242.654 7.95454 241.806 7.95454C240.871 7.95454 240.062 8.18655 239.38 8.65056C238.704 9.10795 238.183 9.70454 237.819 10.4403C237.454 11.1761 237.272 11.965 237.272 12.8068V14.1591C237.272 15.3125 237.471 16.2902 237.868 17.0923C238.273 17.8878 238.833 18.4943 239.549 18.9119C240.265 19.3229 241.097 19.5284 242.044 19.5284C242.661 19.5284 243.218 19.4422 243.715 19.2699C244.219 19.0909 244.653 18.8258 245.017 18.4744C245.382 18.1165 245.664 17.6723 245.863 17.142L248.13 17.7784C247.891 18.5473 247.49 19.2235 246.927 19.8068C246.363 20.3835 245.667 20.8343 244.838 21.1591C244.01 21.4773 243.079 21.6364 242.044 21.6364ZM254.284 0.954539V21.3182H251.938V0.954539H254.284ZM258.582 21.3182V6.04545H260.929V21.3182H258.582ZM259.776 3.49999C259.318 3.49999 258.924 3.34422 258.592 3.03266C258.268 2.72111 258.105 2.34659 258.105 1.90909C258.105 1.47159 258.268 1.09706 258.592 0.785505C258.924 0.473953 259.318 0.318176 259.776 0.318176C260.233 0.318176 260.624 0.473953 260.949 0.785505C261.28 1.09706 261.446 1.47159 261.446 1.90909C261.446 2.34659 261.28 2.72111 260.949 3.03266C260.624 3.34422 260.233 3.49999 259.776 3.49999ZM271.63 21.6364C270.159 21.6364 268.889 21.3115 267.822 20.6619C266.762 20.0057 265.943 19.0909 265.366 17.9176C264.796 16.7377 264.511 15.3655 264.511 13.8011C264.511 12.2367 264.796 10.8579 265.366 9.66477C265.943 8.46496 266.745 7.5303 267.772 6.86079C268.806 6.18465 270.013 5.84659 271.392 5.84659C272.187 5.84659 272.973 5.97916 273.748 6.24431C274.524 6.50946 275.23 6.94033 275.866 7.53693C276.503 8.12689 277.01 8.90908 277.387 9.88352C277.765 10.8579 277.954 12.0578 277.954 13.4829V14.4773H266.181V12.4489H275.568C275.568 11.5871 275.396 10.8182 275.051 10.142C274.713 9.4659 274.229 8.93229 273.599 8.54119C272.976 8.15009 272.24 7.95454 271.392 7.95454C270.457 7.95454 269.648 8.18655 268.966 8.65056C268.289 9.10795 267.769 9.70454 267.405 10.4403C267.04 11.1761 266.858 11.965 266.858 12.8068V14.1591C266.858 15.3125 267.056 16.2902 267.454 17.0923C267.859 17.8878 268.419 18.4943 269.135 18.9119C269.851 19.3229 270.682 19.5284 271.63 19.5284C272.247 19.5284 272.804 19.4422 273.301 19.2699C273.805 19.0909 274.239 18.8258 274.603 18.4744C274.968 18.1165 275.25 17.6723 275.449 17.142L277.716 17.7784C277.477 18.5473 277.076 19.2235 276.512 19.8068C275.949 20.3835 275.253 20.8343 274.424 21.1591C273.596 21.4773 272.664 21.6364 271.63 21.6364ZM293.548 6.04545L287.9 21.3182H285.514L279.866 6.04545H282.411L286.627 18.2159H286.786L291.002 6.04545H293.548ZM302.501 21.6364C301.03 21.6364 299.76 21.3115 298.693 20.6619C297.633 20.0057 296.814 19.0909 296.237 17.9176C295.667 16.7377 295.382 15.3655 295.382 13.8011C295.382 12.2367 295.667 10.8579 296.237 9.66477C296.814 8.46496 297.616 7.5303 298.643 6.86079C299.678 6.18465 300.884 5.84659 302.263 5.84659C303.058 5.84659 303.844 5.97916 304.619 6.24431C305.395 6.50946 306.101 6.94033 306.737 7.53693C307.374 8.12689 307.881 8.90908 308.259 9.88352C308.636 10.8579 308.825 12.0578 308.825 13.4829V14.4773H297.053V12.4489H306.439C306.439 11.5871 306.267 10.8182 305.922 10.142C305.584 9.4659 305.1 8.93229 304.47 8.54119C303.847 8.15009 303.111 7.95454 302.263 7.95454C301.328 7.95454 300.519 8.18655 299.837 8.65056C299.161 9.10795 298.64 9.70454 298.276 10.4403C297.911 11.1761 297.729 11.965 297.729 12.8068V14.1591C297.729 15.3125 297.928 16.2902 298.325 17.0923C298.73 17.8878 299.29 18.4943 300.006 18.9119C300.722 19.3229 301.554 19.5284 302.501 19.5284C303.118 19.5284 303.675 19.4422 304.172 19.2699C304.676 19.0909 305.11 18.8258 305.474 18.4744C305.839 18.1165 306.121 17.6723 306.32 17.142L308.587 17.7784C308.348 18.5473 307.947 19.2235 307.384 19.8068C306.82 20.3835 306.124 20.8343 305.295 21.1591C304.467 21.4773 303.536 21.6364 302.501 21.6364ZM320.27 21.3182V6.04545H322.617V21.3182H320.27ZM321.463 3.49999C321.006 3.49999 320.611 3.34422 320.28 3.03266C319.955 2.72111 319.793 2.34659 319.793 1.90909C319.793 1.47159 319.955 1.09706 320.28 0.785505C320.611 0.473953 321.006 0.318176 321.463 0.318176C321.92 0.318176 322.312 0.473953 322.636 0.785505C322.968 1.09706 323.134 1.47159 323.134 1.90909C323.134 2.34659 322.968 2.72111 322.636 3.03266C322.312 3.34422 321.92 3.49999 321.463 3.49999ZM329.261 12.1307V21.3182H326.914V6.04545H329.181V8.43181H329.38C329.738 7.65624 330.282 7.03314 331.011 6.56249C331.74 6.08522 332.681 5.84659 333.835 5.84659C334.869 5.84659 335.774 6.05871 336.549 6.48295C337.325 6.90056 337.928 7.53693 338.359 8.39204C338.79 9.24052 339.005 10.3144 339.005 11.6136V21.3182H336.659V11.7727C336.659 10.5729 336.347 9.63825 335.724 8.96874C335.101 8.29261 334.246 7.95454 333.159 7.95454C332.41 7.95454 331.74 8.11694 331.15 8.44176C330.567 8.76657 330.106 9.24052 329.768 9.86363C329.43 10.4867 329.261 11.2424 329.261 12.1307ZM352.68 27.0454C352.282 27.0454 351.927 27.0123 351.616 26.946C351.304 26.8864 351.089 26.8267 350.969 26.767L351.566 24.6989C352.136 24.8447 352.64 24.8977 353.077 24.8579C353.515 24.8182 353.903 24.6226 354.241 24.2713C354.585 23.9266 354.9 23.3665 355.185 22.5909L355.623 21.3977L349.975 6.04545H352.521L356.737 18.2159H356.896L361.112 6.04545H363.657L357.174 23.5454C356.882 24.3343 356.521 24.9872 356.09 25.5043C355.659 26.0279 355.159 26.4157 354.589 26.6676C354.025 26.9195 353.389 27.0454 352.68 27.0454ZM372.412 21.6364C371.033 21.6364 369.823 21.3082 368.783 20.652C367.749 19.9957 366.94 19.0776 366.357 17.8977C365.78 16.7178 365.492 15.339 365.492 13.7614C365.492 12.1704 365.78 10.7817 366.357 9.59516C366.94 8.40861 367.749 7.48721 368.783 6.83096C369.823 6.17471 371.033 5.84659 372.412 5.84659C373.791 5.84659 374.997 6.17471 376.031 6.83096C377.072 7.48721 377.881 8.40861 378.457 9.59516C379.041 10.7817 379.332 12.1704 379.332 13.7614C379.332 15.339 379.041 16.7178 378.457 17.8977C377.881 19.0776 377.072 19.9957 376.031 20.652C374.997 21.3082 373.791 21.6364 372.412 21.6364ZM372.412 19.5284C373.459 19.5284 374.321 19.2599 374.997 18.723C375.673 18.1861 376.174 17.4801 376.499 16.6051C376.823 15.7301 376.986 14.7822 376.986 13.7614C376.986 12.7405 376.823 11.7893 376.499 10.9077C376.174 10.026 375.673 9.31344 374.997 8.76988C374.321 8.22632 373.459 7.95454 372.412 7.95454C371.365 7.95454 370.503 8.22632 369.827 8.76988C369.151 9.31344 368.65 10.026 368.325 10.9077C368.001 11.7893 367.838 12.7405 367.838 13.7614C367.838 14.7822 368.001 15.7301 368.325 16.6051C368.65 17.4801 369.151 18.1861 369.827 18.723C370.503 19.2599 371.365 19.5284 372.412 19.5284ZM392.539 15.0739V6.04545H394.886V21.3182H392.539V18.7329H392.38C392.022 19.5085 391.466 20.1681 390.71 20.7116C389.954 21.2486 389 21.517 387.846 21.517C386.892 21.517 386.043 21.3082 385.301 20.8906C384.558 20.4664 383.975 19.83 383.551 18.9815C383.127 18.1264 382.914 17.0492 382.914 15.75V6.04545H385.261V15.5909C385.261 16.7045 385.573 17.5928 386.196 18.2557C386.825 18.9186 387.628 19.25 388.602 19.25C389.185 19.25 389.779 19.1008 390.382 18.8026C390.992 18.5043 391.502 18.0469 391.913 17.4304C392.331 16.8139 392.539 16.0284 392.539 15.0739ZM400.894 21.4773C400.404 21.4773 399.983 21.3016 399.631 20.9503C399.28 20.599 399.104 20.178 399.104 19.6875C399.104 19.197 399.28 18.776 399.631 18.4247C399.983 18.0734 400.404 17.8977 400.894 17.8977C401.385 17.8977 401.806 18.0734 402.157 18.4247C402.508 18.776 402.684 19.197 402.684 19.6875C402.684 20.0123 402.601 20.3106 402.435 20.5824C402.276 20.8542 402.061 21.0729 401.789 21.2386C401.524 21.3977 401.226 21.4773 400.894 21.4773ZM426.224 6.04545C426.105 5.03787 425.621 4.25568 424.773 3.69886C423.924 3.14204 422.884 2.86363 421.651 2.86363C420.749 2.86363 419.96 3.00946 419.284 3.30113C418.615 3.5928 418.091 3.99384 417.713 4.50426C417.342 5.01467 417.156 5.59469 417.156 6.24431C417.156 6.78787 417.286 7.2552 417.544 7.6463C417.809 8.03077 418.147 8.35227 418.558 8.61079C418.969 8.86268 419.4 9.07149 419.851 9.23721C420.302 9.3963 420.716 9.52556 421.094 9.62499L423.162 10.1818C423.692 10.321 424.282 10.5133 424.932 10.7585C425.588 11.0038 426.215 11.3385 426.811 11.7628C427.414 12.1804 427.911 12.7173 428.303 13.3736C428.694 14.0298 428.889 14.8352 428.889 15.7898C428.889 16.8901 428.601 17.8845 428.024 18.7727C427.454 19.661 426.619 20.3669 425.518 20.8906C424.425 21.4143 423.096 21.6761 421.531 21.6761C420.073 21.6761 418.81 21.4408 417.743 20.9702C416.682 20.4995 415.847 19.8433 415.237 19.0014C414.634 18.1596 414.293 17.1818 414.213 16.0682H416.759C416.825 16.8371 417.083 17.4735 417.534 17.9773C417.992 18.4744 418.568 18.8456 419.264 19.0909C419.967 19.3295 420.723 19.4489 421.531 19.4489C422.473 19.4489 423.318 19.2964 424.067 18.9915C424.816 18.6799 425.409 18.249 425.847 17.6989C426.284 17.142 426.503 16.4924 426.503 15.75C426.503 15.0739 426.314 14.5237 425.936 14.0994C425.558 13.6752 425.061 13.3305 424.445 13.0653C423.828 12.8002 423.162 12.5682 422.446 12.3693L419.94 11.6534C418.349 11.196 417.09 10.5431 416.162 9.6946C415.234 8.84611 414.77 7.73579 414.77 6.36363C414.77 5.22348 415.078 4.22916 415.695 3.38068C416.318 2.52556 417.153 1.86268 418.2 1.39204C419.254 0.914766 420.431 0.67613 421.73 0.67613C423.043 0.67613 424.209 0.911452 425.23 1.3821C426.251 1.84611 427.06 2.48247 427.656 3.29119C428.26 4.0999 428.578 5.01799 428.611 6.04545H426.224ZM439.267 6.04545V8.03408H431.353V6.04545H439.267ZM433.659 2.38636H436.006V16.9432C436.006 17.6061 436.102 18.1032 436.294 18.4347C436.493 18.7595 436.745 18.9782 437.05 19.0909C437.362 19.197 437.69 19.25 438.034 19.25C438.293 19.25 438.505 19.2367 438.671 19.2102C438.837 19.1771 438.969 19.1506 439.069 19.1307L439.546 21.2386C439.387 21.2983 439.165 21.3579 438.88 21.4176C438.595 21.4839 438.233 21.517 437.796 21.517C437.133 21.517 436.483 21.3745 435.847 21.0895C435.217 20.8044 434.694 20.3703 434.276 19.7869C433.865 19.2036 433.659 18.4678 433.659 17.5795V2.38636ZM448.838 21.6364C447.459 21.6364 446.249 21.3082 445.208 20.652C444.174 19.9957 443.366 19.0776 442.782 17.8977C442.206 16.7178 441.917 15.339 441.917 13.7614C441.917 12.1704 442.206 10.7817 442.782 9.59516C443.366 8.40861 444.174 7.48721 445.208 6.83096C446.249 6.17471 447.459 5.84659 448.838 5.84659C450.217 5.84659 451.423 6.17471 452.457 6.83096C453.498 7.48721 454.306 8.40861 454.883 9.59516C455.467 10.7817 455.758 12.1704 455.758 13.7614C455.758 15.339 455.467 16.7178 454.883 17.8977C454.306 19.0776 453.498 19.9957 452.457 20.652C451.423 21.3082 450.217 21.6364 448.838 21.6364ZM448.838 19.5284C449.885 19.5284 450.747 19.2599 451.423 18.723C452.099 18.1861 452.6 17.4801 452.924 16.6051C453.249 15.7301 453.412 14.7822 453.412 13.7614C453.412 12.7405 453.249 11.7893 452.924 10.9077C452.6 10.026 452.099 9.31344 451.423 8.76988C450.747 8.22632 449.885 7.95454 448.838 7.95454C447.79 7.95454 446.929 8.22632 446.253 8.76988C445.576 9.31344 445.076 10.026 444.751 10.9077C444.426 11.7893 444.264 12.7405 444.264 13.7614C444.264 14.7822 444.426 15.7301 444.751 16.6051C445.076 17.4801 445.576 18.1861 446.253 18.723C446.929 19.2599 447.79 19.5284 448.838 19.5284ZM459.34 27.0454V6.04545H461.607V8.47158H461.886C462.058 8.20643 462.297 7.86837 462.602 7.45738C462.913 7.03977 463.357 6.66856 463.934 6.34374C464.517 6.01231 465.306 5.84659 466.3 5.84659C467.586 5.84659 468.72 6.16808 469.701 6.81107C470.682 7.45407 471.448 8.36552 471.998 9.54545C472.548 10.7254 472.823 12.1174 472.823 13.7216C472.823 15.339 472.548 16.741 471.998 17.9276C471.448 19.1075 470.685 20.0222 469.711 20.6719C468.737 21.3149 467.613 21.6364 466.34 21.6364C465.359 21.6364 464.574 21.474 463.984 21.1491C463.394 20.8177 462.94 20.4432 462.621 20.0256C462.303 19.6013 462.058 19.25 461.886 18.9716H461.687V27.0454H459.34ZM461.647 13.6818C461.647 14.8352 461.816 15.8527 462.154 16.7344C462.492 17.6094 462.986 18.2954 463.636 18.7926C464.285 19.2831 465.081 19.5284 466.022 19.5284C467.003 19.5284 467.822 19.2699 468.478 18.7528C469.141 18.2292 469.638 17.5265 469.969 16.6449C470.308 15.7566 470.477 14.7689 470.477 13.6818C470.477 12.6079 470.311 11.6401 469.979 10.7784C469.655 9.91003 469.161 9.22395 468.498 8.72016C467.842 8.20975 467.016 7.95454 466.022 7.95454C465.068 7.95454 464.265 8.19649 463.616 8.68039C462.966 9.15766 462.476 9.82717 462.144 10.6889C461.813 11.544 461.647 12.5417 461.647 13.6818ZM486.624 12.1307V21.3182H484.278V0.954539H486.624V8.43181H486.823C487.181 7.64299 487.718 7.01657 488.434 6.55255C489.157 6.08191 490.118 5.84659 491.318 5.84659C492.358 5.84659 493.27 6.05539 494.052 6.47301C494.834 6.88399 495.441 7.51704 495.871 8.37215C496.309 9.22064 496.528 10.3011 496.528 11.6136V21.3182H494.181V11.7727C494.181 10.5597 493.866 9.62168 493.237 8.9588C492.613 8.28929 491.748 7.95454 490.641 7.95454C489.872 7.95454 489.183 8.11694 488.573 8.44176C487.97 8.76657 487.493 9.24052 487.141 9.86363C486.797 10.4867 486.624 11.2424 486.624 12.1307ZM500.821 21.3182V6.04545H503.167V21.3182H500.821ZM502.014 3.49999C501.556 3.49999 501.162 3.34422 500.831 3.03266C500.506 2.72111 500.343 2.34659 500.343 1.90909C500.343 1.47159 500.506 1.09706 500.831 0.785505C501.162 0.473953 501.556 0.318176 502.014 0.318176C502.471 0.318176 502.862 0.473953 503.187 0.785505C503.519 1.09706 503.684 1.47159 503.684 1.90909C503.684 2.34659 503.519 2.72111 503.187 3.03266C502.862 3.34422 502.471 3.49999 502.014 3.49999ZM513.232 21.6364C511.96 21.6364 510.836 21.3149 509.862 20.6719C508.887 20.0222 508.125 19.1075 507.575 17.9276C507.024 16.741 506.749 15.339 506.749 13.7216C506.749 12.1174 507.024 10.7254 507.575 9.54545C508.125 8.36552 508.89 7.45407 509.871 6.81107C510.853 6.16808 511.986 5.84659 513.272 5.84659C514.266 5.84659 515.052 6.01231 515.629 6.34374C516.212 6.66856 516.656 7.03977 516.961 7.45738C517.273 7.86837 517.514 8.20643 517.687 8.47158H517.886V0.954539H520.232V21.3182H517.965V18.9716H517.687C517.514 19.25 517.269 19.6013 516.951 20.0256C516.633 20.4432 516.179 20.8177 515.589 21.1491C514.999 21.474 514.213 21.6364 513.232 21.6364ZM513.55 19.5284C514.492 19.5284 515.287 19.2831 515.937 18.7926C516.586 18.2954 517.08 17.6094 517.418 16.7344C517.756 15.8527 517.925 14.8352 517.925 13.6818C517.925 12.5417 517.76 11.544 517.428 10.6889C517.097 9.82717 516.606 9.15766 515.957 8.68039C515.307 8.19649 514.505 7.95454 513.55 7.95454C512.556 7.95454 511.728 8.20975 511.065 8.72016C510.408 9.22395 509.915 9.91003 509.583 10.7784C509.258 11.6401 509.096 12.6079 509.096 13.6818C509.096 14.7689 509.262 15.7566 509.593 16.6449C509.931 17.5265 510.428 18.2292 511.085 18.7528C511.747 19.2699 512.569 19.5284 513.55 19.5284ZM524.856 21.3182V6.04545H527.202V21.3182H524.856ZM526.049 3.49999C525.592 3.49999 525.197 3.34422 524.866 3.03266C524.541 2.72111 524.379 2.34659 524.379 1.90909C524.379 1.47159 524.541 1.09706 524.866 0.785505C525.197 0.473953 525.592 0.318176 526.049 0.318176C526.506 0.318176 526.898 0.473953 527.222 0.785505C527.554 1.09706 527.719 1.47159 527.719 1.90909C527.719 2.34659 527.554 2.72111 527.222 3.03266C526.898 3.34422 526.506 3.49999 526.049 3.49999ZM533.847 12.1307V21.3182H531.5V6.04545H533.767V8.43181H533.966C534.324 7.65624 534.868 7.03314 535.597 6.56249C536.326 6.08522 537.267 5.84659 538.421 5.84659C539.455 5.84659 540.36 6.05871 541.135 6.48295C541.911 6.90056 542.514 7.53693 542.945 8.39204C543.376 9.24052 543.591 10.3144 543.591 11.6136V21.3182H541.245V11.7727C541.245 10.5729 540.933 9.63825 540.31 8.96874C539.687 8.29261 538.832 7.95454 537.745 7.95454C536.996 7.95454 536.326 8.11694 535.736 8.44176C535.153 8.76657 534.692 9.24052 534.354 9.86363C534.016 10.4867 533.847 11.2424 533.847 12.1307ZM554.044 27.3636C552.911 27.3636 551.936 27.2178 551.121 26.9261C550.305 26.6411 549.626 26.2633 549.082 25.7926C548.545 25.3286 548.118 24.8314 547.8 24.3011L549.669 22.9886C549.881 23.267 550.15 23.5852 550.474 23.9432C550.799 24.3078 551.243 24.6226 551.807 24.8878C552.377 25.1596 553.123 25.2954 554.044 25.2954C555.277 25.2954 556.295 24.9972 557.097 24.4006C557.899 23.804 558.3 22.8693 558.3 21.5966V18.4943H558.101C557.929 18.7727 557.683 19.1174 557.365 19.5284C557.054 19.9328 556.603 20.294 556.013 20.6122C555.429 20.9238 554.641 21.0795 553.646 21.0795C552.413 21.0795 551.306 20.7879 550.325 20.2045C549.351 19.6212 548.579 18.7727 548.009 17.6591C547.445 16.5454 547.163 15.1932 547.163 13.6023C547.163 12.0379 547.438 10.6757 547.989 9.51562C548.539 8.34895 549.304 7.44744 550.286 6.81107C551.267 6.16808 552.4 5.84659 553.686 5.84659C554.68 5.84659 555.469 6.01231 556.053 6.34374C556.643 6.66856 557.093 7.03977 557.405 7.45738C557.723 7.86837 557.968 8.20643 558.141 8.47158H558.379V6.04545H560.646V21.7557C560.646 23.0682 560.348 24.1354 559.751 24.9574C559.161 25.786 558.366 26.3925 557.365 26.777C556.371 27.1681 555.264 27.3636 554.044 27.3636ZM553.965 18.9716C554.906 18.9716 555.701 18.7561 556.351 18.3253C557.001 17.8944 557.494 17.2746 557.832 16.4659C558.17 15.6572 558.34 14.6894 558.34 13.5625C558.34 12.4621 558.174 11.491 557.842 10.6491C557.511 9.80729 557.02 9.14772 556.371 8.67045C555.721 8.19318 554.919 7.95454 553.965 7.95454C552.97 7.95454 552.142 8.20643 551.479 8.71022C550.822 9.21401 550.329 9.89015 549.997 10.7386C549.672 11.5871 549.51 12.5284 549.51 13.5625C549.51 14.6231 549.676 15.5611 550.007 16.3764C550.345 17.1851 550.842 17.8215 551.499 18.2855C552.161 18.7429 552.983 18.9716 553.965 18.9716ZM574.328 27.0454C573.93 27.0454 573.576 27.0123 573.264 26.946C572.953 26.8864 572.737 26.8267 572.618 26.767L573.215 24.6989C573.785 24.8447 574.288 24.8977 574.726 24.8579C575.163 24.8182 575.551 24.6226 575.889 24.2713C576.234 23.9266 576.549 23.3665 576.834 22.5909L577.271 21.3977L571.624 6.04545H574.169L578.385 18.2159H578.544L582.76 6.04545H585.305L578.822 23.5454C578.531 24.3343 578.17 24.9872 577.739 25.5043C577.308 26.0279 576.807 26.4157 576.237 26.6676C575.674 26.9195 575.037 27.0454 574.328 27.0454ZM594.06 21.6364C592.682 21.6364 591.472 21.3082 590.431 20.652C589.397 19.9957 588.588 19.0776 588.005 17.8977C587.428 16.7178 587.14 15.339 587.14 13.7614C587.14 12.1704 587.428 10.7817 588.005 9.59516C588.588 8.40861 589.397 7.48721 590.431 6.83096C591.472 6.17471 592.682 5.84659 594.06 5.84659C595.439 5.84659 596.646 6.17471 597.68 6.83096C598.72 7.48721 599.529 8.40861 600.106 9.59516C600.689 10.7817 600.981 12.1704 600.981 13.7614C600.981 15.339 600.689 16.7178 600.106 17.8977C599.529 19.0776 598.72 19.9957 597.68 20.652C596.646 21.3082 595.439 21.6364 594.06 21.6364ZM594.06 19.5284C595.108 19.5284 595.969 19.2599 596.646 18.723C597.322 18.1861 597.822 17.4801 598.147 16.6051C598.472 15.7301 598.634 14.7822 598.634 13.7614C598.634 12.7405 598.472 11.7893 598.147 10.9077C597.822 10.026 597.322 9.31344 596.646 8.76988C595.969 8.22632 595.108 7.95454 594.06 7.95454C593.013 7.95454 592.151 8.22632 591.475 8.76988C590.799 9.31344 590.299 10.026 589.974 10.9077C589.649 11.7893 589.487 12.7405 589.487 13.7614C589.487 14.7822 589.649 15.7301 589.974 16.6051C590.299 17.4801 590.799 18.1861 591.475 18.723C592.151 19.2599 593.013 19.5284 594.06 19.5284ZM614.188 15.0739V6.04545H616.534V21.3182H614.188V18.7329H614.029C613.671 19.5085 613.114 20.1681 612.358 20.7116C611.603 21.2486 610.648 21.517 609.495 21.517C608.54 21.517 607.692 21.3082 606.949 20.8906C606.207 20.4664 605.623 19.83 605.199 18.9815C604.775 18.1264 604.563 17.0492 604.563 15.75V6.04545H606.909V15.5909C606.909 16.7045 607.221 17.5928 607.844 18.2557C608.474 18.9186 609.276 19.25 610.25 19.25C610.834 19.25 611.427 19.1008 612.03 18.8026C612.64 18.5043 613.15 18.0469 613.561 17.4304C613.979 16.8139 614.188 16.0284 614.188 15.0739ZM620.832 21.3182V6.04545H623.099V8.35227H623.259C623.537 7.59659 624.041 6.98342 624.77 6.51278C625.499 6.04213 626.321 5.80681 627.236 5.80681C627.408 5.80681 627.624 5.81013 627.882 5.81676C628.141 5.82338 628.336 5.83333 628.469 5.84659V8.23295C628.389 8.21306 628.207 8.18323 627.922 8.14346C627.643 8.09706 627.349 8.07386 627.037 8.07386C626.295 8.07386 625.632 8.22963 625.048 8.54119C624.472 8.84611 624.014 9.27035 623.676 9.81391C623.345 10.3508 623.179 10.964 623.179 11.6534V21.3182H620.832ZM645.767 6.04545V8.03408H637.853V6.04545H645.767ZM640.159 2.38636H642.506V16.9432C642.506 17.6061 642.602 18.1032 642.794 18.4347C642.993 18.7595 643.245 18.9782 643.55 19.0909C643.862 19.197 644.19 19.25 644.534 19.25C644.793 19.25 645.005 19.2367 645.171 19.2102C645.337 19.1771 645.469 19.1506 645.569 19.1307L646.046 21.2386C645.887 21.2983 645.665 21.3579 645.38 21.4176C645.095 21.4839 644.733 21.517 644.296 21.517C643.633 21.517 642.983 21.3745 642.347 21.0895C641.717 20.8044 641.194 20.3703 640.776 19.7869C640.365 19.2036 640.159 18.4678 640.159 17.5795V2.38636ZM653.792 21.6761C652.824 21.6761 651.945 21.4938 651.157 21.1293C650.368 20.758 649.741 20.2244 649.277 19.5284C648.813 18.8258 648.581 17.9773 648.581 16.9829C648.581 16.1079 648.754 15.3987 649.098 14.8551C649.443 14.3049 649.904 13.874 650.481 13.5625C651.057 13.2509 651.694 13.0189 652.39 12.8665C653.092 12.7074 653.798 12.5814 654.507 12.4886C655.436 12.3693 656.188 12.2798 656.765 12.2202C657.348 12.1539 657.772 12.0445 658.037 11.892C658.309 11.7396 658.445 11.4744 658.445 11.0966V11.017C658.445 10.036 658.177 9.27367 657.64 8.73011C657.109 8.18655 656.304 7.91477 655.223 7.91477C654.103 7.91477 653.225 8.16003 652.588 8.65056C651.952 9.14109 651.505 9.66477 651.246 10.2216L649.019 9.42613C649.417 8.4981 649.947 7.77556 650.61 7.25852C651.279 6.73484 652.008 6.37026 652.797 6.16477C653.593 5.95265 654.375 5.84659 655.144 5.84659C655.634 5.84659 656.198 5.90624 656.834 6.02556C657.477 6.13825 658.097 6.37357 658.694 6.73153C659.297 7.08948 659.797 7.62973 660.195 8.35227C660.593 9.0748 660.792 10.0426 660.792 11.2557V21.3182H658.445V19.25H658.326C658.167 19.5814 657.901 19.9361 657.53 20.3139C657.159 20.6918 656.665 21.0133 656.049 21.2784C655.432 21.5436 654.68 21.6761 653.792 21.6761ZM654.15 19.5682C655.078 19.5682 655.86 19.3859 656.496 19.0213C657.139 18.6567 657.623 18.1861 657.948 17.6094C658.279 17.0327 658.445 16.4261 658.445 15.7898V13.642C658.346 13.7614 658.127 13.8707 657.789 13.9702C657.457 14.063 657.073 14.1458 656.635 14.2187C656.204 14.285 655.784 14.3447 655.373 14.3977C654.968 14.4441 654.64 14.4839 654.388 14.517C653.778 14.5966 653.208 14.7258 652.678 14.9048C652.154 15.0772 651.73 15.339 651.405 15.6903C651.087 16.035 650.928 16.5057 650.928 17.1023C650.928 17.9176 651.23 18.5341 651.833 18.9517C652.443 19.3627 653.215 19.5682 654.15 19.5682ZM667.421 0.954539V21.3182H665.075V0.954539H667.421ZM678.123 21.6364C676.651 21.6364 675.382 21.3115 674.314 20.6619C673.254 20.0057 672.435 19.0909 671.858 17.9176C671.288 16.7377 671.003 15.3655 671.003 13.8011C671.003 12.2367 671.288 10.8579 671.858 9.66477C672.435 8.46496 673.237 7.5303 674.265 6.86079C675.299 6.18465 676.505 5.84659 677.884 5.84659C678.679 5.84659 679.465 5.97916 680.24 6.24431C681.016 6.50946 681.722 6.94033 682.358 7.53693C682.995 8.12689 683.502 8.90908 683.88 9.88352C684.257 10.8579 684.446 12.0578 684.446 13.4829V14.4773H672.674V12.4489H682.06C682.06 11.5871 681.888 10.8182 681.543 10.142C681.205 9.4659 680.721 8.93229 680.091 8.54119C679.468 8.15009 678.732 7.95454 677.884 7.95454C676.949 7.95454 676.141 8.18655 675.458 8.65056C674.782 9.10795 674.261 9.70454 673.897 10.4403C673.532 11.1761 673.35 11.965 673.35 12.8068V14.1591C673.35 15.3125 673.549 16.2902 673.946 17.0923C674.351 17.8878 674.911 18.4943 675.627 18.9119C676.343 19.3229 677.175 19.5284 678.123 19.5284C678.739 19.5284 679.296 19.4422 679.793 19.2699C680.297 19.0909 680.731 18.8258 681.096 18.4744C681.46 18.1165 681.742 17.6723 681.941 17.142L684.208 17.7784C683.969 18.5473 683.568 19.2235 683.005 19.8068C682.441 20.3835 681.745 20.8343 680.917 21.1591C680.088 21.4773 679.157 21.6364 678.123 21.6364ZM690.363 12.1307V21.3182H688.016V6.04545H690.283V8.43181H690.482C690.84 7.65624 691.383 7.03314 692.113 6.56249C692.842 6.08522 693.783 5.84659 694.936 5.84659C695.971 5.84659 696.875 6.05871 697.651 6.48295C698.427 6.90056 699.03 7.53693 699.461 8.39204C699.891 9.24052 700.107 10.3144 700.107 11.6136V21.3182H697.76V11.7727C697.76 10.5729 697.449 9.63825 696.826 8.96874C696.203 8.29261 695.347 7.95454 694.26 7.95454C693.511 7.95454 692.842 8.11694 692.252 8.44176C691.668 8.76657 691.208 9.24052 690.87 9.86363C690.532 10.4867 690.363 11.2424 690.363 12.1307ZM711.037 6.04545V8.03408H703.122V6.04545H711.037ZM705.429 2.38636H707.776V16.9432C707.776 17.6061 707.872 18.1032 708.064 18.4347C708.263 18.7595 708.515 18.9782 708.82 19.0909C709.131 19.197 709.459 19.25 709.804 19.25C710.063 19.25 710.275 19.2367 710.44 19.2102C710.606 19.1771 710.739 19.1506 710.838 19.1307L711.315 21.2386C711.156 21.2983 710.934 21.3579 710.649 21.4176C710.364 21.4839 710.003 21.517 709.565 21.517C708.902 21.517 708.253 21.3745 707.617 21.0895C706.987 20.8044 706.463 20.3703 706.045 19.7869C705.635 19.2036 705.429 18.4678 705.429 17.5795V2.38636ZM722.442 21.3182V6.04545H724.788V21.3182H722.442ZM723.635 3.49999C723.178 3.49999 722.783 3.34422 722.452 3.03266C722.127 2.72111 721.965 2.34659 721.965 1.90909C721.965 1.47159 722.127 1.09706 722.452 0.785505C722.783 0.473953 723.178 0.318176 723.635 0.318176C724.092 0.318176 724.483 0.473953 724.808 0.785505C725.14 1.09706 725.305 1.47159 725.305 1.90909C725.305 2.34659 725.14 2.72111 724.808 3.03266C724.483 3.34422 724.092 3.49999 723.635 3.49999ZM731.433 12.1307V21.3182H729.086V6.04545H731.353V8.43181H731.552C731.91 7.65624 732.454 7.03314 733.183 6.56249C733.912 6.08522 734.853 5.84659 736.007 5.84659C737.041 5.84659 737.946 6.05871 738.721 6.48295C739.497 6.90056 740.1 7.53693 740.531 8.39204C740.962 9.24052 741.177 10.3144 741.177 11.6136V21.3182H738.831V11.7727C738.831 10.5729 738.519 9.63825 737.896 8.96874C737.273 8.29261 736.418 7.95454 735.331 7.95454C734.582 7.95454 733.912 8.11694 733.322 8.44176C732.739 8.76657 732.278 9.24052 731.94 9.86363C731.602 10.4867 731.433 11.2424 731.433 12.1307ZM759.982 6.04545V8.03408H752.068V6.04545H759.982ZM754.374 2.38636H756.721V16.9432C756.721 17.6061 756.817 18.1032 757.009 18.4347C757.208 18.7595 757.46 18.9782 757.765 19.0909C758.077 19.197 758.405 19.25 758.749 19.25C759.008 19.25 759.22 19.2367 759.386 19.2102C759.551 19.1771 759.684 19.1506 759.783 19.1307L760.261 21.2386C760.102 21.2983 759.88 21.3579 759.594 21.4176C759.309 21.4839 758.948 21.517 758.511 21.517C757.848 21.517 757.198 21.3745 756.562 21.0895C755.932 20.8044 755.408 20.3703 754.991 19.7869C754.58 19.2036 754.374 18.4678 754.374 17.5795V2.38636ZM766.187 12.1307V21.3182H763.84V0.954539H766.187V8.43181H766.386C766.744 7.64299 767.281 7.01657 767.996 6.55255C768.719 6.08191 769.68 5.84659 770.88 5.84659C771.921 5.84659 772.832 6.05539 773.614 6.47301C774.397 6.88399 775.003 7.51704 775.434 8.37215C775.871 9.22064 776.09 10.3011 776.09 11.6136V21.3182H773.744V11.7727C773.744 10.5597 773.429 9.62168 772.799 8.9588C772.176 8.28929 771.311 7.95454 770.204 7.95454C769.435 7.95454 768.746 8.11694 768.136 8.44176C767.532 8.76657 767.055 9.24052 766.704 9.86363C766.359 10.4867 766.187 11.2424 766.187 12.1307ZM786.787 21.6364C785.315 21.6364 784.046 21.3115 782.978 20.6619C781.918 20.0057 781.099 19.0909 780.522 17.9176C779.952 16.7377 779.667 15.3655 779.667 13.8011C779.667 12.2367 779.952 10.8579 780.522 9.66477C781.099 8.46496 781.901 7.5303 782.929 6.86079C783.963 6.18465 785.169 5.84659 786.548 5.84659C787.343 5.84659 788.129 5.97916 788.905 6.24431C789.68 6.50946 790.386 6.94033 791.022 7.53693C791.659 8.12689 792.166 8.90908 792.544 9.88352C792.922 10.8579 793.11 12.0578 793.11 13.4829V14.4773H781.338V12.4489H790.724C790.724 11.5871 790.552 10.8182 790.207 10.142C789.869 9.4659 789.385 8.93229 788.755 8.54119C788.132 8.15009 787.396 7.95454 786.548 7.95454C785.613 7.95454 784.805 8.18655 784.122 8.65056C783.446 9.10795 782.925 9.70454 782.561 10.4403C782.196 11.1761 782.014 11.965 782.014 12.8068V14.1591C782.014 15.3125 782.213 16.2902 782.61 17.0923C783.015 17.8878 783.575 18.4943 784.291 18.9119C785.007 19.3229 785.839 19.5284 786.787 19.5284C787.403 19.5284 787.96 19.4422 788.457 19.2699C788.961 19.0909 789.395 18.8258 789.76 18.4744C790.124 18.1165 790.406 17.6723 790.605 17.142L792.872 17.7784C792.633 18.5473 792.232 19.2235 791.669 19.8068C791.105 20.3835 790.409 20.8343 789.581 21.1591C788.752 21.4773 787.821 21.6364 786.787 21.6364ZM810.322 21.6364C809.049 21.6364 807.926 21.3149 806.951 20.6719C805.977 20.0222 805.215 19.1075 804.664 17.9276C804.114 16.741 803.839 15.339 803.839 13.7216C803.839 12.1174 804.114 10.7254 804.664 9.54545C805.215 8.36552 805.98 7.45407 806.961 6.81107C807.942 6.16808 809.076 5.84659 810.362 5.84659C811.356 5.84659 812.142 6.01231 812.718 6.34374C813.302 6.66856 813.746 7.03977 814.051 7.45738C814.362 7.86837 814.604 8.20643 814.777 8.47158H814.976V0.954539H817.322V21.3182H815.055V18.9716H814.777C814.604 19.25 814.359 19.6013 814.041 20.0256C813.723 20.4432 813.269 20.8177 812.679 21.1491C812.089 21.474 811.303 21.6364 810.322 21.6364ZM810.64 19.5284C811.582 19.5284 812.377 19.2831 813.027 18.7926C813.676 18.2954 814.17 17.6094 814.508 16.7344C814.846 15.8527 815.015 14.8352 815.015 13.6818C815.015 12.5417 814.85 11.544 814.518 10.6889C814.187 9.82717 813.696 9.15766 813.047 8.68039C812.397 8.19649 811.595 7.95454 810.64 7.95454C809.646 7.95454 808.817 8.20975 808.155 8.72016C807.498 9.22395 807.004 9.91003 806.673 10.7784C806.348 11.6401 806.186 12.6079 806.186 13.6818C806.186 14.7689 806.351 15.7566 806.683 16.6449C807.021 17.5265 807.518 18.2292 808.174 18.7528C808.837 19.2699 809.659 19.5284 810.64 19.5284ZM821.946 21.3182V6.04545H824.213V8.35227H824.372C824.65 7.59659 825.154 6.98342 825.883 6.51278C826.612 6.04213 827.434 5.80681 828.349 5.80681C828.521 5.80681 828.737 5.81013 828.995 5.81676C829.254 5.82338 829.449 5.83333 829.582 5.84659V8.23295C829.503 8.21306 829.32 8.18323 829.035 8.14346C828.757 8.09706 828.462 8.07386 828.15 8.07386C827.408 8.07386 826.745 8.22963 826.162 8.54119C825.585 8.84611 825.128 9.27035 824.789 9.81391C824.458 10.3508 824.292 10.964 824.292 11.6534V21.3182H821.946ZM836.858 21.6761C835.89 21.6761 835.012 21.4938 834.223 21.1293C833.434 20.758 832.808 20.2244 832.344 19.5284C831.88 18.8258 831.648 17.9773 831.648 16.9829C831.648 16.1079 831.82 15.3987 832.165 14.8551C832.51 14.3049 832.97 13.874 833.547 13.5625C834.124 13.2509 834.76 13.0189 835.456 12.8665C836.159 12.7074 836.865 12.5814 837.574 12.4886C838.502 12.3693 839.254 12.2798 839.831 12.2202C840.414 12.1539 840.839 12.0445 841.104 11.892C841.376 11.7396 841.511 11.4744 841.511 11.0966V11.017C841.511 10.036 841.243 9.27367 840.706 8.73011C840.176 8.18655 839.37 7.91477 838.29 7.91477C837.17 7.91477 836.291 8.16003 835.655 8.65056C835.018 9.14109 834.571 9.66477 834.313 10.2216L832.085 9.42613C832.483 8.4981 833.013 7.77556 833.676 7.25852C834.346 6.73484 835.075 6.37026 835.864 6.16477C836.659 5.95265 837.441 5.84659 838.21 5.84659C838.701 5.84659 839.264 5.90624 839.901 6.02556C840.544 6.13825 841.163 6.37357 841.76 6.73153C842.363 7.08948 842.864 7.62973 843.261 8.35227C843.659 9.0748 843.858 10.0426 843.858 11.2557V21.3182H841.511V19.25H841.392C841.233 19.5814 840.968 19.9361 840.597 20.3139C840.225 20.6918 839.732 21.0133 839.115 21.2784C838.499 21.5436 837.746 21.6761 836.858 21.6761ZM837.216 19.5682C838.144 19.5682 838.926 19.3859 839.563 19.0213C840.206 18.6567 840.689 18.1861 841.014 17.6094C841.346 17.0327 841.511 16.4261 841.511 15.7898V13.642C841.412 13.7614 841.193 13.8707 840.855 13.9702C840.524 14.063 840.139 14.1458 839.702 14.2187C839.271 14.285 838.85 14.3447 838.439 14.3977C838.035 14.4441 837.706 14.4839 837.455 14.517C836.845 14.5966 836.275 14.7258 835.744 14.9048C835.221 15.0772 834.796 15.339 834.472 15.6903C834.153 16.035 833.994 16.5057 833.994 17.1023C833.994 17.9176 834.296 18.5341 834.899 18.9517C835.509 19.3627 836.281 19.5682 837.216 19.5682ZM854.942 6.04545V8.03408H846.709V6.04545H854.942ZM849.175 21.3182V3.93749C849.175 3.06249 849.381 2.33333 849.792 1.74999C850.203 1.16666 850.736 0.72916 851.392 0.437493C852.049 0.145826 852.741 -6.91414e-06 853.471 -6.91414e-06C854.047 -6.91414e-06 854.518 0.0463949 854.882 0.139199C855.247 0.232001 855.519 0.318175 855.698 0.397721L855.022 2.42613C854.902 2.38636 854.737 2.33664 854.525 2.27698C854.319 2.21732 854.047 2.18749 853.709 2.18749C852.934 2.18749 852.373 2.38304 852.029 2.77414C851.691 3.16524 851.522 3.73863 851.522 4.49431V21.3182H849.175ZM864.873 6.04545V8.03408H856.958V6.04545H864.873ZM859.265 2.38636H861.612V16.9432C861.612 17.6061 861.708 18.1032 861.9 18.4347C862.099 18.7595 862.351 18.9782 862.656 19.0909C862.967 19.197 863.295 19.25 863.64 19.25C863.898 19.25 864.111 19.2367 864.276 19.2102C864.442 19.1771 864.575 19.1506 864.674 19.1307L865.151 21.2386C864.992 21.2983 864.77 21.3579 864.485 21.4176C864.2 21.4839 863.839 21.517 863.401 21.517C862.738 21.517 862.089 21.3745 861.452 21.0895C860.823 20.8044 860.299 20.3703 859.881 19.7869C859.47 19.2036 859.265 18.4678 859.265 17.5795V2.38636ZM878.947 9.4659L876.84 10.0625C876.707 9.71117 876.511 9.36979 876.253 9.03835C876.001 8.70028 875.656 8.42187 875.219 8.20312C874.781 7.98437 874.221 7.87499 873.538 7.87499C872.604 7.87499 871.825 8.09043 871.202 8.5213C870.585 8.94554 870.277 9.48579 870.277 10.142C870.277 10.7254 870.489 11.1861 870.913 11.5241C871.338 11.8622 872.001 12.1439 872.902 12.3693L875.169 12.9261C876.535 13.2576 877.552 13.7647 878.222 14.4474C878.891 15.1236 879.226 15.9953 879.226 17.0625C879.226 17.9375 878.974 18.7197 878.47 19.4091C877.973 20.0985 877.277 20.642 876.382 21.0398C875.487 21.4375 874.447 21.6364 873.26 21.6364C871.702 21.6364 870.413 21.2983 869.392 20.6222C868.371 19.946 867.725 18.9583 867.453 17.6591L869.68 17.1023C869.893 17.9242 870.294 18.5407 870.884 18.9517C871.48 19.3627 872.259 19.5682 873.22 19.5682C874.314 19.5682 875.182 19.3362 875.825 18.8722C876.475 18.4015 876.8 17.8381 876.8 17.1818C876.8 16.6515 876.614 16.2074 876.243 15.8494C875.872 15.4848 875.302 15.2131 874.533 15.0341L871.987 14.4375C870.589 14.1061 869.561 13.5923 868.905 12.8963C868.255 12.1936 867.93 11.3153 867.93 10.2614C867.93 9.39962 868.172 8.6373 868.656 7.97443C869.147 7.31155 869.813 6.79119 870.655 6.41335C871.503 6.03551 872.465 5.84659 873.538 5.84659C875.05 5.84659 876.236 6.17802 877.098 6.8409C877.966 7.50378 878.583 8.37878 878.947 9.4659ZM884.468 21.4773C883.978 21.4773 883.557 21.3016 883.206 20.9503C882.854 20.599 882.679 20.178 882.679 19.6875C882.679 19.197 882.854 18.776 883.206 18.4247C883.557 18.0734 883.978 17.8977 884.468 17.8977C884.959 17.8977 885.38 18.0734 885.731 18.4247C886.083 18.776 886.258 19.197 886.258 19.6875C886.258 20.0123 886.175 20.3106 886.01 20.5824C885.851 20.8542 885.635 21.0729 885.363 21.2386C885.098 21.3977 884.8 21.4773 884.468 21.4773Z" fill="#F5F5F7"/>
</svg>
