<svg width="660" height="28" viewBox="0 0 660 28" fill="none" xmlns="http://www.w3.org/2000/svg">
<path d="M-3.31402e-05 21.3182V0.954539H12.2897V3.14204H2.46588V10.0227H11.6534V12.2102H2.46588V19.1307H12.4488V21.3182H-3.31402e-05ZM28.9048 6.04545L23.2571 21.3182H20.8707L15.223 6.04545H17.7684L21.9843 18.2159H22.1434L26.3593 6.04545H28.9048ZM37.8586 21.6364C36.387 21.6364 35.1176 21.3115 34.0504 20.6619C32.9898 20.0057 32.1711 19.0909 31.5944 17.9176C31.0244 16.7377 30.7393 15.3655 30.7393 13.8011C30.7393 12.2367 31.0244 10.8579 31.5944 9.66477C32.1711 8.46496 32.9732 7.5303 34.0007 6.86079C35.0348 6.18465 36.2412 5.84659 37.62 5.84659C38.4155 5.84659 39.201 5.97916 39.9765 6.24431C40.7521 6.50946 41.4581 6.94033 42.0944 7.53693C42.7308 8.12689 43.2379 8.90908 43.6157 9.88352C43.9936 10.8579 44.1825 12.0578 44.1825 13.4829V14.4773H32.4098V12.4489H41.7961C41.7961 11.5871 41.6238 10.8182 41.2791 10.142C40.941 9.4659 40.4571 8.93229 39.8274 8.54119C39.2043 8.15009 38.4685 7.95454 37.62 7.95454C36.6853 7.95454 35.8766 8.18655 35.1939 8.65056C34.5177 9.10795 33.9974 9.70454 33.6328 10.4403C33.2682 11.1761 33.0859 11.965 33.0859 12.8068V14.1591C33.0859 15.3125 33.2848 16.2902 33.6825 17.0923C34.0869 17.8878 34.647 18.4943 35.3629 18.9119C36.0788 19.3229 36.9107 19.5284 37.8586 19.5284C38.4751 19.5284 39.0319 19.4422 39.5291 19.2699C40.0329 19.0909 40.4671 18.8258 40.8316 18.4744C41.1962 18.1165 41.478 17.6723 41.6768 17.142L43.9439 17.7784C43.7052 18.5473 43.3042 19.2235 42.7407 19.8068C42.1773 20.3835 41.4813 20.8343 40.6527 21.1591C39.8241 21.4773 38.8927 21.6364 37.8586 21.6364ZM47.7521 21.3182V6.04545H50.0191V8.35227H50.1782C50.4566 7.59659 50.9604 6.98342 51.6896 6.51278C52.4188 6.04213 53.2407 5.80681 54.1555 5.80681C54.3279 5.80681 54.5433 5.81013 54.8018 5.81676C55.0603 5.82338 55.2559 5.83333 55.3885 5.84659V8.23295C55.3089 8.21306 55.1266 8.18323 54.8416 8.14346C54.5632 8.09706 54.2682 8.07386 53.9566 8.07386C53.2142 8.07386 52.5513 8.22963 51.968 8.54119C51.3913 8.84611 50.9339 9.27035 50.5958 9.81391C50.2644 10.3508 50.0987 10.964 50.0987 11.6534V21.3182H47.7521ZM60.1463 27.0454C59.7485 27.0454 59.3939 27.0123 59.0824 26.946C58.7708 26.8864 58.5554 26.8267 58.436 26.767L59.0326 24.6989C59.6027 24.8447 60.1065 24.8977 60.544 24.8579C60.9815 24.8182 61.3693 24.6226 61.7074 24.2713C62.0521 23.9266 62.3669 23.3665 62.652 22.5909L63.0895 21.3977L57.4417 6.04545H59.9872L64.2031 18.2159H64.3622L68.5781 6.04545H71.1235L64.6406 23.5454C64.3489 24.3343 63.9877 24.9872 63.5568 25.5043C63.1259 26.0279 62.6254 26.4157 62.0554 26.6676C61.4919 26.9195 60.8556 27.0454 60.1463 27.0454ZM88.2606 27.3636C87.1271 27.3636 86.1527 27.2178 85.3373 26.9261C84.522 26.6411 83.8425 26.2633 83.299 25.7926C82.762 25.3286 82.3345 24.8314 82.0163 24.3011L83.8856 22.9886C84.0977 23.267 84.3662 23.5852 84.691 23.9432C85.0158 24.3078 85.46 24.6226 86.0234 24.8878C86.5935 25.1596 87.3392 25.2954 88.2606 25.2954C89.4936 25.2954 90.5111 24.9972 91.3132 24.4006C92.1153 23.804 92.5163 22.8693 92.5163 21.5966V18.4943H92.3174C92.1451 18.7727 91.8998 19.1174 91.5816 19.5284C91.2701 19.9328 90.8193 20.294 90.2294 20.6122C89.646 20.9238 88.8572 21.0795 87.8629 21.0795C86.6299 21.0795 85.5229 20.7879 84.5419 20.2045C83.5674 19.6212 82.7952 18.7727 82.2251 17.6591C81.6617 16.5454 81.3799 15.1932 81.3799 13.6023C81.3799 12.0379 81.655 10.6757 82.2052 9.51562C82.7554 8.34895 83.521 7.44744 84.5021 6.81107C85.4832 6.16808 86.6167 5.84659 87.9027 5.84659C88.897 5.84659 89.6858 6.01231 90.2691 6.34374C90.8591 6.66856 91.3099 7.03977 91.6214 7.45738C91.9396 7.86837 92.1849 8.20643 92.3572 8.47158H92.5958V6.04545H94.8629V21.7557C94.8629 23.0682 94.5646 24.1354 93.968 24.9574C93.378 25.786 92.5826 26.3925 91.5816 26.777C90.5873 27.1681 89.4803 27.3636 88.2606 27.3636ZM88.1811 18.9716C89.1224 18.9716 89.9178 18.7561 90.5674 18.3253C91.2171 17.8944 91.7109 17.2746 92.049 16.4659C92.387 15.6572 92.5561 14.6894 92.5561 13.5625C92.5561 12.4621 92.3904 11.491 92.0589 10.6491C91.7275 9.80729 91.2369 9.14772 90.5873 8.67045C89.9377 8.19318 89.1356 7.95454 88.1811 7.95454C87.1868 7.95454 86.3582 8.20643 85.6953 8.71022C85.039 9.21401 84.5452 9.89015 84.2137 10.7386C83.8889 11.5871 83.7265 12.5284 83.7265 13.5625C83.7265 14.6231 83.8922 15.5611 84.2237 16.3764C84.5618 17.1851 85.0589 17.8215 85.7152 18.2855C86.378 18.7429 87.2 18.9716 88.1811 18.9716ZM101.505 0.954539V21.3182H99.1583V0.954539H101.505ZM112.007 21.6364C110.629 21.6364 109.419 21.3082 108.378 20.652C107.344 19.9957 106.535 19.0776 105.952 17.8977C105.375 16.7178 105.087 15.339 105.087 13.7614C105.087 12.1704 105.375 10.7817 105.952 9.59516C106.535 8.40861 107.344 7.48721 108.378 6.83096C109.419 6.17471 110.629 5.84659 112.007 5.84659C113.386 5.84659 114.593 6.17471 115.627 6.83096C116.667 7.48721 117.476 8.40861 118.053 9.59516C118.636 10.7817 118.928 12.1704 118.928 13.7614C118.928 15.339 118.636 16.7178 118.053 17.8977C117.476 19.0776 116.667 19.9957 115.627 20.652C114.593 21.3082 113.386 21.6364 112.007 21.6364ZM112.007 19.5284C113.055 19.5284 113.917 19.2599 114.593 18.723C115.269 18.1861 115.769 17.4801 116.094 16.6051C116.419 15.7301 116.581 14.7822 116.581 13.7614C116.581 12.7405 116.419 11.7893 116.094 10.9077C115.769 10.026 115.269 9.31344 114.593 8.76988C113.917 8.22632 113.055 7.95454 112.007 7.95454C110.96 7.95454 110.098 8.22632 109.422 8.76988C108.746 9.31344 108.246 10.026 107.921 10.9077C107.596 11.7893 107.434 12.7405 107.434 13.7614C107.434 14.7822 107.596 15.7301 107.921 16.6051C108.246 17.4801 108.746 18.1861 109.422 18.723C110.098 19.2599 110.96 19.5284 112.007 19.5284ZM122.828 21.3182V0.954539H125.175V8.47158H125.374C125.546 8.20643 125.785 7.86837 126.089 7.45738C126.401 7.03977 126.845 6.66856 127.422 6.34374C128.005 6.01231 128.794 5.84659 129.788 5.84659C131.074 5.84659 132.208 6.16808 133.189 6.81107C134.17 7.45407 134.936 8.36552 135.486 9.54545C136.036 10.7254 136.311 12.1174 136.311 13.7216C136.311 15.339 136.036 16.741 135.486 17.9276C134.936 19.1075 134.173 20.0222 133.199 20.6719C132.224 21.3149 131.101 21.6364 129.828 21.6364C128.847 21.6364 128.062 21.474 127.472 21.1491C126.882 20.8177 126.428 20.4432 126.109 20.0256C125.791 19.6013 125.546 19.25 125.374 18.9716H125.095V21.3182H122.828ZM125.135 13.6818C125.135 14.8352 125.304 15.8527 125.642 16.7344C125.98 17.6094 126.474 18.2954 127.124 18.7926C127.773 19.2831 128.569 19.5284 129.51 19.5284C130.491 19.5284 131.31 19.2699 131.966 18.7528C132.629 18.2292 133.126 17.5265 133.457 16.6449C133.795 15.7566 133.964 14.7689 133.964 13.6818C133.964 12.6079 133.799 11.6401 133.467 10.7784C133.142 9.91003 132.649 9.22395 131.986 8.72016C131.33 8.20975 130.504 7.95454 129.51 7.95454C128.555 7.95454 127.753 8.19649 127.104 8.68039C126.454 9.15766 125.964 9.82717 125.632 10.6889C125.301 11.544 125.135 12.5417 125.135 13.6818ZM144.395 21.6761C143.427 21.6761 142.549 21.4938 141.76 21.1293C140.971 20.758 140.345 20.2244 139.881 19.5284C139.417 18.8258 139.185 17.9773 139.185 16.9829C139.185 16.1079 139.357 15.3987 139.702 14.8551C140.046 14.3049 140.507 13.874 141.084 13.5625C141.66 13.2509 142.297 13.0189 142.993 12.8665C143.696 12.7074 144.401 12.5814 145.111 12.4886C146.039 12.3693 146.791 12.2798 147.368 12.2202C147.951 12.1539 148.375 12.0445 148.641 11.892C148.912 11.7396 149.048 11.4744 149.048 11.0966V11.017C149.048 10.036 148.78 9.27367 148.243 8.73011C147.713 8.18655 146.907 7.91477 145.827 7.91477C144.706 7.91477 143.828 8.16003 143.192 8.65056C142.555 9.14109 142.108 9.66477 141.849 10.2216L139.622 9.42613C140.02 8.4981 140.55 7.77556 141.213 7.25852C141.883 6.73484 142.612 6.37026 143.401 6.16477C144.196 5.95265 144.978 5.84659 145.747 5.84659C146.238 5.84659 146.801 5.90624 147.437 6.02556C148.08 6.13825 148.7 6.37357 149.297 6.73153C149.9 7.08948 150.401 7.62973 150.798 8.35227C151.196 9.0748 151.395 10.0426 151.395 11.2557V21.3182H149.048V19.25H148.929C148.77 19.5814 148.505 19.9361 148.133 20.3139C147.762 20.6918 147.268 21.0133 146.652 21.2784C146.035 21.5436 145.283 21.6761 144.395 21.6761ZM144.753 19.5682C145.681 19.5682 146.463 19.3859 147.099 19.0213C147.742 18.6567 148.226 18.1861 148.551 17.6094C148.883 17.0327 149.048 16.4261 149.048 15.7898V13.642C148.949 13.7614 148.73 13.8707 148.392 13.9702C148.061 14.063 147.676 14.1458 147.239 14.2187C146.808 14.285 146.387 14.3447 145.976 14.3977C145.571 14.4441 145.243 14.4839 144.991 14.517C144.382 14.5966 143.812 14.7258 143.281 14.9048C142.758 15.0772 142.333 15.339 142.008 15.6903C141.69 16.035 141.531 16.5057 141.531 17.1023C141.531 17.9176 141.833 18.5341 142.436 18.9517C143.046 19.3627 143.818 19.5682 144.753 19.5682ZM158.024 0.954539V21.3182H155.678V0.954539H158.024ZM181.016 9.4659L178.908 10.0625C178.775 9.71117 178.58 9.36979 178.321 9.03835C178.069 8.70028 177.724 8.42187 177.287 8.20312C176.849 7.98437 176.289 7.87499 175.607 7.87499C174.672 7.87499 173.893 8.09043 173.27 8.5213C172.653 8.94554 172.345 9.48579 172.345 10.142C172.345 10.7254 172.557 11.1861 172.982 11.5241C173.406 11.8622 174.069 12.1439 174.97 12.3693L177.237 12.9261C178.603 13.2576 179.62 13.7647 180.29 14.4474C180.959 15.1236 181.294 15.9953 181.294 17.0625C181.294 17.9375 181.042 18.7197 180.538 19.4091C180.041 20.0985 179.345 20.642 178.45 21.0398C177.555 21.4375 176.515 21.6364 175.328 21.6364C173.77 21.6364 172.481 21.2983 171.46 20.6222C170.439 19.946 169.793 18.9583 169.521 17.6591L171.749 17.1023C171.961 17.9242 172.362 18.5407 172.952 18.9517C173.548 19.3627 174.327 19.5682 175.288 19.5682C176.382 19.5682 177.25 19.3362 177.893 18.8722C178.543 18.4015 178.868 17.8381 178.868 17.1818C178.868 16.6515 178.682 16.2074 178.311 15.8494C177.94 15.4848 177.37 15.2131 176.601 15.0341L174.055 14.4375C172.657 14.1061 171.629 13.5923 170.973 12.8963C170.323 12.1936 169.999 11.3153 169.999 10.2614C169.999 9.39962 170.24 8.6373 170.724 7.97443C171.215 7.31155 171.881 6.79119 172.723 6.41335C173.571 6.03551 174.533 5.84659 175.607 5.84659C177.118 5.84659 178.304 6.17802 179.166 6.8409C180.035 7.50378 180.651 8.37878 181.016 9.4659ZM194.451 15.0739V6.04545H196.798V21.3182H194.451V18.7329H194.292C193.934 19.5085 193.377 20.1681 192.622 20.7116C191.866 21.2486 190.912 21.517 189.758 21.517C188.804 21.517 187.955 21.3082 187.213 20.8906C186.47 20.4664 185.887 19.83 185.463 18.9815C185.038 18.1264 184.826 17.0492 184.826 15.75V6.04545H187.173V15.5909C187.173 16.7045 187.484 17.5928 188.108 18.2557C188.737 18.9186 189.539 19.25 190.514 19.25C191.097 19.25 191.69 19.1008 192.294 18.8026C192.903 18.5043 193.414 18.0469 193.825 17.4304C194.243 16.8139 194.451 16.0284 194.451 15.0739ZM201.096 27.0454V6.04545H203.363V8.47158H203.641C203.814 8.20643 204.052 7.86837 204.357 7.45738C204.669 7.03977 205.113 6.66856 205.69 6.34374C206.273 6.01231 207.062 5.84659 208.056 5.84659C209.342 5.84659 210.476 6.16808 211.457 6.81107C212.438 7.45407 213.203 8.36552 213.754 9.54545C214.304 10.7254 214.579 12.1174 214.579 13.7216C214.579 15.339 214.304 16.741 213.754 17.9276C213.203 19.1075 212.441 20.0222 211.467 20.6719C210.492 21.3149 209.369 21.6364 208.096 21.6364C207.115 21.6364 206.329 21.474 205.739 21.1491C205.149 20.8177 204.695 20.4432 204.377 20.0256C204.059 19.6013 203.814 19.25 203.641 18.9716H203.442V27.0454H201.096ZM203.403 13.6818C203.403 14.8352 203.572 15.8527 203.91 16.7344C204.248 17.6094 204.742 18.2954 205.391 18.7926C206.041 19.2831 206.836 19.5284 207.778 19.5284C208.759 19.5284 209.577 19.2699 210.234 18.7528C210.897 18.2292 211.394 17.5265 211.725 16.6449C212.063 15.7566 212.232 14.7689 212.232 13.6818C212.232 12.6079 212.066 11.6401 211.735 10.7784C211.41 9.91003 210.916 9.22395 210.254 8.72016C209.597 8.20975 208.772 7.95454 207.778 7.95454C206.823 7.95454 206.021 8.19649 205.371 8.68039C204.722 9.15766 204.231 9.82717 203.9 10.6889C203.568 11.544 203.403 12.5417 203.403 13.6818ZM224.562 21.6364C223.09 21.6364 221.821 21.3115 220.754 20.6619C219.693 20.0057 218.874 19.0909 218.298 17.9176C217.727 16.7377 217.442 15.3655 217.442 13.8011C217.442 12.2367 217.727 10.8579 218.298 9.66477C218.874 8.46496 219.676 7.5303 220.704 6.86079C221.738 6.18465 222.944 5.84659 224.323 5.84659C225.119 5.84659 225.904 5.97916 226.68 6.24431C227.455 6.50946 228.161 6.94033 228.798 7.53693C229.434 8.12689 229.941 8.90908 230.319 9.88352C230.697 10.8579 230.886 12.0578 230.886 13.4829V14.4773H219.113V12.4489H228.499C228.499 11.5871 228.327 10.8182 227.982 10.142C227.644 9.4659 227.16 8.93229 226.531 8.54119C225.907 8.15009 225.172 7.95454 224.323 7.95454C223.388 7.95454 222.58 8.18655 221.897 8.65056C221.221 9.10795 220.7 9.70454 220.336 10.4403C219.971 11.1761 219.789 11.965 219.789 12.8068V14.1591C219.789 15.3125 219.988 16.2902 220.386 17.0923C220.79 17.8878 221.35 18.4943 222.066 18.9119C222.782 19.3229 223.614 19.5284 224.562 19.5284C225.178 19.5284 225.735 19.4422 226.232 19.2699C226.736 19.0909 227.17 18.8258 227.535 18.4744C227.899 18.1165 228.181 17.6723 228.38 17.142L230.647 17.7784C230.408 18.5473 230.007 19.2235 229.444 19.8068C228.88 20.3835 228.184 20.8343 227.356 21.1591C226.527 21.4773 225.596 21.6364 224.562 21.6364ZM234.455 21.3182V6.04545H236.722V8.35227H236.881C237.16 7.59659 237.664 6.98342 238.393 6.51278C239.122 6.04213 239.944 5.80681 240.859 5.80681C241.031 5.80681 241.246 5.81013 241.505 5.81676C241.763 5.82338 241.959 5.83333 242.092 5.84659V8.23295C242.012 8.21306 241.83 8.18323 241.545 8.14346C241.266 8.09706 240.971 8.07386 240.66 8.07386C239.917 8.07386 239.254 8.22963 238.671 8.54119C238.094 8.84611 237.637 9.27035 237.299 9.81391C236.968 10.3508 236.802 10.964 236.802 11.6534V21.3182H234.455ZM255.691 9.4659L253.583 10.0625C253.451 9.71117 253.255 9.36979 252.997 9.03835C252.745 8.70028 252.4 8.42187 251.963 8.20312C251.525 7.98437 250.965 7.87499 250.282 7.87499C249.348 7.87499 248.569 8.09043 247.946 8.5213C247.329 8.94554 247.021 9.48579 247.021 10.142C247.021 10.7254 247.233 11.1861 247.657 11.5241C248.082 11.8622 248.744 12.1439 249.646 12.3693L251.913 12.9261C253.278 13.2576 254.296 13.7647 254.966 14.4474C255.635 15.1236 255.97 15.9953 255.97 17.0625C255.97 17.9375 255.718 18.7197 255.214 19.4091C254.717 20.0985 254.021 20.642 253.126 21.0398C252.231 21.4375 251.19 21.6364 250.004 21.6364C248.446 21.6364 247.157 21.2983 246.136 20.6222C245.115 19.946 244.469 18.9583 244.197 17.6591L246.424 17.1023C246.636 17.9242 247.037 18.5407 247.627 18.9517C248.224 19.3627 249.003 19.5682 249.964 19.5682C251.058 19.5682 251.926 19.3362 252.569 18.8722C253.219 18.4015 253.544 17.8381 253.544 17.1818C253.544 16.6515 253.358 16.2074 252.987 15.8494C252.616 15.4848 252.046 15.2131 251.277 15.0341L248.731 14.4375C247.332 14.1061 246.305 13.5923 245.649 12.8963C244.999 12.1936 244.674 11.3153 244.674 10.2614C244.674 9.39962 244.916 8.6373 245.4 7.97443C245.891 7.31155 246.557 6.79119 247.399 6.41335C248.247 6.03551 249.208 5.84659 250.282 5.84659C251.794 5.84659 252.98 6.17802 253.842 6.8409C254.71 7.50378 255.327 8.37878 255.691 9.4659ZM266.144 6.04545V8.03408H258.229V6.04545H266.144ZM260.536 2.38636H262.883V16.9432C262.883 17.6061 262.979 18.1032 263.171 18.4347C263.37 18.7595 263.622 18.9782 263.927 19.0909C264.238 19.197 264.566 19.25 264.911 19.25C265.17 19.25 265.382 19.2367 265.548 19.2102C265.713 19.1771 265.846 19.1506 265.945 19.1307L266.423 21.2386C266.263 21.2983 266.041 21.3579 265.756 21.4176C265.471 21.4839 265.11 21.517 264.673 21.517C264.01 21.517 263.36 21.3745 262.724 21.0895C262.094 20.8044 261.57 20.3703 261.153 19.7869C260.742 19.2036 260.536 18.4678 260.536 17.5795V2.38636ZM274.168 21.6761C273.2 21.6761 272.322 21.4938 271.533 21.1293C270.745 20.758 270.118 20.2244 269.654 19.5284C269.19 18.8258 268.958 17.9773 268.958 16.9829C268.958 16.1079 269.13 15.3987 269.475 14.8551C269.82 14.3049 270.281 13.874 270.857 13.5625C271.434 13.2509 272.07 13.0189 272.766 12.8665C273.469 12.7074 274.175 12.5814 274.884 12.4886C275.812 12.3693 276.565 12.2798 277.141 12.2202C277.725 12.1539 278.149 12.0445 278.414 11.892C278.686 11.7396 278.822 11.4744 278.822 11.0966V11.017C278.822 10.036 278.553 9.27367 278.016 8.73011C277.486 8.18655 276.681 7.91477 275.6 7.91477C274.48 7.91477 273.602 8.16003 272.965 8.65056C272.329 9.14109 271.881 9.66477 271.623 10.2216L269.396 9.42613C269.793 8.4981 270.324 7.77556 270.986 7.25852C271.656 6.73484 272.385 6.37026 273.174 6.16477C273.969 5.95265 274.752 5.84659 275.521 5.84659C276.011 5.84659 276.575 5.90624 277.211 6.02556C277.854 6.13825 278.474 6.37357 279.07 6.73153C279.673 7.08948 280.174 7.62973 280.572 8.35227C280.969 9.0748 281.168 10.0426 281.168 11.2557V21.3182H278.822V19.25H278.702C278.543 19.5814 278.278 19.9361 277.907 20.3139C277.536 20.6918 277.042 21.0133 276.425 21.2784C275.809 21.5436 275.057 21.6761 274.168 21.6761ZM274.526 19.5682C275.454 19.5682 276.236 19.3859 276.873 19.0213C277.516 18.6567 278 18.1861 278.325 17.6094C278.656 17.0327 278.822 16.4261 278.822 15.7898V13.642C278.722 13.7614 278.504 13.8707 278.165 13.9702C277.834 14.063 277.45 14.1458 277.012 14.2187C276.581 14.285 276.16 14.3447 275.749 14.3977C275.345 14.4441 275.017 14.4839 274.765 14.517C274.155 14.5966 273.585 14.7258 273.055 14.9048C272.531 15.0772 272.107 15.339 271.782 15.6903C271.464 16.035 271.305 16.5057 271.305 17.1023C271.305 17.9176 271.606 18.5341 272.209 18.9517C272.819 19.3627 273.592 19.5682 274.526 19.5682ZM285.451 21.3182V6.04545H287.718V8.35227H287.877C288.156 7.59659 288.66 6.98342 289.389 6.51278C290.118 6.04213 290.94 5.80681 291.855 5.80681C292.027 5.80681 292.243 5.81013 292.501 5.81676C292.76 5.82338 292.955 5.83333 293.088 5.84659V8.23295C293.008 8.21306 292.826 8.18323 292.541 8.14346C292.262 8.09706 291.967 8.07386 291.656 8.07386C290.913 8.07386 290.251 8.22963 289.667 8.54119C289.091 8.84611 288.633 9.27035 288.295 9.81391C287.964 10.3508 287.798 10.964 287.798 11.6534V21.3182H285.451ZM314.562 9.4659L312.455 10.0625C312.322 9.71117 312.126 9.36979 311.868 9.03835C311.616 8.70028 311.271 8.42187 310.834 8.20312C310.396 7.98437 309.836 7.87499 309.153 7.87499C308.219 7.87499 307.44 8.09043 306.817 8.5213C306.2 8.94554 305.892 9.48579 305.892 10.142C305.892 10.7254 306.104 11.1861 306.528 11.5241C306.953 11.8622 307.615 12.1439 308.517 12.3693L310.784 12.9261C312.15 13.2576 313.167 13.7647 313.837 14.4474C314.506 15.1236 314.841 15.9953 314.841 17.0625C314.841 17.9375 314.589 18.7197 314.085 19.4091C313.588 20.0985 312.892 20.642 311.997 21.0398C311.102 21.4375 310.062 21.6364 308.875 21.6364C307.317 21.6364 306.028 21.2983 305.007 20.6222C303.986 19.946 303.34 18.9583 303.068 17.6591L305.295 17.1023C305.508 17.9242 305.909 18.5407 306.499 18.9517C307.095 19.3627 307.874 19.5682 308.835 19.5682C309.929 19.5682 310.797 19.3362 311.44 18.8722C312.09 18.4015 312.415 17.8381 312.415 17.1818C312.415 16.6515 312.229 16.2074 311.858 15.8494C311.487 15.4848 310.917 15.2131 310.148 15.0341L307.602 14.4375C306.204 14.1061 305.176 13.5923 304.52 12.8963C303.87 12.1936 303.545 11.3153 303.545 10.2614C303.545 9.39962 303.787 8.6373 304.271 7.97443C304.762 7.31155 305.428 6.79119 306.27 6.41335C307.118 6.03551 308.08 5.84659 309.153 5.84659C310.665 5.84659 311.851 6.17802 312.713 6.8409C313.581 7.50378 314.198 8.37878 314.562 9.4659ZM325.015 6.04545V8.03408H317.1V6.04545H325.015ZM319.407 2.38636H321.754V16.9432C321.754 17.6061 321.85 18.1032 322.042 18.4347C322.241 18.7595 322.493 18.9782 322.798 19.0909C323.109 19.197 323.438 19.25 323.782 19.25C324.041 19.25 324.253 19.2367 324.419 19.2102C324.584 19.1771 324.717 19.1506 324.816 19.1307L325.294 21.2386C325.135 21.2983 324.912 21.3579 324.627 21.4176C324.342 21.4839 323.981 21.517 323.544 21.517C322.881 21.517 322.231 21.3745 321.595 21.0895C320.965 20.8044 320.441 20.3703 320.024 19.7869C319.613 19.2036 319.407 18.4678 319.407 17.5795V2.38636ZM333.039 21.6761C332.072 21.6761 331.193 21.4938 330.404 21.1293C329.616 20.758 328.989 20.2244 328.525 19.5284C328.061 18.8258 327.829 17.9773 327.829 16.9829C327.829 16.1079 328.002 15.3987 328.346 14.8551C328.691 14.3049 329.152 13.874 329.728 13.5625C330.305 13.2509 330.941 13.0189 331.637 12.8665C332.34 12.7074 333.046 12.5814 333.755 12.4886C334.683 12.3693 335.436 12.2798 336.012 12.2202C336.596 12.1539 337.02 12.0445 337.285 11.892C337.557 11.7396 337.693 11.4744 337.693 11.0966V11.017C337.693 10.036 337.424 9.27367 336.887 8.73011C336.357 8.18655 335.552 7.91477 334.471 7.91477C333.351 7.91477 332.473 8.16003 331.836 8.65056C331.2 9.14109 330.752 9.66477 330.494 10.2216L328.267 9.42613C328.664 8.4981 329.195 7.77556 329.858 7.25852C330.527 6.73484 331.256 6.37026 332.045 6.16477C332.841 5.95265 333.623 5.84659 334.392 5.84659C334.882 5.84659 335.446 5.90624 336.082 6.02556C336.725 6.13825 337.345 6.37357 337.941 6.73153C338.545 7.08948 339.045 7.62973 339.443 8.35227C339.841 9.0748 340.039 10.0426 340.039 11.2557V21.3182H337.693V19.25H337.573C337.414 19.5814 337.149 19.9361 336.778 20.3139C336.407 20.6918 335.913 21.0133 335.296 21.2784C334.68 21.5436 333.928 21.6761 333.039 21.6761ZM333.397 19.5682C334.325 19.5682 335.108 19.3859 335.744 19.0213C336.387 18.6567 336.871 18.1861 337.196 17.6094C337.527 17.0327 337.693 16.4261 337.693 15.7898V13.642C337.593 13.7614 337.375 13.8707 337.037 13.9702C336.705 14.063 336.321 14.1458 335.883 14.2187C335.452 14.285 335.031 14.3447 334.62 14.3977C334.216 14.4441 333.888 14.4839 333.636 14.517C333.026 14.5966 332.456 14.7258 331.926 14.9048C331.402 15.0772 330.978 15.339 330.653 15.6903C330.335 16.035 330.176 16.5057 330.176 17.1023C330.176 17.9176 330.477 18.5341 331.081 18.9517C331.69 19.3627 332.463 19.5682 333.397 19.5682ZM344.322 21.3182V6.04545H346.589V8.35227H346.749C347.027 7.59659 347.531 6.98342 348.26 6.51278C348.989 6.04213 349.811 5.80681 350.726 5.80681C350.898 5.80681 351.114 5.81013 351.372 5.81676C351.631 5.82338 351.826 5.83333 351.959 5.84659V8.23295C351.879 8.21306 351.697 8.18323 351.412 8.14346C351.133 8.09706 350.839 8.07386 350.527 8.07386C349.785 8.07386 349.122 8.22963 348.538 8.54119C347.962 8.84611 347.504 9.27035 347.166 9.81391C346.835 10.3508 346.669 10.964 346.669 11.6534V21.3182H344.322ZM362.339 6.04545V8.03408H354.425V6.04545H362.339ZM356.732 2.38636H359.078V16.9432C359.078 17.6061 359.174 18.1032 359.366 18.4347C359.565 18.7595 359.817 18.9782 360.122 19.0909C360.434 19.197 360.762 19.25 361.107 19.25C361.365 19.25 361.577 19.2367 361.743 19.2102C361.909 19.1771 362.041 19.1506 362.141 19.1307L362.618 21.2386C362.459 21.2983 362.237 21.3579 361.952 21.4176C361.667 21.4839 361.305 21.517 360.868 21.517C360.205 21.517 359.555 21.3745 358.919 21.0895C358.289 20.8044 357.766 20.3703 357.348 19.7869C356.937 19.2036 356.732 18.4678 356.732 17.5795V2.38636ZM372.109 21.6364C370.637 21.6364 369.368 21.3115 368.3 20.6619C367.24 20.0057 366.421 19.0909 365.844 17.9176C365.274 16.7377 364.989 15.3655 364.989 13.8011C364.989 12.2367 365.274 10.8579 365.844 9.66477C366.421 8.46496 367.223 7.5303 368.251 6.86079C369.285 6.18465 370.491 5.84659 371.87 5.84659C372.665 5.84659 373.451 5.97916 374.227 6.24431C375.002 6.50946 375.708 6.94033 376.344 7.53693C376.981 8.12689 377.488 8.90908 377.866 9.88352C378.244 10.8579 378.432 12.0578 378.432 13.4829V14.4773H366.66V12.4489H376.046C376.046 11.5871 375.874 10.8182 375.529 10.142C375.191 9.4659 374.707 8.93229 374.077 8.54119C373.454 8.15009 372.718 7.95454 371.87 7.95454C370.935 7.95454 370.127 8.18655 369.444 8.65056C368.768 9.10795 368.247 9.70454 367.883 10.4403C367.518 11.1761 367.336 11.965 367.336 12.8068V14.1591C367.336 15.3125 367.535 16.2902 367.932 17.0923C368.337 17.8878 368.897 18.4943 369.613 18.9119C370.329 19.3229 371.161 19.5284 372.109 19.5284C372.725 19.5284 373.282 19.4422 373.779 19.2699C374.283 19.0909 374.717 18.8258 375.082 18.4744C375.446 18.1165 375.728 17.6723 375.927 17.142L378.194 17.7784C377.955 18.5473 377.554 19.2235 376.991 19.8068C376.427 20.3835 375.731 20.8343 374.903 21.1591C374.074 21.4773 373.143 21.6364 372.109 21.6364ZM387.769 21.6364C386.496 21.6364 385.373 21.3149 384.398 20.6719C383.424 20.0222 382.662 19.1075 382.111 17.9276C381.561 16.741 381.286 15.339 381.286 13.7216C381.286 12.1174 381.561 10.7254 382.111 9.54545C382.662 8.36552 383.427 7.45407 384.408 6.81107C385.389 6.16808 386.523 5.84659 387.809 5.84659C388.803 5.84659 389.589 6.01231 390.165 6.34374C390.749 6.66856 391.193 7.03977 391.498 7.45738C391.809 7.86837 392.051 8.20643 392.224 8.47158H392.423V0.954539H394.769V21.3182H392.502V18.9716H392.224C392.051 19.25 391.806 19.6013 391.488 20.0256C391.17 20.4432 390.716 20.8177 390.126 21.1491C389.536 21.474 388.75 21.6364 387.769 21.6364ZM388.087 19.5284C389.029 19.5284 389.824 19.2831 390.474 18.7926C391.123 18.2954 391.617 17.6094 391.955 16.7344C392.293 15.8527 392.462 14.8352 392.462 13.6818C392.462 12.5417 392.297 11.544 391.965 10.6889C391.634 9.82717 391.143 9.15766 390.494 8.68039C389.844 8.19649 389.042 7.95454 388.087 7.95454C387.093 7.95454 386.264 8.20975 385.602 8.72016C384.945 9.22395 384.451 9.91003 384.12 10.7784C383.795 11.6401 383.633 12.6079 383.633 13.6818C383.633 14.7689 383.798 15.7566 384.13 16.6449C384.468 17.5265 384.965 18.2292 385.621 18.7528C386.284 19.2699 387.106 19.5284 388.087 19.5284ZM410.728 21.3182L406.075 6.04545H408.54L411.842 17.7386H412.001L415.262 6.04545H417.768L420.989 17.6989H421.148L424.45 6.04545H426.915L422.262 21.3182H419.955L416.614 9.58522H416.376L413.035 21.3182H410.728ZM430.018 21.3182V6.04545H432.364V21.3182H430.018ZM431.211 3.49999C430.754 3.49999 430.359 3.34422 430.028 3.03266C429.703 2.72111 429.54 2.34659 429.54 1.90909C429.54 1.47159 429.703 1.09706 430.028 0.785505C430.359 0.473953 430.754 0.318176 431.211 0.318176C431.668 0.318176 432.059 0.473953 432.384 0.785505C432.716 1.09706 432.881 1.47159 432.881 1.90909C432.881 2.34659 432.716 2.72111 432.384 3.03266C432.059 3.34422 431.668 3.49999 431.211 3.49999ZM443.304 6.04545V8.03408H435.39V6.04545H443.304ZM437.696 2.38636H440.043V16.9432C440.043 17.6061 440.139 18.1032 440.331 18.4347C440.53 18.7595 440.782 18.9782 441.087 19.0909C441.399 19.197 441.727 19.25 442.071 19.25C442.33 19.25 442.542 19.2367 442.708 19.2102C442.873 19.1771 443.006 19.1506 443.105 19.1307L443.583 21.2386C443.424 21.2983 443.202 21.3579 442.917 21.4176C442.631 21.4839 442.27 21.517 441.833 21.517C441.17 21.517 440.52 21.3745 439.884 21.0895C439.254 20.8044 438.73 20.3703 438.313 19.7869C437.902 19.2036 437.696 18.4678 437.696 17.5795V2.38636ZM449.509 12.1307V21.3182H447.162V0.954539H449.509V8.43181H449.708C450.066 7.64299 450.603 7.01657 451.319 6.55255C452.041 6.08191 453.002 5.84659 454.202 5.84659C455.243 5.84659 456.154 6.05539 456.936 6.47301C457.719 6.88399 458.325 7.51704 458.756 8.37215C459.194 9.22064 459.412 10.3011 459.412 11.6136V21.3182H457.066V11.7727C457.066 10.5597 456.751 9.62168 456.121 8.9588C455.498 8.28929 454.633 7.95454 453.526 7.95454C452.757 7.95454 452.068 8.11694 451.458 8.44176C450.854 8.76657 450.377 9.24052 450.026 9.86363C449.681 10.4867 449.509 11.2424 449.509 12.1307ZM471.143 21.3182V19.5284L479.813 8.39204V8.23295H471.421V6.04545H482.836V7.91477L474.404 18.9716V19.1307H483.114V21.3182H471.143ZM492.695 21.6364C491.223 21.6364 489.954 21.3115 488.886 20.6619C487.826 20.0057 487.007 19.0909 486.43 17.9176C485.86 16.7377 485.575 15.3655 485.575 13.8011C485.575 12.2367 485.86 10.8579 486.43 9.66477C487.007 8.46496 487.809 7.5303 488.837 6.86079C489.871 6.18465 491.077 5.84659 492.456 5.84659C493.251 5.84659 494.037 5.97916 494.812 6.24431C495.588 6.50946 496.294 6.94033 496.93 7.53693C497.567 8.12689 498.074 8.90908 498.452 9.88352C498.83 10.8579 499.018 12.0578 499.018 13.4829V14.4773H487.246V12.4489H496.632C496.632 11.5871 496.46 10.8182 496.115 10.142C495.777 9.4659 495.293 8.93229 494.663 8.54119C494.04 8.15009 493.304 7.95454 492.456 7.95454C491.521 7.95454 490.713 8.18655 490.03 8.65056C489.354 9.10795 488.833 9.70454 488.469 10.4403C488.104 11.1761 487.922 11.965 487.922 12.8068V14.1591C487.922 15.3125 488.121 16.2902 488.518 17.0923C488.923 17.8878 489.483 18.4943 490.199 18.9119C490.915 19.3229 491.747 19.5284 492.695 19.5284C493.311 19.5284 493.868 19.4422 494.365 19.2699C494.869 19.0909 495.303 18.8258 495.668 18.4744C496.032 18.1165 496.314 17.6723 496.513 17.142L498.78 17.7784C498.541 18.5473 498.14 19.2235 497.577 19.8068C497.013 20.3835 496.317 20.8343 495.489 21.1591C494.66 21.4773 493.729 21.6364 492.695 21.6364ZM502.588 21.3182V6.04545H504.855V8.35227H505.014C505.293 7.59659 505.796 6.98342 506.526 6.51278C507.255 6.04213 508.077 5.80681 508.991 5.80681C509.164 5.80681 509.379 5.81013 509.638 5.81676C509.896 5.82338 510.092 5.83333 510.224 5.84659V8.23295C510.145 8.21306 509.963 8.18323 509.678 8.14346C509.399 8.09706 509.104 8.07386 508.793 8.07386C508.05 8.07386 507.387 8.22963 506.804 8.54119C506.227 8.84611 505.77 9.27035 505.432 9.81391C505.1 10.3508 504.935 10.964 504.935 11.6534V21.3182H502.588ZM518.746 21.6364C517.367 21.6364 516.157 21.3082 515.116 20.652C514.082 19.9957 513.274 19.0776 512.69 17.8977C512.114 16.7178 511.825 15.339 511.825 13.7614C511.825 12.1704 512.114 10.7817 512.69 9.59516C513.274 8.40861 514.082 7.48721 515.116 6.83096C516.157 6.17471 517.367 5.84659 518.746 5.84659C520.124 5.84659 521.331 6.17471 522.365 6.83096C523.406 7.48721 524.214 8.40861 524.791 9.59516C525.374 10.7817 525.666 12.1704 525.666 13.7614C525.666 15.339 525.374 16.7178 524.791 17.8977C524.214 19.0776 523.406 19.9957 522.365 20.652C521.331 21.3082 520.124 21.6364 518.746 21.6364ZM518.746 19.5284C519.793 19.5284 520.655 19.2599 521.331 18.723C522.007 18.1861 522.508 17.4801 522.832 16.6051C523.157 15.7301 523.32 14.7822 523.32 13.7614C523.32 12.7405 523.157 11.7893 522.832 10.9077C522.508 10.026 522.007 9.31344 521.331 8.76988C520.655 8.22632 519.793 7.95454 518.746 7.95454C517.698 7.95454 516.837 8.22632 516.16 8.76988C515.484 9.31344 514.984 10.026 514.659 10.9077C514.334 11.7893 514.172 12.7405 514.172 13.7614C514.172 14.7822 514.334 15.7301 514.659 16.6051C514.984 17.4801 515.484 18.1861 516.16 18.723C516.837 19.2599 517.698 19.5284 518.746 19.5284ZM543.924 6.04545V8.03408H535.691V6.04545H543.924ZM538.157 21.3182V3.93749C538.157 3.06249 538.363 2.33333 538.774 1.74999C539.185 1.16666 539.718 0.72916 540.375 0.437493C541.031 0.145826 541.724 -6.91414e-06 542.453 -6.91414e-06C543.029 -6.91414e-06 543.5 0.0463949 543.865 0.139199C544.229 0.232001 544.501 0.318175 544.68 0.397721L544.004 2.42613C543.885 2.38636 543.719 2.33664 543.507 2.27698C543.301 2.21732 543.029 2.18749 542.691 2.18749C541.916 2.18749 541.356 2.38304 541.011 2.77414C540.673 3.16524 540.504 3.73863 540.504 4.49431V21.3182H538.157ZM552.789 21.6364C551.41 21.6364 550.2 21.3082 549.159 20.652C548.125 19.9957 547.317 19.0776 546.733 17.8977C546.157 16.7178 545.868 15.339 545.868 13.7614C545.868 12.1704 546.157 10.7817 546.733 9.59516C547.317 8.40861 548.125 7.48721 549.159 6.83096C550.2 6.17471 551.41 5.84659 552.789 5.84659C554.167 5.84659 555.374 6.17471 556.408 6.83096C557.449 7.48721 558.257 8.40861 558.834 9.59516C559.417 10.7817 559.709 12.1704 559.709 13.7614C559.709 15.339 559.417 16.7178 558.834 17.8977C558.257 19.0776 557.449 19.9957 556.408 20.652C555.374 21.3082 554.167 21.6364 552.789 21.6364ZM552.789 19.5284C553.836 19.5284 554.698 19.2599 555.374 18.723C556.05 18.1861 556.551 17.4801 556.875 16.6051C557.2 15.7301 557.363 14.7822 557.363 13.7614C557.363 12.7405 557.2 11.7893 556.875 10.9077C556.551 10.026 556.05 9.31344 555.374 8.76988C554.698 8.22632 553.836 7.95454 552.789 7.95454C551.741 7.95454 550.88 8.22632 550.203 8.76988C549.527 9.31344 549.027 10.026 548.702 10.9077C548.377 11.7893 548.215 12.7405 548.215 13.7614C548.215 14.7822 548.377 15.7301 548.702 16.6051C549.027 17.4801 549.527 18.1861 550.203 18.723C550.88 19.2599 551.741 19.5284 552.789 19.5284ZM565.638 0.954539V21.3182H563.291V0.954539H565.638ZM572.282 0.954539V21.3182H569.936V0.954539H572.282ZM582.785 21.6364C581.406 21.6364 580.196 21.3082 579.156 20.652C578.121 19.9957 577.313 19.0776 576.729 17.8977C576.153 16.7178 575.864 15.339 575.864 13.7614C575.864 12.1704 576.153 10.7817 576.729 9.59516C577.313 8.40861 578.121 7.48721 579.156 6.83096C580.196 6.17471 581.406 5.84659 582.785 5.84659C584.164 5.84659 585.37 6.17471 586.404 6.83096C587.445 7.48721 588.254 8.40861 588.83 9.59516C589.414 10.7817 589.705 12.1704 589.705 13.7614C589.705 15.339 589.414 16.7178 588.83 17.8977C588.254 19.0776 587.445 19.9957 586.404 20.652C585.37 21.3082 584.164 21.6364 582.785 21.6364ZM582.785 19.5284C583.832 19.5284 584.694 19.2599 585.37 18.723C586.046 18.1861 586.547 17.4801 586.871 16.6051C587.196 15.7301 587.359 14.7822 587.359 13.7614C587.359 12.7405 587.196 11.7893 586.871 10.9077C586.547 10.026 586.046 9.31344 585.37 8.76988C584.694 8.22632 583.832 7.95454 582.785 7.95454C581.737 7.95454 580.876 8.22632 580.2 8.76988C579.523 9.31344 579.023 10.026 578.698 10.9077C578.373 11.7893 578.211 12.7405 578.211 13.7614C578.211 14.7822 578.373 15.7301 578.698 16.6051C579.023 17.4801 579.523 18.1861 580.2 18.723C580.876 19.2599 581.737 19.5284 582.785 19.5284ZM596.228 21.3182L591.575 6.04545H594.04L597.342 17.7386H597.501L600.762 6.04545H603.268L606.489 17.6989H606.648L609.95 6.04545H612.415L607.762 21.3182H605.455L602.114 9.58522H601.876L598.535 21.3182H596.228ZM621.402 21.6364C619.93 21.6364 618.661 21.3115 617.593 20.6619C616.533 20.0057 615.714 19.0909 615.137 17.9176C614.567 16.7377 614.282 15.3655 614.282 13.8011C614.282 12.2367 614.567 10.8579 615.137 9.66477C615.714 8.46496 616.516 7.5303 617.544 6.86079C618.578 6.18465 619.784 5.84659 621.163 5.84659C621.958 5.84659 622.744 5.97916 623.519 6.24431C624.295 6.50946 625.001 6.94033 625.637 7.53693C626.274 8.12689 626.781 8.90908 627.159 9.88352C627.537 10.8579 627.725 12.0578 627.725 13.4829V14.4773H615.953V12.4489H625.339C625.339 11.5871 625.167 10.8182 624.822 10.142C624.484 9.4659 624 8.93229 623.37 8.54119C622.747 8.15009 622.011 7.95454 621.163 7.95454C620.228 7.95454 619.42 8.18655 618.737 8.65056C618.061 9.10795 617.54 9.70454 617.176 10.4403C616.811 11.1761 616.629 11.965 616.629 12.8068V14.1591C616.629 15.3125 616.828 16.2902 617.225 17.0923C617.63 17.8878 618.19 18.4943 618.906 18.9119C619.622 19.3229 620.454 19.5284 621.402 19.5284C622.018 19.5284 622.575 19.4422 623.072 19.2699C623.576 19.0909 624.01 18.8258 624.375 18.4744C624.739 18.1165 625.021 17.6723 625.22 17.142L627.487 17.7784C627.248 18.5473 626.847 19.2235 626.284 19.8068C625.72 20.3835 625.024 20.8343 624.196 21.1591C623.367 21.4773 622.436 21.6364 621.402 21.6364ZM631.295 21.3182V6.04545H633.562V8.35227H633.721C634 7.59659 634.503 6.98342 635.233 6.51278C635.962 6.04213 636.784 5.80681 637.698 5.80681C637.871 5.80681 638.086 5.81013 638.345 5.81676C638.603 5.82338 638.799 5.83333 638.931 5.84659V8.23295C638.852 8.21306 638.67 8.18323 638.385 8.14346C638.106 8.09706 637.811 8.07386 637.5 8.07386C636.757 8.07386 636.094 8.22963 635.511 8.54119C634.934 8.84611 634.477 9.27035 634.139 9.81391C633.807 10.3508 633.642 10.964 633.642 11.6534V21.3182H631.295ZM652.531 9.4659L650.423 10.0625C650.291 9.71117 650.095 9.36979 649.837 9.03835C649.585 8.70028 649.24 8.42187 648.803 8.20312C648.365 7.98437 647.805 7.87499 647.122 7.87499C646.187 7.87499 645.409 8.09043 644.785 8.5213C644.169 8.94554 643.861 9.48579 643.861 10.142C643.861 10.7254 644.073 11.1861 644.497 11.5241C644.921 11.8622 645.584 12.1439 646.486 12.3693L648.753 12.9261C650.118 13.2576 651.136 13.7647 651.805 14.4474C652.475 15.1236 652.81 15.9953 652.81 17.0625C652.81 17.9375 652.558 18.7197 652.054 19.4091C651.557 20.0985 650.861 20.642 649.966 21.0398C649.071 21.4375 648.03 21.6364 646.844 21.6364C645.286 21.6364 643.997 21.2983 642.976 20.6222C641.955 19.946 641.309 18.9583 641.037 17.6591L643.264 17.1023C643.476 17.9242 643.877 18.5407 644.467 18.9517C645.064 19.3627 645.843 19.5682 646.804 19.5682C647.898 19.5682 648.766 19.3362 649.409 18.8722C650.059 18.4015 650.383 17.8381 650.383 17.1818C650.383 16.6515 650.198 16.2074 649.827 15.8494C649.455 15.4848 648.885 15.2131 648.116 15.0341L645.571 14.4375C644.172 14.1061 643.145 13.5923 642.489 12.8963C641.839 12.1936 641.514 11.3153 641.514 10.2614C641.514 9.39962 641.756 8.6373 642.24 7.97443C642.731 7.31155 643.397 6.79119 644.239 6.41335C645.087 6.03551 646.048 5.84659 647.122 5.84659C648.633 5.84659 649.82 6.17802 650.682 6.8409C651.55 7.50378 652.167 8.37878 652.531 9.4659ZM658.052 21.4773C657.562 21.4773 657.141 21.3016 656.789 20.9503C656.438 20.599 656.262 20.178 656.262 19.6875C656.262 19.197 656.438 18.776 656.789 18.4247C657.141 18.0734 657.562 17.8977 658.052 17.8977C658.543 17.8977 658.964 18.0734 659.315 18.4247C659.666 18.776 659.842 19.197 659.842 19.6875C659.842 20.0123 659.759 20.3106 659.593 20.5824C659.434 20.8542 659.219 21.0729 658.947 21.2386C658.682 21.3977 658.384 21.4773 658.052 21.4773Z" fill="#F5F5F7"/>
</svg>
