<svg width="776" height="27" viewBox="0 0 776 27" fill="none" xmlns="http://www.w3.org/2000/svg">
<path d="M-2.21282e-05 2.82386V0.636363H15.2727V2.82386H8.8693V21H6.40339V2.82386H-2.21282e-05ZM21.1069 11.8125V21H18.7603V0.636363H21.1069V8.11364H21.3057C21.6637 7.32481 22.2006 6.69839 22.9165 6.23438C23.6391 5.76373 24.6002 5.52841 25.8 5.52841C26.8408 5.52841 27.7522 5.73722 28.5344 6.15483C29.3166 6.56581 29.9232 7.19886 30.354 8.05398C30.7915 8.90246 31.0103 9.98295 31.0103 11.2955V21H28.6637V11.4545C28.6637 10.2415 28.3488 9.3035 27.7191 8.64062C27.096 7.97112 26.2309 7.63636 25.1239 7.63636C24.355 7.63636 23.6656 7.79877 23.0557 8.12358C22.4525 8.44839 21.9752 8.92235 21.6239 9.54545C21.2792 10.1686 21.1069 10.9242 21.1069 11.8125ZM41.7067 21.3182C40.2351 21.3182 38.9657 20.9934 37.8984 20.3438C36.8378 19.6875 36.0192 18.7727 35.4424 17.5994C34.8724 16.4195 34.5873 15.0473 34.5873 13.483C34.5873 11.9186 34.8724 10.5398 35.4424 9.34659C36.0192 8.14678 36.8212 7.21212 37.8487 6.54261C38.8828 5.86648 40.0892 5.52841 41.468 5.52841C42.2635 5.52841 43.049 5.66098 43.8246 5.92614C44.6001 6.19129 45.3061 6.62216 45.9424 7.21875C46.5788 7.80871 47.0859 8.59091 47.4638 9.56534C47.8416 10.5398 48.0305 11.7396 48.0305 13.1648V14.1591H36.2578V12.1307H45.6442C45.6442 11.2689 45.4718 10.5 45.1271 9.82386C44.789 9.14773 44.3051 8.61411 43.6754 8.22301C43.0523 7.83191 42.3165 7.63636 41.468 7.63636C40.5334 7.63636 39.7246 7.86837 39.0419 8.33239C38.3657 8.78977 37.8454 9.38636 37.4808 10.1222C37.1162 10.858 36.9339 11.6468 36.9339 12.4886V13.8409C36.9339 14.9943 37.1328 15.9721 37.5305 16.7741C37.9349 17.5696 38.495 18.1761 39.2109 18.5938C39.9268 19.0047 40.7587 19.2102 41.7067 19.2102C42.3231 19.2102 42.8799 19.1241 43.3771 18.9517C43.8809 18.7727 44.3151 18.5076 44.6797 18.1562C45.0442 17.7983 45.326 17.3542 45.5248 16.8239L47.7919 17.4602C47.5532 18.2292 47.1522 18.9053 46.5888 19.4886C46.0253 20.0653 45.3293 20.5161 44.5007 20.8409C43.6721 21.1591 42.7407 21.3182 41.7067 21.3182ZM52.6466 26.7273C52.2489 26.7273 51.8943 26.6941 51.5827 26.6278C51.2712 26.5682 51.0557 26.5085 50.9364 26.4489L51.533 24.3807C52.1031 24.5265 52.6069 24.5795 53.0444 24.5398C53.4819 24.5 53.8697 24.3045 54.2077 23.9531C54.5524 23.6084 54.8673 23.0483 55.1523 22.2727L55.5898 21.0795L49.9421 5.72727H52.4875L56.7035 17.8977H56.8625L61.0785 5.72727H63.6239L57.141 23.2273C56.8493 24.0161 56.488 24.669 56.0572 25.1861C55.6263 25.7098 55.1258 26.0975 54.5557 26.3494C53.9923 26.6013 53.3559 26.7273 52.6466 26.7273ZM74.5962 5.72727H76.9428V22.1136C76.9428 23.0549 76.7804 23.8703 76.4556 24.5597C76.1374 25.2491 75.6535 25.7827 75.0039 26.1605C74.3609 26.5384 73.5489 26.7273 72.5678 26.7273C72.4883 26.7273 72.4087 26.7273 72.3292 26.7273C72.2496 26.7273 72.1701 26.7273 72.0905 26.7273V24.5398C72.1701 24.5398 72.243 24.5398 72.3093 24.5398C72.3756 24.5398 72.4485 24.5398 72.528 24.5398C73.2439 24.5398 73.7676 24.3277 74.0991 23.9034C74.4305 23.4858 74.5962 22.8892 74.5962 22.1136V5.72727ZM75.7496 3.18182C75.2922 3.18182 74.8978 3.02604 74.5664 2.71449C74.2416 2.40294 74.0792 2.02841 74.0792 1.59091C74.0792 1.15341 74.2416 0.778882 74.5664 0.467329C74.8978 0.155776 75.2922 0 75.7496 0C76.207 0 76.5981 0.155776 76.9229 0.467329C77.2544 0.778882 77.4201 1.15341 77.4201 1.59091C77.4201 2.02841 77.2544 2.40294 76.9229 2.71449C76.5981 3.02604 76.207 3.18182 75.7496 3.18182ZM90.8657 14.7557V5.72727H93.2123V21H90.8657V18.4148H90.7067C90.3487 19.1903 89.7919 19.8499 89.0362 20.3935C88.2805 20.9304 87.326 21.1989 86.1726 21.1989C85.218 21.1989 84.3695 20.9901 83.6271 20.5724C82.8847 20.1482 82.3014 19.5118 81.8771 18.6634C81.4529 17.8082 81.2407 16.7311 81.2407 15.4318V5.72727H83.5873V15.2727C83.5873 16.3864 83.8989 17.2746 84.522 17.9375C85.1517 18.6004 85.9538 18.9318 86.9282 18.9318C87.5116 18.9318 88.1049 18.7827 88.7081 18.4844C89.3179 18.1861 89.8283 17.7287 90.2393 17.1122C90.6569 16.4957 90.8657 15.7102 90.8657 14.7557ZM108.328 9.14773L106.221 9.74432C106.088 9.39299 105.892 9.05161 105.634 8.72017C105.382 8.3821 105.037 8.10369 104.6 7.88494C104.162 7.66619 103.602 7.55682 102.919 7.55682C101.985 7.55682 101.206 7.77225 100.583 8.20312C99.9662 8.62737 99.658 9.16761 99.658 9.82386C99.658 10.4072 99.8701 10.8679 100.294 11.206C100.719 11.544 101.381 11.8258 102.283 12.0511L104.55 12.608C105.916 12.9394 106.933 13.4465 107.603 14.1293C108.272 14.8054 108.607 15.6771 108.607 16.7443C108.607 17.6193 108.355 18.4015 107.851 19.0909C107.354 19.7803 106.658 20.3239 105.763 20.7216C104.868 21.1193 103.828 21.3182 102.641 21.3182C101.083 21.3182 99.7939 20.9801 98.7731 20.304C97.7522 19.6278 97.1059 18.6402 96.8341 17.3409L99.0614 16.7841C99.2735 17.6061 99.6746 18.2225 100.265 18.6335C100.861 19.0445 101.64 19.25 102.601 19.25C103.695 19.25 104.563 19.018 105.206 18.554C105.856 18.0833 106.181 17.5199 106.181 16.8636C106.181 16.3333 105.995 15.8892 105.624 15.5312C105.253 15.1667 104.683 14.8949 103.914 14.7159L101.368 14.1193C99.9696 13.7879 98.9421 13.2741 98.2858 12.5781C97.6362 11.8755 97.3114 10.9972 97.3114 9.94318C97.3114 9.08144 97.5534 8.31913 98.0373 7.65625C98.5278 6.99337 99.194 6.47301 100.036 6.09517C100.884 5.71733 101.846 5.52841 102.919 5.52841C104.431 5.52841 105.617 5.85985 106.479 6.52273C107.347 7.18561 107.964 8.06061 108.328 9.14773ZM118.781 5.72727V7.71591H110.866V5.72727H118.781ZM113.173 2.06818H115.52V16.625C115.52 17.2879 115.616 17.785 115.808 18.1165C116.007 18.4413 116.259 18.66 116.564 18.7727C116.875 18.8788 117.204 18.9318 117.548 18.9318C117.807 18.9318 118.019 18.9186 118.185 18.892C118.35 18.8589 118.483 18.8324 118.582 18.8125L119.06 20.9205C118.901 20.9801 118.678 21.0398 118.393 21.0994C118.108 21.1657 117.747 21.1989 117.31 21.1989C116.647 21.1989 115.997 21.0563 115.361 20.7713C114.731 20.4863 114.207 20.0521 113.79 19.4688C113.379 18.8854 113.173 18.1496 113.173 17.2614V2.06818ZM132.533 11.8125V21H130.186V0.636363H132.533V8.11364H132.732C133.089 7.32481 133.626 6.69839 134.342 6.23438C135.065 5.76373 136.026 5.52841 137.226 5.52841C138.267 5.52841 139.178 5.73722 139.96 6.15483C140.742 6.56581 141.349 7.19886 141.78 8.05398C142.217 8.90246 142.436 9.98295 142.436 11.2955V21H140.089V11.4545C140.089 10.2415 139.775 9.3035 139.145 8.64062C138.522 7.97112 137.657 7.63636 136.55 7.63636C135.781 7.63636 135.091 7.79877 134.482 8.12358C133.878 8.44839 133.401 8.92235 133.05 9.54545C132.705 10.1686 132.533 10.9242 132.533 11.8125ZM151.223 21.358C150.256 21.358 149.377 21.1757 148.588 20.8111C147.8 20.4399 147.173 19.9062 146.709 19.2102C146.245 18.5076 146.013 17.6591 146.013 16.6648C146.013 15.7898 146.185 15.0805 146.53 14.5369C146.875 13.9867 147.336 13.5559 147.912 13.2443C148.489 12.9328 149.125 12.7008 149.821 12.5483C150.524 12.3892 151.23 12.2633 151.939 12.1705C152.867 12.0511 153.62 11.9616 154.196 11.902C154.78 11.8357 155.204 11.7263 155.469 11.5739C155.741 11.4214 155.877 11.1562 155.877 10.7784V10.6989C155.877 9.7178 155.608 8.95549 155.071 8.41193C154.541 7.86837 153.736 7.59659 152.655 7.59659C151.535 7.59659 150.657 7.84186 150.02 8.33239C149.384 8.82292 148.936 9.34659 148.678 9.90341L146.451 9.10795C146.848 8.17992 147.379 7.45739 148.042 6.94034C148.711 6.41667 149.44 6.05208 150.229 5.84659C151.024 5.63447 151.807 5.52841 152.576 5.52841C153.066 5.52841 153.63 5.58807 154.266 5.70739C154.909 5.82007 155.529 6.0554 156.125 6.41335C156.729 6.77131 157.229 7.31155 157.627 8.03409C158.024 8.75663 158.223 9.72443 158.223 10.9375V21H155.877V18.9318H155.757C155.598 19.2633 155.333 19.6179 154.962 19.9957C154.591 20.3736 154.097 20.6951 153.48 20.9602C152.864 21.2254 152.112 21.358 151.223 21.358ZM151.581 19.25C152.509 19.25 153.292 19.0677 153.928 18.7031C154.571 18.3385 155.055 17.8679 155.38 17.2912C155.711 16.7145 155.877 16.108 155.877 15.4716V13.3239C155.777 13.4432 155.559 13.5526 155.221 13.652C154.889 13.7448 154.505 13.8277 154.067 13.9006C153.636 13.9669 153.215 14.0265 152.804 14.0795C152.4 14.1259 152.072 14.1657 151.82 14.1989C151.21 14.2784 150.64 14.4077 150.11 14.5866C149.586 14.759 149.162 15.0208 148.837 15.3722C148.519 15.7169 148.36 16.1875 148.36 16.7841C148.36 17.5994 148.661 18.2159 149.265 18.6335C149.874 19.0445 150.647 19.25 151.581 19.25ZM168.273 21.3182C167.001 21.3182 165.877 20.9967 164.903 20.3537C163.928 19.7041 163.166 18.7893 162.616 17.6094C162.066 16.4228 161.79 15.0208 161.79 13.4034C161.79 11.7992 162.066 10.4072 162.616 9.22727C163.166 8.04735 163.932 7.13589 164.913 6.4929C165.894 5.84991 167.027 5.52841 168.313 5.52841C169.308 5.52841 170.093 5.69413 170.67 6.02557C171.253 6.35038 171.697 6.72159 172.002 7.1392C172.314 7.55019 172.556 7.88826 172.728 8.15341H172.927V0.636363H175.273V21H173.006V18.6534H172.728C172.556 18.9318 172.31 19.2831 171.992 19.7074C171.674 20.125 171.22 20.4995 170.63 20.831C170.04 21.1558 169.254 21.3182 168.273 21.3182ZM168.592 19.2102C169.533 19.2102 170.328 18.965 170.978 18.4744C171.628 17.9773 172.121 17.2912 172.459 16.4162C172.798 15.5346 172.967 14.517 172.967 13.3636C172.967 12.2235 172.801 11.2259 172.469 10.3707C172.138 9.509 171.647 8.83949 170.998 8.36222C170.348 7.87831 169.546 7.63636 168.592 7.63636C167.597 7.63636 166.769 7.89157 166.106 8.40199C165.45 8.90578 164.956 9.59186 164.624 10.4602C164.299 11.322 164.137 12.2898 164.137 13.3636C164.137 14.4508 164.303 15.4384 164.634 16.3267C164.972 17.2083 165.469 17.911 166.126 18.4347C166.789 18.9517 167.611 19.2102 168.592 19.2102ZM192.266 21.358C191.299 21.358 190.42 21.1757 189.631 20.8111C188.843 20.4399 188.216 19.9062 187.752 19.2102C187.288 18.5076 187.056 17.6591 187.056 16.6648C187.056 15.7898 187.228 15.0805 187.573 14.5369C187.918 13.9867 188.379 13.5559 188.955 13.2443C189.532 12.9328 190.168 12.7008 190.864 12.5483C191.567 12.3892 192.273 12.2633 192.982 12.1705C193.91 12.0511 194.663 11.9616 195.239 11.902C195.823 11.8357 196.247 11.7263 196.512 11.5739C196.784 11.4214 196.92 11.1562 196.92 10.7784V10.6989C196.92 9.7178 196.651 8.95549 196.114 8.41193C195.584 7.86837 194.779 7.59659 193.698 7.59659C192.578 7.59659 191.7 7.84186 191.063 8.33239C190.427 8.82292 189.979 9.34659 189.721 9.90341L187.494 9.10795C187.891 8.17992 188.422 7.45739 189.084 6.94034C189.754 6.41667 190.483 6.05208 191.272 5.84659C192.067 5.63447 192.85 5.52841 193.619 5.52841C194.109 5.52841 194.673 5.58807 195.309 5.70739C195.952 5.82007 196.572 6.0554 197.168 6.41335C197.772 6.77131 198.272 7.31155 198.67 8.03409C199.067 8.75663 199.266 9.72443 199.266 10.9375V21H196.92V18.9318H196.8C196.641 19.2633 196.376 19.6179 196.005 19.9957C195.634 20.3736 195.14 20.6951 194.523 20.9602C193.907 21.2254 193.155 21.358 192.266 21.358ZM192.624 19.25C193.552 19.25 194.334 19.0677 194.971 18.7031C195.614 18.3385 196.098 17.8679 196.423 17.2912C196.754 16.7145 196.92 16.108 196.92 15.4716V13.3239C196.82 13.4432 196.602 13.5526 196.263 13.652C195.932 13.7448 195.548 13.8277 195.11 13.9006C194.679 13.9669 194.258 14.0265 193.847 14.0795C193.443 14.1259 193.115 14.1657 192.863 14.1989C192.253 14.2784 191.683 14.4077 191.153 14.5866C190.629 14.759 190.205 15.0208 189.88 15.3722C189.562 15.7169 189.403 16.1875 189.403 16.7841C189.403 17.5994 189.704 18.2159 190.308 18.6335C190.917 19.0445 191.69 19.25 192.624 19.25ZM217.191 21.3182C215.919 21.3182 214.795 20.9967 213.821 20.3537C212.846 19.7041 212.084 18.7893 211.534 17.6094C210.984 16.4228 210.708 15.0208 210.708 13.4034C210.708 11.7992 210.984 10.4072 211.534 9.22727C212.084 8.04735 212.85 7.13589 213.831 6.4929C214.812 5.84991 215.945 5.52841 217.231 5.52841C218.225 5.52841 219.011 5.69413 219.588 6.02557C220.171 6.35038 220.615 6.72159 220.92 7.1392C221.232 7.55019 221.474 7.88826 221.646 8.15341H221.845V0.636363H224.191V21H221.924V18.6534H221.646C221.474 18.9318 221.228 19.2831 220.91 19.7074C220.592 20.125 220.138 20.4995 219.548 20.831C218.958 21.1558 218.172 21.3182 217.191 21.3182ZM217.51 19.2102C218.451 19.2102 219.246 18.965 219.896 18.4744C220.546 17.9773 221.039 17.2912 221.377 16.4162C221.716 15.5346 221.885 14.517 221.885 13.3636C221.885 12.2235 221.719 11.2259 221.387 10.3707C221.056 9.509 220.565 8.83949 219.916 8.36222C219.266 7.87831 218.464 7.63636 217.51 7.63636C216.515 7.63636 215.687 7.89157 215.024 8.40199C214.368 8.90578 213.874 9.59186 213.542 10.4602C213.217 11.322 213.055 12.2898 213.055 13.3636C213.055 14.4508 213.221 15.4384 213.552 16.3267C213.89 17.2083 214.387 17.911 215.044 18.4347C215.707 18.9517 216.529 19.2102 217.51 19.2102ZM228.815 21V5.72727H231.082V8.03409H231.241C231.52 7.27841 232.023 6.66525 232.752 6.1946C233.482 5.72396 234.304 5.48864 235.218 5.48864C235.391 5.48864 235.606 5.49195 235.865 5.49858C236.123 5.50521 236.319 5.51515 236.451 5.52841V7.91477C236.372 7.89489 236.189 7.86506 235.904 7.82528C235.626 7.77888 235.331 7.75568 235.02 7.75568C234.277 7.75568 233.614 7.91146 233.031 8.22301C232.454 8.52794 231.997 8.95218 231.659 9.49574C231.327 10.0327 231.162 10.6458 231.162 11.3352V21H228.815ZM245.171 21.3182C243.7 21.3182 242.43 20.9934 241.363 20.3438C240.303 19.6875 239.484 18.7727 238.907 17.5994C238.337 16.4195 238.052 15.0473 238.052 13.483C238.052 11.9186 238.337 10.5398 238.907 9.34659C239.484 8.14678 240.286 7.21212 241.314 6.54261C242.348 5.86648 243.554 5.52841 244.933 5.52841C245.728 5.52841 246.514 5.66098 247.289 5.92614C248.065 6.19129 248.771 6.62216 249.407 7.21875C250.044 7.80871 250.551 8.59091 250.929 9.56534C251.306 10.5398 251.495 11.7396 251.495 13.1648V14.1591H239.723V12.1307H249.109C249.109 11.2689 248.937 10.5 248.592 9.82386C248.254 9.14773 247.77 8.61411 247.14 8.22301C246.517 7.83191 245.781 7.63636 244.933 7.63636C243.998 7.63636 243.189 7.86837 242.507 8.33239C241.831 8.78977 241.31 9.38636 240.946 10.1222C240.581 10.858 240.399 11.6468 240.399 12.4886V13.8409C240.399 14.9943 240.598 15.9721 240.995 16.7741C241.4 17.5696 241.96 18.1761 242.676 18.5938C243.392 19.0047 244.224 19.2102 245.171 19.2102C245.788 19.2102 246.345 19.1241 246.842 18.9517C247.346 18.7727 247.78 18.5076 248.145 18.1562C248.509 17.7983 248.791 17.3542 248.99 16.8239L251.257 17.4602C251.018 18.2292 250.617 18.9053 250.054 19.4886C249.49 20.0653 248.794 20.5161 247.966 20.8409C247.137 21.1591 246.206 21.3182 245.171 21.3182ZM259.559 21.358C258.591 21.358 257.713 21.1757 256.924 20.8111C256.136 20.4399 255.509 19.9062 255.045 19.2102C254.581 18.5076 254.349 17.6591 254.349 16.6648C254.349 15.7898 254.521 15.0805 254.866 14.5369C255.211 13.9867 255.671 13.5559 256.248 13.2443C256.825 12.9328 257.461 12.7008 258.157 12.5483C258.86 12.3892 259.566 12.2633 260.275 12.1705C261.203 12.0511 261.956 11.9616 262.532 11.902C263.116 11.8357 263.54 11.7263 263.805 11.5739C264.077 11.4214 264.213 11.1562 264.213 10.7784V10.6989C264.213 9.7178 263.944 8.95549 263.407 8.41193C262.877 7.86837 262.072 7.59659 260.991 7.59659C259.871 7.59659 258.993 7.84186 258.356 8.33239C257.72 8.82292 257.272 9.34659 257.014 9.90341L254.787 9.10795C255.184 8.17992 255.715 7.45739 256.377 6.94034C257.047 6.41667 257.776 6.05208 258.565 5.84659C259.36 5.63447 260.143 5.52841 260.912 5.52841C261.402 5.52841 261.966 5.58807 262.602 5.70739C263.245 5.82007 263.865 6.0554 264.461 6.41335C265.064 6.77131 265.565 7.31155 265.963 8.03409C266.36 8.75663 266.559 9.72443 266.559 10.9375V21H264.213V18.9318H264.093C263.934 19.2633 263.669 19.6179 263.298 19.9957C262.927 20.3736 262.433 20.6951 261.816 20.9602C261.2 21.2254 260.448 21.358 259.559 21.358ZM259.917 19.25C260.845 19.25 261.627 19.0677 262.264 18.7031C262.907 18.3385 263.391 17.8679 263.716 17.2912C264.047 16.7145 264.213 16.108 264.213 15.4716V13.3239C264.113 13.4432 263.895 13.5526 263.556 13.652C263.225 13.7448 262.841 13.8277 262.403 13.9006C261.972 13.9669 261.551 14.0265 261.14 14.0795C260.736 14.1259 260.408 14.1657 260.156 14.1989C259.546 14.2784 258.976 14.4077 258.446 14.5866C257.922 14.759 257.498 15.0208 257.173 15.3722C256.855 15.7169 256.696 16.1875 256.696 16.7841C256.696 17.5994 256.997 18.2159 257.6 18.6335C258.21 19.0445 258.983 19.25 259.917 19.25ZM270.842 21V5.72727H273.109V8.11364H273.308C273.626 7.2983 274.14 6.66525 274.849 6.21449C275.559 5.7571 276.41 5.52841 277.405 5.52841C278.412 5.52841 279.251 5.7571 279.92 6.21449C280.597 6.66525 281.124 7.2983 281.501 8.11364H281.66C282.052 7.32481 282.638 6.69839 283.42 6.23438C284.203 5.76373 285.141 5.52841 286.234 5.52841C287.6 5.52841 288.717 5.95597 289.585 6.81108C290.454 7.65956 290.888 8.98201 290.888 10.7784V21H288.541V10.7784C288.541 9.65151 288.233 8.84612 287.616 8.36222C287 7.87831 286.274 7.63636 285.439 7.63636C284.365 7.63636 283.533 7.96117 282.943 8.6108C282.353 9.25379 282.058 10.0691 282.058 11.0568V21H279.672V10.5398C279.672 9.6714 279.39 8.97206 278.827 8.44176C278.263 7.90483 277.537 7.63636 276.649 7.63636C276.039 7.63636 275.469 7.79877 274.939 8.12358C274.415 8.44839 273.991 8.89915 273.666 9.47585C273.348 10.0459 273.189 10.7055 273.189 11.4545V21H270.842ZM307.548 21.358C306.58 21.358 305.701 21.1757 304.913 20.8111C304.124 20.4399 303.497 19.9062 303.033 19.2102C302.569 18.5076 302.337 17.6591 302.337 16.6648C302.337 15.7898 302.51 15.0805 302.854 14.5369C303.199 13.9867 303.66 13.5559 304.236 13.2443C304.813 12.9328 305.45 12.7008 306.146 12.5483C306.848 12.3892 307.554 12.2633 308.263 12.1705C309.192 12.0511 309.944 11.9616 310.521 11.902C311.104 11.8357 311.528 11.7263 311.793 11.5739C312.065 11.4214 312.201 11.1562 312.201 10.7784V10.6989C312.201 9.7178 311.933 8.95549 311.396 8.41193C310.865 7.86837 310.06 7.59659 308.979 7.59659C307.859 7.59659 306.981 7.84186 306.344 8.33239C305.708 8.82292 305.261 9.34659 305.002 9.90341L302.775 9.10795C303.173 8.17992 303.703 7.45739 304.366 6.94034C305.035 6.41667 305.764 6.05208 306.553 5.84659C307.349 5.63447 308.131 5.52841 308.9 5.52841C309.39 5.52841 309.954 5.58807 310.59 5.70739C311.233 5.82007 311.853 6.0554 312.45 6.41335C313.053 6.77131 313.553 7.31155 313.951 8.03409C314.349 8.75663 314.548 9.72443 314.548 10.9375V21H312.201V18.9318H312.082C311.923 19.2633 311.657 19.6179 311.286 19.9957C310.915 20.3736 310.421 20.6951 309.805 20.9602C309.188 21.2254 308.436 21.358 307.548 21.358ZM307.906 19.25C308.834 19.25 309.616 19.0677 310.252 18.7031C310.895 18.3385 311.379 17.8679 311.704 17.2912C312.035 16.7145 312.201 16.108 312.201 15.4716V13.3239C312.102 13.4432 311.883 13.5526 311.545 13.652C311.213 13.7448 310.829 13.8277 310.391 13.9006C309.96 13.9669 309.54 14.0265 309.129 14.0795C308.724 14.1259 308.396 14.1657 308.144 14.1989C307.534 14.2784 306.964 14.4077 306.434 14.5866C305.91 14.759 305.486 15.0208 305.161 15.3722C304.843 15.7169 304.684 16.1875 304.684 16.7841C304.684 17.5994 304.986 18.2159 305.589 18.6335C306.199 19.0445 306.971 19.25 307.906 19.25ZM321.177 11.8125V21H318.831V5.72727H321.098V8.11364H321.296C321.654 7.33807 322.198 6.71496 322.927 6.24432C323.656 5.76705 324.598 5.52841 325.751 5.52841C326.785 5.52841 327.69 5.74053 328.466 6.16477C329.241 6.58239 329.844 7.21875 330.275 8.07386C330.706 8.92235 330.921 9.99621 330.921 11.2955V21H328.575V11.4545C328.575 10.2547 328.263 9.32008 327.64 8.65057C327.017 7.97443 326.162 7.63636 325.075 7.63636C324.326 7.63636 323.656 7.79877 323.066 8.12358C322.483 8.44839 322.022 8.92235 321.684 9.54545C321.346 10.1686 321.177 10.9242 321.177 11.8125ZM340.977 21.3182C339.704 21.3182 338.58 20.9967 337.606 20.3537C336.631 19.7041 335.869 18.7893 335.319 17.6094C334.769 16.4228 334.494 15.0208 334.494 13.4034C334.494 11.7992 334.769 10.4072 335.319 9.22727C335.869 8.04735 336.635 7.13589 337.616 6.4929C338.597 5.84991 339.73 5.52841 341.016 5.52841C342.011 5.52841 342.796 5.69413 343.373 6.02557C343.956 6.35038 344.4 6.72159 344.705 7.1392C345.017 7.55019 345.259 7.88826 345.431 8.15341H345.63V0.636363H347.977V21H345.709V18.6534H345.431C345.259 18.9318 345.013 19.2831 344.695 19.7074C344.377 20.125 343.923 20.4995 343.333 20.831C342.743 21.1558 341.958 21.3182 340.977 21.3182ZM341.295 19.2102C342.236 19.2102 343.031 18.965 343.681 18.4744C344.331 17.9773 344.825 17.2912 345.163 16.4162C345.501 15.5346 345.67 14.517 345.67 13.3636C345.67 12.2235 345.504 11.2259 345.173 10.3707C344.841 9.509 344.351 8.83949 343.701 8.36222C343.051 7.87831 342.249 7.63636 341.295 7.63636C340.3 7.63636 339.472 7.89157 338.809 8.40199C338.153 8.90578 337.659 9.59186 337.327 10.4602C337.003 11.322 336.84 12.2898 336.84 13.3636C336.84 14.4508 337.006 15.4384 337.337 16.3267C337.675 17.2083 338.173 17.911 338.829 18.4347C339.492 18.9517 340.314 19.2102 341.295 19.2102ZM371.293 9.14773L369.185 9.74432C369.053 9.39299 368.857 9.05161 368.599 8.72017C368.347 8.3821 368.002 8.10369 367.565 7.88494C367.127 7.66619 366.567 7.55682 365.884 7.55682C364.95 7.55682 364.171 7.77225 363.548 8.20312C362.931 8.62737 362.623 9.16761 362.623 9.82386C362.623 10.4072 362.835 10.8679 363.259 11.206C363.683 11.544 364.346 11.8258 365.248 12.0511L367.515 12.608C368.88 12.9394 369.898 13.4465 370.567 14.1293C371.237 14.8054 371.572 15.6771 371.572 16.7443C371.572 17.6193 371.32 18.4015 370.816 19.0909C370.319 19.7803 369.623 20.3239 368.728 20.7216C367.833 21.1193 366.792 21.3182 365.606 21.3182C364.048 21.3182 362.759 20.9801 361.738 20.304C360.717 19.6278 360.071 18.6402 359.799 17.3409L362.026 16.7841C362.238 17.6061 362.639 18.2225 363.229 18.6335C363.826 19.0445 364.605 19.25 365.566 19.25C366.66 19.25 367.528 19.018 368.171 18.554C368.821 18.0833 369.146 17.5199 369.146 16.8636C369.146 16.3333 368.96 15.8892 368.589 15.5312C368.218 15.1667 367.647 14.8949 366.879 14.7159L364.333 14.1193C362.934 13.7879 361.907 13.2741 361.251 12.5781C360.601 11.8755 360.276 10.9972 360.276 9.94318C360.276 9.08144 360.518 8.31913 361.002 7.65625C361.493 6.99337 362.159 6.47301 363.001 6.09517C363.849 5.71733 364.81 5.52841 365.884 5.52841C367.396 5.52841 368.582 5.85985 369.444 6.52273C370.312 7.18561 370.929 8.06061 371.293 9.14773ZM381.309 21.3182C379.93 21.3182 378.72 20.9901 377.679 20.3338C376.645 19.6776 375.837 18.7595 375.253 17.5795C374.676 16.3996 374.388 15.0208 374.388 13.4432C374.388 11.8523 374.676 10.4635 375.253 9.27699C375.837 8.09043 376.645 7.16903 377.679 6.51278C378.72 5.85653 379.93 5.52841 381.309 5.52841C382.687 5.52841 383.894 5.85653 384.928 6.51278C385.969 7.16903 386.777 8.09043 387.354 9.27699C387.937 10.4635 388.229 11.8523 388.229 13.4432C388.229 15.0208 387.937 16.3996 387.354 17.5795C386.777 18.7595 385.969 19.6776 384.928 20.3338C383.894 20.9901 382.687 21.3182 381.309 21.3182ZM381.309 19.2102C382.356 19.2102 383.218 18.9418 383.894 18.4048C384.57 17.8679 385.07 17.1619 385.395 16.2869C385.72 15.4119 385.882 14.464 385.882 13.4432C385.882 12.4223 385.72 11.4711 385.395 10.5895C385.07 9.70786 384.57 8.99526 383.894 8.4517C383.218 7.90814 382.356 7.63636 381.309 7.63636C380.261 7.63636 379.399 7.90814 378.723 8.4517C378.047 8.99526 377.547 9.70786 377.222 10.5895C376.897 11.4711 376.735 12.4223 376.735 13.4432C376.735 14.464 376.897 15.4119 377.222 16.2869C377.547 17.1619 378.047 17.8679 378.723 18.4048C379.399 18.9418 380.261 19.2102 381.309 19.2102ZM391.811 21V5.72727H394.078V8.11364H394.277C394.595 7.2983 395.109 6.66525 395.818 6.21449C396.527 5.7571 397.379 5.52841 398.374 5.52841C399.381 5.52841 400.22 5.7571 400.889 6.21449C401.565 6.66525 402.092 7.2983 402.47 8.11364H402.629C403.02 7.32481 403.607 6.69839 404.389 6.23438C405.171 5.76373 406.109 5.52841 407.203 5.52841C408.569 5.52841 409.686 5.95597 410.554 6.81108C411.422 7.65956 411.857 8.98201 411.857 10.7784V21H409.51V10.7784C409.51 9.65151 409.202 8.84612 408.585 8.36222C407.969 7.87831 407.243 7.63636 406.408 7.63636C405.334 7.63636 404.502 7.96117 403.912 8.6108C403.322 9.25379 403.027 10.0691 403.027 11.0568V21H400.641V10.5398C400.641 9.6714 400.359 8.97206 399.795 8.44176C399.232 7.90483 398.506 7.63636 397.618 7.63636C397.008 7.63636 396.438 7.79877 395.908 8.12358C395.384 8.44839 394.96 8.89915 394.635 9.47585C394.317 10.0459 394.158 10.7055 394.158 11.4545V21H391.811ZM422.55 21.3182C421.079 21.3182 419.809 20.9934 418.742 20.3438C417.682 19.6875 416.863 18.7727 416.286 17.5994C415.716 16.4195 415.431 15.0473 415.431 13.483C415.431 11.9186 415.716 10.5398 416.286 9.34659C416.863 8.14678 417.665 7.21212 418.692 6.54261C419.727 5.86648 420.933 5.52841 422.312 5.52841C423.107 5.52841 423.893 5.66098 424.668 5.92614C425.444 6.19129 426.15 6.62216 426.786 7.21875C427.423 7.80871 427.93 8.59091 428.308 9.56534C428.685 10.5398 428.874 11.7396 428.874 13.1648V14.1591H417.102V12.1307H426.488C426.488 11.2689 426.316 10.5 425.971 9.82386C425.633 9.14773 425.149 8.61411 424.519 8.22301C423.896 7.83191 423.16 7.63636 422.312 7.63636C421.377 7.63636 420.568 7.86837 419.886 8.33239C419.209 8.78977 418.689 9.38636 418.325 10.1222C417.96 10.858 417.778 11.6468 417.778 12.4886V13.8409C417.778 14.9943 417.977 15.9721 418.374 16.7741C418.779 17.5696 419.339 18.1761 420.055 18.5938C420.771 19.0047 421.602 19.2102 422.55 19.2102C423.167 19.2102 423.724 19.1241 424.221 18.9517C424.725 18.7727 425.159 18.5076 425.523 18.1562C425.888 17.7983 426.17 17.3542 426.369 16.8239L428.636 17.4602C428.397 18.2292 427.996 18.9053 427.433 19.4886C426.869 20.0653 426.173 20.5161 425.344 20.8409C424.516 21.1591 423.584 21.3182 422.55 21.3182ZM438.648 21.3182C437.27 21.3182 436.06 20.9901 435.019 20.3338C433.985 19.6776 433.176 18.7595 432.593 17.5795C432.016 16.3996 431.728 15.0208 431.728 13.4432C431.728 11.8523 432.016 10.4635 432.593 9.27699C433.176 8.09043 433.985 7.16903 435.019 6.51278C436.06 5.85653 437.27 5.52841 438.648 5.52841C440.027 5.52841 441.234 5.85653 442.268 6.51278C443.308 7.16903 444.117 8.09043 444.694 9.27699C445.277 10.4635 445.569 11.8523 445.569 13.4432C445.569 15.0208 445.277 16.3996 444.694 17.5795C444.117 18.7595 443.308 19.6776 442.268 20.3338C441.234 20.9901 440.027 21.3182 438.648 21.3182ZM438.648 19.2102C439.696 19.2102 440.558 18.9418 441.234 18.4048C441.91 17.8679 442.41 17.1619 442.735 16.2869C443.06 15.4119 443.222 14.464 443.222 13.4432C443.222 12.4223 443.06 11.4711 442.735 10.5895C442.41 9.70786 441.91 8.99526 441.234 8.4517C440.558 7.90814 439.696 7.63636 438.648 7.63636C437.601 7.63636 436.739 7.90814 436.063 8.4517C435.387 8.99526 434.887 9.70786 434.562 10.5895C434.237 11.4711 434.075 12.4223 434.075 13.4432C434.075 14.464 434.237 15.4119 434.562 16.2869C434.887 17.1619 435.387 17.8679 436.063 18.4048C436.739 18.9418 437.601 19.2102 438.648 19.2102ZM451.497 11.8125V21H449.151V5.72727H451.418V8.11364H451.617C451.975 7.33807 452.518 6.71496 453.247 6.24432C453.977 5.76705 454.918 5.52841 456.071 5.52841C457.105 5.52841 458.01 5.74053 458.786 6.16477C459.561 6.58239 460.165 7.21875 460.596 8.07386C461.026 8.92235 461.242 9.99621 461.242 11.2955V21H458.895V11.4545C458.895 10.2547 458.584 9.32008 457.961 8.65057C457.337 7.97443 456.482 7.63636 455.395 7.63636C454.646 7.63636 453.977 7.79877 453.387 8.12358C452.803 8.44839 452.343 8.92235 452.005 9.54545C451.667 10.1686 451.497 10.9242 451.497 11.8125ZM471.933 21.3182C470.462 21.3182 469.192 20.9934 468.125 20.3438C467.064 19.6875 466.246 18.7727 465.669 17.5994C465.099 16.4195 464.814 15.0473 464.814 13.483C464.814 11.9186 465.099 10.5398 465.669 9.34659C466.246 8.14678 467.048 7.21212 468.075 6.54261C469.109 5.86648 470.316 5.52841 471.695 5.52841C472.49 5.52841 473.276 5.66098 474.051 5.92614C474.827 6.19129 475.533 6.62216 476.169 7.21875C476.805 7.80871 477.312 8.59091 477.69 9.56534C478.068 10.5398 478.257 11.7396 478.257 13.1648V14.1591H466.484V12.1307H475.871C475.871 11.2689 475.698 10.5 475.354 9.82386C475.016 9.14773 474.532 8.61411 473.902 8.22301C473.279 7.83191 472.543 7.63636 471.695 7.63636C470.76 7.63636 469.951 7.86837 469.268 8.33239C468.592 8.78977 468.072 9.38636 467.707 10.1222C467.343 10.858 467.16 11.6468 467.16 12.4886V13.8409C467.16 14.9943 467.359 15.9721 467.757 16.7741C468.161 17.5696 468.722 18.1761 469.437 18.5938C470.153 19.0047 470.985 19.2102 471.933 19.2102C472.55 19.2102 473.107 19.1241 473.604 18.9517C474.107 18.7727 474.542 18.5076 474.906 18.1562C475.271 17.7983 475.553 17.3542 475.751 16.8239L478.018 17.4602C477.78 18.2292 477.379 18.9053 476.815 19.4886C476.252 20.0653 475.556 20.5161 474.727 20.8409C473.899 21.1591 472.967 21.3182 471.933 21.3182ZM493.162 21L488.509 5.72727H490.974L494.276 17.4205H494.435L497.696 5.72727H500.202L503.423 17.3807H503.582L506.884 5.72727H509.349L504.696 21H502.389L499.048 9.26705H498.81L495.469 21H493.162ZM514.798 11.8125V21H512.452V0.636363H514.798V8.11364H514.997C515.355 7.32481 515.892 6.69839 516.608 6.23438C517.33 5.76373 518.292 5.52841 519.491 5.52841C520.532 5.52841 521.444 5.73722 522.226 6.15483C523.008 6.56581 523.615 7.19886 524.045 8.05398C524.483 8.90246 524.702 9.98295 524.702 11.2955V21H522.355V11.4545C522.355 10.2415 522.04 9.3035 521.41 8.64062C520.787 7.97112 519.922 7.63636 518.815 7.63636C518.046 7.63636 517.357 7.79877 516.747 8.12358C516.144 8.44839 515.667 8.92235 515.315 9.54545C514.971 10.1686 514.798 10.9242 514.798 11.8125ZM535.199 21.3182C533.82 21.3182 532.611 20.9901 531.57 20.3338C530.536 19.6776 529.727 18.7595 529.144 17.5795C528.567 16.3996 528.279 15.0208 528.279 13.4432C528.279 11.8523 528.567 10.4635 529.144 9.27699C529.727 8.09043 530.536 7.16903 531.57 6.51278C532.611 5.85653 533.82 5.52841 535.199 5.52841C536.578 5.52841 537.784 5.85653 538.819 6.51278C539.859 7.16903 540.668 8.09043 541.245 9.27699C541.828 10.4635 542.12 11.8523 542.12 13.4432C542.12 15.0208 541.828 16.3996 541.245 17.5795C540.668 18.7595 539.859 19.6776 538.819 20.3338C537.784 20.9901 536.578 21.3182 535.199 21.3182ZM535.199 19.2102C536.247 19.2102 537.108 18.9418 537.784 18.4048C538.461 17.8679 538.961 17.1619 539.286 16.2869C539.611 15.4119 539.773 14.464 539.773 13.4432C539.773 12.4223 539.611 11.4711 539.286 10.5895C538.961 9.70786 538.461 8.99526 537.784 8.4517C537.108 7.90814 536.247 7.63636 535.199 7.63636C534.152 7.63636 533.29 7.90814 532.614 8.4517C531.938 8.99526 531.437 9.70786 531.113 10.5895C530.788 11.4711 530.625 12.4223 530.625 13.4432C530.625 14.464 530.788 15.4119 531.113 16.2869C531.437 17.1619 531.938 17.8679 532.614 18.4048C533.29 18.9418 534.152 19.2102 535.199 19.2102ZM553.895 21V0.636363H556.241V8.15341H556.44C556.613 7.88826 556.851 7.55019 557.156 7.1392C557.468 6.72159 557.912 6.35038 558.489 6.02557C559.072 5.69413 559.861 5.52841 560.855 5.52841C562.141 5.52841 563.275 5.84991 564.256 6.4929C565.237 7.13589 566.002 8.04735 566.553 9.22727C567.103 10.4072 567.378 11.7992 567.378 13.4034C567.378 15.0208 567.103 16.4228 566.553 17.6094C566.002 18.7893 565.24 19.7041 564.266 20.3537C563.291 20.9967 562.168 21.3182 560.895 21.3182C559.914 21.3182 559.128 21.1558 558.538 20.831C557.948 20.4995 557.494 20.125 557.176 19.7074C556.858 19.2831 556.613 18.9318 556.44 18.6534H556.162V21H553.895ZM556.202 13.3636C556.202 14.517 556.371 15.5346 556.709 16.4162C557.047 17.2912 557.541 17.9773 558.19 18.4744C558.84 18.965 559.635 19.2102 560.577 19.2102C561.558 19.2102 562.376 18.9517 563.033 18.4347C563.696 17.911 564.193 17.2083 564.524 16.3267C564.862 15.4384 565.031 14.4508 565.031 13.3636C565.031 12.2898 564.866 11.322 564.534 10.4602C564.209 9.59186 563.715 8.90578 563.053 8.40199C562.396 7.89157 561.571 7.63636 560.577 7.63636C559.622 7.63636 558.82 7.87831 558.17 8.36222C557.521 8.83949 557.03 9.509 556.699 10.3707C556.367 11.2259 556.202 12.2235 556.202 13.3636ZM577.371 21.3182C575.899 21.3182 574.63 20.9934 573.562 20.3438C572.502 19.6875 571.683 18.7727 571.107 17.5994C570.536 16.4195 570.251 15.0473 570.251 13.483C570.251 11.9186 570.536 10.5398 571.107 9.34659C571.683 8.14678 572.485 7.21212 573.513 6.54261C574.547 5.86648 575.753 5.52841 577.132 5.52841C577.928 5.52841 578.713 5.66098 579.489 5.92614C580.264 6.19129 580.97 6.62216 581.607 7.21875C582.243 7.80871 582.75 8.59091 583.128 9.56534C583.506 10.5398 583.695 11.7396 583.695 13.1648V14.1591H571.922V12.1307H581.308C581.308 11.2689 581.136 10.5 580.791 9.82386C580.453 9.14773 579.969 8.61411 579.339 8.22301C578.716 7.83191 577.981 7.63636 577.132 7.63636C576.197 7.63636 575.389 7.86837 574.706 8.33239C574.03 8.78977 573.509 9.38636 573.145 10.1222C572.78 10.858 572.598 11.6468 572.598 12.4886V13.8409C572.598 14.9943 572.797 15.9721 573.195 16.7741C573.599 17.5696 574.159 18.1761 574.875 18.5938C575.591 19.0047 576.423 19.2102 577.371 19.2102C577.987 19.2102 578.544 19.1241 579.041 18.9517C579.545 18.7727 579.979 18.5076 580.344 18.1562C580.708 17.7983 580.99 17.3542 581.189 16.8239L583.456 17.4602C583.217 18.2292 582.816 18.9053 582.253 19.4886C581.689 20.0653 580.993 20.5161 580.165 20.8409C579.336 21.1591 578.405 21.3182 577.371 21.3182ZM589.611 0.636363V21H587.264V0.636363H589.611ZM593.909 21V5.72727H596.255V21H593.909ZM595.102 3.18182C594.645 3.18182 594.25 3.02604 593.919 2.71449C593.594 2.40294 593.431 2.02841 593.431 1.59091C593.431 1.15341 593.594 0.778882 593.919 0.467329C594.25 0.155776 594.645 0 595.102 0C595.559 0 595.95 0.155776 596.275 0.467329C596.607 0.778882 596.772 1.15341 596.772 1.59091C596.772 2.02841 596.607 2.40294 596.275 2.71449C595.95 3.02604 595.559 3.18182 595.102 3.18182ZM606.957 21.3182C605.485 21.3182 604.216 20.9934 603.148 20.3438C602.088 19.6875 601.269 18.7727 600.692 17.5994C600.122 16.4195 599.837 15.0473 599.837 13.483C599.837 11.9186 600.122 10.5398 600.692 9.34659C601.269 8.14678 602.071 7.21212 603.099 6.54261C604.133 5.86648 605.339 5.52841 606.718 5.52841C607.513 5.52841 608.299 5.66098 609.075 5.92614C609.85 6.19129 610.556 6.62216 611.192 7.21875C611.829 7.80871 612.336 8.59091 612.714 9.56534C613.092 10.5398 613.281 11.7396 613.281 13.1648V14.1591H601.508V12.1307H610.894C610.894 11.2689 610.722 10.5 610.377 9.82386C610.039 9.14773 609.555 8.61411 608.925 8.22301C608.302 7.83191 607.567 7.63636 606.718 7.63636C605.783 7.63636 604.975 7.86837 604.292 8.33239C603.616 8.78977 603.095 9.38636 602.731 10.1222C602.366 10.858 602.184 11.6468 602.184 12.4886V13.8409C602.184 14.9943 602.383 15.9721 602.781 16.7741C603.185 17.5696 603.745 18.1761 604.461 18.5938C605.177 19.0047 606.009 19.2102 606.957 19.2102C607.573 19.2102 608.13 19.1241 608.627 18.9517C609.131 18.7727 609.565 18.5076 609.93 18.1562C610.294 17.7983 610.576 17.3542 610.775 16.8239L613.042 17.4602C612.803 18.2292 612.402 18.9053 611.839 19.4886C611.275 20.0653 610.579 20.5161 609.751 20.8409C608.922 21.1591 607.991 21.3182 606.957 21.3182ZM628.874 5.72727L623.226 21H620.84L615.192 5.72727H617.738L621.953 17.8977H622.113L626.328 5.72727H628.874ZM637.828 21.3182C636.356 21.3182 635.087 20.9934 634.02 20.3438C632.959 19.6875 632.14 18.7727 631.564 17.5994C630.993 16.4195 630.708 15.0473 630.708 13.483C630.708 11.9186 630.993 10.5398 631.564 9.34659C632.14 8.14678 632.942 7.21212 633.97 6.54261C635.004 5.86648 636.21 5.52841 637.589 5.52841C638.385 5.52841 639.17 5.66098 639.946 5.92614C640.721 6.19129 641.427 6.62216 642.064 7.21875C642.7 7.80871 643.207 8.59091 643.585 9.56534C643.963 10.5398 644.152 11.7396 644.152 13.1648V14.1591H632.379V12.1307H641.765C641.765 11.2689 641.593 10.5 641.248 9.82386C640.91 9.14773 640.426 8.61411 639.796 8.22301C639.173 7.83191 638.438 7.63636 637.589 7.63636C636.654 7.63636 635.846 7.86837 635.163 8.33239C634.487 8.78977 633.966 9.38636 633.602 10.1222C633.237 10.858 633.055 11.6468 633.055 12.4886V13.8409C633.055 14.9943 633.254 15.9721 633.652 16.7741C634.056 17.5696 634.616 18.1761 635.332 18.5938C636.048 19.0047 636.88 19.2102 637.828 19.2102C638.444 19.2102 639.001 19.1241 639.498 18.9517C640.002 18.7727 640.436 18.5076 640.801 18.1562C641.165 17.7983 641.447 17.3542 641.646 16.8239L643.913 17.4602C643.674 18.2292 643.273 18.9053 642.71 19.4886C642.146 20.0653 641.45 20.5161 640.622 20.8409C639.793 21.1591 638.862 21.3182 637.828 21.3182ZM653.488 21.3182C652.216 21.3182 651.092 20.9967 650.118 20.3537C649.143 19.7041 648.381 18.7893 647.831 17.6094C647.28 16.4228 647.005 15.0208 647.005 13.4034C647.005 11.7992 647.28 10.4072 647.831 9.22727C648.381 8.04735 649.146 7.13589 650.127 6.4929C651.109 5.84991 652.242 5.52841 653.528 5.52841C654.522 5.52841 655.308 5.69413 655.885 6.02557C656.468 6.35038 656.912 6.72159 657.217 7.1392C657.529 7.55019 657.77 7.88826 657.943 8.15341H658.142V0.636363H660.488V21H658.221V18.6534H657.943C657.77 18.9318 657.525 19.2831 657.207 19.7074C656.889 20.125 656.435 20.4995 655.845 20.831C655.255 21.1558 654.469 21.3182 653.488 21.3182ZM653.806 19.2102C654.748 19.2102 655.543 18.965 656.193 18.4744C656.842 17.9773 657.336 17.2912 657.674 16.4162C658.012 15.5346 658.181 14.517 658.181 13.3636C658.181 12.2235 658.016 11.2259 657.684 10.3707C657.353 9.509 656.862 8.83949 656.213 8.36222C655.563 7.87831 654.761 7.63636 653.806 7.63636C652.812 7.63636 651.984 7.89157 651.321 8.40199C650.664 8.90578 650.171 9.59186 649.839 10.4602C649.514 11.322 649.352 12.2898 649.352 13.3636C649.352 14.4508 649.518 15.4384 649.849 16.3267C650.187 17.2083 650.684 17.911 651.341 18.4347C652.003 18.9517 652.825 19.2102 653.806 19.2102ZM672.987 21V5.72727H675.333V21H672.987ZM674.18 3.18182C673.723 3.18182 673.328 3.02604 672.997 2.71449C672.672 2.40294 672.51 2.02841 672.51 1.59091C672.51 1.15341 672.672 0.778882 672.997 0.467329C673.328 0.155776 673.723 0 674.18 0C674.637 0 675.029 0.155776 675.353 0.467329C675.685 0.778882 675.85 1.15341 675.85 1.59091C675.85 2.02841 675.685 2.40294 675.353 2.71449C675.029 3.02604 674.637 3.18182 674.18 3.18182ZM681.978 11.8125V21H679.631V5.72727H681.898V8.11364H682.097C682.455 7.33807 682.999 6.71496 683.728 6.24432C684.457 5.76705 685.398 5.52841 686.552 5.52841C687.586 5.52841 688.491 5.74053 689.266 6.16477C690.042 6.58239 690.645 7.21875 691.076 8.07386C691.507 8.92235 691.722 9.99621 691.722 11.2955V21H689.376V11.4545C689.376 10.2547 689.064 9.32008 688.441 8.65057C687.818 7.97443 686.963 7.63636 685.876 7.63636C685.127 7.63636 684.457 7.79877 683.867 8.12358C683.284 8.44839 682.823 8.92235 682.485 9.54545C682.147 10.1686 681.978 10.9242 681.978 11.8125ZM710.527 5.72727V7.71591H702.613V5.72727H710.527ZM704.919 2.06818H707.266V16.625C707.266 17.2879 707.362 17.785 707.554 18.1165C707.753 18.4413 708.005 18.66 708.31 18.7727C708.622 18.8788 708.95 18.9318 709.294 18.9318C709.553 18.9318 709.765 18.9186 709.931 18.892C710.096 18.8589 710.229 18.8324 710.328 18.8125L710.806 20.9205C710.647 20.9801 710.425 21.0398 710.14 21.0994C709.855 21.1657 709.493 21.1989 709.056 21.1989C708.393 21.1989 707.743 21.0563 707.107 20.7713C706.477 20.4863 705.953 20.0521 705.536 19.4688C705.125 18.8854 704.919 18.1496 704.919 17.2614V2.06818ZM716.732 11.8125V21H714.385V0.636363H716.732V8.11364H716.931C717.289 7.32481 717.826 6.69839 718.542 6.23438C719.264 5.76373 720.225 5.52841 721.425 5.52841C722.466 5.52841 723.377 5.73722 724.159 6.15483C724.942 6.56581 725.548 7.19886 725.979 8.05398C726.417 8.90246 726.635 9.98295 726.635 11.2955V21H724.289V11.4545C724.289 10.2415 723.974 9.3035 723.344 8.64062C722.721 7.97112 721.856 7.63636 720.749 7.63636C719.98 7.63636 719.291 7.79877 718.681 8.12358C718.078 8.44839 717.6 8.92235 717.249 9.54545C716.904 10.1686 716.732 10.9242 716.732 11.8125ZM737.332 21.3182C735.86 21.3182 734.591 20.9934 733.523 20.3438C732.463 19.6875 731.644 18.7727 731.067 17.5994C730.497 16.4195 730.212 15.0473 730.212 13.483C730.212 11.9186 730.497 10.5398 731.067 9.34659C731.644 8.14678 732.446 7.21212 733.474 6.54261C734.508 5.86648 735.714 5.52841 737.093 5.52841C737.888 5.52841 738.674 5.66098 739.45 5.92614C740.225 6.19129 740.931 6.62216 741.567 7.21875C742.204 7.80871 742.711 8.59091 743.089 9.56534C743.467 10.5398 743.656 11.7396 743.656 13.1648V14.1591H731.883V12.1307H741.269C741.269 11.2689 741.097 10.5 740.752 9.82386C740.414 9.14773 739.93 8.61411 739.3 8.22301C738.677 7.83191 737.942 7.63636 737.093 7.63636C736.158 7.63636 735.35 7.86837 734.667 8.33239C733.991 8.78977 733.47 9.38636 733.106 10.1222C732.741 10.858 732.559 11.6468 732.559 12.4886V13.8409C732.559 14.9943 732.758 15.9721 733.156 16.7741C733.56 17.5696 734.12 18.1761 734.836 18.5938C735.552 19.0047 736.384 19.2102 737.332 19.2102C737.948 19.2102 738.505 19.1241 739.002 18.9517C739.506 18.7727 739.94 18.5076 740.305 18.1562C740.669 17.7983 740.951 17.3542 741.15 16.8239L743.417 17.4602C743.178 18.2292 742.777 18.9053 742.214 19.4886C741.65 20.0653 740.954 20.5161 740.126 20.8409C739.297 21.1591 738.366 21.3182 737.332 21.3182ZM747.225 21V5.72727H749.492V8.11364H749.691C750.009 7.2983 750.523 6.66525 751.232 6.21449C751.942 5.7571 752.793 5.52841 753.788 5.52841C754.795 5.52841 755.634 5.7571 756.303 6.21449C756.979 6.66525 757.506 7.2983 757.884 8.11364H758.043C758.434 7.32481 759.021 6.69839 759.803 6.23438C760.585 5.76373 761.523 5.52841 762.617 5.52841C763.983 5.52841 765.1 5.95597 765.968 6.81108C766.836 7.65956 767.271 8.98201 767.271 10.7784V21H764.924V10.7784C764.924 9.65151 764.616 8.84612 763.999 8.36222C763.383 7.87831 762.657 7.63636 761.822 7.63636C760.748 7.63636 759.916 7.96117 759.326 8.6108C758.736 9.25379 758.441 10.0691 758.441 11.0568V21H756.055V10.5398C756.055 9.6714 755.773 8.97206 755.209 8.44176C754.646 7.90483 753.92 7.63636 753.032 7.63636C752.422 7.63636 751.852 7.79877 751.322 8.12358C750.798 8.44839 750.374 8.89915 750.049 9.47585C749.731 10.0459 749.572 10.7055 749.572 11.4545V21H747.225ZM773.271 21.1591C772.781 21.1591 772.36 20.9834 772.009 20.6321C771.657 20.2808 771.482 19.8598 771.482 19.3693C771.482 18.8788 771.657 18.4579 772.009 18.1065C772.36 17.7552 772.781 17.5795 773.271 17.5795C773.762 17.5795 774.183 17.7552 774.534 18.1065C774.885 18.4579 775.061 18.8788 775.061 19.3693C775.061 19.6941 774.978 19.9924 774.812 20.2642C774.653 20.536 774.438 20.7547 774.166 20.9205C773.901 21.0795 773.603 21.1591 773.271 21.1591Z" fill="#F5F5F7"/>
</svg>
