<svg xmlns="http://www.w3.org/2000/svg" width="109" height="57" viewBox="0 0 109 57" fill="none">
  <path d="M 0 43.6 C -1.105 43.6 -2 44.495 -2 45.6 C -2 46.705 -1.105 47.6 0 47.6 L 0 45.6 L 0 43.6 Z M 16.695 45.6 L 18.376 44.517 C 18.008 43.946 17.375 43.6 16.695 43.6 L 16.695 45.6 Z M 23.724 57 L 22.046 58.088 C 22.47 58.742 23.235 59.09 24.006 58.98 C 24.778 58.87 25.415 58.322 25.639 57.576 L 23.724 57 Z M 41.297 0 L 43.154 -0.744 C 42.835 -1.541 42.043 -2.045 41.186 -1.997 C 40.329 -1.949 39.598 -1.359 39.369 -0.532 L 41.297 0 Z M 60.492 43.527 L 58.715 44.445 C 59.045 45.084 59.693 45.497 60.412 45.526 C 61.132 45.555 61.811 45.195 62.191 44.584 L 60.492 43.527 Z M 71.906 25.765 L 73.322 24.353 C 72.883 23.913 72.265 23.702 71.649 23.782 C 71.033 23.862 70.489 24.223 70.177 24.76 L 71.906 25.765 Z M 88.455 41.22 L 87.115 42.704 C 87.559 43.105 88.16 43.286 88.752 43.198 C 89.344 43.109 89.865 42.76 90.172 42.246 L 88.455 41.22 Z M 94.162 32.06 L 94.162 30.06 C 93.459 30.06 92.807 30.43 92.446 31.033 L 94.162 32.06 Z M 109 34.06 C 110.105 34.06 111 33.164 111 32.06 C 111 30.955 110.105 30.06 109 30.06 L 109 32.06 L 109 34.06 Z M 0 45.6 L 0 47.6 C 0.008 47.6 0.016 47.6 0.024 47.6 C 0.032 47.6 0.04 47.6 0.048 47.6 C 0.056 47.6 0.064 47.6 0.073 47.6 C 0.081 47.6 0.089 47.6 0.097 47.6 C 0.105 47.6 0.113 47.6 0.122 47.6 C 0.13 47.6 0.138 47.6 0.146 47.6 C 0.154 47.6 0.163 47.6 0.171 47.6 C 0.179 47.6 0.188 47.6 0.196 47.6 C 0.204 47.6 0.212 47.6 0.221 47.6 C 0.229 47.6 0.237 47.6 0.246 47.6 C 0.254 47.6 0.263 47.6 0.271 47.6 C 0.279 47.6 0.288 47.6 0.296 47.6 C 0.305 47.6 0.313 47.6 0.322 47.6 C 0.33 47.6 0.339 47.6 0.347 47.6 C 0.356 47.6 0.364 47.6 0.373 47.6 C 0.382 47.6 0.39 47.6 0.399 47.6 C 0.407 47.6 0.416 47.6 0.425 47.6 C 0.433 47.6 0.442 47.6 0.45 47.6 C 0.459 47.6 0.468 47.6 0.477 47.6 C 0.485 47.6 0.494 47.6 0.503 47.6 C 0.511 47.6 0.52 47.6 0.529 47.6 C 0.538 47.6 0.547 47.6 0.555 47.6 C 0.564 47.6 0.573 47.6 0.582 47.6 C 0.591 47.6 0.599 47.6 0.608 47.6 C 0.617 47.6 0.626 47.6 0.635 47.6 C 0.644 47.6 0.653 47.6 0.662 47.6 C 0.671 47.6 0.68 47.6 0.689 47.6 C 0.698 47.6 0.707 47.6 0.716 47.6 C 0.725 47.6 0.734 47.6 0.743 47.6 C 0.752 47.6 0.761 47.6 0.77 47.6 C 0.779 47.6 0.788 47.6 0.797 47.6 C 0.806 47.6 0.815 47.6 0.825 47.6 C 0.834 47.6 0.843 47.6 0.852 47.6 C 0.861 47.6 0.87 47.6 0.88 47.6 C 0.889 47.6 0.898 47.6 0.907 47.6 C 0.917 47.6 0.926 47.6 0.935 47.6 C 0.944 47.6 0.954 47.6 0.963 47.6 C 0.972 47.6 0.982 47.6 0.991 47.6 C 1 47.6 1.01 47.6 1.019 47.6 C 1.028 47.6 1.038 47.6 1.047 47.6 C 1.057 47.6 1.066 47.6 1.075 47.6 C 1.085 47.6 1.094 47.6 1.104 47.6 C 1.113 47.6 1.123 47.6 1.132 47.6 C 1.142 47.6 1.151 47.6 1.161 47.6 C 1.17 47.6 1.18 47.6 1.189 47.6 C 1.199 47.6 1.209 47.6 1.218 47.6 C 1.228 47.6 1.237 47.6 1.247 47.6 C 1.257 47.6 1.266 47.6 1.276 47.6 C 1.285 47.6 1.295 47.6 1.305 47.6 C 1.315 47.6 1.324 47.6 1.334 47.6 C 1.344 47.6 1.353 47.6 1.363 47.6 C 1.373 47.6 1.383 47.6 1.392 47.6 C 1.402 47.6 1.412 47.6 1.422 47.6 C 1.432 47.6 1.441 47.6 1.451 47.6 C 1.461 47.6 1.471 47.6 1.481 47.6 C 1.491 47.6 1.5 47.6 1.51 47.6 C 1.52 47.6 1.53 47.6 1.54 47.6 C 1.55 47.6 1.56 47.6 1.57 47.6 C 1.58 47.6 1.59 47.6 1.6 47.6 C 1.61 47.6 1.62 47.6 1.63 47.6 C 1.64 47.6 1.65 47.6 1.66 47.6 C 1.67 47.6 1.68 47.6 1.69 47.6 C 1.7 47.6 1.71 47.6 1.72 47.6 C 1.73 47.6 1.74 47.6 1.75 47.6 C 1.761 47.6 1.771 47.6 1.781 47.6 C 1.791 47.6 1.801 47.6 1.811 47.6 C 1.822 47.6 1.832 47.6 1.842 47.6 C 1.852 47.6 1.862 47.6 1.873 47.6 C 1.883 47.6 1.893 47.6 1.903 47.6 C 1.914 47.6 1.924 47.6 1.934 47.6 C 1.944 47.6 1.955 47.6 1.965 47.6 C 1.975 47.6 1.986 47.6 1.996 47.6 C 2.006 47.6 2.017 47.6 2.027 47.6 C 2.037 47.6 2.048 47.6 2.058 47.6 C 2.069 47.6 2.079 47.6 2.089 47.6 C 2.1 47.6 2.11 47.6 2.121 47.6 C 2.131 47.6 2.142 47.6 2.152 47.6 C 2.162 47.6 2.173 47.6 2.183 47.6 C 2.194 47.6 2.204 47.6 2.215 47.6 C 2.225 47.6 2.236 47.6 2.247 47.6 C 2.257 47.6 2.268 47.6 2.278 47.6 C 2.289 47.6 2.299 47.6 2.31 47.6 C 2.321 47.6 2.331 47.6 2.342 47.6 C 2.352 47.6 2.363 47.6 2.374 47.6 C 2.384 47.6 2.395 47.6 2.406 47.6 C 2.416 47.6 2.427 47.6 2.438 47.6 C 2.448 47.6 2.459 47.6 2.47 47.6 C 2.481 47.6 2.491 47.6 2.502 47.6 C 2.513 47.6 2.524 47.6 2.534 47.6 C 2.545 47.6 2.556 47.6 2.567 47.6 C 2.577 47.6 2.588 47.6 2.599 47.6 C 2.61 47.6 2.621 47.6 2.632 47.6 C 2.642 47.6 2.653 47.6 2.664 47.6 C 2.675 47.6 2.686 47.6 2.697 47.6 C 2.708 47.6 2.718 47.6 2.729 47.6 C 2.74 47.6 2.751 47.6 2.762 47.6 C 2.773 47.6 2.784 47.6 2.795 47.6 C 2.806 47.6 2.817 47.6 2.828 47.6 C 2.839 47.6 2.85 47.6 2.861 47.6 C 2.872 47.6 2.883 47.6 2.894 47.6 C 2.905 47.6 2.916 47.6 2.927 47.6 C 2.938 47.6 2.949 47.6 2.96 47.6 C 2.971 47.6 2.982 47.6 2.993 47.6 C 3.004 47.6 3.016 47.6 3.027 47.6 C 3.038 47.6 3.049 47.6 3.06 47.6 C 3.071 47.6 3.082 47.6 3.093 47.6 C 3.105 47.6 3.116 47.6 3.127 47.6 C 3.138 47.6 3.149 47.6 3.16 47.6 C 3.172 47.6 3.183 47.6 3.194 47.6 C 3.205 47.6 3.217 47.6 3.228 47.6 C 3.239 47.6 3.25 47.6 3.262 47.6 C 3.273 47.6 3.284 47.6 3.295 47.6 C 3.307 47.6 3.318 47.6 3.329 47.6 C 3.34 47.6 3.352 47.6 3.363 47.6 C 3.374 47.6 3.386 47.6 3.397 47.6 C 3.408 47.6 3.42 47.6 3.431 47.6 C 3.442 47.6 3.454 47.6 3.465 47.6 C 3.477 47.6 3.488 47.6 3.499 47.6 C 3.511 47.6 3.522 47.6 3.534 47.6 C 3.545 47.6 3.556 47.6 3.568 47.6 C 3.579 47.6 3.591 47.6 3.602 47.6 C 3.614 47.6 3.625 47.6 3.637 47.6 C 3.648 47.6 3.66 47.6 3.671 47.6 C 3.683 47.6 3.694 47.6 3.706 47.6 C 3.717 47.6 3.729 47.6 3.74 47.6 C 3.752 47.6 3.763 47.6 3.775 47.6 C 3.786 47.6 3.798 47.6 3.809 47.6 C 3.821 47.6 3.833 47.6 3.844 47.6 C 3.856 47.6 3.867 47.6 3.879 47.6 C 3.891 47.6 3.902 47.6 3.914 47.6 C 3.925 47.6 3.937 47.6 3.949 47.6 C 3.96 47.6 3.972 47.6 3.984 47.6 C 3.995 47.6 4.007 47.6 4.019 47.6 C 4.03 47.6 4.042 47.6 4.054 47.6 C 4.065 47.6 4.077 47.6 4.089 47.6 C 4.1 47.6 4.112 47.6 4.124 47.6 C 4.136 47.6 4.147 47.6 4.159 47.6 C 4.171 47.6 4.183 47.6 4.194 47.6 C 4.206 47.6 4.218 47.6 4.23 47.6 C 4.241 47.6 4.253 47.6 4.265 47.6 C 4.277 47.6 4.288 47.6 4.3 47.6 C 4.312 47.6 4.324 47.6 4.336 47.6 C 4.348 47.6 4.359 47.6 4.371 47.6 C 4.383 47.6 4.395 47.6 4.407 47.6 C 4.419 47.6 4.43 47.6 4.442 47.6 C 4.454 47.6 4.466 47.6 4.478 47.6 C 4.49 47.6 4.502 47.6 4.514 47.6 C 4.525 47.6 4.537 47.6 4.549 47.6 C 4.561 47.6 4.573 47.6 4.585 47.6 C 4.597 47.6 4.609 47.6 4.621 47.6 C 4.633 47.6 4.645 47.6 4.657 47.6 C 4.669 47.6 4.681 47.6 4.693 47.6 C 4.705 47.6 4.717 47.6 4.728 47.6 C 4.74 47.6 4.752 47.6 4.764 47.6 C 4.776 47.6 4.788 47.6 4.8 47.6 C 4.812 47.6 4.824 47.6 4.837 47.6 C 4.849 47.6 4.861 47.6 4.873 47.6 C 4.885 47.6 4.897 47.6 4.909 47.6 C 4.921 47.6 4.933 47.6 4.945 47.6 C 4.957 47.6 4.969 47.6 4.981 47.6 C 4.993 47.6 5.005 47.6 5.017 47.6 C 5.029 47.6 5.042 47.6 5.054 47.6 C 5.066 47.6 5.078 47.6 5.09 47.6 C 5.102 47.6 5.114 47.6 5.126 47.6 C 5.138 47.6 5.151 47.6 5.163 47.6 C 5.175 47.6 5.187 47.6 5.199 47.6 C 5.211 47.6 5.223 47.6 5.236 47.6 C 5.248 47.6 5.26 47.6 5.272 47.6 C 5.284 47.6 5.296 47.6 5.309 47.6 C 5.321 47.6 5.333 47.6 5.345 47.6 C 5.357 47.6 5.37 47.6 5.382 47.6 C 5.394 47.6 5.406 47.6 5.418 47.6 C 5.431 47.6 5.443 47.6 5.455 47.6 C 5.467 47.6 5.48 47.6 5.492 47.6 C 5.504 47.6 5.516 47.6 5.529 47.6 C 5.541 47.6 5.553 47.6 5.565 47.6 C 5.578 47.6 5.59 47.6 5.602 47.6 C 5.614 47.6 5.627 47.6 5.639 47.6 C 5.651 47.6 5.664 47.6 5.676 47.6 C 5.688 47.6 5.7 47.6 5.713 47.6 C 5.725 47.6 5.737 47.6 5.75 47.6 C 5.762 47.6 5.774 47.6 5.787 47.6 C 5.799 47.6 5.811 47.6 5.824 47.6 C 5.836 47.6 5.848 47.6 5.861 47.6 C 5.873 47.6 5.885 47.6 5.898 47.6 C 5.91 47.6 5.922 47.6 5.935 47.6 C 5.947 47.6 5.959 47.6 5.972 47.6 C 5.984 47.6 5.996 47.6 6.009 47.6 C 6.021 47.6 6.034 47.6 6.046 47.6 C 6.058 47.6 6.071 47.6 6.083 47.6 C 6.096 47.6 6.108 47.6 6.12 47.6 C 6.133 47.6 6.145 47.6 6.158 47.6 C 6.17 47.6 6.182 47.6 6.195 47.6 C 6.207 47.6 6.22 47.6 6.232 47.6 C 6.244 47.6 6.257 47.6 6.269 47.6 C 6.282 47.6 6.294 47.6 6.307 47.6 C 6.319 47.6 6.331 47.6 6.344 47.6 C 6.356 47.6 6.369 47.6 6.381 47.6 C 6.394 47.6 6.406 47.6 6.419 47.6 C 6.431 47.6 6.444 47.6 6.456 47.6 C 6.468 47.6 6.481 47.6 6.493 47.6 C 6.506 47.6 6.518 47.6 6.531 47.6 C 6.543 47.6 6.556 47.6 6.568 47.6 C 6.581 47.6 6.593 47.6 6.606 47.6 C 6.618 47.6 6.631 47.6 6.643 47.6 C 6.656 47.6 6.668 47.6 6.681 47.6 C 6.693 47.6 6.706 47.6 6.718 47.6 C 6.731 47.6 6.743 47.6 6.756 47.6 C 6.768 47.6 6.781 47.6 6.793 47.6 C 6.806 47.6 6.818 47.6 6.831 47.6 C 6.843 47.6 6.856 47.6 6.868 47.6 C 6.881 47.6 6.893 47.6 6.906 47.6 C 6.919 47.6 6.931 47.6 6.944 47.6 C 6.956 47.6 6.969 47.6 6.981 47.6 C 6.994 47.6 7.006 47.6 7.019 47.6 C 7.031 47.6 7.044 47.6 7.056 47.6 C 7.069 47.6 7.082 47.6 7.094 47.6 C 7.107 47.6 7.119 47.6 7.132 47.6 C 7.144 47.6 7.157 47.6 7.169 47.6 C 7.182 47.6 7.195 47.6 7.207 47.6 C 7.22 47.6 7.232 47.6 7.245 47.6 C 7.257 47.6 7.27 47.6 7.283 47.6 C 7.295 47.6 7.308 47.6 7.32 47.6 C 7.333 47.6 7.345 47.6 7.358 47.6 C 7.371 47.6 7.383 47.6 7.396 47.6 C 7.408 47.6 7.421 47.6 7.433 47.6 C 7.446 47.6 7.459 47.6 7.471 47.6 C 7.484 47.6 7.496 47.6 7.509 47.6 C 7.522 47.6 7.534 47.6 7.547 47.6 C 7.559 47.6 7.572 47.6 7.584 47.6 C 7.597 47.6 7.61 47.6 7.622 47.6 C 7.635 47.6 7.647 47.6 7.66 47.6 C 7.673 47.6 7.685 47.6 7.698 47.6 C 7.71 47.6 7.723 47.6 7.736 47.6 C 7.748 47.6 7.761 47.6 7.773 47.6 C 7.786 47.6 7.799 47.6 7.811 47.6 C 7.824 47.6 7.836 47.6 7.849 47.6 C 7.862 47.6 7.874 47.6 7.887 47.6 C 7.899 47.6 7.912 47.6 7.925 47.6 C 7.937 47.6 7.95 47.6 7.962 47.6 C 7.975 47.6 7.988 47.6 8 47.6 C 8.013 47.6 8.025 47.6 8.038 47.6 C 8.051 47.6 8.063 47.6 8.076 47.6 C 8.088 47.6 8.101 47.6 8.114 47.6 C 8.126 47.6 8.139 47.6 8.151 47.6 C 8.164 47.6 8.177 47.6 8.189 47.6 C 8.202 47.6 8.214 47.6 8.227 47.6 C 8.24 47.6 8.252 47.6 8.265 47.6 C 8.277 47.6 8.29 47.6 8.303 47.6 C 8.315 47.6 8.328 47.6 8.34 47.6 C 8.353 47.6 8.366 47.6 8.378 47.6 C 8.391 47.6 8.403 47.6 8.416 47.6 C 8.429 47.6 8.441 47.6 8.454 47.6 C 8.466 47.6 8.479 47.6 8.491 47.6 C 8.504 47.6 8.517 47.6 8.529 47.6 C 8.542 47.6 8.554 47.6 8.567 47.6 C 8.58 47.6 8.592 47.6 8.605 47.6 C 8.617 47.6 8.63 47.6 8.642 47.6 C 8.655 47.6 8.668 47.6 8.68 47.6 C 8.693 47.6 8.705 47.6 8.718 47.6 C 8.731 47.6 8.743 47.6 8.756 47.6 C 8.768 47.6 8.781 47.6 8.793 47.6 C 8.806 47.6 8.819 47.6 8.831 47.6 C 8.844 47.6 8.856 47.6 8.869 47.6 C 8.881 47.6 8.894 47.6 8.906 47.6 C 8.919 47.6 8.932 47.6 8.944 47.6 C 8.957 47.6 8.969 47.6 8.982 47.6 C 8.994 47.6 9.007 47.6 9.019 47.6 C 9.032 47.6 9.045 47.6 9.057 47.6 C 9.07 47.6 9.082 47.6 9.095 47.6 C 9.107 47.6 9.12 47.6 9.132 47.6 C 9.145 47.6 9.157 47.6 9.17 47.6 C 9.182 47.6 9.195 47.6 9.207 47.6 C 9.22 47.6 9.233 47.6 9.245 47.6 C 9.258 47.6 9.27 47.6 9.283 47.6 C 9.295 47.6 9.308 47.6 9.32 47.6 C 9.333 47.6 9.345 47.6 9.358 47.6 C 9.37 47.6 9.383 47.6 9.395 47.6 C 9.408 47.6 9.42 47.6 9.433 47.6 C 9.445 47.6 9.458 47.6 9.47 47.6 C 9.483 47.6 9.495 47.6 9.508 47.6 C 9.52 47.6 9.533 47.6 9.545 47.6 C 9.557 47.6 9.57 47.6 9.582 47.6 C 9.595 47.6 9.607 47.6 9.62 47.6 C 9.632 47.6 9.645 47.6 9.657 47.6 C 9.67 47.6 9.682 47.6 9.695 47.6 C 9.707 47.6 9.719 47.6 9.732 47.6 C 9.744 47.6 9.757 47.6 9.769 47.6 C 9.782 47.6 9.794 47.6 9.806 47.6 C 9.819 47.6 9.831 47.6 9.844 47.6 C 9.856 47.6 9.869 47.6 9.881 47.6 C 9.893 47.6 9.906 47.6 9.918 47.6 C 9.931 47.6 9.943 47.6 9.955 47.6 C 9.968 47.6 9.98 47.6 9.993 47.6 C 10.005 47.6 10.017 47.6 10.03 47.6 C 10.042 47.6 10.054 47.6 10.067 47.6 C 10.079 47.6 10.092 47.6 10.104 47.6 C 10.116 47.6 10.129 47.6 10.141 47.6 C 10.153 47.6 10.166 47.6 10.178 47.6 C 10.19 47.6 10.203 47.6 10.215 47.6 C 10.227 47.6 10.24 47.6 10.252 47.6 C 10.264 47.6 10.277 47.6 10.289 47.6 C 10.301 47.6 10.314 47.6 10.326 47.6 C 10.338 47.6 10.351 47.6 10.363 47.6 C 10.375 47.6 10.387 47.6 10.4 47.6 C 10.412 47.6 10.424 47.6 10.437 47.6 C 10.449 47.6 10.461 47.6 10.473 47.6 C 10.486 47.6 10.498 47.6 10.51 47.6 C 10.522 47.6 10.535 47.6 10.547 47.6 C 10.559 47.6 10.571 47.6 10.584 47.6 C 10.596 47.6 10.608 47.6 10.62 47.6 C 10.633 47.6 10.645 47.6 10.657 47.6 C 10.669 47.6 10.681 47.6 10.694 47.6 C 10.706 47.6 10.718 47.6 10.73 47.6 C 10.742 47.6 10.755 47.6 10.767 47.6 C 10.779 47.6 10.791 47.6 10.803 47.6 C 10.815 47.6 10.828 47.6 10.84 47.6 C 10.852 47.6 10.864 47.6 10.876 47.6 C 10.888 47.6 10.901 47.6 10.913 47.6 C 10.925 47.6 10.937 47.6 10.949 47.6 C 10.961 47.6 10.973 47.6 10.985 47.6 C 10.997 47.6 11.01 47.6 11.022 47.6 C 11.034 47.6 11.046 47.6 11.058 47.6 C 11.07 47.6 11.082 47.6 11.094 47.6 C 11.106 47.6 11.118 47.6 11.13 47.6 C 11.142 47.6 11.154 47.6 11.166 47.6 C 11.179 47.6 11.191 47.6 11.203 47.6 C 11.215 47.6 11.227 47.6 11.239 47.6 C 11.251 47.6 11.263 47.6 11.275 47.6 C 11.287 47.6 11.299 47.6 11.311 47.6 C 11.323 47.6 11.335 47.6 11.347 47.6 C 11.359 47.6 11.371 47.6 11.383 47.6 C 11.395 47.6 11.406 47.6 11.418 47.6 C 11.43 47.6 11.442 47.6 11.454 47.6 C 11.466 47.6 11.478 47.6 11.49 47.6 C 11.502 47.6 11.514 47.6 11.526 47.6 C 11.538 47.6 11.55 47.6 11.561 47.6 C 11.573 47.6 11.585 47.6 11.597 47.6 C 11.609 47.6 11.621 47.6 11.633 47.6 C 11.645 47.6 11.656 47.6 11.668 47.6 C 11.68 47.6 11.692 47.6 11.704 47.6 C 11.716 47.6 11.727 47.6 11.739 47.6 C 11.751 47.6 11.763 47.6 11.775 47.6 C 11.786 47.6 11.798 47.6 11.81 47.6 C 11.822 47.6 11.834 47.6 11.845 47.6 C 11.857 47.6 11.869 47.6 11.881 47.6 C 11.892 47.6 11.904 47.6 11.916 47.6 C 11.928 47.6 11.939 47.6 11.951 47.6 C 11.963 47.6 11.974 47.6 11.986 47.6 C 11.998 47.6 12.009 47.6 12.021 47.6 C 12.033 47.6 12.044 47.6 12.056 47.6 C 12.068 47.6 12.079 47.6 12.091 47.6 C 12.103 47.6 12.114 47.6 12.126 47.6 C 12.138 47.6 12.149 47.6 12.161 47.6 C 12.172 47.6 12.184 47.6 12.196 47.6 C 12.207 47.6 12.219 47.6 12.23 47.6 C 12.242 47.6 12.254 47.6 12.265 47.6 C 12.277 47.6 12.288 47.6 12.3 47.6 C 12.311 47.6 12.323 47.6 12.334 47.6 C 12.346 47.6 12.357 47.6 12.369 47.6 C 12.38 47.6 12.392 47.6 12.403 47.6 C 12.415 47.6 12.426 47.6 12.438 47.6 C 12.449 47.6 12.461 47.6 12.472 47.6 C 12.484 47.6 12.495 47.6 12.507 47.6 C 12.518 47.6 12.529 47.6 12.541 47.6 C 12.552 47.6 12.564 47.6 12.575 47.6 C 12.586 47.6 12.598 47.6 12.609 47.6 C 12.62 47.6 12.632 47.6 12.643 47.6 C 12.655 47.6 12.666 47.6 12.677 47.6 C 12.689 47.6 12.7 47.6 12.711 47.6 C 12.722 47.6 12.734 47.6 12.745 47.6 C 12.756 47.6 12.768 47.6 12.779 47.6 C 12.79 47.6 12.801 47.6 12.813 47.6 C 12.824 47.6 12.835 47.6 12.846 47.6 C 12.858 47.6 12.869 47.6 12.88 47.6 C 12.891 47.6 12.902 47.6 12.914 47.6 C 12.925 47.6 12.936 47.6 12.947 47.6 C 12.958 47.6 12.969 47.6 12.981 47.6 C 12.992 47.6 13.003 47.6 13.014 47.6 C 13.025 47.6 13.036 47.6 13.047 47.6 C 13.058 47.6 13.07 47.6 13.081 47.6 C 13.092 47.6 13.103 47.6 13.114 47.6 C 13.125 47.6 13.136 47.6 13.147 47.6 C 13.158 47.6 13.169 47.6 13.18 47.6 C 13.191 47.6 13.202 47.6 13.213 47.6 C 13.224 47.6 13.235 47.6 13.246 47.6 C 13.257 47.6 13.268 47.6 13.279 47.6 C 13.29 47.6 13.301 47.6 13.312 47.6 C 13.323 47.6 13.333 47.6 13.344 47.6 C 13.355 47.6 13.366 47.6 13.377 47.6 C 13.388 47.6 13.399 47.6 13.41 47.6 C 13.42 47.6 13.431 47.6 13.442 47.6 C 13.453 47.6 13.464 47.6 13.475 47.6 C 13.485 47.6 13.496 47.6 13.507 47.6 C 13.518 47.6 13.528 47.6 13.539 47.6 C 13.55 47.6 13.561 47.6 13.571 47.6 C 13.582 47.6 13.593 47.6 13.604 47.6 C 13.614 47.6 13.625 47.6 13.636 47.6 C 13.646 47.6 13.657 47.6 13.668 47.6 C 13.678 47.6 13.689 47.6 13.7 47.6 C 13.71 47.6 13.721 47.6 13.732 47.6 C 13.742 47.6 13.753 47.6 13.763 47.6 C 13.774 47.6 13.784 47.6 13.795 47.6 C 13.806 47.6 13.816 47.6 13.827 47.6 C 13.837 47.6 13.848 47.6 13.858 47.6 C 13.869 47.6 13.879 47.6 13.89 47.6 C 13.9 47.6 13.911 47.6 13.921 47.6 C 13.932 47.6 13.942 47.6 13.952 47.6 C 13.963 47.6 13.973 47.6 13.984 47.6 C 13.994 47.6 14.005 47.6 14.015 47.6 C 14.025 47.6 14.036 47.6 14.046 47.6 C 14.056 47.6 14.067 47.6 14.077 47.6 C 14.087 47.6 14.098 47.6 14.108 47.6 C 14.118 47.6 14.129 47.6 14.139 47.6 C 14.149 47.6 14.159 47.6 14.17 47.6 C 14.18 47.6 14.19 47.6 14.2 47.6 C 14.21 47.6 14.221 47.6 14.231 47.6 C 14.241 47.6 14.251 47.6 14.261 47.6 C 14.272 47.6 14.282 47.6 14.292 47.6 C 14.302 47.6 14.312 47.6 14.322 47.6 C 14.332 47.6 14.342 47.6 14.352 47.6 C 14.363 47.6 14.373 47.6 14.383 47.6 C 14.393 47.6 14.403 47.6 14.413 47.6 C 14.423 47.6 14.433 47.6 14.443 47.6 C 14.453 47.6 14.463 47.6 14.473 47.6 C 14.483 47.6 14.493 47.6 14.503 47.6 C 14.512 47.6 14.522 47.6 14.532 47.6 C 14.542 47.6 14.552 47.6 14.562 47.6 C 14.572 47.6 14.582 47.6 14.592 47.6 C 14.601 47.6 14.611 47.6 14.621 47.6 C 14.631 47.6 14.641 47.6 14.65 47.6 C 14.66 47.6 14.67 47.6 14.68 47.6 C 14.69 47.6 14.699 47.6 14.709 47.6 C 14.719 47.6 14.728 47.6 14.738 47.6 C 14.748 47.6 14.758 47.6 14.767 47.6 C 14.777 47.6 14.787 47.6 14.796 47.6 C 14.806 47.6 14.815 47.6 14.825 47.6 C 14.835 47.6 14.844 47.6 14.854 47.6 C 14.863 47.6 14.873 47.6 14.883 47.6 C 14.892 47.6 14.902 47.6 14.911 47.6 C 14.921 47.6 14.93 47.6 14.94 47.6 C 14.949 47.6 14.959 47.6 14.968 47.6 C 14.977 47.6 14.987 47.6 14.996 47.6 C 15.006 47.6 15.015 47.6 15.025 47.6 C 15.034 47.6 15.043 47.6 15.053 47.6 C 15.062 47.6 15.071 47.6 15.081 47.6 C 15.09 47.6 15.099 47.6 15.109 47.6 C 15.118 47.6 15.127 47.6 15.136 47.6 C 15.146 47.6 15.155 47.6 15.164 47.6 C 15.173 47.6 15.183 47.6 15.192 47.6 C 15.201 47.6 15.21 47.6 15.219 47.6 C 15.228 47.6 15.238 47.6 15.247 47.6 C 15.256 47.6 15.265 47.6 15.274 47.6 C 15.283 47.6 15.292 47.6 15.301 47.6 C 15.31 47.6 15.319 47.6 15.328 47.6 C 15.337 47.6 15.347 47.6 15.356 47.6 C 15.364 47.6 15.373 47.6 15.382 47.6 C 15.391 47.6 15.4 47.6 15.409 47.6 C 15.418 47.6 15.427 47.6 15.436 47.6 C 15.445 47.6 15.454 47.6 15.463 47.6 C 15.471 47.6 15.48 47.6 15.489 47.6 C 15.498 47.6 15.507 47.6 15.516 47.6 C 15.524 47.6 15.533 47.6 15.542 47.6 C 15.551 47.6 15.559 47.6 15.568 47.6 C 15.577 47.6 15.586 47.6 15.594 47.6 C 15.603 47.6 15.612 47.6 15.62 47.6 C 15.629 47.6 15.638 47.6 15.646 47.6 C 15.655 47.6 15.663 47.6 15.672 47.6 C 15.681 47.6 15.689 47.6 15.698 47.6 C 15.706 47.6 15.715 47.6 15.723 47.6 C 15.732 47.6 15.74 47.6 15.749 47.6 C 15.757 47.6 15.766 47.6 15.774 47.6 C 15.782 47.6 15.791 47.6 15.799 47.6 C 15.808 47.6 15.816 47.6 15.824 47.6 C 15.833 47.6 15.841 47.6 15.849 47.6 C 15.858 47.6 15.866 47.6 15.874 47.6 C 15.883 47.6 15.891 47.6 15.899 47.6 C 15.907 47.6 15.916 47.6 15.924 47.6 C 15.932 47.6 15.94 47.6 15.949 47.6 C 15.957 47.6 15.965 47.6 15.973 47.6 C 15.981 47.6 15.989 47.6 15.997 47.6 C 16.006 47.6 16.014 47.6 16.022 47.6 C 16.03 47.6 16.038 47.6 16.046 47.6 C 16.054 47.6 16.062 47.6 16.07 47.6 C 16.078 47.6 16.086 47.6 16.094 47.6 C 16.102 47.6 16.11 47.6 16.118 47.6 C 16.125 47.6 16.133 47.6 16.141 47.6 C 16.149 47.6 16.157 47.6 16.165 47.6 C 16.173 47.6 16.18 47.6 16.188 47.6 C 16.196 47.6 16.204 47.6 16.212 47.6 C 16.219 47.6 16.227 47.6 16.235 47.6 C 16.243 47.6 16.25 47.6 16.258 47.6 C 16.266 47.6 16.273 47.6 16.281 47.6 C 16.289 47.6 16.296 47.6 16.304 47.6 C 16.311 47.6 16.319 47.6 16.327 47.6 C 16.334 47.6 16.342 47.6 16.349 47.6 C 16.357 47.6 16.364 47.6 16.372 47.6 C 16.379 47.6 16.387 47.6 16.394 47.6 C 16.402 47.6 16.409 47.6 16.416 47.6 C 16.424 47.6 16.431 47.6 16.439 47.6 C 16.446 47.6 16.453 47.6 16.461 47.6 C 16.468 47.6 16.475 47.6 16.482 47.6 C 16.49 47.6 16.497 47.6 16.504 47.6 C 16.511 47.6 16.519 47.6 16.526 47.6 C 16.533 47.6 16.54 47.6 16.547 47.6 C 16.555 47.6 16.562 47.6 16.569 47.6 C 16.576 47.6 16.583 47.6 16.59 47.6 C 16.597 47.6 16.604 47.6 16.611 47.6 C 16.618 47.6 16.625 47.6 16.632 47.6 C 16.639 47.6 16.646 47.6 16.653 47.6 C 16.66 47.6 16.667 47.6 16.674 47.6 C 16.681 47.6 16.688 47.6 16.695 47.6 L 16.695 45.6 L 16.695 43.6 C 16.688 43.6 16.681 43.6 16.674 43.6 C 16.667 43.6 16.66 43.6 16.653 43.6 C 16.646 43.6 16.639 43.6 16.632 43.6 C 16.625 43.6 16.618 43.6 16.611 43.6 C 16.604 43.6 16.597 43.6 16.59 43.6 C 16.583 43.6 16.576 43.6 16.569 43.6 C 16.562 43.6 16.555 43.6 16.547 43.6 C 16.54 43.6 16.533 43.6 16.526 43.6 C 16.519 43.6 16.511 43.6 16.504 43.6 C 16.497 43.6 16.49 43.6 16.482 43.6 C 16.475 43.6 16.468 43.6 16.461 43.6 C 16.453 43.6 16.446 43.6 16.439 43.6 C 16.431 43.6 16.424 43.6 16.416 43.6 C 16.409 43.6 16.402 43.6 16.394 43.6 C 16.387 43.6 16.379 43.6 16.372 43.6 C 16.364 43.6 16.357 43.6 16.349 43.6 C 16.342 43.6 16.334 43.6 16.327 43.6 C 16.319 43.6 16.311 43.6 16.304 43.6 C 16.296 43.6 16.289 43.6 16.281 43.6 C 16.273 43.6 16.266 43.6 16.258 43.6 C 16.25 43.6 16.243 43.6 16.235 43.6 C 16.227 43.6 16.219 43.6 16.212 43.6 C 16.204 43.6 16.196 43.6 16.188 43.6 C 16.18 43.6 16.173 43.6 16.165 43.6 C 16.157 43.6 16.149 43.6 16.141 43.6 C 16.133 43.6 16.125 43.6 16.118 43.6 C 16.11 43.6 16.102 43.6 16.094 43.6 C 16.086 43.6 16.078 43.6 16.07 43.6 C 16.062 43.6 16.054 43.6 16.046 43.6 C 16.038 43.6 16.03 43.6 16.022 43.6 C 16.014 43.6 16.006 43.6 15.997 43.6 C 15.989 43.6 15.981 43.6 15.973 43.6 C 15.965 43.6 15.957 43.6 15.949 43.6 C 15.94 43.6 15.932 43.6 15.924 43.6 C 15.916 43.6 15.907 43.6 15.899 43.6 C 15.891 43.6 15.883 43.6 15.874 43.6 C 15.866 43.6 15.858 43.6 15.849 43.6 C 15.841 43.6 15.833 43.6 15.824 43.6 C 15.816 43.6 15.808 43.6 15.799 43.6 C 15.791 43.6 15.782 43.6 15.774 43.6 C 15.766 43.6 15.757 43.6 15.749 43.6 C 15.74 43.6 15.732 43.6 15.723 43.6 C 15.715 43.6 15.706 43.6 15.698 43.6 C 15.689 43.6 15.681 43.6 15.672 43.6 C 15.663 43.6 15.655 43.6 15.646 43.6 C 15.638 43.6 15.629 43.6 15.62 43.6 C 15.612 43.6 15.603 43.6 15.594 43.6 C 15.586 43.6 15.577 43.6 15.568 43.6 C 15.559 43.6 15.551 43.6 15.542 43.6 C 15.533 43.6 15.524 43.6 15.516 43.6 C 15.507 43.6 15.498 43.6 15.489 43.6 C 15.48 43.6 15.471 43.6 15.463 43.6 C 15.454 43.6 15.445 43.6 15.436 43.6 C 15.427 43.6 15.418 43.6 15.409 43.6 C 15.4 43.6 15.391 43.6 15.382 43.6 C 15.373 43.6 15.364 43.6 15.356 43.6 C 15.347 43.6 15.337 43.6 15.328 43.6 C 15.319 43.6 15.31 43.6 15.301 43.6 C 15.292 43.6 15.283 43.6 15.274 43.6 C 15.265 43.6 15.256 43.6 15.247 43.6 C 15.238 43.6 15.228 43.6 15.219 43.6 C 15.21 43.6 15.201 43.6 15.192 43.6 C 15.183 43.6 15.173 43.6 15.164 43.6 C 15.155 43.6 15.146 43.6 15.136 43.6 C 15.127 43.6 15.118 43.6 15.109 43.6 C 15.099 43.6 15.09 43.6 15.081 43.6 C 15.071 43.6 15.062 43.6 15.053 43.6 C 15.043 43.6 15.034 43.6 15.025 43.6 C 15.015 43.6 15.006 43.6 14.996 43.6 C 14.987 43.6 14.977 43.6 14.968 43.6 C 14.959 43.6 14.949 43.6 14.94 43.6 C 14.93 43.6 14.921 43.6 14.911 43.6 C 14.902 43.6 14.892 43.6 14.883 43.6 C 14.873 43.6 14.863 43.6 14.854 43.6 C 14.844 43.6 14.835 43.6 14.825 43.6 C 14.815 43.6 14.806 43.6 14.796 43.6 C 14.787 43.6 14.777 43.6 14.767 43.6 C 14.758 43.6 14.748 43.6 14.738 43.6 C 14.728 43.6 14.719 43.6 14.709 43.6 C 14.699 43.6 14.69 43.6 14.68 43.6 C 14.67 43.6 14.66 43.6 14.65 43.6 C 14.641 43.6 14.631 43.6 14.621 43.6 C 14.611 43.6 14.601 43.6 14.592 43.6 C 14.582 43.6 14.572 43.6 14.562 43.6 C 14.552 43.6 14.542 43.6 14.532 43.6 C 14.522 43.6 14.512 43.6 14.503 43.6 C 14.493 43.6 14.483 43.6 14.473 43.6 C 14.463 43.6 14.453 43.6 14.443 43.6 C 14.433 43.6 14.423 43.6 14.413 43.6 C 14.403 43.6 14.393 43.6 14.383 43.6 C 14.373 43.6 14.363 43.6 14.352 43.6 C 14.342 43.6 14.332 43.6 14.322 43.6 C 14.312 43.6 14.302 43.6 14.292 43.6 C 14.282 43.6 14.272 43.6 14.261 43.6 C 14.251 43.6 14.241 43.6 14.231 43.6 C 14.221 43.6 14.21 43.6 14.2 43.6 C 14.19 43.6 14.18 43.6 14.17 43.6 C 14.159 43.6 14.149 43.6 14.139 43.6 C 14.129 43.6 14.118 43.6 14.108 43.6 C 14.098 43.6 14.087 43.6 14.077 43.6 C 14.067 43.6 14.056 43.6 14.046 43.6 C 14.036 43.6 14.025 43.6 14.015 43.6 C 14.005 43.6 13.994 43.6 13.984 43.6 C 13.973 43.6 13.963 43.6 13.952 43.6 C 13.942 43.6 13.932 43.6 13.921 43.6 C 13.911 43.6 13.9 43.6 13.89 43.6 C 13.879 43.6 13.869 43.6 13.858 43.6 C 13.848 43.6 13.837 43.6 13.827 43.6 C 13.816 43.6 13.806 43.6 13.795 43.6 C 13.784 43.6 13.774 43.6 13.763 43.6 C 13.753 43.6 13.742 43.6 13.732 43.6 C 13.721 43.6 13.71 43.6 13.7 43.6 C 13.689 43.6 13.678 43.6 13.668 43.6 C 13.657 43.6 13.646 43.6 13.636 43.6 C 13.625 43.6 13.614 43.6 13.604 43.6 C 13.593 43.6 13.582 43.6 13.571 43.6 C 13.561 43.6 13.55 43.6 13.539 43.6 C 13.528 43.6 13.518 43.6 13.507 43.6 C 13.496 43.6 13.485 43.6 13.475 43.6 C 13.464 43.6 13.453 43.6 13.442 43.6 C 13.431 43.6 13.42 43.6 13.41 43.6 C 13.399 43.6 13.388 43.6 13.377 43.6 C 13.366 43.6 13.355 43.6 13.344 43.6 C 13.333 43.6 13.323 43.6 13.312 43.6 C 13.301 43.6 13.29 43.6 13.279 43.6 C 13.268 43.6 13.257 43.6 13.246 43.6 C 13.235 43.6 13.224 43.6 13.213 43.6 C 13.202 43.6 13.191 43.6 13.18 43.6 C 13.169 43.6 13.158 43.6 13.147 43.6 C 13.136 43.6 13.125 43.6 13.114 43.6 C 13.103 43.6 13.092 43.6 13.081 43.6 C 13.07 43.6 13.058 43.6 13.047 43.6 C 13.036 43.6 13.025 43.6 13.014 43.6 C 13.003 43.6 12.992 43.6 12.981 43.6 C 12.969 43.6 12.958 43.6 12.947 43.6 C 12.936 43.6 12.925 43.6 12.914 43.6 C 12.902 43.6 12.891 43.6 12.88 43.6 C 12.869 43.6 12.858 43.6 12.846 43.6 C 12.835 43.6 12.824 43.6 12.813 43.6 C 12.801 43.6 12.79 43.6 12.779 43.6 C 12.768 43.6 12.756 43.6 12.745 43.6 C 12.734 43.6 12.722 43.6 12.711 43.6 C 12.7 43.6 12.689 43.6 12.677 43.6 C 12.666 43.6 12.655 43.6 12.643 43.6 C 12.632 43.6 12.62 43.6 12.609 43.6 C 12.598 43.6 12.586 43.6 12.575 43.6 C 12.564 43.6 12.552 43.6 12.541 43.6 C 12.529 43.6 12.518 43.6 12.507 43.6 C 12.495 43.6 12.484 43.6 12.472 43.6 C 12.461 43.6 12.449 43.6 12.438 43.6 C 12.426 43.6 12.415 43.6 12.403 43.6 C 12.392 43.6 12.38 43.6 12.369 43.6 C 12.357 43.6 12.346 43.6 12.334 43.6 C 12.323 43.6 12.311 43.6 12.3 43.6 C 12.288 43.6 12.277 43.6 12.265 43.6 C 12.254 43.6 12.242 43.6 12.23 43.6 C 12.219 43.6 12.207 43.6 12.196 43.6 C 12.184 43.6 12.172 43.6 12.161 43.6 C 12.149 43.6 12.138 43.6 12.126 43.6 C 12.114 43.6 12.103 43.6 12.091 43.6 C 12.079 43.6 12.068 43.6 12.056 43.6 C 12.044 43.6 12.033 43.6 12.021 43.6 C 12.009 43.6 11.998 43.6 11.986 43.6 C 11.974 43.6 11.963 43.6 11.951 43.6 C 11.939 43.6 11.928 43.6 11.916 43.6 C 11.904 43.6 11.892 43.6 11.881 43.6 C 11.869 43.6 11.857 43.6 11.845 43.6 C 11.834 43.6 11.822 43.6 11.81 43.6 C 11.798 43.6 11.786 43.6 11.775 43.6 C 11.763 43.6 11.751 43.6 11.739 43.6 C 11.727 43.6 11.716 43.6 11.704 43.6 C 11.692 43.6 11.68 43.6 11.668 43.6 C 11.656 43.6 11.645 43.6 11.633 43.6 C 11.621 43.6 11.609 43.6 11.597 43.6 C 11.585 43.6 11.573 43.6 11.561 43.6 C 11.55 43.6 11.538 43.6 11.526 43.6 C 11.514 43.6 11.502 43.6 11.49 43.6 C 11.478 43.6 11.466 43.6 11.454 43.6 C 11.442 43.6 11.43 43.6 11.418 43.6 C 11.406 43.6 11.395 43.6 11.383 43.6 C 11.371 43.6 11.359 43.6 11.347 43.6 C 11.335 43.6 11.323 43.6 11.311 43.6 C 11.299 43.6 11.287 43.6 11.275 43.6 C 11.263 43.6 11.251 43.6 11.239 43.6 C 11.227 43.6 11.215 43.6 11.203 43.6 C 11.191 43.6 11.179 43.6 11.166 43.6 C 11.154 43.6 11.142 43.6 11.13 43.6 C 11.118 43.6 11.106 43.6 11.094 43.6 C 11.082 43.6 11.07 43.6 11.058 43.6 C 11.046 43.6 11.034 43.6 11.022 43.6 C 11.01 43.6 10.997 43.6 10.985 43.6 C 10.973 43.6 10.961 43.6 10.949 43.6 C 10.937 43.6 10.925 43.6 10.913 43.6 C 10.901 43.6 10.888 43.6 10.876 43.6 C 10.864 43.6 10.852 43.6 10.84 43.6 C 10.828 43.6 10.815 43.6 10.803 43.6 C 10.791 43.6 10.779 43.6 10.767 43.6 C 10.755 43.6 10.742 43.6 10.73 43.6 C 10.718 43.6 10.706 43.6 10.694 43.6 C 10.681 43.6 10.669 43.6 10.657 43.6 C 10.645 43.6 10.633 43.6 10.62 43.6 C 10.608 43.6 10.596 43.6 10.584 43.6 C 10.571 43.6 10.559 43.6 10.547 43.6 C 10.535 43.6 10.522 43.6 10.51 43.6 C 10.498 43.6 10.486 43.6 10.473 43.6 C 10.461 43.6 10.449 43.6 10.437 43.6 C 10.424 43.6 10.412 43.6 10.4 43.6 C 10.387 43.6 10.375 43.6 10.363 43.6 C 10.351 43.6 10.338 43.6 10.326 43.6 C 10.314 43.6 10.301 43.6 10.289 43.6 C 10.277 43.6 10.264 43.6 10.252 43.6 C 10.24 43.6 10.227 43.6 10.215 43.6 C 10.203 43.6 10.19 43.6 10.178 43.6 C 10.166 43.6 10.153 43.6 10.141 43.6 C 10.129 43.6 10.116 43.6 10.104 43.6 C 10.092 43.6 10.079 43.6 10.067 43.6 C 10.054 43.6 10.042 43.6 10.03 43.6 C 10.017 43.6 10.005 43.6 9.993 43.6 C 9.98 43.6 9.968 43.6 9.955 43.6 C 9.943 43.6 9.931 43.6 9.918 43.6 C 9.906 43.6 9.893 43.6 9.881 43.6 C 9.869 43.6 9.856 43.6 9.844 43.6 C 9.831 43.6 9.819 43.6 9.806 43.6 C 9.794 43.6 9.782 43.6 9.769 43.6 C 9.757 43.6 9.744 43.6 9.732 43.6 C 9.719 43.6 9.707 43.6 9.695 43.6 C 9.682 43.6 9.67 43.6 9.657 43.6 C 9.645 43.6 9.632 43.6 9.62 43.6 C 9.607 43.6 9.595 43.6 9.582 43.6 C 9.57 43.6 9.557 43.6 9.545 43.6 C 9.533 43.6 9.52 43.6 9.508 43.6 C 9.495 43.6 9.483 43.6 9.47 43.6 C 9.458 43.6 9.445 43.6 9.433 43.6 C 9.42 43.6 9.408 43.6 9.395 43.6 C 9.383 43.6 9.37 43.6 9.358 43.6 C 9.345 43.6 9.333 43.6 9.32 43.6 C 9.308 43.6 9.295 43.6 9.283 43.6 C 9.27 43.6 9.258 43.6 9.245 43.6 C 9.233 43.6 9.22 43.6 9.207 43.6 C 9.195 43.6 9.182 43.6 9.17 43.6 C 9.157 43.6 9.145 43.6 9.132 43.6 C 9.12 43.6 9.107 43.6 9.095 43.6 C 9.082 43.6 9.07 43.6 9.057 43.6 C 9.045 43.6 9.032 43.6 9.019 43.6 C 9.007 43.6 8.994 43.6 8.982 43.6 C 8.969 43.6 8.957 43.6 8.944 43.6 C 8.932 43.6 8.919 43.6 8.906 43.6 C 8.894 43.6 8.881 43.6 8.869 43.6 C 8.856 43.6 8.844 43.6 8.831 43.6 C 8.819 43.6 8.806 43.6 8.793 43.6 C 8.781 43.6 8.768 43.6 8.756 43.6 C 8.743 43.6 8.731 43.6 8.718 43.6 C 8.705 43.6 8.693 43.6 8.68 43.6 C 8.668 43.6 8.655 43.6 8.642 43.6 C 8.63 43.6 8.617 43.6 8.605 43.6 C 8.592 43.6 8.58 43.6 8.567 43.6 C 8.554 43.6 8.542 43.6 8.529 43.6 C 8.517 43.6 8.504 43.6 8.491 43.6 C 8.479 43.6 8.466 43.6 8.454 43.6 C 8.441 43.6 8.429 43.6 8.416 43.6 C 8.403 43.6 8.391 43.6 8.378 43.6 C 8.366 43.6 8.353 43.6 8.34 43.6 C 8.328 43.6 8.315 43.6 8.303 43.6 C 8.29 43.6 8.277 43.6 8.265 43.6 C 8.252 43.6 8.24 43.6 8.227 43.6 C 8.214 43.6 8.202 43.6 8.189 43.6 C 8.177 43.6 8.164 43.6 8.151 43.6 C 8.139 43.6 8.126 43.6 8.114 43.6 C 8.101 43.6 8.088 43.6 8.076 43.6 C 8.063 43.6 8.051 43.6 8.038 43.6 C 8.025 43.6 8.013 43.6 8 43.6 C 7.988 43.6 7.975 43.6 7.962 43.6 C 7.95 43.6 7.937 43.6 7.925 43.6 C 7.912 43.6 7.899 43.6 7.887 43.6 C 7.874 43.6 7.862 43.6 7.849 43.6 C 7.836 43.6 7.824 43.6 7.811 43.6 C 7.799 43.6 7.786 43.6 7.773 43.6 C 7.761 43.6 7.748 43.6 7.736 43.6 C 7.723 43.6 7.71 43.6 7.698 43.6 C 7.685 43.6 7.673 43.6 7.66 43.6 C 7.647 43.6 7.635 43.6 7.622 43.6 C 7.61 43.6 7.597 43.6 7.584 43.6 C 7.572 43.6 7.559 43.6 7.547 43.6 C 7.534 43.6 7.522 43.6 7.509 43.6 C 7.496 43.6 7.484 43.6 7.471 43.6 C 7.459 43.6 7.446 43.6 7.433 43.6 C 7.421 43.6 7.408 43.6 7.396 43.6 C 7.383 43.6 7.371 43.6 7.358 43.6 C 7.345 43.6 7.333 43.6 7.32 43.6 C 7.308 43.6 7.295 43.6 7.283 43.6 C 7.27 43.6 7.257 43.6 7.245 43.6 C 7.232 43.6 7.22 43.6 7.207 43.6 C 7.195 43.6 7.182 43.6 7.169 43.6 C 7.157 43.6 7.144 43.6 7.132 43.6 C 7.119 43.6 7.107 43.6 7.094 43.6 C 7.082 43.6 7.069 43.6 7.056 43.6 C 7.044 43.6 7.031 43.6 7.019 43.6 C 7.006 43.6 6.994 43.6 6.981 43.6 C 6.969 43.6 6.956 43.6 6.944 43.6 C 6.931 43.6 6.919 43.6 6.906 43.6 C 6.893 43.6 6.881 43.6 6.868 43.6 C 6.856 43.6 6.843 43.6 6.831 43.6 C 6.818 43.6 6.806 43.6 6.793 43.6 C 6.781 43.6 6.768 43.6 6.756 43.6 C 6.743 43.6 6.731 43.6 6.718 43.6 C 6.706 43.6 6.693 43.6 6.681 43.6 C 6.668 43.6 6.656 43.6 6.643 43.6 C 6.631 43.6 6.618 43.6 6.606 43.6 C 6.593 43.6 6.581 43.6 6.568 43.6 C 6.556 43.6 6.543 43.6 6.531 43.6 C 6.518 43.6 6.506 43.6 6.493 43.6 C 6.481 43.6 6.468 43.6 6.456 43.6 C 6.444 43.6 6.431 43.6 6.419 43.6 C 6.406 43.6 6.394 43.6 6.381 43.6 C 6.369 43.6 6.356 43.6 6.344 43.6 C 6.331 43.6 6.319 43.6 6.307 43.6 C 6.294 43.6 6.282 43.6 6.269 43.6 C 6.257 43.6 6.244 43.6 6.232 43.6 C 6.22 43.6 6.207 43.6 6.195 43.6 C 6.182 43.6 6.17 43.6 6.158 43.6 C 6.145 43.6 6.133 43.6 6.12 43.6 C 6.108 43.6 6.096 43.6 6.083 43.6 C 6.071 43.6 6.058 43.6 6.046 43.6 C 6.034 43.6 6.021 43.6 6.009 43.6 C 5.996 43.6 5.984 43.6 5.972 43.6 C 5.959 43.6 5.947 43.6 5.935 43.6 C 5.922 43.6 5.91 43.6 5.898 43.6 C 5.885 43.6 5.873 43.6 5.861 43.6 C 5.848 43.6 5.836 43.6 5.824 43.6 C 5.811 43.6 5.799 43.6 5.787 43.6 C 5.774 43.6 5.762 43.6 5.75 43.6 C 5.737 43.6 5.725 43.6 5.713 43.6 C 5.7 43.6 5.688 43.6 5.676 43.6 C 5.664 43.6 5.651 43.6 5.639 43.6 C 5.627 43.6 5.614 43.6 5.602 43.6 C 5.59 43.6 5.578 43.6 5.565 43.6 C 5.553 43.6 5.541 43.6 5.529 43.6 C 5.516 43.6 5.504 43.6 5.492 43.6 C 5.48 43.6 5.467 43.6 5.455 43.6 C 5.443 43.6 5.431 43.6 5.418 43.6 C 5.406 43.6 5.394 43.6 5.382 43.6 C 5.37 43.6 5.357 43.6 5.345 43.6 C 5.333 43.6 5.321 43.6 5.309 43.6 C 5.296 43.6 5.284 43.6 5.272 43.6 C 5.26 43.6 5.248 43.6 5.236 43.6 C 5.223 43.6 5.211 43.6 5.199 43.6 C 5.187 43.6 5.175 43.6 5.163 43.6 C 5.151 43.6 5.138 43.6 5.126 43.6 C 5.114 43.6 5.102 43.6 5.09 43.6 C 5.078 43.6 5.066 43.6 5.054 43.6 C 5.042 43.6 5.029 43.6 5.017 43.6 C 5.005 43.6 4.993 43.6 4.981 43.6 C 4.969 43.6 4.957 43.6 4.945 43.6 C 4.933 43.6 4.921 43.6 4.909 43.6 C 4.897 43.6 4.885 43.6 4.873 43.6 C 4.861 43.6 4.849 43.6 4.837 43.6 C 4.824 43.6 4.812 43.6 4.8 43.6 C 4.788 43.6 4.776 43.6 4.764 43.6 C 4.752 43.6 4.74 43.6 4.728 43.6 C 4.717 43.6 4.705 43.6 4.693 43.6 C 4.681 43.6 4.669 43.6 4.657 43.6 C 4.645 43.6 4.633 43.6 4.621 43.6 C 4.609 43.6 4.597 43.6 4.585 43.6 C 4.573 43.6 4.561 43.6 4.549 43.6 C 4.537 43.6 4.525 43.6 4.514 43.6 C 4.502 43.6 4.49 43.6 4.478 43.6 C 4.466 43.6 4.454 43.6 4.442 43.6 C 4.43 43.6 4.419 43.6 4.407 43.6 C 4.395 43.6 4.383 43.6 4.371 43.6 C 4.359 43.6 4.348 43.6 4.336 43.6 C 4.324 43.6 4.312 43.6 4.3 43.6 C 4.288 43.6 4.277 43.6 4.265 43.6 C 4.253 43.6 4.241 43.6 4.23 43.6 C 4.218 43.6 4.206 43.6 4.194 43.6 C 4.183 43.6 4.171 43.6 4.159 43.6 C 4.147 43.6 4.136 43.6 4.124 43.6 C 4.112 43.6 4.1 43.6 4.089 43.6 C 4.077 43.6 4.065 43.6 4.054 43.6 C 4.042 43.6 4.03 43.6 4.019 43.6 C 4.007 43.6 3.995 43.6 3.984 43.6 C 3.972 43.6 3.96 43.6 3.949 43.6 C 3.937 43.6 3.925 43.6 3.914 43.6 C 3.902 43.6 3.891 43.6 3.879 43.6 C 3.867 43.6 3.856 43.6 3.844 43.6 C 3.833 43.6 3.821 43.6 3.809 43.6 C 3.798 43.6 3.786 43.6 3.775 43.6 C 3.763 43.6 3.752 43.6 3.74 43.6 C 3.729 43.6 3.717 43.6 3.706 43.6 C 3.694 43.6 3.683 43.6 3.671 43.6 C 3.66 43.6 3.648 43.6 3.637 43.6 C 3.625 43.6 3.614 43.6 3.602 43.6 C 3.591 43.6 3.579 43.6 3.568 43.6 C 3.556 43.6 3.545 43.6 3.534 43.6 C 3.522 43.6 3.511 43.6 3.499 43.6 C 3.488 43.6 3.477 43.6 3.465 43.6 C 3.454 43.6 3.442 43.6 3.431 43.6 C 3.42 43.6 3.408 43.6 3.397 43.6 C 3.386 43.6 3.374 43.6 3.363 43.6 C 3.352 43.6 3.34 43.6 3.329 43.6 C 3.318 43.6 3.307 43.6 3.295 43.6 C 3.284 43.6 3.273 43.6 3.262 43.6 C 3.25 43.6 3.239 43.6 3.228 43.6 C 3.217 43.6 3.205 43.6 3.194 43.6 C 3.183 43.6 3.172 43.6 3.16 43.6 C 3.149 43.6 3.138 43.6 3.127 43.6 C 3.116 43.6 3.105 43.6 3.093 43.6 C 3.082 43.6 3.071 43.6 3.06 43.6 C 3.049 43.6 3.038 43.6 3.027 43.6 C 3.016 43.6 3.004 43.6 2.993 43.6 C 2.982 43.6 2.971 43.6 2.96 43.6 C 2.949 43.6 2.938 43.6 2.927 43.6 C 2.916 43.6 2.905 43.6 2.894 43.6 C 2.883 43.6 2.872 43.6 2.861 43.6 C 2.85 43.6 2.839 43.6 2.828 43.6 C 2.817 43.6 2.806 43.6 2.795 43.6 C 2.784 43.6 2.773 43.6 2.762 43.6 C 2.751 43.6 2.74 43.6 2.729 43.6 C 2.718 43.6 2.708 43.6 2.697 43.6 C 2.686 43.6 2.675 43.6 2.664 43.6 C 2.653 43.6 2.642 43.6 2.632 43.6 C 2.621 43.6 2.61 43.6 2.599 43.6 C 2.588 43.6 2.577 43.6 2.567 43.6 C 2.556 43.6 2.545 43.6 2.534 43.6 C 2.524 43.6 2.513 43.6 2.502 43.6 C 2.491 43.6 2.481 43.6 2.47 43.6 C 2.459 43.6 2.448 43.6 2.438 43.6 C 2.427 43.6 2.416 43.6 2.406 43.6 C 2.395 43.6 2.384 43.6 2.374 43.6 C 2.363 43.6 2.352 43.6 2.342 43.6 C 2.331 43.6 2.321 43.6 2.31 43.6 C 2.299 43.6 2.289 43.6 2.278 43.6 C 2.268 43.6 2.257 43.6 2.247 43.6 C 2.236 43.6 2.225 43.6 2.215 43.6 C 2.204 43.6 2.194 43.6 2.183 43.6 C 2.173 43.6 2.162 43.6 2.152 43.6 C 2.142 43.6 2.131 43.6 2.121 43.6 C 2.11 43.6 2.1 43.6 2.089 43.6 C 2.079 43.6 2.069 43.6 2.058 43.6 C 2.048 43.6 2.037 43.6 2.027 43.6 C 2.017 43.6 2.006 43.6 1.996 43.6 C 1.986 43.6 1.975 43.6 1.965 43.6 C 1.955 43.6 1.944 43.6 1.934 43.6 C 1.924 43.6 1.914 43.6 1.903 43.6 C 1.893 43.6 1.883 43.6 1.873 43.6 C 1.862 43.6 1.852 43.6 1.842 43.6 C 1.832 43.6 1.822 43.6 1.811 43.6 C 1.801 43.6 1.791 43.6 1.781 43.6 C 1.771 43.6 1.761 43.6 1.75 43.6 C 1.74 43.6 1.73 43.6 1.72 43.6 C 1.71 43.6 1.7 43.6 1.69 43.6 C 1.68 43.6 1.67 43.6 1.66 43.6 C 1.65 43.6 1.64 43.6 1.63 43.6 C 1.62 43.6 1.61 43.6 1.6 43.6 C 1.59 43.6 1.58 43.6 1.57 43.6 C 1.56 43.6 1.55 43.6 1.54 43.6 C 1.53 43.6 1.52 43.6 1.51 43.6 C 1.5 43.6 1.491 43.6 1.481 43.6 C 1.471 43.6 1.461 43.6 1.451 43.6 C 1.441 43.6 1.432 43.6 1.422 43.6 C 1.412 43.6 1.402 43.6 1.392 43.6 C 1.383 43.6 1.373 43.6 1.363 43.6 C 1.353 43.6 1.344 43.6 1.334 43.6 C 1.324 43.6 1.315 43.6 1.305 43.6 C 1.295 43.6 1.285 43.6 1.276 43.6 C 1.266 43.6 1.257 43.6 1.247 43.6 C 1.237 43.6 1.228 43.6 1.218 43.6 C 1.209 43.6 1.199 43.6 1.189 43.6 C 1.18 43.6 1.17 43.6 1.161 43.6 C 1.151 43.6 1.142 43.6 1.132 43.6 C 1.123 43.6 1.113 43.6 1.104 43.6 C 1.094 43.6 1.085 43.6 1.075 43.6 C 1.066 43.6 1.057 43.6 1.047 43.6 C 1.038 43.6 1.028 43.6 1.019 43.6 C 1.01 43.6 1 43.6 0.991 43.6 C 0.982 43.6 0.972 43.6 0.963 43.6 C 0.954 43.6 0.944 43.6 0.935 43.6 C 0.926 43.6 0.917 43.6 0.907 43.6 C 0.898 43.6 0.889 43.6 0.88 43.6 C 0.87 43.6 0.861 43.6 0.852 43.6 C 0.843 43.6 0.834 43.6 0.825 43.6 C 0.815 43.6 0.806 43.6 0.797 43.6 C 0.788 43.6 0.779 43.6 0.77 43.6 C 0.761 43.6 0.752 43.6 0.743 43.6 C 0.734 43.6 0.725 43.6 0.716 43.6 C 0.707 43.6 0.698 43.6 0.689 43.6 C 0.68 43.6 0.671 43.6 0.662 43.6 C 0.653 43.6 0.644 43.6 0.635 43.6 C 0.626 43.6 0.617 43.6 0.608 43.6 C 0.599 43.6 0.591 43.6 0.582 43.6 C 0.573 43.6 0.564 43.6 0.555 43.6 C 0.547 43.6 0.538 43.6 0.529 43.6 C 0.52 43.6 0.511 43.6 0.503 43.6 C 0.494 43.6 0.485 43.6 0.477 43.6 C 0.468 43.6 0.459 43.6 0.45 43.6 C 0.442 43.6 0.433 43.6 0.425 43.6 C 0.416 43.6 0.407 43.6 0.399 43.6 C 0.39 43.6 0.382 43.6 0.373 43.6 C 0.364 43.6 0.356 43.6 0.347 43.6 C 0.339 43.6 0.33 43.6 0.322 43.6 C 0.313 43.6 0.305 43.6 0.296 43.6 C 0.288 43.6 0.279 43.6 0.271 43.6 C 0.263 43.6 0.254 43.6 0.246 43.6 C 0.237 43.6 0.229 43.6 0.221 43.6 C 0.212 43.6 0.204 43.6 0.196 43.6 C 0.188 43.6 0.179 43.6 0.171 43.6 C 0.163 43.6 0.154 43.6 0.146 43.6 C 0.138 43.6 0.13 43.6 0.122 43.6 C 0.113 43.6 0.105 43.6 0.097 43.6 C 0.089 43.6 0.081 43.6 0.073 43.6 C 0.064 43.6 0.056 43.6 0.048 43.6 C 0.04 43.6 0.032 43.6 0.024 43.6 C 0.016 43.6 0.008 43.6 0 43.6 L 0 45.6 Z M 16.695 45.6 L 15.013 46.683 C 16.346 48.753 17.292 50.349 18.315 52.064 C 19.341 53.783 20.436 55.606 22.046 58.088 L 23.724 57 L 25.402 55.912 C 23.832 53.492 22.767 51.718 21.75 50.014 C 20.731 48.307 19.752 46.654 18.376 44.517 L 16.695 45.6 Z M 23.724 57 L 25.639 57.576 C 31.555 37.906 39.59 13.709 43.225 0.532 L 41.297 0 L 39.369 -0.532 C 35.74 12.626 27.796 36.519 21.809 56.424 L 23.724 57 Z M 41.297 0 L 39.441 0.744 C 43.792 11.608 50.675 28.871 58.715 44.445 L 60.492 43.527 L 62.269 42.61 C 54.331 27.234 47.516 10.147 43.154 -0.744 L 41.297 0 Z M 60.492 43.527 L 62.191 44.584 C 65.023 40.029 66.86 37.331 68.5 34.898 C 70.15 32.448 71.605 30.26 73.635 26.771 L 71.906 25.765 L 70.177 24.76 C 68.212 28.138 66.813 30.242 65.182 32.662 C 63.541 35.098 61.668 37.849 58.794 42.471 L 60.492 43.527 Z M 71.906 25.765 L 70.49 27.178 C 77.384 34.091 81.428 37.569 87.115 42.704 L 88.455 41.22 L 89.796 39.735 C 84.07 34.566 80.124 31.174 73.322 24.353 L 71.906 25.765 Z M 88.455 41.22 L 90.172 42.246 C 91.012 40.842 91.996 39.291 92.998 37.711 C 93.993 36.142 95.007 34.545 95.879 33.086 L 94.162 32.06 L 92.446 31.033 C 91.606 32.438 90.622 33.989 89.62 35.569 C 88.625 37.137 87.611 38.735 86.739 40.193 L 88.455 41.22 Z M 94.162 32.06 L 94.162 34.06 C 94.169 34.06 94.176 34.06 94.183 34.06 C 94.19 34.06 94.197 34.06 94.204 34.06 C 94.211 34.06 94.217 34.06 94.224 34.06 C 94.231 34.06 94.238 34.06 94.245 34.06 C 94.252 34.06 94.259 34.06 94.266 34.06 C 94.273 34.06 94.28 34.06 94.287 34.06 C 94.294 34.06 94.301 34.06 94.308 34.06 C 94.315 34.06 94.322 34.06 94.329 34.06 C 94.336 34.06 94.343 34.06 94.35 34.06 C 94.357 34.06 94.364 34.06 94.371 34.06 C 94.379 34.06 94.386 34.06 94.393 34.06 C 94.4 34.06 94.407 34.06 94.414 34.06 C 94.421 34.06 94.428 34.06 94.435 34.06 C 94.443 34.06 94.45 34.06 94.457 34.06 C 94.464 34.06 94.471 34.06 94.478 34.06 C 94.486 34.06 94.493 34.06 94.5 34.06 C 94.507 34.06 94.514 34.06 94.522 34.06 C 94.529 34.06 94.536 34.06 94.543 34.06 C 94.551 34.06 94.558 34.06 94.565 34.06 C 94.572 34.06 94.58 34.06 94.587 34.06 C 94.594 34.06 94.601 34.06 94.609 34.06 C 94.616 34.06 94.623 34.06 94.631 34.06 C 94.638 34.06 94.645 34.06 94.653 34.06 C 94.66 34.06 94.667 34.06 94.675 34.06 C 94.682 34.06 94.69 34.06 94.697 34.06 C 94.704 34.06 94.712 34.06 94.719 34.06 C 94.726 34.06 94.734 34.06 94.741 34.06 C 94.749 34.06 94.756 34.06 94.764 34.06 C 94.771 34.06 94.779 34.06 94.786 34.06 C 94.793 34.06 94.801 34.06 94.808 34.06 C 94.816 34.06 94.823 34.06 94.831 34.06 C 94.838 34.06 94.846 34.06 94.853 34.06 C 94.861 34.06 94.868 34.06 94.876 34.06 C 94.884 34.06 94.891 34.06 94.899 34.06 C 94.906 34.06 94.914 34.06 94.921 34.06 C 94.929 34.06 94.937 34.06 94.944 34.06 C 94.952 34.06 94.959 34.06 94.967 34.06 C 94.975 34.06 94.982 34.06 94.99 34.06 C 94.998 34.06 95.005 34.06 95.013 34.06 C 95.021 34.06 95.028 34.06 95.036 34.06 C 95.044 34.06 95.051 34.06 95.059 34.06 C 95.067 34.06 95.074 34.06 95.082 34.06 C 95.09 34.06 95.097 34.06 95.105 34.06 C 95.113 34.06 95.121 34.06 95.128 34.06 C 95.136 34.06 95.144 34.06 95.152 34.06 C 95.16 34.06 95.167 34.06 95.175 34.06 C 95.183 34.06 95.191 34.06 95.198 34.06 C 95.206 34.06 95.214 34.06 95.222 34.06 C 95.23 34.06 95.238 34.06 95.245 34.06 C 95.253 34.06 95.261 34.06 95.269 34.06 C 95.277 34.06 95.285 34.06 95.293 34.06 C 95.301 34.06 95.308 34.06 95.316 34.06 C 95.324 34.06 95.332 34.06 95.34 34.06 C 95.348 34.06 95.356 34.06 95.364 34.06 C 95.372 34.06 95.38 34.06 95.388 34.06 C 95.396 34.06 95.404 34.06 95.412 34.06 C 95.42 34.06 95.428 34.06 95.436 34.06 C 95.444 34.06 95.452 34.06 95.46 34.06 C 95.468 34.06 95.476 34.06 95.484 34.06 C 95.492 34.06 95.5 34.06 95.508 34.06 C 95.516 34.06 95.524 34.06 95.532 34.06 C 95.54 34.06 95.548 34.06 95.556 34.06 C 95.564 34.06 95.572 34.06 95.58 34.06 C 95.589 34.06 95.597 34.06 95.605 34.06 C 95.613 34.06 95.621 34.06 95.629 34.06 C 95.637 34.06 95.645 34.06 95.654 34.06 C 95.662 34.06 95.67 34.06 95.678 34.06 C 95.686 34.06 95.694 34.06 95.703 34.06 C 95.711 34.06 95.719 34.06 95.727 34.06 C 95.735 34.06 95.744 34.06 95.752 34.06 C 95.76 34.06 95.768 34.06 95.776 34.06 C 95.785 34.06 95.793 34.06 95.801 34.06 C 95.809 34.06 95.818 34.06 95.826 34.06 C 95.834 34.06 95.843 34.06 95.851 34.06 C 95.859 34.06 95.867 34.06 95.876 34.06 C 95.884 34.06 95.892 34.06 95.901 34.06 C 95.909 34.06 95.917 34.06 95.926 34.06 C 95.934 34.06 95.942 34.06 95.951 34.06 C 95.959 34.06 95.967 34.06 95.976 34.06 C 95.984 34.06 95.993 34.06 96.001 34.06 C 96.009 34.06 96.018 34.06 96.026 34.06 C 96.035 34.06 96.043 34.06 96.051 34.06 C 96.06 34.06 96.068 34.06 96.077 34.06 C 96.085 34.06 96.094 34.06 96.102 34.06 C 96.111 34.06 96.119 34.06 96.128 34.06 C 96.136 34.06 96.144 34.06 96.153 34.06 C 96.161 34.06 96.17 34.06 96.178 34.06 C 96.187 34.06 96.195 34.06 96.204 34.06 C 96.213 34.06 96.221 34.06 96.23 34.06 C 96.238 34.06 96.247 34.06 96.255 34.06 C 96.264 34.06 96.272 34.06 96.281 34.06 C 96.289 34.06 96.298 34.06 96.307 34.06 C 96.315 34.06 96.324 34.06 96.332 34.06 C 96.341 34.06 96.35 34.06 96.358 34.06 C 96.367 34.06 96.375 34.06 96.384 34.06 C 96.393 34.06 96.401 34.06 96.41 34.06 C 96.419 34.06 96.427 34.06 96.436 34.06 C 96.445 34.06 96.453 34.06 96.462 34.06 C 96.471 34.06 96.479 34.06 96.488 34.06 C 96.497 34.06 96.506 34.06 96.514 34.06 C 96.523 34.06 96.532 34.06 96.54 34.06 C 96.549 34.06 96.558 34.06 96.567 34.06 C 96.575 34.06 96.584 34.06 96.593 34.06 C 96.602 34.06 96.61 34.06 96.619 34.06 C 96.628 34.06 96.637 34.06 96.645 34.06 C 96.654 34.06 96.663 34.06 96.672 34.06 C 96.681 34.06 96.689 34.06 96.698 34.06 C 96.707 34.06 96.716 34.06 96.725 34.06 C 96.734 34.06 96.742 34.06 96.751 34.06 C 96.76 34.06 96.769 34.06 96.778 34.06 C 96.787 34.06 96.796 34.06 96.804 34.06 C 96.813 34.06 96.822 34.06 96.831 34.06 C 96.84 34.06 96.849 34.06 96.858 34.06 C 96.867 34.06 96.876 34.06 96.884 34.06 C 96.893 34.06 96.902 34.06 96.911 34.06 C 96.92 34.06 96.929 34.06 96.938 34.06 C 96.947 34.06 96.956 34.06 96.965 34.06 C 96.974 34.06 96.983 34.06 96.992 34.06 C 97.001 34.06 97.01 34.06 97.019 34.06 C 97.028 34.06 97.037 34.06 97.046 34.06 C 97.055 34.06 97.064 34.06 97.073 34.06 C 97.082 34.06 97.091 34.06 97.1 34.06 C 97.109 34.06 97.118 34.06 97.127 34.06 C 97.136 34.06 97.145 34.06 97.154 34.06 C 97.163 34.06 97.172 34.06 97.181 34.06 C 97.19 34.06 97.2 34.06 97.209 34.06 C 97.218 34.06 97.227 34.06 97.236 34.06 C 97.245 34.06 97.254 34.06 97.263 34.06 C 97.272 34.06 97.281 34.06 97.291 34.06 C 97.3 34.06 97.309 34.06 97.318 34.06 C 97.327 34.06 97.336 34.06 97.345 34.06 C 97.355 34.06 97.364 34.06 97.373 34.06 C 97.382 34.06 97.391 34.06 97.4 34.06 C 97.41 34.06 97.419 34.06 97.428 34.06 C 97.437 34.06 97.446 34.06 97.456 34.06 C 97.465 34.06 97.474 34.06 97.483 34.06 C 97.493 34.06 97.502 34.06 97.511 34.06 C 97.52 34.06 97.529 34.06 97.539 34.06 C 97.548 34.06 97.557 34.06 97.566 34.06 C 97.576 34.06 97.585 34.06 97.594 34.06 C 97.604 34.06 97.613 34.06 97.622 34.06 C 97.631 34.06 97.641 34.06 97.65 34.06 C 97.659 34.06 97.669 34.06 97.678 34.06 C 97.687 34.06 97.697 34.06 97.706 34.06 C 97.715 34.06 97.725 34.06 97.734 34.06 C 97.743 34.06 97.753 34.06 97.762 34.06 C 97.771 34.06 97.781 34.06 97.79 34.06 C 97.799 34.06 97.809 34.06 97.818 34.06 C 97.827 34.06 97.837 34.06 97.846 34.06 C 97.856 34.06 97.865 34.06 97.874 34.06 C 97.884 34.06 97.893 34.06 97.903 34.06 C 97.912 34.06 97.921 34.06 97.931 34.06 C 97.94 34.06 97.95 34.06 97.959 34.06 C 97.969 34.06 97.978 34.06 97.987 34.06 C 97.997 34.06 98.006 34.06 98.016 34.06 C 98.025 34.06 98.035 34.06 98.044 34.06 C 98.054 34.06 98.063 34.06 98.073 34.06 C 98.082 34.06 98.092 34.06 98.101 34.06 C 98.111 34.06 98.12 34.06 98.13 34.06 C 98.139 34.06 98.149 34.06 98.158 34.06 C 98.168 34.06 98.177 34.06 98.187 34.06 C 98.196 34.06 98.206 34.06 98.215 34.06 C 98.225 34.06 98.234 34.06 98.244 34.06 C 98.254 34.06 98.263 34.06 98.273 34.06 C 98.282 34.06 98.292 34.06 98.301 34.06 C 98.311 34.06 98.321 34.06 98.33 34.06 C 98.34 34.06 98.349 34.06 98.359 34.06 C 98.369 34.06 98.378 34.06 98.388 34.06 C 98.397 34.06 98.407 34.06 98.417 34.06 C 98.426 34.06 98.436 34.06 98.445 34.06 C 98.455 34.06 98.465 34.06 98.474 34.06 C 98.484 34.06 98.494 34.06 98.503 34.06 C 98.513 34.06 98.523 34.06 98.532 34.06 C 98.542 34.06 98.552 34.06 98.561 34.06 C 98.571 34.06 98.581 34.06 98.59 34.06 C 98.6 34.06 98.61 34.06 98.619 34.06 C 98.629 34.06 98.639 34.06 98.648 34.06 C 98.658 34.06 98.668 34.06 98.678 34.06 C 98.687 34.06 98.697 34.06 98.707 34.06 C 98.717 34.06 98.726 34.06 98.736 34.06 C 98.746 34.06 98.755 34.06 98.765 34.06 C 98.775 34.06 98.785 34.06 98.794 34.06 C 98.804 34.06 98.814 34.06 98.824 34.06 C 98.834 34.06 98.843 34.06 98.853 34.06 C 98.863 34.06 98.873 34.06 98.882 34.06 C 98.892 34.06 98.902 34.06 98.912 34.06 C 98.922 34.06 98.931 34.06 98.941 34.06 C 98.951 34.06 98.961 34.06 98.971 34.06 C 98.98 34.06 98.99 34.06 99 34.06 C 99.01 34.06 99.02 34.06 99.03 34.06 C 99.039 34.06 99.049 34.06 99.059 34.06 C 99.069 34.06 99.079 34.06 99.089 34.06 C 99.099 34.06 99.108 34.06 99.118 34.06 C 99.128 34.06 99.138 34.06 99.148 34.06 C 99.158 34.06 99.168 34.06 99.178 34.06 C 99.187 34.06 99.197 34.06 99.207 34.06 C 99.217 34.06 99.227 34.06 99.237 34.06 C 99.247 34.06 99.257 34.06 99.267 34.06 C 99.277 34.06 99.286 34.06 99.296 34.06 C 99.306 34.06 99.316 34.06 99.326 34.06 C 99.336 34.06 99.346 34.06 99.356 34.06 C 99.366 34.06 99.376 34.06 99.386 34.06 C 99.396 34.06 99.406 34.06 99.416 34.06 C 99.426 34.06 99.436 34.06 99.446 34.06 C 99.456 34.06 99.466 34.06 99.476 34.06 C 99.485 34.06 99.495 34.06 99.505 34.06 C 99.515 34.06 99.525 34.06 99.535 34.06 C 99.545 34.06 99.555 34.06 99.565 34.06 C 99.575 34.06 99.585 34.06 99.595 34.06 C 99.605 34.06 99.615 34.06 99.625 34.06 C 99.635 34.06 99.646 34.06 99.656 34.06 C 99.666 34.06 99.676 34.06 99.686 34.06 C 99.696 34.06 99.706 34.06 99.716 34.06 C 99.726 34.06 99.736 34.06 99.746 34.06 C 99.756 34.06 99.766 34.06 99.776 34.06 C 99.786 34.06 99.796 34.06 99.806 34.06 C 99.816 34.06 99.826 34.06 99.837 34.06 C 99.847 34.06 99.857 34.06 99.867 34.06 C 99.877 34.06 99.887 34.06 99.897 34.06 C 99.907 34.06 99.917 34.06 99.927 34.06 C 99.937 34.06 99.948 34.06 99.958 34.06 C 99.968 34.06 99.978 34.06 99.988 34.06 C 99.998 34.06 100.008 34.06 100.018 34.06 C 100.028 34.06 100.039 34.06 100.049 34.06 C 100.059 34.06 100.069 34.06 100.079 34.06 C 100.089 34.06 100.099 34.06 100.11 34.06 C 100.12 34.06 100.13 34.06 100.14 34.06 C 100.15 34.06 100.16 34.06 100.17 34.06 C 100.181 34.06 100.191 34.06 100.201 34.06 C 100.211 34.06 100.221 34.06 100.231 34.06 C 100.242 34.06 100.252 34.06 100.262 34.06 C 100.272 34.06 100.282 34.06 100.293 34.06 C 100.303 34.06 100.313 34.06 100.323 34.06 C 100.333 34.06 100.344 34.06 100.354 34.06 C 100.364 34.06 100.374 34.06 100.384 34.06 C 100.395 34.06 100.405 34.06 100.415 34.06 C 100.425 34.06 100.435 34.06 100.446 34.06 C 100.456 34.06 100.466 34.06 100.476 34.06 C 100.487 34.06 100.497 34.06 100.507 34.06 C 100.517 34.06 100.528 34.06 100.538 34.06 C 100.548 34.06 100.558 34.06 100.569 34.06 C 100.579 34.06 100.589 34.06 100.599 34.06 C 100.61 34.06 100.62 34.06 100.63 34.06 C 100.64 34.06 100.651 34.06 100.661 34.06 C 100.671 34.06 100.681 34.06 100.692 34.06 C 100.702 34.06 100.712 34.06 100.723 34.06 C 100.733 34.06 100.743 34.06 100.753 34.06 C 100.764 34.06 100.774 34.06 100.784 34.06 C 100.795 34.06 100.805 34.06 100.815 34.06 C 100.826 34.06 100.836 34.06 100.846 34.06 C 100.856 34.06 100.867 34.06 100.877 34.06 C 100.887 34.06 100.898 34.06 100.908 34.06 C 100.918 34.06 100.929 34.06 100.939 34.06 C 100.949 34.06 100.96 34.06 100.97 34.06 C 100.98 34.06 100.991 34.06 101.001 34.06 C 101.011 34.06 101.022 34.06 101.032 34.06 C 101.042 34.06 101.053 34.06 101.063 34.06 C 101.073 34.06 101.084 34.06 101.094 34.06 C 101.104 34.06 101.115 34.06 101.125 34.06 C 101.135 34.06 101.146 34.06 101.156 34.06 C 101.167 34.06 101.177 34.06 101.187 34.06 C 101.198 34.06 101.208 34.06 101.218 34.06 C 101.229 34.06 101.239 34.06 101.25 34.06 C 101.26 34.06 101.27 34.06 101.281 34.06 C 101.291 34.06 101.301 34.06 101.312 34.06 C 101.322 34.06 101.333 34.06 101.343 34.06 C 101.353 34.06 101.364 34.06 101.374 34.06 C 101.385 34.06 101.395 34.06 101.405 34.06 C 101.416 34.06 101.426 34.06 101.437 34.06 C 101.447 34.06 101.458 34.06 101.468 34.06 C 101.478 34.06 101.489 34.06 101.499 34.06 C 101.51 34.06 101.52 34.06 101.53 34.06 C 101.541 34.06 101.551 34.06 101.562 34.06 C 101.572 34.06 101.583 34.06 101.593 34.06 C 101.603 34.06 101.614 34.06 101.624 34.06 C 101.635 34.06 101.645 34.06 101.656 34.06 C 101.666 34.06 101.677 34.06 101.687 34.06 C 101.697 34.06 101.708 34.06 101.718 34.06 C 101.729 34.06 101.739 34.06 101.75 34.06 C 101.76 34.06 101.771 34.06 101.781 34.06 C 101.792 34.06 101.802 34.06 101.812 34.06 C 101.823 34.06 101.833 34.06 101.844 34.06 C 101.854 34.06 101.865 34.06 101.875 34.06 C 101.886 34.06 101.896 34.06 101.907 34.06 C 101.917 34.06 101.928 34.06 101.938 34.06 C 101.949 34.06 101.959 34.06 101.97 34.06 C 101.98 34.06 101.99 34.06 102.001 34.06 C 102.011 34.06 102.022 34.06 102.032 34.06 C 102.043 34.06 102.053 34.06 102.064 34.06 C 102.074 34.06 102.085 34.06 102.095 34.06 C 102.106 34.06 102.116 34.06 102.127 34.06 C 102.137 34.06 102.148 34.06 102.158 34.06 C 102.169 34.06 102.179 34.06 102.19 34.06 C 102.2 34.06 102.211 34.06 102.221 34.06 C 102.232 34.06 102.242 34.06 102.253 34.06 C 102.263 34.06 102.274 34.06 102.285 34.06 C 102.295 34.06 102.306 34.06 102.316 34.06 C 102.327 34.06 102.337 34.06 102.348 34.06 C 102.358 34.06 102.369 34.06 102.379 34.06 C 102.39 34.06 102.4 34.06 102.411 34.06 C 102.421 34.06 102.432 34.06 102.442 34.06 C 102.453 34.06 102.463 34.06 102.474 34.06 C 102.484 34.06 102.495 34.06 102.506 34.06 C 102.516 34.06 102.527 34.06 102.537 34.06 C 102.548 34.06 102.558 34.06 102.569 34.06 C 102.579 34.06 102.59 34.06 102.6 34.06 C 102.611 34.06 102.622 34.06 102.632 34.06 C 102.643 34.06 102.653 34.06 102.664 34.06 C 102.674 34.06 102.685 34.06 102.695 34.06 C 102.706 34.06 102.716 34.06 102.727 34.06 C 102.738 34.06 102.748 34.06 102.759 34.06 C 102.769 34.06 102.78 34.06 102.79 34.06 C 102.801 34.06 102.811 34.06 102.822 34.06 C 102.833 34.06 102.843 34.06 102.854 34.06 C 102.864 34.06 102.875 34.06 102.885 34.06 C 102.896 34.06 102.907 34.06 102.917 34.06 C 102.928 34.06 102.938 34.06 102.949 34.06 C 102.959 34.06 102.97 34.06 102.98 34.06 C 102.991 34.06 103.002 34.06 103.012 34.06 C 103.023 34.06 103.033 34.06 103.044 34.06 C 103.054 34.06 103.065 34.06 103.076 34.06 C 103.086 34.06 103.097 34.06 103.107 34.06 C 103.118 34.06 103.128 34.06 103.139 34.06 C 103.15 34.06 103.16 34.06 103.171 34.06 C 103.181 34.06 103.192 34.06 103.203 34.06 C 103.213 34.06 103.224 34.06 103.234 34.06 C 103.245 34.06 103.255 34.06 103.266 34.06 C 103.277 34.06 103.287 34.06 103.298 34.06 C 103.308 34.06 103.319 34.06 103.33 34.06 C 103.34 34.06 103.351 34.06 103.361 34.06 C 103.372 34.06 103.382 34.06 103.393 34.06 C 103.404 34.06 103.414 34.06 103.425 34.06 C 103.435 34.06 103.446 34.06 103.457 34.06 C 103.467 34.06 103.478 34.06 103.488 34.06 C 103.499 34.06 103.509 34.06 103.52 34.06 C 103.531 34.06 103.541 34.06 103.552 34.06 C 103.562 34.06 103.573 34.06 103.584 34.06 C 103.594 34.06 103.605 34.06 103.615 34.06 C 103.626 34.06 103.637 34.06 103.647 34.06 C 103.658 34.06 103.668 34.06 103.679 34.06 C 103.69 34.06 103.7 34.06 103.711 34.06 C 103.721 34.06 103.732 34.06 103.742 34.06 C 103.753 34.06 103.764 34.06 103.774 34.06 C 103.785 34.06 103.795 34.06 103.806 34.06 C 103.817 34.06 103.827 34.06 103.838 34.06 C 103.848 34.06 103.859 34.06 103.87 34.06 C 103.88 34.06 103.891 34.06 103.901 34.06 C 103.912 34.06 103.923 34.06 103.933 34.06 C 103.944 34.06 103.954 34.06 103.965 34.06 C 103.975 34.06 103.986 34.06 103.997 34.06 C 104.007 34.06 104.018 34.06 104.028 34.06 C 104.039 34.06 104.05 34.06 104.06 34.06 C 104.071 34.06 104.081 34.06 104.092 34.06 C 104.103 34.06 104.113 34.06 104.124 34.06 C 104.134 34.06 104.145 34.06 104.156 34.06 C 104.166 34.06 104.177 34.06 104.187 34.06 C 104.198 34.06 104.208 34.06 104.219 34.06 C 104.23 34.06 104.24 34.06 104.251 34.06 C 104.261 34.06 104.272 34.06 104.283 34.06 C 104.293 34.06 104.304 34.06 104.314 34.06 C 104.325 34.06 104.336 34.06 104.346 34.06 C 104.357 34.06 104.367 34.06 104.378 34.06 C 104.388 34.06 104.399 34.06 104.41 34.06 C 104.42 34.06 104.431 34.06 104.441 34.06 C 104.452 34.06 104.463 34.06 104.473 34.06 C 104.484 34.06 104.494 34.06 104.505 34.06 C 104.515 34.06 104.526 34.06 104.537 34.06 C 104.547 34.06 104.558 34.06 104.568 34.06 C 104.579 34.06 104.589 34.06 104.6 34.06 C 104.611 34.06 104.621 34.06 104.632 34.06 C 104.642 34.06 104.653 34.06 104.663 34.06 C 104.674 34.06 104.685 34.06 104.695 34.06 C 104.706 34.06 104.716 34.06 104.727 34.06 C 104.737 34.06 104.748 34.06 104.759 34.06 C 104.769 34.06 104.78 34.06 104.79 34.06 C 104.801 34.06 104.811 34.06 104.822 34.06 C 104.833 34.06 104.843 34.06 104.854 34.06 C 104.864 34.06 104.875 34.06 104.885 34.06 C 104.896 34.06 104.906 34.06 104.917 34.06 C 104.928 34.06 104.938 34.06 104.949 34.06 C 104.959 34.06 104.97 34.06 104.98 34.06 C 104.991 34.06 105.001 34.06 105.012 34.06 C 105.023 34.06 105.033 34.06 105.044 34.06 C 105.054 34.06 105.065 34.06 105.075 34.06 C 105.086 34.06 105.096 34.06 105.107 34.06 C 105.117 34.06 105.128 34.06 105.139 34.06 C 105.149 34.06 105.16 34.06 105.17 34.06 C 105.181 34.06 105.191 34.06 105.202 34.06 C 105.212 34.06 105.223 34.06 105.233 34.06 C 105.244 34.06 105.254 34.06 105.265 34.06 C 105.276 34.06 105.286 34.06 105.297 34.06 C 105.307 34.06 105.318 34.06 105.328 34.06 C 105.339 34.06 105.349 34.06 105.36 34.06 C 105.37 34.06 105.381 34.06 105.391 34.06 C 105.402 34.06 105.412 34.06 105.423 34.06 C 105.433 34.06 105.444 34.06 105.454 34.06 C 105.465 34.06 105.475 34.06 105.486 34.06 C 105.496 34.06 105.507 34.06 105.517 34.06 C 105.528 34.06 105.538 34.06 105.549 34.06 C 105.559 34.06 105.57 34.06 105.58 34.06 C 105.591 34.06 105.601 34.06 105.612 34.06 C 105.622 34.06 105.633 34.06 105.643 34.06 C 105.654 34.06 105.664 34.06 105.675 34.06 C 105.685 34.06 105.696 34.06 105.706 34.06 C 105.717 34.06 105.727 34.06 105.738 34.06 C 105.748 34.06 105.759 34.06 105.769 34.06 C 105.78 34.06 105.79 34.06 105.801 34.06 C 105.811 34.06 105.822 34.06 105.832 34.06 C 105.843 34.06 105.853 34.06 105.863 34.06 C 105.874 34.06 105.884 34.06 105.895 34.06 C 105.905 34.06 105.916 34.06 105.926 34.06 C 105.937 34.06 105.947 34.06 105.958 34.06 C 105.968 34.06 105.979 34.06 105.989 34.06 C 105.999 34.06 106.01 34.06 106.02 34.06 C 106.031 34.06 106.041 34.06 106.052 34.06 C 106.062 34.06 106.073 34.06 106.083 34.06 C 106.093 34.06 106.104 34.06 106.114 34.06 C 106.125 34.06 106.135 34.06 106.146 34.06 C 106.156 34.06 106.166 34.06 106.177 34.06 C 106.187 34.06 106.198 34.06 106.208 34.06 C 106.218 34.06 106.229 34.06 106.239 34.06 C 106.25 34.06 106.26 34.06 106.271 34.06 C 106.281 34.06 106.291 34.06 106.302 34.06 C 106.312 34.06 106.323 34.06 106.333 34.06 C 106.343 34.06 106.354 34.06 106.364 34.06 C 106.375 34.06 106.385 34.06 106.395 34.06 C 106.406 34.06 106.416 34.06 106.427 34.06 C 106.437 34.06 106.447 34.06 106.458 34.06 C 106.468 34.06 106.478 34.06 106.489 34.06 C 106.499 34.06 106.51 34.06 106.52 34.06 C 106.53 34.06 106.541 34.06 106.551 34.06 C 106.561 34.06 106.572 34.06 106.582 34.06 C 106.592 34.06 106.603 34.06 106.613 34.06 C 106.623 34.06 106.634 34.06 106.644 34.06 C 106.655 34.06 106.665 34.06 106.675 34.06 C 106.686 34.06 106.696 34.06 106.706 34.06 C 106.717 34.06 106.727 34.06 106.737 34.06 C 106.748 34.06 106.758 34.06 106.768 34.06 C 106.779 34.06 106.789 34.06 106.799 34.06 C 106.81 34.06 106.82 34.06 106.83 34.06 C 106.84 34.06 106.851 34.06 106.861 34.06 C 106.871 34.06 106.882 34.06 106.892 34.06 C 106.902 34.06 106.913 34.06 106.923 34.06 C 106.933 34.06 106.943 34.06 106.954 34.06 C 106.964 34.06 106.974 34.06 106.985 34.06 C 106.995 34.06 107.005 34.06 107.015 34.06 C 107.026 34.06 107.036 34.06 107.046 34.06 C 107.057 34.06 107.067 34.06 107.077 34.06 C 107.087 34.06 107.098 34.06 107.108 34.06 C 107.118 34.06 107.128 34.06 107.139 34.06 C 107.149 34.06 107.159 34.06 107.169 34.06 C 107.18 34.06 107.19 34.06 107.2 34.06 C 107.21 34.06 107.221 34.06 107.231 34.06 C 107.241 34.06 107.251 34.06 107.261 34.06 C 107.272 34.06 107.282 34.06 107.292 34.06 C 107.302 34.06 107.313 34.06 107.323 34.06 C 107.333 34.06 107.343 34.06 107.353 34.06 C 107.364 34.06 107.374 34.06 107.384 34.06 C 107.394 34.06 107.404 34.06 107.415 34.06 C 107.425 34.06 107.435 34.06 107.445 34.06 C 107.455 34.06 107.465 34.06 107.476 34.06 C 107.486 34.06 107.496 34.06 107.506 34.06 C 107.516 34.06 107.526 34.06 107.537 34.06 C 107.547 34.06 107.557 34.06 107.567 34.06 C 107.577 34.06 107.587 34.06 107.598 34.06 C 107.608 34.06 107.618 34.06 107.628 34.06 C 107.638 34.06 107.648 34.06 107.658 34.06 C 107.668 34.06 107.679 34.06 107.689 34.06 C 107.699 34.06 107.709 34.06 107.719 34.06 C 107.729 34.06 107.739 34.06 107.749 34.06 C 107.76 34.06 107.77 34.06 107.78 34.06 C 107.79 34.06 107.8 34.06 107.81 34.06 C 107.82 34.06 107.83 34.06 107.84 34.06 C 107.85 34.06 107.86 34.06 107.871 34.06 C 107.881 34.06 107.891 34.06 107.901 34.06 C 107.911 34.06 107.921 34.06 107.931 34.06 C 107.941 34.06 107.951 34.06 107.961 34.06 C 107.971 34.06 107.981 34.06 107.991 34.06 C 108.001 34.06 108.011 34.06 108.021 34.06 C 108.031 34.06 108.041 34.06 108.051 34.06 C 108.061 34.06 108.071 34.06 108.082 34.06 C 108.092 34.06 108.102 34.06 108.112 34.06 C 108.122 34.06 108.132 34.06 108.142 34.06 C 108.152 34.06 108.162 34.06 108.172 34.06 C 108.182 34.06 108.192 34.06 108.202 34.06 C 108.212 34.06 108.221 34.06 108.231 34.06 C 108.241 34.06 108.251 34.06 108.261 34.06 C 108.271 34.06 108.281 34.06 108.291 34.06 C 108.301 34.06 108.311 34.06 108.321 34.06 C 108.331 34.06 108.341 34.06 108.351 34.06 C 108.361 34.06 108.371 34.06 108.381 34.06 C 108.391 34.06 108.401 34.06 108.411 34.06 C 108.42 34.06 108.43 34.06 108.44 34.06 C 108.45 34.06 108.46 34.06 108.47 34.06 C 108.48 34.06 108.49 34.06 108.5 34.06 C 108.51 34.06 108.519 34.06 108.529 34.06 C 108.539 34.06 108.549 34.06 108.559 34.06 C 108.569 34.06 108.579 34.06 108.589 34.06 C 108.598 34.06 108.608 34.06 108.618 34.06 C 108.628 34.06 108.638 34.06 108.648 34.06 C 108.658 34.06 108.667 34.06 108.677 34.06 C 108.687 34.06 108.697 34.06 108.707 34.06 C 108.717 34.06 108.726 34.06 108.736 34.06 C 108.746 34.06 108.756 34.06 108.766 34.06 C 108.775 34.06 108.785 34.06 108.795 34.06 C 108.805 34.06 108.815 34.06 108.824 34.06 C 108.834 34.06 108.844 34.06 108.854 34.06 C 108.864 34.06 108.873 34.06 108.883 34.06 C 108.893 34.06 108.903 34.06 108.912 34.06 C 108.922 34.06 108.932 34.06 108.942 34.06 C 108.951 34.06 108.961 34.06 108.971 34.06 C 108.981 34.06 108.99 34.06 109 34.06 L 109 32.06 L 109 30.06 C 108.99 30.06 108.981 30.06 108.971 30.06 C 108.961 30.06 108.951 30.06 108.942 30.06 C 108.932 30.06 108.922 30.06 108.912 30.06 C 108.903 30.06 108.893 30.06 108.883 30.06 C 108.873 30.06 108.864 30.06 108.854 30.06 C 108.844 30.06 108.834 30.06 108.824 30.06 C 108.815 30.06 108.805 30.06 108.795 30.06 C 108.785 30.06 108.775 30.06 108.766 30.06 C 108.756 30.06 108.746 30.06 108.736 30.06 C 108.726 30.06 108.717 30.06 108.707 30.06 C 108.697 30.06 108.687 30.06 108.677 30.06 C 108.667 30.06 108.658 30.06 108.648 30.06 C 108.638 30.06 108.628 30.06 108.618 30.06 C 108.608 30.06 108.598 30.06 108.589 30.06 C 108.579 30.06 108.569 30.06 108.559 30.06 C 108.549 30.06 108.539 30.06 108.529 30.06 C 108.519 30.06 108.51 30.06 108.5 30.06 C 108.49 30.06 108.48 30.06 108.47 30.06 C 108.46 30.06 108.45 30.06 108.44 30.06 C 108.43 30.06 108.42 30.06 108.411 30.06 C 108.401 30.06 108.391 30.06 108.381 30.06 C 108.371 30.06 108.361 30.06 108.351 30.06 C 108.341 30.06 108.331 30.06 108.321 30.06 C 108.311 30.06 108.301 30.06 108.291 30.06 C 108.281 30.06 108.271 30.06 108.261 30.06 C 108.251 30.06 108.241 30.06 108.231 30.06 C 108.221 30.06 108.212 30.06 108.202 30.06 C 108.192 30.06 108.182 30.06 108.172 30.06 C 108.162 30.06 108.152 30.06 108.142 30.06 C 108.132 30.06 108.122 30.06 108.112 30.06 C 108.102 30.06 108.092 30.06 108.082 30.06 C 108.071 30.06 108.061 30.06 108.051 30.06 C 108.041 30.06 108.031 30.06 108.021 30.06 C 108.011 30.06 108.001 30.06 107.991 30.06 C 107.981 30.06 107.971 30.06 107.961 30.06 C 107.951 30.06 107.941 30.06 107.931 30.06 C 107.921 30.06 107.911 30.06 107.901 30.06 C 107.891 30.06 107.881 30.06 107.871 30.06 C 107.86 30.06 107.85 30.06 107.84 30.06 C 107.83 30.06 107.82 30.06 107.81 30.06 C 107.8 30.06 107.79 30.06 107.78 30.06 C 107.77 30.06 107.76 30.06 107.749 30.06 C 107.739 30.06 107.729 30.06 107.719 30.06 C 107.709 30.06 107.699 30.06 107.689 30.06 C 107.679 30.06 107.668 30.06 107.658 30.06 C 107.648 30.06 107.638 30.06 107.628 30.06 C 107.618 30.06 107.608 30.06 107.598 30.06 C 107.587 30.06 107.577 30.06 107.567 30.06 C 107.557 30.06 107.547 30.06 107.537 30.06 C 107.526 30.06 107.516 30.06 107.506 30.06 C 107.496 30.06 107.486 30.06 107.476 30.06 C 107.465 30.06 107.455 30.06 107.445 30.06 C 107.435 30.06 107.425 30.06 107.415 30.06 C 107.404 30.06 107.394 30.06 107.384 30.06 C 107.374 30.06 107.364 30.06 107.353 30.06 C 107.343 30.06 107.333 30.06 107.323 30.06 C 107.313 30.06 107.302 30.06 107.292 30.06 C 107.282 30.06 107.272 30.06 107.261 30.06 C 107.251 30.06 107.241 30.06 107.231 30.06 C 107.221 30.06 107.21 30.06 107.2 30.06 C 107.19 30.06 107.18 30.06 107.169 30.06 C 107.159 30.06 107.149 30.06 107.139 30.06 C 107.128 30.06 107.118 30.06 107.108 30.06 C 107.098 30.06 107.087 30.06 107.077 30.06 C 107.067 30.06 107.057 30.06 107.046 30.06 C 107.036 30.06 107.026 30.06 107.015 30.06 C 107.005 30.06 106.995 30.06 106.985 30.06 C 106.974 30.06 106.964 30.06 106.954 30.06 C 106.943 30.06 106.933 30.06 106.923 30.06 C 106.913 30.06 106.902 30.06 106.892 30.06 C 106.882 30.06 106.871 30.06 106.861 30.06 C 106.851 30.06 106.84 30.06 106.83 30.06 C 106.82 30.06 106.81 30.06 106.799 30.06 C 106.789 30.06 106.779 30.06 106.768 30.06 C 106.758 30.06 106.748 30.06 106.737 30.06 C 106.727 30.06 106.717 30.06 106.706 30.06 C 106.696 30.06 106.686 30.06 106.675 30.06 C 106.665 30.06 106.655 30.06 106.644 30.06 C 106.634 30.06 106.623 30.06 106.613 30.06 C 106.603 30.06 106.592 30.06 106.582 30.06 C 106.572 30.06 106.561 30.06 106.551 30.06 C 106.541 30.06 106.53 30.06 106.52 30.06 C 106.51 30.06 106.499 30.06 106.489 30.06 C 106.478 30.06 106.468 30.06 106.458 30.06 C 106.447 30.06 106.437 30.06 106.427 30.06 C 106.416 30.06 106.406 30.06 106.395 30.06 C 106.385 30.06 106.375 30.06 106.364 30.06 C 106.354 30.06 106.343 30.06 106.333 30.06 C 106.323 30.06 106.312 30.06 106.302 30.06 C 106.291 30.06 106.281 30.06 106.271 30.06 C 106.26 30.06 106.25 30.06 106.239 30.06 C 106.229 30.06 106.218 30.06 106.208 30.06 C 106.198 30.06 106.187 30.06 106.177 30.06 C 106.166 30.06 106.156 30.06 106.146 30.06 C 106.135 30.06 106.125 30.06 106.114 30.06 C 106.104 30.06 106.093 30.06 106.083 30.06 C 106.073 30.06 106.062 30.06 106.052 30.06 C 106.041 30.06 106.031 30.06 106.02 30.06 C 106.01 30.06 105.999 30.06 105.989 30.06 C 105.979 30.06 105.968 30.06 105.958 30.06 C 105.947 30.06 105.937 30.06 105.926 30.06 C 105.916 30.06 105.905 30.06 105.895 30.06 C 105.884 30.06 105.874 30.06 105.863 30.06 C 105.853 30.06 105.843 30.06 105.832 30.06 C 105.822 30.06 105.811 30.06 105.801 30.06 C 105.79 30.06 105.78 30.06 105.769 30.06 C 105.759 30.06 105.748 30.06 105.738 30.06 C 105.727 30.06 105.717 30.06 105.706 30.06 C 105.696 30.06 105.685 30.06 105.675 30.06 C 105.664 30.06 105.654 30.06 105.643 30.06 C 105.633 30.06 105.622 30.06 105.612 30.06 C 105.601 30.06 105.591 30.06 105.58 30.06 C 105.57 30.06 105.559 30.06 105.549 30.06 C 105.538 30.06 105.528 30.06 105.517 30.06 C 105.507 30.06 105.496 30.06 105.486 30.06 C 105.475 30.06 105.465 30.06 105.454 30.06 C 105.444 30.06 105.433 30.06 105.423 30.06 C 105.412 30.06 105.402 30.06 105.391 30.06 C 105.381 30.06 105.37 30.06 105.36 30.06 C 105.349 30.06 105.339 30.06 105.328 30.06 C 105.318 30.06 105.307 30.06 105.297 30.06 C 105.286 30.06 105.276 30.06 105.265 30.06 C 105.254 30.06 105.244 30.06 105.233 30.06 C 105.223 30.06 105.212 30.06 105.202 30.06 C 105.191 30.06 105.181 30.06 105.17 30.06 C 105.16 30.06 105.149 30.06 105.139 30.06 C 105.128 30.06 105.117 30.06 105.107 30.06 C 105.096 30.06 105.086 30.06 105.075 30.06 C 105.065 30.06 105.054 30.06 105.044 30.06 C 105.033 30.06 105.023 30.06 105.012 30.06 C 105.001 30.06 104.991 30.06 104.98 30.06 C 104.97 30.06 104.959 30.06 104.949 30.06 C 104.938 30.06 104.928 30.06 104.917 30.06 C 104.906 30.06 104.896 30.06 104.885 30.06 C 104.875 30.06 104.864 30.06 104.854 30.06 C 104.843 30.06 104.833 30.06 104.822 30.06 C 104.811 30.06 104.801 30.06 104.79 30.06 C 104.78 30.06 104.769 30.06 104.759 30.06 C 104.748 30.06 104.737 30.06 104.727 30.06 C 104.716 30.06 104.706 30.06 104.695 30.06 C 104.685 30.06 104.674 30.06 104.663 30.06 C 104.653 30.06 104.642 30.06 104.632 30.06 C 104.621 30.06 104.611 30.06 104.6 30.06 C 104.589 30.06 104.579 30.06 104.568 30.06 C 104.558 30.06 104.547 30.06 104.537 30.06 C 104.526 30.06 104.515 30.06 104.505 30.06 C 104.494 30.06 104.484 30.06 104.473 30.06 C 104.463 30.06 104.452 30.06 104.441 30.06 C 104.431 30.06 104.42 30.06 104.41 30.06 C 104.399 30.06 104.388 30.06 104.378 30.06 C 104.367 30.06 104.357 30.06 104.346 30.06 C 104.336 30.06 104.325 30.06 104.314 30.06 C 104.304 30.06 104.293 30.06 104.283 30.06 C 104.272 30.06 104.261 30.06 104.251 30.06 C 104.24 30.06 104.23 30.06 104.219 30.06 C 104.208 30.06 104.198 30.06 104.187 30.06 C 104.177 30.06 104.166 30.06 104.156 30.06 C 104.145 30.06 104.134 30.06 104.124 30.06 C 104.113 30.06 104.103 30.06 104.092 30.06 C 104.081 30.06 104.071 30.06 104.06 30.06 C 104.05 30.06 104.039 30.06 104.028 30.06 C 104.018 30.06 104.007 30.06 103.997 30.06 C 103.986 30.06 103.975 30.06 103.965 30.06 C 103.954 30.06 103.944 30.06 103.933 30.06 C 103.923 30.06 103.912 30.06 103.901 30.06 C 103.891 30.06 103.88 30.06 103.87 30.06 C 103.859 30.06 103.848 30.06 103.838 30.06 C 103.827 30.06 103.817 30.06 103.806 30.06 C 103.795 30.06 103.785 30.06 103.774 30.06 C 103.764 30.06 103.753 30.06 103.742 30.06 C 103.732 30.06 103.721 30.06 103.711 30.06 C 103.7 30.06 103.69 30.06 103.679 30.06 C 103.668 30.06 103.658 30.06 103.647 30.06 C 103.637 30.06 103.626 30.06 103.615 30.06 C 103.605 30.06 103.594 30.06 103.584 30.06 C 103.573 30.06 103.562 30.06 103.552 30.06 C 103.541 30.06 103.531 30.06 103.52 30.06 C 103.509 30.06 103.499 30.06 103.488 30.06 C 103.478 30.06 103.467 30.06 103.457 30.06 C 103.446 30.06 103.435 30.06 103.425 30.06 C 103.414 30.06 103.404 30.06 103.393 30.06 C 103.382 30.06 103.372 30.06 103.361 30.06 C 103.351 30.06 103.34 30.06 103.33 30.06 C 103.319 30.06 103.308 30.06 103.298 30.06 C 103.287 30.06 103.277 30.06 103.266 30.06 C 103.255 30.06 103.245 30.06 103.234 30.06 C 103.224 30.06 103.213 30.06 103.203 30.06 C 103.192 30.06 103.181 30.06 103.171 30.06 C 103.16 30.06 103.15 30.06 103.139 30.06 C 103.128 30.06 103.118 30.06 103.107 30.06 C 103.097 30.06 103.086 30.06 103.076 30.06 C 103.065 30.06 103.054 30.06 103.044 30.06 C 103.033 30.06 103.023 30.06 103.012 30.06 C 103.002 30.06 102.991 30.06 102.98 30.06 C 102.97 30.06 102.959 30.06 102.949 30.06 C 102.938 30.06 102.928 30.06 102.917 30.06 C 102.907 30.06 102.896 30.06 102.885 30.06 C 102.875 30.06 102.864 30.06 102.854 30.06 C 102.843 30.06 102.833 30.06 102.822 30.06 C 102.811 30.06 102.801 30.06 102.79 30.06 C 102.78 30.06 102.769 30.06 102.759 30.06 C 102.748 30.06 102.738 30.06 102.727 30.06 C 102.716 30.06 102.706 30.06 102.695 30.06 C 102.685 30.06 102.674 30.06 102.664 30.06 C 102.653 30.06 102.643 30.06 102.632 30.06 C 102.622 30.06 102.611 30.06 102.6 30.06 C 102.59 30.06 102.579 30.06 102.569 30.06 C 102.558 30.06 102.548 30.06 102.537 30.06 C 102.527 30.06 102.516 30.06 102.506 30.06 C 102.495 30.06 102.484 30.06 102.474 30.06 C 102.463 30.06 102.453 30.06 102.442 30.06 C 102.432 30.06 102.421 30.06 102.411 30.06 C 102.4 30.06 102.39 30.06 102.379 30.06 C 102.369 30.06 102.358 30.06 102.348 30.06 C 102.337 30.06 102.327 30.06 102.316 30.06 C 102.306 30.06 102.295 30.06 102.285 30.06 C 102.274 30.06 102.263 30.06 102.253 30.06 C 102.242 30.06 102.232 30.06 102.221 30.06 C 102.211 30.06 102.2 30.06 102.19 30.06 C 102.179 30.06 102.169 30.06 102.158 30.06 C 102.148 30.06 102.137 30.06 102.127 30.06 C 102.116 30.06 102.106 30.06 102.095 30.06 C 102.085 30.06 102.074 30.06 102.064 30.06 C 102.053 30.06 102.043 30.06 102.032 30.06 C 102.022 30.06 102.011 30.06 102.001 30.06 C 101.99 30.06 101.98 30.06 101.97 30.06 C 101.959 30.06 101.949 30.06 101.938 30.06 C 101.928 30.06 101.917 30.06 101.907 30.06 C 101.896 30.06 101.886 30.06 101.875 30.06 C 101.865 30.06 101.854 30.06 101.844 30.06 C 101.833 30.06 101.823 30.06 101.812 30.06 C 101.802 30.06 101.792 30.06 101.781 30.06 C 101.771 30.06 101.76 30.06 101.75 30.06 C 101.739 30.06 101.729 30.06 101.718 30.06 C 101.708 30.06 101.697 30.06 101.687 30.06 C 101.677 30.06 101.666 30.06 101.656 30.06 C 101.645 30.06 101.635 30.06 101.624 30.06 C 101.614 30.06 101.603 30.06 101.593 30.06 C 101.583 30.06 101.572 30.06 101.562 30.06 C 101.551 30.06 101.541 30.06 101.53 30.06 C 101.52 30.06 101.51 30.06 101.499 30.06 C 101.489 30.06 101.478 30.06 101.468 30.06 C 101.458 30.06 101.447 30.06 101.437 30.06 C 101.426 30.06 101.416 30.06 101.405 30.06 C 101.395 30.06 101.385 30.06 101.374 30.06 C 101.364 30.06 101.353 30.06 101.343 30.06 C 101.333 30.06 101.322 30.06 101.312 30.06 C 101.301 30.06 101.291 30.06 101.281 30.06 C 101.27 30.06 101.26 30.06 101.25 30.06 C 101.239 30.06 101.229 30.06 101.218 30.06 C 101.208 30.06 101.198 30.06 101.187 30.06 C 101.177 30.06 101.167 30.06 101.156 30.06 C 101.146 30.06 101.135 30.06 101.125 30.06 C 101.115 30.06 101.104 30.06 101.094 30.06 C 101.084 30.06 101.073 30.06 101.063 30.06 C 101.053 30.06 101.042 30.06 101.032 30.06 C 101.022 30.06 101.011 30.06 101.001 30.06 C 100.991 30.06 100.98 30.06 100.97 30.06 C 100.96 30.06 100.949 30.06 100.939 30.06 C 100.929 30.06 100.918 30.06 100.908 30.06 C 100.898 30.06 100.887 30.06 100.877 30.06 C 100.867 30.06 100.856 30.06 100.846 30.06 C 100.836 30.06 100.826 30.06 100.815 30.06 C 100.805 30.06 100.795 30.06 100.784 30.06 C 100.774 30.06 100.764 30.06 100.753 30.06 C 100.743 30.06 100.733 30.06 100.723 30.06 C 100.712 30.06 100.702 30.06 100.692 30.06 C 100.681 30.06 100.671 30.06 100.661 30.06 C 100.651 30.06 100.64 30.06 100.63 30.06 C 100.62 30.06 100.61 30.06 100.599 30.06 C 100.589 30.06 100.579 30.06 100.569 30.06 C 100.558 30.06 100.548 30.06 100.538 30.06 C 100.528 30.06 100.517 30.06 100.507 30.06 C 100.497 30.06 100.487 30.06 100.476 30.06 C 100.466 30.06 100.456 30.06 100.446 30.06 C 100.435 30.06 100.425 30.06 100.415 30.06 C 100.405 30.06 100.395 30.06 100.384 30.06 C 100.374 30.06 100.364 30.06 100.354 30.06 C 100.344 30.06 100.333 30.06 100.323 30.06 C 100.313 30.06 100.303 30.06 100.293 30.06 C 100.282 30.06 100.272 30.06 100.262 30.06 C 100.252 30.06 100.242 30.06 100.231 30.06 C 100.221 30.06 100.211 30.06 100.201 30.06 C 100.191 30.06 100.181 30.06 100.17 30.06 C 100.16 30.06 100.15 30.06 100.14 30.06 C 100.13 30.06 100.12 30.06 100.11 30.06 C 100.099 30.06 100.089 30.06 100.079 30.06 C 100.069 30.06 100.059 30.06 100.049 30.06 C 100.039 30.06 100.028 30.06 100.018 30.06 C 100.008 30.06 99.998 30.06 99.988 30.06 C 99.978 30.06 99.968 30.06 99.958 30.06 C 99.948 30.06 99.937 30.06 99.927 30.06 C 99.917 30.06 99.907 30.06 99.897 30.06 C 99.887 30.06 99.877 30.06 99.867 30.06 C 99.857 30.06 99.847 30.06 99.837 30.06 C 99.826 30.06 99.816 30.06 99.806 30.06 C 99.796 30.06 99.786 30.06 99.776 30.06 C 99.766 30.06 99.756 30.06 99.746 30.06 C 99.736 30.06 99.726 30.06 99.716 30.06 C 99.706 30.06 99.696 30.06 99.686 30.06 C 99.676 30.06 99.666 30.06 99.656 30.06 C 99.646 30.06 99.635 30.06 99.625 30.06 C 99.615 30.06 99.605 30.06 99.595 30.06 C 99.585 30.06 99.575 30.06 99.565 30.06 C 99.555 30.06 99.545 30.06 99.535 30.06 C 99.525 30.06 99.515 30.06 99.505 30.06 C 99.495 30.06 99.485 30.06 99.476 30.06 C 99.466 30.06 99.456 30.06 99.446 30.06 C 99.436 30.06 99.426 30.06 99.416 30.06 C 99.406 30.06 99.396 30.06 99.386 30.06 C 99.376 30.06 99.366 30.06 99.356 30.06 C 99.346 30.06 99.336 30.06 99.326 30.06 C 99.316 30.06 99.306 30.06 99.296 30.06 C 99.286 30.06 99.277 30.06 99.267 30.06 C 99.257 30.06 99.247 30.06 99.237 30.06 C 99.227 30.06 99.217 30.06 99.207 30.06 C 99.197 30.06 99.187 30.06 99.178 30.06 C 99.168 30.06 99.158 30.06 99.148 30.06 C 99.138 30.06 99.128 30.06 99.118 30.06 C 99.108 30.06 99.099 30.06 99.089 30.06 C 99.079 30.06 99.069 30.06 99.059 30.06 C 99.049 30.06 99.039 30.06 99.03 30.06 C 99.02 30.06 99.01 30.06 99 30.06 C 98.99 30.06 98.98 30.06 98.971 30.06 C 98.961 30.06 98.951 30.06 98.941 30.06 C 98.931 30.06 98.922 30.06 98.912 30.06 C 98.902 30.06 98.892 30.06 98.882 30.06 C 98.873 30.06 98.863 30.06 98.853 30.06 C 98.843 30.06 98.834 30.06 98.824 30.06 C 98.814 30.06 98.804 30.06 98.794 30.06 C 98.785 30.06 98.775 30.06 98.765 30.06 C 98.755 30.06 98.746 30.06 98.736 30.06 C 98.726 30.06 98.717 30.06 98.707 30.06 C 98.697 30.06 98.687 30.06 98.678 30.06 C 98.668 30.06 98.658 30.06 98.648 30.06 C 98.639 30.06 98.629 30.06 98.619 30.06 C 98.61 30.06 98.6 30.06 98.59 30.06 C 98.581 30.06 98.571 30.06 98.561 30.06 C 98.552 30.06 98.542 30.06 98.532 30.06 C 98.523 30.06 98.513 30.06 98.503 30.06 C 98.494 30.06 98.484 30.06 98.474 30.06 C 98.465 30.06 98.455 30.06 98.445 30.06 C 98.436 30.06 98.426 30.06 98.417 30.06 C 98.407 30.06 98.397 30.06 98.388 30.06 C 98.378 30.06 98.369 30.06 98.359 30.06 C 98.349 30.06 98.34 30.06 98.33 30.06 C 98.321 30.06 98.311 30.06 98.301 30.06 C 98.292 30.06 98.282 30.06 98.273 30.06 C 98.263 30.06 98.254 30.06 98.244 30.06 C 98.234 30.06 98.225 30.06 98.215 30.06 C 98.206 30.06 98.196 30.06 98.187 30.06 C 98.177 30.06 98.168 30.06 98.158 30.06 C 98.149 30.06 98.139 30.06 98.13 30.06 C 98.12 30.06 98.111 30.06 98.101 30.06 C 98.092 30.06 98.082 30.06 98.073 30.06 C 98.063 30.06 98.054 30.06 98.044 30.06 C 98.035 30.06 98.025 30.06 98.016 30.06 C 98.006 30.06 97.997 30.06 97.987 30.06 C 97.978 30.06 97.969 30.06 97.959 30.06 C 97.95 30.06 97.94 30.06 97.931 30.06 C 97.921 30.06 97.912 30.06 97.903 30.06 C 97.893 30.06 97.884 30.06 97.874 30.06 C 97.865 30.06 97.856 30.06 97.846 30.06 C 97.837 30.06 97.827 30.06 97.818 30.06 C 97.809 30.06 97.799 30.06 97.79 30.06 C 97.781 30.06 97.771 30.06 97.762 30.06 C 97.753 30.06 97.743 30.06 97.734 30.06 C 97.725 30.06 97.715 30.06 97.706 30.06 C 97.697 30.06 97.687 30.06 97.678 30.06 C 97.669 30.06 97.659 30.06 97.65 30.06 C 97.641 30.06 97.631 30.06 97.622 30.06 C 97.613 30.06 97.604 30.06 97.594 30.06 C 97.585 30.06 97.576 30.06 97.566 30.06 C 97.557 30.06 97.548 30.06 97.539 30.06 C 97.529 30.06 97.52 30.06 97.511 30.06 C 97.502 30.06 97.493 30.06 97.483 30.06 C 97.474 30.06 97.465 30.06 97.456 30.06 C 97.446 30.06 97.437 30.06 97.428 30.06 C 97.419 30.06 97.41 30.06 97.4 30.06 C 97.391 30.06 97.382 30.06 97.373 30.06 C 97.364 30.06 97.355 30.06 97.345 30.06 C 97.336 30.06 97.327 30.06 97.318 30.06 C 97.309 30.06 97.3 30.06 97.291 30.06 C 97.281 30.06 97.272 30.06 97.263 30.06 C 97.254 30.06 97.245 30.06 97.236 30.06 C 97.227 30.06 97.218 30.06 97.209 30.06 C 97.2 30.06 97.19 30.06 97.181 30.06 C 97.172 30.06 97.163 30.06 97.154 30.06 C 97.145 30.06 97.136 30.06 97.127 30.06 C 97.118 30.06 97.109 30.06 97.1 30.06 C 97.091 30.06 97.082 30.06 97.073 30.06 C 97.064 30.06 97.055 30.06 97.046 30.06 C 97.037 30.06 97.028 30.06 97.019 30.06 C 97.01 30.06 97.001 30.06 96.992 30.06 C 96.983 30.06 96.974 30.06 96.965 30.06 C 96.956 30.06 96.947 30.06 96.938 30.06 C 96.929 30.06 96.92 30.06 96.911 30.06 C 96.902 30.06 96.893 30.06 96.884 30.06 C 96.876 30.06 96.867 30.06 96.858 30.06 C 96.849 30.06 96.84 30.06 96.831 30.06 C 96.822 30.06 96.813 30.06 96.804 30.06 C 96.796 30.06 96.787 30.06 96.778 30.06 C 96.769 30.06 96.76 30.06 96.751 30.06 C 96.742 30.06 96.734 30.06 96.725 30.06 C 96.716 30.06 96.707 30.06 96.698 30.06 C 96.689 30.06 96.681 30.06 96.672 30.06 C 96.663 30.06 96.654 30.06 96.645 30.06 C 96.637 30.06 96.628 30.06 96.619 30.06 C 96.61 30.06 96.602 30.06 96.593 30.06 C 96.584 30.06 96.575 30.06 96.567 30.06 C 96.558 30.06 96.549 30.06 96.54 30.06 C 96.532 30.06 96.523 30.06 96.514 30.06 C 96.506 30.06 96.497 30.06 96.488 30.06 C 96.479 30.06 96.471 30.06 96.462 30.06 C 96.453 30.06 96.445 30.06 96.436 30.06 C 96.427 30.06 96.419 30.06 96.41 30.06 C 96.401 30.06 96.393 30.06 96.384 30.06 C 96.375 30.06 96.367 30.06 96.358 30.06 C 96.35 30.06 96.341 30.06 96.332 30.06 C 96.324 30.06 96.315 30.06 96.307 30.06 C 96.298 30.06 96.289 30.06 96.281 30.06 C 96.272 30.06 96.264 30.06 96.255 30.06 C 96.247 30.06 96.238 30.06 96.23 30.06 C 96.221 30.06 96.213 30.06 96.204 30.06 C 96.195 30.06 96.187 30.06 96.178 30.06 C 96.17 30.06 96.161 30.06 96.153 30.06 C 96.144 30.06 96.136 30.06 96.128 30.06 C 96.119 30.06 96.111 30.06 96.102 30.06 C 96.094 30.06 96.085 30.06 96.077 30.06 C 96.068 30.06 96.06 30.06 96.051 30.06 C 96.043 30.06 96.035 30.06 96.026 30.06 C 96.018 30.06 96.009 30.06 96.001 30.06 C 95.993 30.06 95.984 30.06 95.976 30.06 C 95.967 30.06 95.959 30.06 95.951 30.06 C 95.942 30.06 95.934 30.06 95.926 30.06 C 95.917 30.06 95.909 30.06 95.901 30.06 C 95.892 30.06 95.884 30.06 95.876 30.06 C 95.867 30.06 95.859 30.06 95.851 30.06 C 95.843 30.06 95.834 30.06 95.826 30.06 C 95.818 30.06 95.809 30.06 95.801 30.06 C 95.793 30.06 95.785 30.06 95.776 30.06 C 95.768 30.06 95.76 30.06 95.752 30.06 C 95.744 30.06 95.735 30.06 95.727 30.06 C 95.719 30.06 95.711 30.06 95.703 30.06 C 95.694 30.06 95.686 30.06 95.678 30.06 C 95.67 30.06 95.662 30.06 95.654 30.06 C 95.645 30.06 95.637 30.06 95.629 30.06 C 95.621 30.06 95.613 30.06 95.605 30.06 C 95.597 30.06 95.589 30.06 95.58 30.06 C 95.572 30.06 95.564 30.06 95.556 30.06 C 95.548 30.06 95.54 30.06 95.532 30.06 C 95.524 30.06 95.516 30.06 95.508 30.06 C 95.5 30.06 95.492 30.06 95.484 30.06 C 95.476 30.06 95.468 30.06 95.46 30.06 C 95.452 30.06 95.444 30.06 95.436 30.06 C 95.428 30.06 95.42 30.06 95.412 30.06 C 95.404 30.06 95.396 30.06 95.388 30.06 C 95.38 30.06 95.372 30.06 95.364 30.06 C 95.356 30.06 95.348 30.06 95.34 30.06 C 95.332 30.06 95.324 30.06 95.316 30.06 C 95.308 30.06 95.301 30.06 95.293 30.06 C 95.285 30.06 95.277 30.06 95.269 30.06 C 95.261 30.06 95.253 30.06 95.245 30.06 C 95.238 30.06 95.23 30.06 95.222 30.06 C 95.214 30.06 95.206 30.06 95.198 30.06 C 95.191 30.06 95.183 30.06 95.175 30.06 C 95.167 30.06 95.16 30.06 95.152 30.06 C 95.144 30.06 95.136 30.06 95.128 30.06 C 95.121 30.06 95.113 30.06 95.105 30.06 C 95.097 30.06 95.09 30.06 95.082 30.06 C 95.074 30.06 95.067 30.06 95.059 30.06 C 95.051 30.06 95.044 30.06 95.036 30.06 C 95.028 30.06 95.021 30.06 95.013 30.06 C 95.005 30.06 94.998 30.06 94.99 30.06 C 94.982 30.06 94.975 30.06 94.967 30.06 C 94.959 30.06 94.952 30.06 94.944 30.06 C 94.937 30.06 94.929 30.06 94.921 30.06 C 94.914 30.06 94.906 30.06 94.899 30.06 C 94.891 30.06 94.884 30.06 94.876 30.06 C 94.868 30.06 94.861 30.06 94.853 30.06 C 94.846 30.06 94.838 30.06 94.831 30.06 C 94.823 30.06 94.816 30.06 94.808 30.06 C 94.801 30.06 94.793 30.06 94.786 30.06 C 94.779 30.06 94.771 30.06 94.764 30.06 C 94.756 30.06 94.749 30.06 94.741 30.06 C 94.734 30.06 94.726 30.06 94.719 30.06 C 94.712 30.06 94.704 30.06 94.697 30.06 C 94.69 30.06 94.682 30.06 94.675 30.06 C 94.667 30.06 94.66 30.06 94.653 30.06 C 94.645 30.06 94.638 30.06 94.631 30.06 C 94.623 30.06 94.616 30.06 94.609 30.06 C 94.601 30.06 94.594 30.06 94.587 30.06 C 94.58 30.06 94.572 30.06 94.565 30.06 C 94.558 30.06 94.551 30.06 94.543 30.06 C 94.536 30.06 94.529 30.06 94.522 30.06 C 94.514 30.06 94.507 30.06 94.5 30.06 C 94.493 30.06 94.486 30.06 94.478 30.06 C 94.471 30.06 94.464 30.06 94.457 30.06 C 94.45 30.06 94.443 30.06 94.435 30.06 C 94.428 30.06 94.421 30.06 94.414 30.06 C 94.407 30.06 94.4 30.06 94.393 30.06 C 94.386 30.06 94.379 30.06 94.371 30.06 C 94.364 30.06 94.357 30.06 94.35 30.06 C 94.343 30.06 94.336 30.06 94.329 30.06 C 94.322 30.06 94.315 30.06 94.308 30.06 C 94.301 30.06 94.294 30.06 94.287 30.06 C 94.28 30.06 94.273 30.06 94.266 30.06 C 94.259 30.06 94.252 30.06 94.245 30.06 C 94.238 30.06 94.231 30.06 94.224 30.06 C 94.217 30.06 94.211 30.06 94.204 30.06 C 94.197 30.06 94.19 30.06 94.183 30.06 C 94.176 30.06 94.169 30.06 94.162 30.06 L 94.162 32.06 Z" fill="currentColor" fill-rule="nonzero"></path>
</svg>