<svg xmlns="http://www.w3.org/2000/svg" width="93" height="93" viewBox="0 0 93 93" fill="none">
  <path d="M 44.644 4.622 C 45.316 2.949 47.684 2.949 48.356 4.622 L 58.058 28.782 C 58.344 29.495 59.013 29.981 59.779 30.032 L 85.755 31.794 C 87.554 31.916 88.286 34.168 86.902 35.324 L 66.922 52.017 C 66.333 52.51 66.078 53.296 66.265 54.04 L 72.617 79.289 C 73.057 81.038 71.141 82.43 69.614 81.471 L 47.563 67.628 C 46.913 67.219 46.087 67.219 45.437 67.628 L 23.386 81.471 C 21.859 82.43 19.943 81.038 20.383 79.289 L 26.735 54.04 C 26.922 53.296 26.667 52.51 26.078 52.017 L 6.098 35.324 C 4.714 34.168 5.446 31.916 7.245 31.794 L 33.221 30.032 C 33.987 29.981 34.656 29.495 34.942 28.782 Z" stroke="currentColor" stroke-width="5" fill="none"/>
</svg>
