<svg width="332" height="28" viewBox="0 0 332 28" fill="none" xmlns="http://www.w3.org/2000/svg">
<path d="M22.5894 9.56249H18.6008C18.4474 8.71022 18.1619 7.96022 17.7443 7.31249C17.3267 6.66476 16.8153 6.11505 16.2102 5.66334C15.6051 5.21164 14.9275 4.87073 14.1775 4.64061C13.436 4.4105 12.6477 4.29544 11.8125 4.29544C10.3039 4.29544 8.95308 4.6747 7.7599 5.43323C6.57524 6.19175 5.63774 7.30397 4.9474 8.76987C4.26558 10.2358 3.92467 12.0256 3.92467 14.1392C3.92467 16.2699 4.26558 18.0682 4.9474 19.5341C5.63774 21 6.5795 22.1079 7.77268 22.8579C8.96587 23.6079 10.3082 23.9829 11.7997 23.9829C12.6264 23.9829 13.4105 23.8721 14.1519 23.6506C14.9019 23.4204 15.5795 23.0838 16.1846 22.6406C16.7897 22.1974 17.3011 21.6562 17.7187 21.017C18.1448 20.3693 18.4389 19.6278 18.6008 18.7926L22.5894 18.8054C22.3764 20.0923 21.963 21.277 21.3494 22.3594C20.7443 23.4332 19.9644 24.3622 19.0099 25.1463C18.0639 25.9219 16.9815 26.5227 15.7627 26.9489C14.544 27.375 13.2144 27.5881 11.7741 27.5881C9.50706 27.5881 7.48717 27.0511 5.71444 25.9773C3.94172 24.8949 2.54399 23.348 1.52126 21.3366C0.507058 19.3253 -4.43161e-05 16.9261 -4.43161e-05 14.1392C-4.43161e-05 11.3437 0.511319 8.94459 1.53405 6.94175C2.55677 4.93039 3.9545 3.38777 5.72723 2.31391C7.49996 1.23152 9.51558 0.690329 11.7741 0.690329C13.1633 0.690329 14.4588 0.890613 15.6605 1.29118C16.8707 1.68323 17.9573 2.26277 18.9204 3.02982C19.8835 3.78834 20.6804 4.71732 21.311 5.81675C21.9417 6.90766 22.3679 8.15624 22.5894 9.56249ZM35.2809 27.6264C33.4399 27.6264 31.8334 27.2045 30.4612 26.3608C29.0891 25.517 28.0237 24.3366 27.2652 22.8196C26.5067 21.3025 26.1274 19.5298 26.1274 17.5014C26.1274 15.4645 26.5067 13.6832 27.2652 12.1577C28.0237 10.6321 29.0891 9.44743 30.4612 8.60368C31.8334 7.75993 33.4399 7.33806 35.2809 7.33806C37.1218 7.33806 38.7283 7.75993 40.1005 8.60368C41.4726 9.44743 42.538 10.6321 43.2965 12.1577C44.055 13.6832 44.4343 15.4645 44.4343 17.5014C44.4343 19.5298 44.055 21.3025 43.2965 22.8196C42.538 24.3366 41.4726 25.517 40.1005 26.3608C38.7283 27.2045 37.1218 27.6264 35.2809 27.6264ZM35.2936 24.4176C36.4868 24.4176 37.4755 24.1023 38.2595 23.4716C39.0436 22.8409 39.6232 22.0014 39.9982 20.9531C40.3817 19.9048 40.5735 18.75 40.5735 17.4886C40.5735 16.2358 40.3817 15.0852 39.9982 14.0369C39.6232 12.9801 39.0436 12.1321 38.2595 11.4929C37.4755 10.8537 36.4868 10.5341 35.2936 10.5341C34.0919 10.5341 33.0948 10.8537 32.3022 11.4929C31.5181 12.1321 30.9343 12.9801 30.5507 14.0369C30.1757 15.0852 29.9882 16.2358 29.9882 17.4886C29.9882 18.75 30.1757 19.9048 30.5507 20.9531C30.9343 22.0014 31.5181 22.8409 32.3022 23.4716C33.0948 24.1023 34.0919 24.4176 35.2936 24.4176ZM52.5234 15.571V27.2301H48.701V7.59374H52.37V10.7898H52.6129C53.0646 9.74999 53.772 8.91476 54.735 8.28408C55.7066 7.6534 56.9296 7.33806 58.4041 7.33806C59.7421 7.33806 60.914 7.61931 61.9197 8.18181C62.9254 8.73578 63.7052 9.56249 64.2592 10.6619C64.8132 11.7614 65.0902 13.1207 65.0902 14.74V27.2301H61.2677V15.2003C61.2677 13.777 60.897 12.6648 60.1555 11.8636C59.414 11.054 58.3956 10.6491 57.1001 10.6491C56.2137 10.6491 55.4254 10.8409 54.735 11.2244C54.0532 11.6079 53.512 12.1704 53.1115 12.9119C52.7194 13.6449 52.5234 14.5312 52.5234 15.571ZM79.3828 7.59374V10.6619H68.6569V7.59374H79.3828ZM71.5333 2.88919H75.3558V21.4645C75.3558 22.206 75.4666 22.7642 75.6882 23.1392C75.9098 23.5057 76.1953 23.7571 76.5447 23.8935C76.9027 24.0213 77.2904 24.0852 77.7081 24.0852C78.0149 24.0852 78.2833 24.0639 78.5135 24.0213C78.7436 23.9787 78.9225 23.9446 79.0504 23.919L79.7407 27.0767C79.5191 27.1619 79.2038 27.2471 78.7947 27.3324C78.3856 27.4261 77.8742 27.4773 77.2606 27.4858C76.2549 27.5028 75.3174 27.3239 74.4481 26.9489C73.5788 26.5739 72.8757 25.9943 72.3387 25.2102C71.8018 24.4261 71.5333 23.4418 71.5333 22.2571V2.88919ZM91.8632 27.6264C89.9286 27.6264 88.2624 27.2131 86.8647 26.3864C85.4755 25.5511 84.4016 24.3793 83.6431 22.8707C82.8931 21.3537 82.5181 19.5767 82.5181 17.5398C82.5181 15.5284 82.8931 13.7557 83.6431 12.2216C84.4016 10.6875 85.4584 9.49005 86.8135 8.62925C88.1772 7.76845 89.7709 7.33806 91.5948 7.33806C92.7027 7.33806 93.7766 7.5213 94.8164 7.88777C95.8561 8.25425 96.7894 8.82953 97.6161 9.61363C98.4428 10.3977 99.0948 11.4162 99.572 12.669C100.049 13.9133 100.288 15.4261 100.288 17.2074V18.5625H84.6786V15.6989H96.5422C96.5422 14.6932 96.3377 13.8025 95.9286 13.027C95.5195 12.2429 94.9442 11.625 94.2027 11.1733C93.4698 10.7216 92.609 10.4957 91.6203 10.4957C90.5465 10.4957 89.609 10.7599 88.8078 11.2883C88.0152 11.8082 87.4016 12.49 86.9669 13.3338C86.5408 14.169 86.3277 15.0767 86.3277 16.0568V18.294C86.3277 19.6065 86.5578 20.723 87.0181 21.6435C87.4868 22.5639 88.1388 23.267 88.974 23.7528C89.8093 24.2301 90.7851 24.4687 91.9016 24.4687C92.626 24.4687 93.2865 24.3665 93.8831 24.1619C94.4797 23.9489 94.9953 23.6335 95.43 23.2159C95.8647 22.7983 96.197 22.2827 96.4272 21.669L100.045 22.321C99.7553 23.3864 99.2354 24.3196 98.4854 25.1207C97.7439 25.9133 96.8107 26.5312 95.6857 26.9744C94.5692 27.4091 93.2951 27.6264 91.8632 27.6264ZM108.352 15.571V27.2301H104.529V7.59374H108.198V10.7898H108.441C108.893 9.74999 109.6 8.91476 110.563 8.28408C111.535 7.6534 112.758 7.33806 114.232 7.33806C115.57 7.33806 116.742 7.61931 117.748 8.18181C118.754 8.73578 119.533 9.56249 120.087 10.6619C120.641 11.7614 120.918 13.1207 120.918 14.74V27.2301H117.096V15.2003C117.096 13.777 116.725 12.6648 115.984 11.8636C115.242 11.054 114.224 10.6491 112.928 10.6491C112.042 10.6491 111.254 10.8409 110.563 11.2244C109.881 11.6079 109.34 12.1704 108.94 12.9119C108.548 13.6449 108.352 14.5312 108.352 15.571ZM135.211 7.59374V10.6619H124.485V7.59374H135.211ZM127.361 2.88919H131.184V21.4645C131.184 22.206 131.295 22.7642 131.516 23.1392C131.738 23.5057 132.023 23.7571 132.373 23.8935C132.731 24.0213 133.119 24.0852 133.536 24.0852C133.843 24.0852 134.111 24.0639 134.342 24.0213C134.572 23.9787 134.751 23.9446 134.879 23.919L135.569 27.0767C135.347 27.1619 135.032 27.2471 134.623 27.3324C134.214 27.4261 133.702 27.4773 133.089 27.4858C132.083 27.5028 131.146 27.3239 130.276 26.9489C129.407 26.5739 128.704 25.9943 128.167 25.2102C127.63 24.4261 127.361 23.4418 127.361 22.2571V2.88919ZM149.273 27.2301V1.04828H158.606C160.643 1.04828 162.33 1.41902 163.668 2.1605C165.006 2.90198 166.008 3.91618 166.673 5.20311C167.337 6.48152 167.67 7.92186 167.67 9.52414C167.67 11.1349 167.333 12.5838 166.66 13.8707C165.995 15.1491 164.989 16.1633 163.643 16.9133C162.305 17.6548 160.621 18.0256 158.593 18.0256H152.175V14.6761H158.235C159.522 14.6761 160.566 14.4545 161.367 14.0114C162.168 13.5596 162.756 12.946 163.131 12.1704C163.506 11.3949 163.694 10.5128 163.694 9.52414C163.694 8.5355 163.506 7.65766 163.131 6.89061C162.756 6.12357 162.164 5.52272 161.354 5.08806C160.553 4.6534 159.496 4.43607 158.184 4.43607H153.224V27.2301H149.273ZM171.994 27.2301V7.59374H175.689V10.7131H175.893C176.251 9.65624 176.882 8.82527 177.785 8.22016C178.697 7.60652 179.728 7.2997 180.879 7.2997C181.117 7.2997 181.399 7.30823 181.723 7.32527C182.055 7.34232 182.315 7.36362 182.502 7.38919V11.0454C182.349 11.0028 182.076 10.956 181.684 10.9048C181.292 10.8452 180.9 10.8153 180.508 10.8153C179.605 10.8153 178.799 11.0071 178.092 11.3906C177.393 11.7656 176.839 12.2898 176.43 12.9631C176.021 13.6278 175.816 14.3864 175.816 15.2386V27.2301H171.994ZM193.379 27.6264C191.538 27.6264 189.931 27.2045 188.559 26.3608C187.187 25.517 186.121 24.3366 185.363 22.8196C184.604 21.3025 184.225 19.5298 184.225 17.5014C184.225 15.4645 184.604 13.6832 185.363 12.1577C186.121 10.6321 187.187 9.44743 188.559 8.60368C189.931 7.75993 191.538 7.33806 193.379 7.33806C195.219 7.33806 196.826 7.75993 198.198 8.60368C199.57 9.44743 200.636 10.6321 201.394 12.1577C202.153 13.6832 202.532 15.4645 202.532 17.5014C202.532 19.5298 202.153 21.3025 201.394 22.8196C200.636 24.3366 199.57 25.517 198.198 26.3608C196.826 27.2045 195.219 27.6264 193.379 27.6264ZM193.391 24.4176C194.584 24.4176 195.573 24.1023 196.357 23.4716C197.141 22.8409 197.721 22.0014 198.096 20.9531C198.479 19.9048 198.671 18.75 198.671 17.4886C198.671 16.2358 198.479 15.0852 198.096 14.0369C197.721 12.9801 197.141 12.1321 196.357 11.4929C195.573 10.8537 194.584 10.5341 193.391 10.5341C192.19 10.5341 191.192 10.8537 190.4 11.4929C189.616 12.1321 189.032 12.9801 188.648 14.0369C188.273 15.0852 188.086 16.2358 188.086 17.4886C188.086 18.75 188.273 19.9048 188.648 20.9531C189.032 22.0014 189.616 22.8409 190.4 23.4716C191.192 24.1023 192.19 24.4176 193.391 24.4176ZM214.149 27.6136C212.564 27.6136 211.149 27.2088 209.905 26.3991C208.669 25.581 207.698 24.4176 206.99 22.9091C206.292 21.392 205.942 19.5724 205.942 17.4503C205.942 15.3281 206.296 13.5128 207.003 12.0043C207.719 10.4957 208.699 9.3409 209.943 8.53976C211.188 7.73863 212.598 7.33806 214.175 7.33806C215.394 7.33806 216.374 7.5426 217.115 7.95169C217.865 8.35226 218.445 8.82101 218.854 9.35794C219.272 9.89487 219.595 10.3679 219.826 10.777H220.056V1.04828H223.878V27.2301H220.145V24.1747H219.826C219.595 24.5923 219.263 25.0696 218.828 25.6065C218.402 26.1435 217.814 26.6122 217.064 27.0128C216.314 27.4133 215.343 27.6136 214.149 27.6136ZM214.993 24.3537C216.093 24.3537 217.022 24.0639 217.78 23.4844C218.547 22.8963 219.127 22.0824 219.519 21.0426C219.919 20.0028 220.12 18.7926 220.12 17.4119C220.12 16.0483 219.924 14.8551 219.532 13.8324C219.14 12.8096 218.564 12.0128 217.806 11.4418C217.047 10.8707 216.11 10.5852 214.993 10.5852C213.843 10.5852 212.884 10.8835 212.117 11.4801C211.35 12.0767 210.77 12.8906 210.378 13.9219C209.995 14.9531 209.803 16.1165 209.803 17.4119C209.803 18.7244 209.999 19.9048 210.391 20.9531C210.783 22.0014 211.363 22.8324 212.13 23.446C212.905 24.0511 213.86 24.3537 214.993 24.3537ZM241.773 19.0866V7.59374H245.608V27.2301H241.849V23.8295H241.645C241.193 24.8778 240.469 25.7514 239.472 26.4503C238.483 27.1406 237.251 27.4858 235.777 27.4858C234.516 27.4858 233.399 27.2088 232.428 26.6548C231.464 26.0923 230.706 25.2614 230.152 24.1619C229.606 23.0625 229.334 21.7031 229.334 20.0838V7.59374H233.156V19.6236C233.156 20.9616 233.527 22.027 234.268 22.8196C235.01 23.6122 235.973 24.0085 237.158 24.0085C237.874 24.0085 238.585 23.8295 239.293 23.4716C240.008 23.1136 240.601 22.5724 241.07 21.848C241.547 21.1236 241.781 20.2031 241.773 19.0866ZM259.015 27.6264C257.115 27.6264 255.478 27.196 254.106 26.3352C252.742 25.4659 251.694 24.2685 250.961 22.7429C250.228 21.2173 249.862 19.4702 249.862 17.5014C249.862 15.5071 250.237 13.7471 250.987 12.2216C251.737 10.6875 252.794 9.49005 254.157 8.62925C255.521 7.76845 257.127 7.33806 258.977 7.33806C260.468 7.33806 261.798 7.61505 262.966 8.16902C264.133 8.71448 265.075 9.48152 265.791 10.4702C266.515 11.4588 266.946 12.6136 267.082 13.9346H263.362C263.157 13.0142 262.689 12.2216 261.956 11.5568C261.231 10.892 260.26 10.5596 259.041 10.5596C257.975 10.5596 257.042 10.8409 256.241 11.4034C255.448 11.9574 254.831 12.75 254.387 13.7812C253.944 14.804 253.723 16.0142 253.723 17.4119C253.723 18.8437 253.94 20.0795 254.375 21.1193C254.809 22.1591 255.423 22.9645 256.216 23.5355C257.017 24.1065 257.958 24.392 259.041 24.392C259.765 24.392 260.421 24.2599 261.01 23.9957C261.606 23.723 262.105 23.3352 262.505 22.8324C262.914 22.3295 263.2 21.7244 263.362 21.017H267.082C266.946 22.2869 266.532 23.4204 265.842 24.4176C265.152 25.4148 264.227 26.1989 263.068 26.7699C261.917 27.3409 260.566 27.6264 259.015 27.6264ZM280.336 7.59374V10.6619H269.61V7.59374H280.336ZM272.486 2.88919H276.309V21.4645C276.309 22.206 276.42 22.7642 276.641 23.1392C276.863 23.5057 277.148 23.7571 277.498 23.8935C277.856 24.0213 278.244 24.0852 278.661 24.0852C278.968 24.0852 279.236 24.0639 279.467 24.0213C279.697 23.9787 279.876 23.9446 280.004 23.919L280.694 27.0767C280.472 27.1619 280.157 27.2471 279.748 27.3324C279.339 27.4261 278.827 27.4773 278.214 27.4858C277.208 27.5028 276.271 27.3239 275.401 26.9489C274.532 26.5739 273.829 25.9943 273.292 25.2102C272.755 24.4261 272.486 23.4418 272.486 22.2571V2.88919ZM284.564 27.2301V7.59374H288.387V27.2301H284.564ZM286.495 4.56391C285.83 4.56391 285.259 4.34232 284.782 3.89913C284.313 3.44743 284.078 2.9105 284.078 2.28834C284.078 1.65766 284.313 1.12073 284.782 0.677544C285.259 0.22584 285.83 -1.16825e-05 286.495 -1.16825e-05C287.159 -1.16825e-05 287.726 0.22584 288.195 0.677544C288.672 1.12073 288.911 1.65766 288.911 2.28834C288.911 2.9105 288.672 3.44743 288.195 3.89913C287.726 4.34232 287.159 4.56391 286.495 4.56391ZM301.8 27.6264C299.959 27.6264 298.353 27.2045 296.981 26.3608C295.609 25.517 294.543 24.3366 293.785 22.8196C293.026 21.3025 292.647 19.5298 292.647 17.5014C292.647 15.4645 293.026 13.6832 293.785 12.1577C294.543 10.6321 295.609 9.44743 296.981 8.60368C298.353 7.75993 299.959 7.33806 301.8 7.33806C303.641 7.33806 305.248 7.75993 306.62 8.60368C307.992 9.44743 309.057 10.6321 309.816 12.1577C310.575 13.6832 310.954 15.4645 310.954 17.5014C310.954 19.5298 310.575 21.3025 309.816 22.8196C309.057 24.3366 307.992 25.517 306.62 26.3608C305.248 27.2045 303.641 27.6264 301.8 27.6264ZM301.813 24.4176C303.006 24.4176 303.995 24.1023 304.779 23.4716C305.563 22.8409 306.143 22.0014 306.518 20.9531C306.901 19.9048 307.093 18.75 307.093 17.4886C307.093 16.2358 306.901 15.0852 306.518 14.0369C306.143 12.9801 305.563 12.1321 304.779 11.4929C303.995 10.8537 303.006 10.5341 301.813 10.5341C300.611 10.5341 299.614 10.8537 298.822 11.4929C298.038 12.1321 297.454 12.9801 297.07 14.0369C296.695 15.0852 296.508 16.2358 296.508 17.4886C296.508 18.75 296.695 19.9048 297.07 20.9531C297.454 22.0014 298.038 22.8409 298.822 23.4716C299.614 24.1023 300.611 24.4176 301.813 24.4176ZM319.043 15.571V27.2301H315.22V7.59374H318.89V10.7898H319.132C319.584 9.74999 320.292 8.91476 321.255 8.28408C322.226 7.6534 323.449 7.33806 324.924 7.33806C326.262 7.33806 327.434 7.61931 328.439 8.18181C329.445 8.73578 330.225 9.56249 330.779 10.6619C331.333 11.7614 331.61 13.1207 331.61 14.74V27.2301H327.787V15.2003C327.787 13.777 327.417 12.6648 326.675 11.8636C325.934 11.054 324.915 10.6491 323.62 10.6491C322.733 10.6491 321.945 10.8409 321.255 11.2244C320.573 11.6079 320.032 12.1704 319.631 12.9119C319.239 13.6449 319.043 14.5312 319.043 15.571Z" fill="#F5F5F7"/>
</svg>
