<svg width="199" height="71" viewBox="0 0 199 71" fill="none" xmlns="http://www.w3.org/2000/svg">
<path d="M4.19317 26.1818H-1.1079e-05L9.42186 -5.62668e-05H13.9858L23.4077 26.1818H19.2145L11.8125 4.75562H11.6079L4.19317 26.1818ZM4.8963 15.9289H18.4986V19.2528H4.8963V15.9289ZM31.1388 -5.62668e-05V26.1818H27.1886V-5.62668e-05H31.1388ZM48.1545 13.4616V16.7727H36.5465V13.4616H48.1545ZM53.2489 33.5454V6.5454H56.9819V9.72864H57.3015C57.5231 9.31955 57.8427 8.84653 58.2603 8.3096C58.6779 7.77267 59.2574 7.30392 59.9989 6.90335C60.7404 6.49426 61.7205 6.28972 62.9393 6.28972C64.5245 6.28972 65.9393 6.69029 67.1836 7.49142C68.4279 8.29256 69.4038 9.44739 70.1111 10.9559C70.827 12.4644 71.185 14.2798 71.185 16.4019C71.185 18.5241 70.8313 20.3437 70.1239 21.8607C69.4165 23.3693 68.4449 24.5326 67.2092 25.3508C65.9734 26.1605 64.5628 26.5653 62.9776 26.5653C61.7844 26.5653 60.8086 26.365 60.0501 25.9644C59.3001 25.5639 58.712 25.0951 58.2859 24.5582C57.8597 24.0213 57.5316 23.544 57.3015 23.1264H57.0714V33.5454H53.2489ZM56.9947 16.3636C56.9947 17.7443 57.1949 18.9545 57.5955 19.9943C57.9961 21.034 58.5756 21.848 59.3342 22.436C60.0927 23.0156 61.0217 23.3053 62.1211 23.3053C63.2631 23.3053 64.2177 23.0028 64.9847 22.3977C65.7518 21.784 66.3313 20.9531 66.7234 19.9048C67.1239 18.8565 67.3242 17.6761 67.3242 16.3636C67.3242 15.0681 67.1282 13.9048 66.7361 12.8735C66.3526 11.8423 65.7731 11.0284 64.9975 10.4318C64.2305 9.83517 63.2717 9.53688 62.1211 9.53688C61.0131 9.53688 60.0756 9.82239 59.3086 10.3934C58.5501 10.9644 57.9748 11.7613 57.5827 12.784C57.1907 13.8068 56.9947 14.9999 56.9947 16.3636ZM83.739 26.5781C81.8981 26.5781 80.2915 26.1562 78.9194 25.3124C77.5472 24.4687 76.4819 23.2883 75.7234 21.7713C74.9648 20.2542 74.5856 18.4815 74.5856 16.4531C74.5856 14.4161 74.9648 12.6349 75.7234 11.1093C76.4819 9.58375 77.5472 8.39909 78.9194 7.55534C80.2915 6.71159 81.8981 6.28972 83.739 6.28972C85.5799 6.28972 87.1864 6.71159 88.5586 7.55534C89.9307 8.39909 90.9961 9.58375 91.7546 11.1093C92.5131 12.6349 92.8924 14.4161 92.8924 16.4531C92.8924 18.4815 92.5131 20.2542 91.7546 21.7713C90.9961 23.2883 89.9307 24.4687 88.5586 25.3124C87.1864 26.1562 85.5799 26.5781 83.739 26.5781ZM83.7518 23.3693C84.9449 23.3693 85.9336 23.0539 86.7177 22.4232C87.5018 21.7926 88.0813 20.9531 88.4563 19.9048C88.8398 18.8565 89.0316 17.7016 89.0316 16.4403C89.0316 15.1874 88.8398 14.0369 88.4563 12.9886C88.0813 11.9318 87.5018 11.0838 86.7177 10.4445C85.9336 9.80534 84.9449 9.48574 83.7518 9.48574C82.5501 9.48574 81.5529 9.80534 80.7603 10.4445C79.9762 11.0838 79.3924 11.9318 79.0089 12.9886C78.6339 14.0369 78.4464 15.1874 78.4464 16.4403C78.4464 17.7016 78.6339 18.8565 79.0089 19.9048C79.3924 20.9531 79.9762 21.7926 80.7603 22.4232C81.5529 23.0539 82.5501 23.3693 83.7518 23.3693ZM100.819 26.1818L95.0401 6.5454H98.9904L102.838 20.9659H103.03L106.891 6.5454H110.841L114.676 20.9019H114.868L118.691 6.5454H122.641L116.875 26.1818H112.976L108.988 12.0042H108.694L104.705 26.1818H100.819ZM134.134 26.5781C132.199 26.5781 130.533 26.1647 129.135 25.338C127.746 24.5028 126.672 23.3309 125.914 21.8224C125.164 20.3053 124.789 18.5284 124.789 16.4914C124.789 14.4801 125.164 12.7073 125.914 11.1732C126.672 9.63915 127.729 8.44171 129.084 7.58091C130.448 6.72011 132.042 6.28972 133.865 6.28972C134.973 6.28972 136.047 6.47296 137.087 6.83943C138.127 7.20591 139.06 7.78119 139.887 8.56529C140.713 9.34938 141.365 10.3678 141.843 11.6207C142.32 12.865 142.559 14.3778 142.559 16.159V17.5141H126.949V14.6505H138.813C138.813 13.6448 138.608 12.7542 138.199 11.9786C137.79 11.1945 137.215 10.5766 136.473 10.1249C135.74 9.67324 134.88 9.44739 133.891 9.44739C132.817 9.44739 131.88 9.71159 131.078 10.24C130.286 10.7599 129.672 11.4417 129.238 12.2855C128.811 13.1207 128.598 14.0284 128.598 15.0085V17.2457C128.598 18.5582 128.828 19.6747 129.289 20.5951C129.757 21.5156 130.409 22.2187 131.245 22.7045C132.08 23.1818 133.056 23.4204 134.172 23.4204C134.897 23.4204 135.557 23.3181 136.154 23.1136C136.75 22.9005 137.266 22.5852 137.701 22.1676C138.135 21.7499 138.468 21.2343 138.698 20.6207L142.316 21.2727C142.026 22.338 141.506 23.2713 140.756 24.0724C140.015 24.865 139.081 25.4829 137.956 25.9261C136.84 26.3607 135.566 26.5781 134.134 26.5781ZM146.8 26.1818V6.5454H150.494V9.66472H150.699C151.057 8.6079 151.687 7.77693 152.591 7.17182C153.503 6.55818 154.534 6.25136 155.685 6.25136C155.923 6.25136 156.205 6.25989 156.528 6.27693C156.861 6.29398 157.121 6.31528 157.308 6.34085V9.9971C157.155 9.95449 156.882 9.90761 156.49 9.85648C156.098 9.79682 155.706 9.76699 155.314 9.76699C154.411 9.76699 153.605 9.95875 152.898 10.3423C152.199 10.7173 151.645 11.2414 151.236 11.9147C150.827 12.5795 150.622 13.338 150.622 14.1903V26.1818H146.8ZM168.376 26.5781C166.441 26.5781 164.775 26.1647 163.377 25.338C161.988 24.5028 160.914 23.3309 160.156 21.8224C159.406 20.3053 159.031 18.5284 159.031 16.4914C159.031 14.4801 159.406 12.7073 160.156 11.1732C160.914 9.63915 161.971 8.44171 163.326 7.58091C164.69 6.72011 166.284 6.28972 168.108 6.28972C169.216 6.28972 170.289 6.47296 171.329 6.83943C172.369 7.20591 173.302 7.78119 174.129 8.56529C174.956 9.34938 175.608 10.3678 176.085 11.6207C176.562 12.865 176.801 14.3778 176.801 16.159V17.5141H161.191V14.6505H173.055C173.055 13.6448 172.85 12.7542 172.441 11.9786C172.032 11.1945 171.457 10.5766 170.716 10.1249C169.983 9.67324 169.122 9.44739 168.133 9.44739C167.059 9.44739 166.122 9.71159 165.321 10.24C164.528 10.7599 163.914 11.4417 163.48 12.2855C163.054 13.1207 162.841 14.0284 162.841 15.0085V17.2457C162.841 18.5582 163.071 19.6747 163.531 20.5951C164 21.5156 164.652 22.2187 165.487 22.7045C166.322 23.1818 167.298 23.4204 168.414 23.4204C169.139 23.4204 169.799 23.3181 170.396 23.1136C170.993 22.9005 171.508 22.5852 171.943 22.1676C172.377 21.7499 172.71 21.2343 172.94 20.6207L176.558 21.2727C176.268 22.338 175.748 23.2713 174.998 24.0724C174.257 24.865 173.323 25.4829 172.198 25.9261C171.082 26.3607 169.808 26.5781 168.376 26.5781ZM188.393 26.5653C186.808 26.5653 185.393 26.1605 184.148 25.3508C182.913 24.5326 181.941 23.3693 181.234 21.8607C180.535 20.3437 180.185 18.5241 180.185 16.4019C180.185 14.2798 180.539 12.4644 181.246 10.9559C181.962 9.44739 182.942 8.29256 184.187 7.49142C185.431 6.69029 186.842 6.28972 188.418 6.28972C189.637 6.28972 190.617 6.49426 191.359 6.90335C192.109 7.30392 192.688 7.77267 193.097 8.3096C193.515 8.84653 193.839 9.31955 194.069 9.72864H194.299V-5.62668e-05H198.121V26.1818H194.388V23.1264H194.069C193.839 23.544 193.506 24.0213 193.072 24.5582C192.646 25.0951 192.058 25.5639 191.308 25.9644C190.558 26.365 189.586 26.5653 188.393 26.5653ZM189.236 23.3053C190.336 23.3053 191.265 23.0156 192.023 22.436C192.79 21.848 193.37 21.034 193.762 19.9943C194.163 18.9545 194.363 17.7443 194.363 16.3636C194.363 14.9999 194.167 13.8068 193.775 12.784C193.383 11.7613 192.808 10.9644 192.049 10.3934C191.29 9.82239 190.353 9.53688 189.236 9.53688C188.086 9.53688 187.127 9.83517 186.36 10.4318C185.593 11.0284 185.013 11.8423 184.621 12.8735C184.238 13.9048 184.046 15.0681 184.046 16.3636C184.046 17.6761 184.242 18.8565 184.634 19.9048C185.026 20.9531 185.606 21.784 186.373 22.3977C187.148 23.0028 188.103 23.3053 189.236 23.3053ZM16.2614 50.8778C16.125 49.6676 15.5625 48.7301 14.5739 48.0653C13.5852 47.392 12.3409 47.0553 10.8409 47.0553C9.76703 47.0553 8.83806 47.2258 8.05397 47.5667C7.26988 47.8991 6.6605 48.3593 6.22584 48.9474C5.79971 49.5269 5.58664 50.1874 5.58664 50.9289C5.58664 51.5511 5.73152 52.088 6.0213 52.5397C6.31959 52.9914 6.70738 53.3707 7.18465 53.6775C7.67044 53.9758 8.19033 54.2272 8.74431 54.4318C9.29828 54.6278 9.83095 54.7897 10.3423 54.9176L12.8991 55.5823C13.7344 55.7869 14.5909 56.0639 15.4687 56.4133C16.3466 56.7627 17.1605 57.223 17.9105 57.794C18.6605 58.365 19.2656 59.0724 19.7258 59.9161C20.1946 60.7599 20.429 61.7698 20.429 62.946C20.429 64.4289 20.0454 65.7457 19.2784 66.8963C18.5199 68.0468 17.4162 68.9545 15.9673 69.6193C14.527 70.284 12.7841 70.6164 10.7386 70.6164C8.7784 70.6164 7.08238 70.3053 5.65056 69.6832C4.21874 69.061 3.098 68.1789 2.28834 67.0369C1.47868 65.8863 1.03124 64.5227 0.946012 62.946H4.90908C4.98578 63.892 5.2926 64.6803 5.82953 65.311C6.37499 65.9332 7.06959 66.3977 7.91334 66.7045C8.76561 67.0028 9.69885 67.1519 10.7131 67.1519C11.8295 67.1519 12.8224 66.9772 13.6918 66.6278C14.5696 66.2698 15.2599 65.7755 15.7628 65.1448C16.2656 64.5056 16.517 63.7599 16.517 62.9076C16.517 62.132 16.2954 61.4971 15.8523 61.0028C15.4176 60.5085 14.8253 60.0994 14.0753 59.7755C13.3338 59.4516 12.4943 59.1661 11.5568 58.919L8.46306 58.0752C6.36647 57.5042 4.70453 56.6647 3.47726 55.5568C2.25851 54.4488 1.64914 52.9829 1.64914 51.159C1.64914 49.6505 2.05823 48.3337 2.87641 47.2087C3.69459 46.0837 4.80255 45.2102 6.20027 44.588C7.598 43.9573 9.17471 43.642 10.9304 43.642C12.7031 43.642 14.267 43.9531 15.6221 44.5752C16.9858 45.1974 18.0596 46.0539 18.8437 47.1448C19.6278 48.2272 20.0369 49.4715 20.071 50.8778H16.2614ZM33.114 70.5781C31.2731 70.5781 29.6665 70.1562 28.2944 69.3124C26.9222 68.4687 25.8569 67.2883 25.0984 65.7713C24.3398 64.2542 23.9606 62.4815 23.9606 60.4531C23.9606 58.4161 24.3398 56.6349 25.0984 55.1093C25.8569 53.5838 26.9222 52.3991 28.2944 51.5553C29.6665 50.7116 31.2731 50.2897 33.114 50.2897C34.9549 50.2897 36.5614 50.7116 37.9336 51.5553C39.3057 52.3991 40.3711 53.5838 41.1296 55.1093C41.8881 56.6349 42.2674 58.4161 42.2674 60.4531C42.2674 62.4815 41.8881 64.2542 41.1296 65.7713C40.3711 67.2883 39.3057 68.4687 37.9336 69.3124C36.5614 70.1562 34.9549 70.5781 33.114 70.5781ZM33.1268 67.3693C34.3199 67.3693 35.3086 67.0539 36.0927 66.4232C36.8768 65.7926 37.4563 64.9531 37.8313 63.9048C38.2148 62.8565 38.4066 61.7016 38.4066 60.4403C38.4066 59.1874 38.2148 58.0369 37.8313 56.9886C37.4563 55.9318 36.8768 55.0838 36.0927 54.4445C35.3086 53.8053 34.3199 53.4857 33.1268 53.4857C31.9251 53.4857 30.9279 53.8053 30.1353 54.4445C29.3512 55.0838 28.7674 55.9318 28.3839 56.9886C28.0089 58.0369 27.8214 59.1874 27.8214 60.4403C27.8214 61.7016 28.0089 62.8565 28.3839 63.9048C28.7674 64.9531 29.3512 65.7926 30.1353 66.4232C30.9279 67.0539 31.9251 67.3693 33.1268 67.3693ZM50.3565 43.9999V70.1818H46.5341V43.9999H50.3565ZM67.9378 62.0383V50.5454H71.7731V70.1818H68.0145V66.7812H67.81C67.3583 67.8295 66.6339 68.7031 65.6367 69.4019C64.6481 70.0923 63.4165 70.4374 61.9421 70.4374C60.6807 70.4374 59.5643 70.1605 58.5927 69.6065C57.6296 69.044 56.8711 68.213 56.3171 67.1136C55.7717 66.0141 55.4989 64.6548 55.4989 63.0355V50.5454H59.3214V62.5752C59.3214 63.9133 59.6921 64.9786 60.4336 65.7713C61.1751 66.5639 62.1381 66.9602 63.3228 66.9602C64.0387 66.9602 64.7503 66.7812 65.4577 66.4232C66.1736 66.0653 66.766 65.5241 67.2347 64.7997C67.712 64.0752 67.9464 63.1548 67.9378 62.0383ZM86.0753 50.5454V53.6136H75.3494V50.5454H86.0753ZM78.2258 45.8409H82.0483V64.4161C82.0483 65.1576 82.1591 65.7159 82.3807 66.0909C82.6023 66.4573 82.8878 66.7088 83.2372 66.8451C83.5952 66.973 83.9829 67.0369 84.4006 67.0369C84.7074 67.0369 84.9758 67.0156 85.206 66.973C85.4361 66.9303 85.615 66.8963 85.7429 66.8707L86.4332 70.0284C86.2116 70.1136 85.8963 70.1988 85.4872 70.284C85.0781 70.3778 84.5668 70.4289 83.9531 70.4374C82.9474 70.4545 82.0099 70.2755 81.1406 69.9005C80.2713 69.5255 79.5682 68.946 79.0312 68.1619C78.4943 67.3778 78.2258 66.3934 78.2258 65.2088V45.8409ZM90.3036 70.1818V50.5454H94.1261V70.1818H90.3036ZM92.234 47.5156C91.5692 47.5156 90.9982 47.294 90.5209 46.8508C90.0522 46.3991 89.8178 45.8622 89.8178 45.24C89.8178 44.6093 90.0522 44.0724 90.5209 43.6292C90.9982 43.1775 91.5692 42.9516 92.234 42.9516C92.8988 42.9516 93.4655 43.1775 93.9343 43.6292C94.4116 44.0724 94.6502 44.6093 94.6502 45.24C94.6502 45.8622 94.4116 46.3991 93.9343 46.8508C93.4655 47.294 92.8988 47.5156 92.234 47.5156ZM107.54 70.5781C105.699 70.5781 104.092 70.1562 102.72 69.3124C101.348 68.4687 100.283 67.2883 99.5241 65.7713C98.7656 64.2542 98.3864 62.4815 98.3864 60.4531C98.3864 58.4161 98.7656 56.6349 99.5241 55.1093C100.283 53.5838 101.348 52.3991 102.72 51.5553C104.092 50.7116 105.699 50.2897 107.54 50.2897C109.381 50.2897 110.987 50.7116 112.359 51.5553C113.732 52.3991 114.797 53.5838 115.555 55.1093C116.314 56.6349 116.693 58.4161 116.693 60.4531C116.693 62.4815 116.314 64.2542 115.555 65.7713C114.797 67.2883 113.732 68.4687 112.359 69.3124C110.987 70.1562 109.381 70.5781 107.54 70.5781ZM107.553 67.3693C108.746 67.3693 109.734 67.0539 110.518 66.4232C111.303 65.7926 111.882 64.9531 112.257 63.9048C112.641 62.8565 112.832 61.7016 112.832 60.4403C112.832 59.1874 112.641 58.0369 112.257 56.9886C111.882 55.9318 111.303 55.0838 110.518 54.4445C109.734 53.8053 108.746 53.4857 107.553 53.4857C106.351 53.4857 105.354 53.8053 104.561 54.4445C103.777 55.0838 103.193 55.9318 102.81 56.9886C102.435 58.0369 102.247 59.1874 102.247 60.4403C102.247 61.7016 102.435 62.8565 102.81 63.9048C103.193 64.9531 103.777 65.7926 104.561 66.4232C105.354 67.0539 106.351 67.3693 107.553 67.3693ZM124.782 58.5227V70.1818H120.96V50.5454H124.629V53.7414H124.872C125.323 52.7016 126.031 51.8664 126.994 51.2357C127.966 50.6051 129.189 50.2897 130.663 50.2897C132.001 50.2897 133.173 50.571 134.179 51.1335C135.184 51.6874 135.964 52.5141 136.518 53.6136C137.072 54.713 137.349 56.0724 137.349 57.6917V70.1818H133.527V58.1519C133.527 56.7286 133.156 55.6164 132.414 54.8153C131.673 54.0056 130.654 53.6008 129.359 53.6008C128.473 53.6008 127.684 53.7926 126.994 54.1761C126.312 54.5596 125.771 55.1221 125.37 55.8636C124.978 56.5965 124.782 57.4829 124.782 58.5227ZM157.19 55.3394L153.725 55.9531C153.581 55.5099 153.35 55.088 153.035 54.6874C152.728 54.2869 152.311 53.9588 151.782 53.7031C151.254 53.4474 150.593 53.3195 149.801 53.3195C148.718 53.3195 147.815 53.5624 147.091 54.0482C146.366 54.5255 146.004 55.1434 146.004 55.9019C146.004 56.5582 146.247 57.0866 146.733 57.4872C147.218 57.8877 148.002 58.2159 149.085 58.4715L152.204 59.1874C154.011 59.6051 155.358 60.2485 156.244 61.1178C157.13 61.9872 157.573 63.1164 157.573 64.5056C157.573 65.6818 157.233 66.7301 156.551 67.6505C155.877 68.5624 154.936 69.2784 153.725 69.7982C152.524 70.3181 151.13 70.5781 149.545 70.5781C147.346 70.5781 145.552 70.1093 144.163 69.1718C142.774 68.2258 141.922 66.8835 141.606 65.1448L145.301 64.5823C145.531 65.5454 146.004 66.2741 146.72 66.7684C147.436 67.2542 148.369 67.4971 149.52 67.4971C150.772 67.4971 151.774 67.2372 152.524 66.7173C153.274 66.1889 153.649 65.5454 153.649 64.7869C153.649 64.1732 153.419 63.6576 152.958 63.24C152.507 62.8224 151.812 62.507 150.875 62.294L147.551 61.5653C145.718 61.1477 144.363 60.4829 143.485 59.571C142.616 58.659 142.181 57.5042 142.181 56.1065C142.181 54.9474 142.505 53.9332 143.153 53.0639C143.801 52.1945 144.696 51.517 145.838 51.0312C146.98 50.5369 148.288 50.2897 149.762 50.2897C151.885 50.2897 153.555 50.7499 154.774 51.6704C155.993 52.5823 156.798 53.8053 157.19 55.3394Z" fill="#F5F5F7"/>
</svg>
