<svg width="349" height="79" viewBox="0 0 349 79" fill="none" xmlns="http://www.w3.org/2000/svg">
<path d="M23.7273 9.56249H19.7386C19.5852 8.71022 19.2997 7.96022 18.8821 7.31249C18.4645 6.66476 17.9531 6.11505 17.348 5.66334C16.7429 5.21164 16.0653 4.87073 15.3153 4.64061C14.5739 4.4105 13.7855 4.29544 12.9503 4.29544C11.4418 4.29544 10.0909 4.6747 8.89772 5.43323C7.71306 6.19175 6.77556 7.30397 6.08522 8.76987C5.4034 10.2358 5.06249 12.0256 5.06249 14.1392C5.06249 16.2699 5.4034 18.0682 6.08522 19.5341C6.77556 21 7.71732 22.1079 8.9105 22.8579C10.1037 23.6079 11.446 23.9829 12.9375 23.9829C13.7642 23.9829 14.5483 23.8721 15.2898 23.6506C16.0398 23.4204 16.7173 23.0838 17.3224 22.6406C17.9275 22.1974 18.4389 21.6562 18.8565 21.017C19.2827 20.3693 19.5767 19.6278 19.7386 18.7926L23.7273 18.8054C23.5142 20.0923 23.1008 21.277 22.4872 22.3594C21.8821 23.4332 21.1023 24.3622 20.1477 25.1463C19.2017 25.9219 18.1193 26.5227 16.9006 26.9489C15.6818 27.375 14.3523 27.5881 12.9119 27.5881C10.6449 27.5881 8.62499 27.0511 6.85226 25.9773C5.07953 24.8949 3.68181 23.348 2.65908 21.3366C1.64488 19.3253 1.13777 16.9261 1.13777 14.1392C1.13777 11.3437 1.64914 8.94459 2.67186 6.94175C3.69459 4.93039 5.09232 3.38777 6.86505 2.31391C8.63777 1.23152 10.6534 0.690329 12.9119 0.690329C14.3011 0.690329 15.5966 0.890613 16.7983 1.29118C18.0085 1.68323 19.0952 2.26277 20.0582 3.02982C21.0213 3.78834 21.8182 4.71732 22.4489 5.81675C23.0795 6.90766 23.5057 8.15624 23.7273 9.56249ZM36.4187 27.6264C34.5778 27.6264 32.9712 27.2045 31.5991 26.3608C30.2269 25.517 29.1616 24.3366 28.403 22.8196C27.6445 21.3025 27.2653 19.5298 27.2653 17.5014C27.2653 15.4645 27.6445 13.6832 28.403 12.1577C29.1616 10.6321 30.2269 9.44743 31.5991 8.60368C32.9712 7.75993 34.5778 7.33806 36.4187 7.33806C38.2596 7.33806 39.8661 7.75993 41.2383 8.60368C42.6104 9.44743 43.6758 10.6321 44.4343 12.1577C45.1928 13.6832 45.5721 15.4645 45.5721 17.5014C45.5721 19.5298 45.1928 21.3025 44.4343 22.8196C43.6758 24.3366 42.6104 25.517 41.2383 26.3608C39.8661 27.2045 38.2596 27.6264 36.4187 27.6264ZM36.4315 24.4176C37.6246 24.4176 38.6133 24.1023 39.3974 23.4716C40.1815 22.8409 40.761 22.0014 41.136 20.9531C41.5195 19.9048 41.7113 18.75 41.7113 17.4886C41.7113 16.2358 41.5195 15.0852 41.136 14.0369C40.761 12.9801 40.1815 12.1321 39.3974 11.4929C38.6133 10.8537 37.6246 10.5341 36.4315 10.5341C35.2297 10.5341 34.2326 10.8537 33.44 11.4929C32.6559 12.1321 32.0721 12.9801 31.6886 14.0369C31.3136 15.0852 31.1261 16.2358 31.1261 17.4886C31.1261 18.75 31.3136 19.9048 31.6886 20.9531C32.0721 22.0014 32.6559 22.8409 33.44 23.4716C34.2326 24.1023 35.2297 24.4176 36.4315 24.4176ZM53.6612 15.571V27.2301H49.8388V7.59374H53.5078V10.7898H53.7507C54.2024 9.74999 54.9098 8.91476 55.8729 8.28408C56.8444 7.6534 58.0675 7.33806 59.5419 7.33806C60.88 7.33806 62.0518 7.61931 63.0575 8.18181C64.0632 8.73578 64.843 9.56249 65.397 10.6619C65.951 11.7614 66.228 13.1207 66.228 14.74V27.2301H62.4055V15.2003C62.4055 13.777 62.0348 12.6648 61.2933 11.8636C60.5518 11.054 59.5334 10.6491 58.2379 10.6491C57.3516 10.6491 56.5632 10.8409 55.8729 11.2244C55.191 11.6079 54.6498 12.1704 54.2493 12.9119C53.8572 13.6449 53.6612 14.5312 53.6612 15.571ZM80.5206 7.59374V10.6619H69.7947V7.59374H80.5206ZM72.6712 2.88919H76.4936V21.4645C76.4936 22.206 76.6044 22.7642 76.826 23.1392C77.0476 23.5057 77.3331 23.7571 77.6825 23.8935C78.0405 24.0213 78.4283 24.0852 78.8459 24.0852C79.1527 24.0852 79.4212 24.0639 79.6513 24.0213C79.8814 23.9787 80.0604 23.9446 80.1882 23.919L80.8785 27.0767C80.6569 27.1619 80.3416 27.2471 79.9325 27.3324C79.5234 27.4261 79.0121 27.4773 78.3984 27.4858C77.3927 27.5028 76.4552 27.3239 75.5859 26.9489C74.7166 26.5739 74.0135 25.9943 73.4766 25.2102C72.9396 24.4261 72.6712 23.4418 72.6712 22.2571V2.88919ZM93.0011 27.6264C91.0664 27.6264 89.4002 27.2131 88.0025 26.3864C86.6133 25.5511 85.5394 24.3793 84.7809 22.8707C84.0309 21.3537 83.6559 19.5767 83.6559 17.5398C83.6559 15.5284 84.0309 13.7557 84.7809 12.2216C85.5394 10.6875 86.5962 9.49005 87.9513 8.62925C89.315 7.76845 90.9087 7.33806 92.7326 7.33806C93.8405 7.33806 94.9144 7.5213 95.9542 7.88777C96.994 8.25425 97.9272 8.82953 98.7539 9.61363C99.5806 10.3977 100.233 11.4162 100.71 12.669C101.187 13.9133 101.426 15.4261 101.426 17.2074V18.5625H85.8164V15.6989H97.68C97.68 14.6932 97.4755 13.8025 97.0664 13.027C96.6573 12.2429 96.082 11.625 95.3405 11.1733C94.6076 10.7216 93.7468 10.4957 92.7582 10.4957C91.6843 10.4957 90.7468 10.7599 89.9457 11.2883C89.153 11.8082 88.5394 12.49 88.1047 13.3338C87.6786 14.169 87.4655 15.0767 87.4655 16.0568V18.294C87.4655 19.6065 87.6957 20.723 88.1559 21.6435C88.6246 22.5639 89.2766 23.267 90.1118 23.7528C90.9471 24.2301 91.9229 24.4687 93.0394 24.4687C93.7638 24.4687 94.4244 24.3665 95.0209 24.1619C95.6175 23.9489 96.1332 23.6335 96.5678 23.2159C97.0025 22.7983 97.3349 22.2827 97.565 21.669L101.183 22.321C100.893 23.3864 100.373 24.3196 99.6232 25.1207C98.8817 25.9133 97.9485 26.5312 96.8235 26.9744C95.707 27.4091 94.4329 27.6264 93.0011 27.6264ZM109.489 15.571V27.2301H105.667V7.59374H109.336V10.7898H109.579C110.031 9.74999 110.738 8.91476 111.701 8.28408C112.673 7.6534 113.896 7.33806 115.37 7.33806C116.708 7.33806 117.88 7.61931 118.886 8.18181C119.891 8.73578 120.671 9.56249 121.225 10.6619C121.779 11.7614 122.056 13.1207 122.056 14.74V27.2301H118.234V15.2003C118.234 13.777 117.863 12.6648 117.121 11.8636C116.38 11.054 115.361 10.6491 114.066 10.6491C113.18 10.6491 112.391 10.8409 111.701 11.2244C111.019 11.6079 110.478 12.1704 110.077 12.9119C109.685 13.6449 109.489 14.5312 109.489 15.571ZM136.349 7.59374V10.6619H125.623V7.59374H136.349ZM128.499 2.88919H132.322V21.4645C132.322 22.206 132.433 22.7642 132.654 23.1392C132.876 23.5057 133.161 23.7571 133.511 23.8935C133.869 24.0213 134.256 24.0852 134.674 24.0852C134.981 24.0852 135.249 24.0639 135.479 24.0213C135.71 23.9787 135.888 23.9446 136.016 23.919L136.707 27.0767C136.485 27.1619 136.17 27.2471 135.761 27.3324C135.352 27.4261 134.84 27.4773 134.227 27.4858C133.221 27.5028 132.283 27.3239 131.414 26.9489C130.545 26.5739 129.842 25.9943 129.305 25.2102C128.768 24.4261 128.499 23.4418 128.499 22.2571V2.88919ZM150.411 27.2301V1.04828H159.744C161.781 1.04828 163.468 1.41902 164.806 2.1605C166.144 2.90198 167.146 3.91618 167.81 5.20311C168.475 6.48152 168.808 7.92186 168.808 9.52414C168.808 11.1349 168.471 12.5838 167.798 13.8707C167.133 15.1491 166.127 16.1633 164.781 16.9133C163.442 17.6548 161.759 18.0256 159.731 18.0256H153.313V14.6761H159.373C160.66 14.6761 161.704 14.4545 162.505 14.0114C163.306 13.5596 163.894 12.946 164.269 12.1704C164.644 11.3949 164.832 10.5128 164.832 9.52414C164.832 8.5355 164.644 7.65766 164.269 6.89061C163.894 6.12357 163.302 5.52272 162.492 5.08806C161.691 4.6534 160.634 4.43607 159.322 4.43607H154.361V27.2301H150.411ZM173.132 27.2301V7.59374H176.826V10.7131H177.031C177.389 9.65624 178.02 8.82527 178.923 8.22016C179.835 7.60652 180.866 7.2997 182.017 7.2997C182.255 7.2997 182.537 7.30823 182.86 7.32527C183.193 7.34232 183.453 7.36362 183.64 7.38919V11.0454C183.487 11.0028 183.214 10.956 182.822 10.9048C182.43 10.8452 182.038 10.8153 181.646 10.8153C180.743 10.8153 179.937 11.0071 179.23 11.3906C178.531 11.7656 177.977 12.2898 177.568 12.9631C177.159 13.6278 176.954 14.3864 176.954 15.2386V27.2301H173.132ZM194.516 27.6264C192.675 27.6264 191.069 27.2045 189.697 26.3608C188.325 25.517 187.259 24.3366 186.501 22.8196C185.742 21.3025 185.363 19.5298 185.363 17.5014C185.363 15.4645 185.742 13.6832 186.501 12.1577C187.259 10.6321 188.325 9.44743 189.697 8.60368C191.069 7.75993 192.675 7.33806 194.516 7.33806C196.357 7.33806 197.964 7.75993 199.336 8.60368C200.708 9.44743 201.773 10.6321 202.532 12.1577C203.29 13.6832 203.67 15.4645 203.67 17.5014C203.67 19.5298 203.29 21.3025 202.532 22.8196C201.773 24.3366 200.708 25.517 199.336 26.3608C197.964 27.2045 196.357 27.6264 194.516 27.6264ZM194.529 24.4176C195.722 24.4176 196.711 24.1023 197.495 23.4716C198.279 22.8409 198.859 22.0014 199.234 20.9531C199.617 19.9048 199.809 18.75 199.809 17.4886C199.809 16.2358 199.617 15.0852 199.234 14.0369C198.859 12.9801 198.279 12.1321 197.495 11.4929C196.711 10.8537 195.722 10.5341 194.529 10.5341C193.327 10.5341 192.33 10.8537 191.538 11.4929C190.754 12.1321 190.17 12.9801 189.786 14.0369C189.411 15.0852 189.224 16.2358 189.224 17.4886C189.224 18.75 189.411 19.9048 189.786 20.9531C190.17 22.0014 190.754 22.8409 191.538 23.4716C192.33 24.1023 193.327 24.4176 194.529 24.4176ZM217.103 7.59374V10.6619H206.377V7.59374H217.103ZM209.253 2.88919H213.076V21.4645C213.076 22.206 213.186 22.7642 213.408 23.1392C213.63 23.5057 213.915 23.7571 214.265 23.8935C214.623 24.0213 215.01 24.0852 215.428 24.0852C215.735 24.0852 216.003 24.0639 216.233 24.0213C216.463 23.9787 216.642 23.9446 216.77 23.919L217.461 27.0767C217.239 27.1619 216.924 27.2471 216.515 27.3324C216.105 27.4261 215.594 27.4773 214.98 27.4858C213.975 27.5028 213.037 27.3239 212.168 26.9489C211.299 26.5739 210.596 25.9943 210.059 25.2102C209.522 24.4261 209.253 23.4418 209.253 22.2571V2.88919ZM229.583 27.6264C227.648 27.6264 225.982 27.2131 224.585 26.3864C223.195 25.5511 222.121 24.3793 221.363 22.8707C220.613 21.3537 220.238 19.5767 220.238 17.5398C220.238 15.5284 220.613 13.7557 221.363 12.2216C222.121 10.6875 223.178 9.49005 224.533 8.62925C225.897 7.76845 227.491 7.33806 229.315 7.33806C230.423 7.33806 231.496 7.5213 232.536 7.88777C233.576 8.25425 234.509 8.82953 235.336 9.61363C236.163 10.3977 236.815 11.4162 237.292 12.669C237.769 13.9133 238.008 15.4261 238.008 17.2074V18.5625H222.398V15.6989H234.262C234.262 14.6932 234.058 13.8025 233.648 13.027C233.239 12.2429 232.664 11.625 231.923 11.1733C231.19 10.7216 230.329 10.4957 229.34 10.4957C228.266 10.4957 227.329 10.7599 226.528 11.2883C225.735 11.8082 225.121 12.49 224.687 13.3338C224.261 14.169 224.048 15.0767 224.048 16.0568V18.294C224.048 19.6065 224.278 20.723 224.738 21.6435C225.207 22.5639 225.859 23.267 226.694 23.7528C227.529 24.2301 228.505 24.4687 229.621 24.4687C230.346 24.4687 231.006 24.3665 231.603 24.1619C232.2 23.9489 232.715 23.6335 233.15 23.2159C233.585 22.7983 233.917 22.2827 234.147 21.669L237.765 22.321C237.475 23.3864 236.955 24.3196 236.205 25.1207C235.464 25.9133 234.531 26.5312 233.406 26.9744C232.289 27.4091 231.015 27.6264 229.583 27.6264ZM250.52 27.6264C248.62 27.6264 246.983 27.196 245.611 26.3352C244.248 25.4659 243.199 24.2685 242.466 22.7429C241.733 21.2173 241.367 19.4702 241.367 17.5014C241.367 15.5071 241.742 13.7471 242.492 12.2216C243.242 10.6875 244.299 9.49005 245.662 8.62925C247.026 7.76845 248.632 7.33806 250.482 7.33806C251.973 7.33806 253.303 7.61505 254.471 8.16902C255.638 8.71448 256.58 9.48152 257.296 10.4702C258.02 11.4588 258.451 12.6136 258.587 13.9346H254.867C254.662 13.0142 254.194 12.2216 253.461 11.5568C252.736 10.892 251.765 10.5596 250.546 10.5596C249.48 10.5596 248.547 10.8409 247.746 11.4034C246.953 11.9574 246.336 12.75 245.892 13.7812C245.449 14.804 245.228 16.0142 245.228 17.4119C245.228 18.8437 245.445 20.0795 245.88 21.1193C246.314 22.1591 246.928 22.9645 247.721 23.5355C248.522 24.1065 249.463 24.392 250.546 24.392C251.27 24.392 251.926 24.2599 252.515 23.9957C253.111 23.723 253.61 23.3352 254.01 22.8324C254.419 22.3295 254.705 21.7244 254.867 21.017H258.587C258.451 22.2869 258.037 23.4204 257.347 24.4176C256.657 25.4148 255.732 26.1989 254.573 26.7699C253.422 27.3409 252.071 27.6264 250.52 27.6264ZM271.841 7.59374V10.6619H261.115V7.59374H271.841ZM263.991 2.88919H267.814V21.4645C267.814 22.206 267.925 22.7642 268.146 23.1392C268.368 23.5057 268.653 23.7571 269.003 23.8935C269.361 24.0213 269.749 24.0852 270.166 24.0852C270.473 24.0852 270.741 24.0639 270.972 24.0213C271.202 23.9787 271.381 23.9446 271.509 23.919L272.199 27.0767C271.977 27.1619 271.662 27.2471 271.253 27.3324C270.844 27.4261 270.332 27.4773 269.719 27.4858C268.713 27.5028 267.776 27.3239 266.906 26.9489C266.037 26.5739 265.334 25.9943 264.797 25.2102C264.26 24.4261 263.991 23.4418 263.991 22.2571V2.88919ZM276.069 27.2301V7.59374H279.892V27.2301H276.069ZM278 4.56391C277.335 4.56391 276.764 4.34232 276.287 3.89913C275.818 3.44743 275.583 2.9105 275.583 2.28834C275.583 1.65766 275.818 1.12073 276.287 0.677544C276.764 0.22584 277.335 -1.16825e-05 278 -1.16825e-05C278.664 -1.16825e-05 279.231 0.22584 279.7 0.677544C280.177 1.12073 280.416 1.65766 280.416 2.28834C280.416 2.9105 280.177 3.44743 279.7 3.89913C279.231 4.34232 278.664 4.56391 278 4.56391ZM293.305 27.6264C291.464 27.6264 289.858 27.2045 288.486 26.3608C287.114 25.517 286.048 24.3366 285.29 22.8196C284.531 21.3025 284.152 19.5298 284.152 17.5014C284.152 15.4645 284.531 13.6832 285.29 12.1577C286.048 10.6321 287.114 9.44743 288.486 8.60368C289.858 7.75993 291.464 7.33806 293.305 7.33806C295.146 7.33806 296.753 7.75993 298.125 8.60368C299.497 9.44743 300.562 10.6321 301.321 12.1577C302.08 13.6832 302.459 15.4645 302.459 17.5014C302.459 19.5298 302.08 21.3025 301.321 22.8196C300.562 24.3366 299.497 25.517 298.125 26.3608C296.753 27.2045 295.146 27.6264 293.305 27.6264ZM293.318 24.4176C294.511 24.4176 295.5 24.1023 296.284 23.4716C297.068 22.8409 297.648 22.0014 298.023 20.9531C298.406 19.9048 298.598 18.75 298.598 17.4886C298.598 16.2358 298.406 15.0852 298.023 14.0369C297.648 12.9801 297.068 12.1321 296.284 11.4929C295.5 10.8537 294.511 10.5341 293.318 10.5341C292.116 10.5341 291.119 10.8537 290.327 11.4929C289.543 12.1321 288.959 12.9801 288.575 14.0369C288.2 15.0852 288.013 16.2358 288.013 17.4886C288.013 18.75 288.2 19.9048 288.575 20.9531C288.959 22.0014 289.543 22.8409 290.327 23.4716C291.119 24.1023 292.116 24.4176 293.318 24.4176ZM310.548 15.571V27.2301H306.725V7.59374H310.395V10.7898H310.637C311.089 9.74999 311.797 8.91476 312.76 8.28408C313.731 7.6534 314.954 7.33806 316.429 7.33806C317.767 7.33806 318.939 7.61931 319.944 8.18181C320.95 8.73578 321.73 9.56249 322.284 10.6619C322.838 11.7614 323.115 13.1207 323.115 14.74V27.2301H319.292V15.2003C319.292 13.777 318.922 12.6648 318.18 11.8636C317.439 11.054 316.42 10.6491 315.125 10.6491C314.238 10.6491 313.45 10.8409 312.76 11.2244C312.078 11.6079 311.537 12.1704 311.136 12.9119C310.744 13.6449 310.548 14.5312 310.548 15.571ZM335.86 27.6008C334.105 27.6008 332.592 27.2812 331.322 26.642C330.061 26.0028 329.089 25.1335 328.407 24.0341C327.725 22.9261 327.385 21.6733 327.385 20.2756C327.385 19.2102 327.606 18.2642 328.049 17.4375C328.493 16.6023 329.11 15.831 329.903 15.1236C330.696 14.4162 331.612 13.7045 332.652 12.9886L336.87 10.0099C337.586 9.54118 338.145 9.04686 338.545 8.52698C338.946 7.99857 339.146 7.34658 339.146 6.57101C339.146 5.95738 338.882 5.36931 338.353 4.80681C337.825 4.24431 337.118 3.96306 336.231 3.96306C335.618 3.96306 335.076 4.1122 334.608 4.4105C334.147 4.7088 333.785 5.09232 333.521 5.56107C333.265 6.0213 333.137 6.50709 333.137 7.01845C333.137 7.61504 333.299 8.2159 333.623 8.82101C333.956 9.42612 334.382 10.0525 334.902 10.7003C335.422 11.3395 335.967 12.0042 336.538 12.6946L348.696 27.2301H344.375L334.314 15.4048C333.47 14.4077 332.686 13.4702 331.961 12.5923C331.237 11.706 330.649 10.8111 330.197 9.90766C329.754 8.99573 329.532 8.01135 329.532 6.95453C329.532 5.75283 329.805 4.68749 330.35 3.75851C330.904 2.82101 331.676 2.08806 332.664 1.55965C333.653 1.03124 334.812 0.767034 336.142 0.767034C337.488 0.767034 338.643 1.03124 339.606 1.55965C340.578 2.07953 341.323 2.77414 341.843 3.64345C342.372 4.50425 342.636 5.44601 342.636 6.46874C342.636 7.71306 342.325 8.81249 341.703 9.76703C341.089 10.7131 340.241 11.5824 339.159 12.375L333.904 16.2486C332.882 16.9986 332.17 17.74 331.77 18.473C331.377 19.1974 331.181 19.7642 331.181 20.1733C331.181 20.9233 331.373 21.6179 331.757 22.2571C332.149 22.8963 332.694 23.4077 333.393 23.7912C334.1 24.1747 334.927 24.3665 335.873 24.3665C336.845 24.3665 337.791 24.1577 338.711 23.74C339.64 23.3139 340.48 22.7045 341.23 21.9119C341.988 21.1193 342.589 20.169 343.032 19.0611C343.475 17.9531 343.697 16.7131 343.697 15.3409H347.149C347.149 17.0284 346.957 18.456 346.573 19.6236C346.19 20.7827 345.725 21.7287 345.18 22.4616C344.643 23.1861 344.136 23.7528 343.659 24.1619C343.505 24.2983 343.36 24.4346 343.224 24.571C343.088 24.7074 342.943 24.8437 342.789 24.9801C341.903 25.875 340.829 26.5355 339.568 26.9616C338.315 27.3878 337.079 27.6008 335.86 27.6008ZM4.19317 71.2301H-1.1079e-05L9.42186 45.0483H13.9858L23.4077 71.2301H19.2145L11.8125 49.804H11.6079L4.19317 71.2301ZM4.8963 60.9773H18.4986V64.3011H4.8963V60.9773ZM30.7042 59.571V71.2301H26.8817V51.5937H30.5508V54.7898H30.7937C31.2454 53.75 31.9528 52.9148 32.9158 52.2841C33.8874 51.6534 35.1104 51.3381 36.5849 51.3381C37.9229 51.3381 39.0948 51.6193 40.1005 52.1818C41.1062 52.7358 41.886 53.5625 42.44 54.6619C42.994 55.7614 43.2709 57.1207 43.2709 58.74V71.2301H39.4485V59.2003C39.4485 57.777 39.0778 56.6648 38.3363 55.8636C37.5948 55.054 36.5763 54.6491 35.2809 54.6491C34.3945 54.6491 33.6062 54.8409 32.9158 55.2244C32.234 55.6079 31.6928 56.1704 31.2922 56.9119C30.9002 57.6449 30.7042 58.5312 30.7042 59.571ZM57.5636 51.5937V54.6619H46.8377V51.5937H57.5636ZM49.7141 46.8892H53.5366V65.4645C53.5366 66.206 53.6474 66.7642 53.869 67.1392C54.0905 67.5057 54.3761 67.7571 54.7255 67.8935C55.0834 68.0213 55.4712 68.0852 55.8888 68.0852C56.1957 68.0852 56.4641 68.0639 56.6942 68.0213C56.9243 67.9787 57.1033 67.9446 57.2312 67.919L57.9215 71.0767C57.6999 71.1619 57.3846 71.2471 56.9755 71.3324C56.5664 71.4261 56.055 71.4773 55.4414 71.4858C54.4357 71.5028 53.4982 71.3239 52.6289 70.9489C51.7596 70.5739 51.0565 69.9943 50.5195 69.2102C49.9826 68.4261 49.7141 67.4418 49.7141 66.2571V46.8892ZM61.7919 71.2301V51.5937H65.6143V71.2301H61.7919ZM63.7223 48.5639C63.0575 48.5639 62.4865 48.3423 62.0092 47.8991C61.5405 47.4474 61.3061 46.9105 61.3061 46.2883C61.3061 45.6577 61.5405 45.1207 62.0092 44.6775C62.4865 44.2258 63.0575 44 63.7223 44C64.3871 44 64.9538 44.2258 65.4226 44.6775C65.8998 45.1207 66.1385 45.6577 66.1385 46.2883C66.1385 46.9105 65.8998 47.4474 65.4226 47.8991C64.9538 48.3423 64.3871 48.5639 63.7223 48.5639ZM82.3263 58.5099V61.821H70.7184V58.5099H82.3263ZM87.7276 71.2301V45.0483H97.06C99.0969 45.0483 100.784 45.419 102.123 46.1605C103.461 46.902 104.462 47.9162 105.127 49.2031C105.792 50.4815 106.124 51.9219 106.124 53.5241C106.124 55.1349 105.787 56.5838 105.114 57.8707C104.449 59.1491 103.444 60.1633 102.097 60.9133C100.759 61.6548 99.0756 62.0256 97.0472 62.0256H90.6296V58.6761H96.6893C97.9762 58.6761 99.0202 58.4545 99.8214 58.0114C100.623 57.5596 101.211 56.946 101.586 56.1704C101.961 55.3949 102.148 54.5128 102.148 53.5241C102.148 52.5355 101.961 51.6577 101.586 50.8906C101.211 50.1236 100.618 49.5227 99.8086 49.0881C99.0074 48.6534 97.9506 48.4361 96.6381 48.4361H91.6779V71.2301H87.7276ZM110.448 71.2301V51.5937H114.271V71.2301H110.448ZM112.379 48.5639C111.714 48.5639 111.143 48.3423 110.665 47.8991C110.197 47.4474 109.962 46.9105 109.962 46.2883C109.962 45.6577 110.197 45.1207 110.665 44.6775C111.143 44.2258 111.714 44 112.379 44C113.043 44 113.61 44.2258 114.079 44.6775C114.556 45.1207 114.795 45.6577 114.795 46.2883C114.795 46.9105 114.556 47.4474 114.079 47.8991C113.61 48.3423 113.043 48.5639 112.379 48.5639ZM119.413 71.2301V51.5937H123.108V54.7131H123.312C123.67 53.6562 124.301 52.8253 125.204 52.2202C126.116 51.6065 127.147 51.2997 128.298 51.2997C128.537 51.2997 128.818 51.3082 129.142 51.3253C129.474 51.3423 129.734 51.3636 129.922 51.3892V55.0454C129.768 55.0028 129.495 54.956 129.103 54.9048C128.711 54.8452 128.319 54.8153 127.927 54.8153C127.024 54.8153 126.218 55.0071 125.511 55.3906C124.812 55.7656 124.258 56.2898 123.849 56.9631C123.44 57.6278 123.235 58.3864 123.235 59.2386V71.2301H119.413ZM138.768 71.6648C137.524 71.6648 136.399 71.4346 135.393 70.9744C134.387 70.5057 133.591 69.8281 133.002 68.9418C132.423 68.0554 132.133 66.9687 132.133 65.6818C132.133 64.5739 132.346 63.6619 132.772 62.946C133.198 62.2301 133.774 61.6633 134.498 61.2457C135.223 60.8281 136.032 60.5128 136.927 60.2997C137.822 60.0866 138.734 59.9247 139.663 59.8139C140.839 59.6775 141.794 59.5667 142.527 59.4815C143.26 59.3878 143.792 59.2386 144.125 59.0341C144.457 58.8295 144.623 58.4971 144.623 58.0369V57.9474C144.623 56.831 144.308 55.9659 143.677 55.3523C143.055 54.7386 142.126 54.4318 140.89 54.4318C139.603 54.4318 138.589 54.7173 137.848 55.2883C137.115 55.8508 136.608 56.4773 136.326 57.1676L132.734 56.3494C133.16 55.1562 133.782 54.1932 134.6 53.4602C135.427 52.7187 136.377 52.1818 137.451 51.8494C138.525 51.5085 139.654 51.3381 140.839 51.3381C141.623 51.3381 142.454 51.4318 143.332 51.6193C144.218 51.7983 145.045 52.1307 145.812 52.6165C146.588 53.1023 147.223 53.7969 147.717 54.7003C148.211 55.5952 148.458 56.7585 148.458 58.1903V71.2301H144.725V68.5454H144.572C144.325 69.0398 143.954 69.5256 143.46 70.0028C142.966 70.4801 142.331 70.8764 141.555 71.1918C140.779 71.5071 139.85 71.6648 138.768 71.6648ZM139.599 68.5966C140.656 68.5966 141.559 68.3878 142.309 67.9702C143.068 67.5525 143.643 67.0071 144.035 66.3338C144.436 65.652 144.636 64.9233 144.636 64.1477V61.6165C144.5 61.7528 144.235 61.8807 143.843 62C143.46 62.1108 143.021 62.2088 142.527 62.294C142.032 62.3707 141.551 62.4432 141.082 62.5114C140.613 62.571 140.221 62.6221 139.906 62.6648C139.164 62.7585 138.487 62.9162 137.873 63.1378C137.268 63.3594 136.782 63.679 136.416 64.0966C136.058 64.5057 135.879 65.0511 135.879 65.7329C135.879 66.679 136.228 67.3949 136.927 67.8807C137.626 68.3579 138.517 68.5966 139.599 68.5966ZM161.821 71.6264C159.92 71.6264 158.284 71.196 156.912 70.3352C155.548 69.4659 154.5 68.2685 153.767 66.7429C153.034 65.2173 152.668 63.4702 152.668 61.5014C152.668 59.5071 153.043 57.7471 153.793 56.2216C154.543 54.6875 155.599 53.49 156.963 52.6292C158.327 51.7685 159.933 51.3381 161.783 51.3381C163.274 51.3381 164.604 51.615 165.771 52.169C166.939 52.7145 167.881 53.4815 168.597 54.4702C169.321 55.4588 169.751 56.6136 169.888 57.9346H166.168C165.963 57.0142 165.494 56.2216 164.761 55.5568C164.037 54.892 163.065 54.5596 161.847 54.5596C160.781 54.5596 159.848 54.8409 159.047 55.4034C158.254 55.9574 157.636 56.75 157.193 57.7812C156.75 58.804 156.528 60.0142 156.528 61.4119C156.528 62.8437 156.746 64.0795 157.18 65.1193C157.615 66.1591 158.229 66.9645 159.021 67.5355C159.822 68.1065 160.764 68.392 161.847 68.392C162.571 68.392 163.227 68.2599 163.815 67.9957C164.412 67.723 164.911 67.3352 165.311 66.8324C165.72 66.3295 166.006 65.7244 166.168 65.017H169.888C169.751 66.2869 169.338 67.4204 168.648 68.4176C167.957 69.4148 167.033 70.1989 165.874 70.7699C164.723 71.3409 163.372 71.6264 161.821 71.6264ZM176.392 78.5937C175.821 78.5937 175.301 78.5469 174.832 78.4531C174.363 78.3679 174.014 78.2741 173.784 78.1719L174.704 75.0398C175.403 75.2273 176.025 75.3082 176.571 75.2827C177.116 75.2571 177.598 75.0525 178.015 74.669C178.441 74.2855 178.816 73.6591 179.14 72.7898L179.613 71.4858L172.429 51.5937H176.52L181.493 66.8324H181.697L186.67 51.5937H190.774L182.681 73.8508C182.306 74.8736 181.829 75.7386 181.25 76.446C180.67 77.1619 179.98 77.6989 179.179 78.0568C178.377 78.4148 177.448 78.5937 176.392 78.5937Z" fill="#F5F5F7"/>
</svg>
