<svg width="152" height="27" viewBox="0 0 152 27" fill="none" xmlns="http://www.w3.org/2000/svg">
<path d="M-4.43161e-05 26.5398V0.357976H9.33234C11.3693 0.357976 13.0568 0.728714 14.3948 1.47019C15.7329 2.21167 16.7343 3.22587 17.3991 4.51281C18.0639 5.79122 18.3963 7.23156 18.3963 8.83383C18.3963 10.4446 18.0596 11.8935 17.3863 13.1804C16.7215 14.4588 15.7159 15.473 14.3693 16.223C13.0312 16.9645 11.348 17.3352 9.31956 17.3352H2.90194V13.9858H8.9616C10.2485 13.9858 11.2926 13.7642 12.0937 13.321C12.8948 12.8693 13.4829 12.2557 13.8579 11.4801C14.2329 10.7046 14.4204 9.82246 14.4204 8.83383C14.4204 7.84519 14.2329 6.96735 13.8579 6.20031C13.4829 5.43326 12.8906 4.83241 12.0809 4.39775C11.2798 3.96309 10.223 3.74576 8.91047 3.74576H3.95024V26.5398H-4.43161e-05ZM23.0273 26.5398V0.357976H32.3597C34.3881 0.357976 36.0713 0.707408 37.4094 1.40627C38.756 2.10513 39.7617 3.07246 40.4264 4.30826C41.0912 5.53553 41.4236 6.95457 41.4236 8.56536C41.4236 10.1676 41.087 11.5781 40.4137 12.7969C39.7489 14.0071 38.7432 14.9489 37.3966 15.6222C36.0585 16.2955 34.3753 16.6321 32.3469 16.6321H25.2773V13.2316H31.9889C33.2674 13.2316 34.3071 13.0483 35.1083 12.6818C35.9179 12.3154 36.5103 11.7827 36.8853 11.0838C37.2603 10.385 37.4478 9.54548 37.4478 8.56536C37.4478 7.57673 37.256 6.72019 36.8725 5.99576C36.4975 5.27133 35.9051 4.71735 35.0955 4.33383C34.2943 3.94178 33.2418 3.74576 31.9378 3.74576H26.9776V26.5398H23.0273ZM35.952 14.7273L42.4208 26.5398H37.9208L31.5799 14.7273H35.952ZM53.5429 26.9105C51.7872 26.9105 50.2745 26.5909 49.0046 25.9517C47.7432 25.3125 46.7716 24.4432 46.0898 23.3438C45.408 22.2358 45.0671 20.983 45.0671 19.5852C45.0671 18.5199 45.2887 17.5739 45.7318 16.7472C46.175 15.912 46.7929 15.1406 47.5855 14.4333C48.3782 13.7259 49.2943 13.0142 50.3341 12.2983L54.5529 9.31962C55.2688 8.85087 55.827 8.35656 56.2276 7.83667C56.6282 7.30826 56.8284 6.65627 56.8284 5.8807C56.8284 5.26707 56.5642 4.679 56.0358 4.1165C55.5074 3.554 54.8 3.27275 53.9137 3.27275C53.3 3.27275 52.7588 3.4219 52.2901 3.72019C51.8299 4.01849 51.4676 4.40201 51.2034 4.87076C50.9478 5.33099 50.8199 5.81678 50.8199 6.32815C50.8199 6.92474 50.9818 7.52559 51.3057 8.1307C51.6381 8.73582 52.0642 9.36224 52.5841 10.01C53.104 10.6492 53.6495 11.3139 54.2205 12.0043L66.3782 26.5398H62.0571L51.996 14.7145C51.1523 13.7174 50.3682 12.7799 49.6438 11.902C48.9193 11.0156 48.3313 10.1208 47.8796 9.21735C47.4364 8.30542 47.2148 7.32104 47.2148 6.26423C47.2148 5.06252 47.4875 3.99718 48.033 3.0682C48.587 2.1307 49.3583 1.39775 50.3469 0.86934C51.3355 0.340931 52.4946 0.076726 53.8242 0.076726C55.1708 0.076726 56.3256 0.340931 57.2887 0.86934C58.2603 1.38923 59.006 2.08383 59.5259 2.95315C60.0543 3.81394 60.3185 4.7557 60.3185 5.77843C60.3185 7.02275 60.0074 8.12218 59.3853 9.07673C58.7716 10.0227 57.9236 10.8921 56.8412 11.6847L51.587 15.5583C50.5642 16.3083 49.8526 17.0497 49.452 17.7827C49.06 18.5071 48.8639 19.0739 48.8639 19.483C48.8639 20.233 49.0557 20.9276 49.4392 21.5668C49.8313 22.206 50.3767 22.7174 51.0756 23.1009C51.783 23.4844 52.6097 23.6762 53.5557 23.6762C54.5273 23.6762 55.4733 23.4674 56.3938 23.0497C57.3228 22.6236 58.1622 22.0142 58.9122 21.2216C59.6708 20.429 60.2716 19.4787 60.7148 18.3708C61.158 17.2628 61.3796 16.0227 61.3796 14.6506H64.8313C64.8313 16.3381 64.6395 17.7656 64.256 18.9333C63.8725 20.0924 63.408 21.0384 62.8625 21.7713C62.3256 22.4958 61.8185 23.0625 61.3412 23.4716C61.1878 23.608 61.0429 23.7443 60.9066 23.8807C60.7702 24.0171 60.6253 24.1534 60.4719 24.2898C59.5855 25.1847 58.5117 25.8452 57.2503 26.2713C55.9975 26.6975 54.7617 26.9105 53.5429 26.9105ZM83.9595 7.23582C83.8231 6.02559 83.2606 5.08809 82.272 4.42332C81.2833 3.75002 80.039 3.41337 78.539 3.41337C77.4652 3.41337 76.5362 3.58383 75.7521 3.92474C74.968 4.25712 74.3586 4.71735 73.924 5.30542C73.4978 5.88496 73.2848 6.54548 73.2848 7.28695C73.2848 7.90911 73.4296 8.44604 73.7194 8.89775C74.0177 9.34945 74.4055 9.72871 74.8828 10.0355C75.3686 10.3338 75.8885 10.5852 76.4424 10.7898C76.9964 10.9858 77.5291 11.1477 78.0404 11.2756L80.5973 11.9404C81.4325 12.1449 82.289 12.4219 83.1669 12.7713C84.0447 13.1208 84.8586 13.581 85.6086 14.152C86.3586 14.723 86.9637 15.4304 87.424 16.2742C87.8927 17.1179 88.1271 18.1279 88.1271 19.304C88.1271 20.787 87.7436 22.1037 86.9765 23.2543C86.218 24.4049 85.1143 25.3125 83.6654 25.9773C82.2251 26.6421 80.4822 26.9745 78.4367 26.9745C76.4765 26.9745 74.7805 26.6634 73.3487 26.0412C71.9169 25.4191 70.7961 24.537 69.9865 23.3949C69.1768 22.2443 68.7294 20.8807 68.6441 19.304H72.6072C72.6839 20.25 72.9907 21.0384 73.5277 21.6691C74.0731 22.2912 74.7677 22.7557 75.6115 23.0625C76.4637 23.3608 77.397 23.51 78.4112 23.51C79.5277 23.51 80.5206 23.3352 81.3899 22.9858C82.2677 22.6279 82.9581 22.1335 83.4609 21.5029C83.9637 20.8637 84.2152 20.1179 84.2152 19.2656C84.2152 18.4901 83.9936 17.8551 83.5504 17.3608C83.1157 16.8665 82.5234 16.4574 81.7734 16.1335C81.0319 15.8097 80.1924 15.5242 79.2549 15.277L76.1612 14.4333C74.0646 13.8622 72.4027 13.0227 71.1754 11.9148C69.9566 10.8068 69.3473 9.34093 69.3473 7.51707C69.3473 6.00854 69.7563 4.69178 70.5745 3.56678C71.3927 2.44178 72.5007 1.5682 73.8984 0.946045C75.2961 0.315362 76.8728 2.12193e-05 78.6285 2.12193e-05C80.4012 2.12193e-05 81.9652 0.311101 83.3203 0.93326C84.6839 1.55542 85.7578 2.41195 86.5419 3.50286C87.326 4.58525 87.735 5.82957 87.7691 7.23582H83.9595ZM92.8476 0.357976H97.6416L105.977 20.7102H106.284L114.619 0.357976H119.413V26.5398H115.654V7.59377H115.412L107.69 26.5014H104.571L96.849 7.58099H96.6061V26.5398H92.8476V0.357976ZM125.156 0.357976H129.95L138.285 20.7102H138.592L146.928 0.357976H151.722V26.5398H147.963V7.59377H147.72L139.999 26.5014H136.879L129.158 7.58099H128.915V26.5398H125.156V0.357976Z" fill="#F5F5F7"/>
</svg>
