<svg width="633" height="800" viewBox="0 0 633 800" fill="none" xmlns="http://www.w3.org/2000/svg">
<rect width="633" height="800" rx="20" fill="#0A0A0F"/>
<path d="M87.8636 80H80.8182C80.4015 77.9735 79.6724 76.1932 78.6307 74.6591C77.608 73.125 76.358 71.8371 74.8807 70.7955C73.4223 69.7348 71.803 68.9394 70.0227 68.4091C68.2424 67.8788 66.3864 67.6136 64.4545 67.6136C60.9318 67.6136 57.7405 68.5038 54.8807 70.2841C52.0398 72.0644 49.7765 74.6875 48.0909 78.1534C46.4242 81.6193 45.5909 85.8712 45.5909 90.9091C45.5909 95.947 46.4242 100.199 48.0909 103.665C49.7765 107.131 52.0398 109.754 54.8807 111.534C57.7405 113.314 60.9318 114.205 64.4545 114.205C66.3864 114.205 68.2424 113.939 70.0227 113.409C71.803 112.879 73.4223 112.093 74.8807 111.051C76.358 109.991 77.608 108.693 78.6307 107.159C79.6724 105.606 80.4015 103.826 80.8182 101.818H87.8636C87.3333 104.792 86.3674 107.453 84.9659 109.801C83.5644 112.15 81.822 114.148 79.7386 115.795C77.6553 117.424 75.3163 118.665 72.7216 119.517C70.1458 120.369 67.3902 120.795 64.4545 120.795C59.4924 120.795 55.0795 119.583 51.2159 117.159C47.3523 114.735 44.3125 111.288 42.0966 106.818C39.8807 102.348 38.7727 97.0455 38.7727 90.9091C38.7727 84.7727 39.8807 79.4697 42.0966 75C44.3125 70.5303 47.3523 67.0833 51.2159 64.6591C55.0795 62.2348 59.4924 61.0227 64.4545 61.0227C67.3902 61.0227 70.1458 61.4489 72.7216 62.3011C75.3163 63.1534 77.6553 64.4034 79.7386 66.0511C81.822 67.6799 83.5644 69.6686 84.9659 72.017C86.3674 74.3466 87.3333 77.0076 87.8636 80ZM116.067 120.909C112.127 120.909 108.671 119.972 105.697 118.097C102.743 116.222 100.432 113.598 98.7656 110.227C97.1179 106.856 96.294 102.917 96.294 98.4091C96.294 93.8636 97.1179 89.8958 98.7656 86.5057C100.432 83.1155 102.743 80.483 105.697 78.608C108.671 76.733 112.127 75.7955 116.067 75.7955C120.006 75.7955 123.453 76.733 126.408 78.608C129.381 80.483 131.692 83.1155 133.339 86.5057C135.006 89.8958 135.839 93.8636 135.839 98.4091C135.839 102.917 135.006 106.856 133.339 110.227C131.692 113.598 129.381 116.222 126.408 118.097C123.453 119.972 120.006 120.909 116.067 120.909ZM116.067 114.886C119.059 114.886 121.521 114.119 123.453 112.585C125.385 111.051 126.815 109.034 127.743 106.534C128.671 104.034 129.135 101.326 129.135 98.4091C129.135 95.4924 128.671 92.7746 127.743 90.2557C126.815 87.7367 125.385 85.7008 123.453 84.1477C121.521 82.5947 119.059 81.8182 116.067 81.8182C113.074 81.8182 110.612 82.5947 108.68 84.1477C106.749 85.7008 105.319 87.7367 104.391 90.2557C103.463 92.7746 102.999 95.4924 102.999 98.4091C102.999 101.326 103.463 104.034 104.391 106.534C105.319 109.034 106.749 111.051 108.68 112.585C110.612 114.119 113.074 114.886 116.067 114.886ZM152.778 93.75V120H146.074V76.3636H152.551V83.1818H153.119C154.142 80.9659 155.695 79.1856 157.778 77.8409C159.862 76.4773 162.551 75.7955 165.847 75.7955C168.801 75.7955 171.386 76.4015 173.602 77.6136C175.818 78.8068 177.542 80.625 178.773 83.0682C180.004 85.4924 180.619 88.5606 180.619 92.2727V120H173.915V92.7273C173.915 89.2992 173.025 86.6288 171.244 84.7159C169.464 82.7841 167.021 81.8182 163.915 81.8182C161.775 81.8182 159.862 82.2822 158.176 83.2102C156.509 84.1383 155.193 85.4924 154.227 87.2727C153.261 89.053 152.778 91.2121 152.778 93.75ZM211.848 76.3636V82.0455H189.234V76.3636H211.848ZM195.825 65.9091H202.53V107.5C202.53 109.394 202.804 110.814 203.354 111.761C203.922 112.689 204.642 113.314 205.513 113.636C206.403 113.939 207.34 114.091 208.325 114.091C209.064 114.091 209.67 114.053 210.143 113.977C210.617 113.883 210.996 113.807 211.28 113.75L212.643 119.773C212.189 119.943 211.554 120.114 210.74 120.284C209.926 120.473 208.893 120.568 207.643 120.568C205.75 120.568 203.893 120.161 202.075 119.347C200.276 118.532 198.78 117.292 197.587 115.625C196.412 113.958 195.825 111.856 195.825 109.318V65.9091ZM234.774 121.023C232.009 121.023 229.5 120.502 227.246 119.46C224.992 118.4 223.202 116.875 221.876 114.886C220.551 112.879 219.888 110.455 219.888 107.614C219.888 105.114 220.38 103.087 221.365 101.534C222.35 99.9621 223.666 98.7311 225.314 97.8409C226.962 96.9508 228.78 96.2879 230.768 95.8523C232.776 95.3977 234.793 95.0379 236.82 94.7727C239.471 94.4318 241.621 94.1761 243.268 94.0057C244.935 93.8163 246.147 93.5038 246.905 93.0682C247.681 92.6326 248.07 91.875 248.07 90.7955V90.5682C248.07 87.7652 247.303 85.5871 245.768 84.0341C244.253 82.4811 241.952 81.7045 238.865 81.7045C235.664 81.7045 233.155 82.4053 231.337 83.8068C229.518 85.2083 228.24 86.7045 227.501 88.2955L221.138 86.0227C222.274 83.3712 223.789 81.3068 225.683 79.8295C227.596 78.3333 229.679 77.2917 231.933 76.7045C234.206 76.0985 236.441 75.7955 238.638 75.7955C240.039 75.7955 241.649 75.9659 243.467 76.3068C245.304 76.6288 247.075 77.3011 248.78 78.3239C250.503 79.3466 251.933 80.8902 253.07 82.9545C254.206 85.0189 254.774 87.7841 254.774 91.25V120H248.07V114.091H247.729C247.274 115.038 246.517 116.051 245.456 117.131C244.395 118.21 242.984 119.129 241.223 119.886C239.462 120.644 237.312 121.023 234.774 121.023ZM235.797 115C238.448 115 240.683 114.479 242.501 113.438C244.339 112.396 245.721 111.051 246.649 109.403C247.596 107.756 248.07 106.023 248.07 104.205V98.0682C247.786 98.4091 247.161 98.7216 246.195 99.0057C245.248 99.2708 244.149 99.5076 242.899 99.7159C241.668 99.9053 240.465 100.076 239.291 100.227C238.136 100.36 237.198 100.473 236.479 100.568C234.736 100.795 233.107 101.165 231.592 101.676C230.096 102.169 228.884 102.917 227.956 103.92C227.047 104.905 226.592 106.25 226.592 107.955C226.592 110.284 227.454 112.045 229.178 113.239C230.92 114.413 233.126 115 235.797 115ZM284.739 120.909C280.648 120.909 277.125 119.943 274.17 118.011C271.216 116.08 268.943 113.419 267.352 110.028C265.761 106.638 264.966 102.765 264.966 98.4091C264.966 93.9773 265.78 90.0663 267.409 86.6761C269.057 83.267 271.348 80.6061 274.284 78.6932C277.239 76.7614 280.686 75.7955 284.625 75.7955C287.693 75.7955 290.458 76.3636 292.92 77.5C295.383 78.6364 297.4 80.2273 298.972 82.2727C300.544 84.3182 301.519 86.7045 301.898 89.4318H295.193C294.682 87.4432 293.545 85.6818 291.784 84.1477C290.042 82.5947 287.693 81.8182 284.739 81.8182C282.125 81.8182 279.833 82.5 277.864 83.8636C275.913 85.2083 274.388 87.1117 273.29 89.5739C272.21 92.017 271.67 94.8864 271.67 98.1818C271.67 101.553 272.201 104.489 273.261 106.989C274.341 109.489 275.856 111.43 277.807 112.812C279.777 114.195 282.087 114.886 284.739 114.886C286.481 114.886 288.062 114.583 289.483 113.977C290.903 113.371 292.106 112.5 293.091 111.364C294.076 110.227 294.777 108.864 295.193 107.273H301.898C301.519 109.848 300.581 112.169 299.085 114.233C297.608 116.278 295.648 117.907 293.205 119.119C290.78 120.312 287.958 120.909 284.739 120.909ZM330.676 76.3636V82.0455H308.062V76.3636H330.676ZM314.653 65.9091H321.358V107.5C321.358 109.394 321.633 110.814 322.182 111.761C322.75 112.689 323.47 113.314 324.341 113.636C325.231 113.939 326.169 114.091 327.153 114.091C327.892 114.091 328.498 114.053 328.972 113.977C329.445 113.883 329.824 113.807 330.108 113.75L331.472 119.773C331.017 119.943 330.383 120.114 329.568 120.284C328.754 120.473 327.722 120.568 326.472 120.568C324.578 120.568 322.722 120.161 320.903 119.347C319.104 118.532 317.608 117.292 316.415 115.625C315.241 113.958 314.653 111.856 314.653 109.318V65.9091ZM402.352 61.8182H409.398V100.341C409.398 104.318 408.46 107.869 406.585 110.994C404.729 114.1 402.106 116.553 398.716 118.352C395.326 120.133 391.348 121.023 386.784 121.023C382.22 121.023 378.242 120.133 374.852 118.352C371.462 116.553 368.83 114.1 366.955 110.994C365.098 107.869 364.17 104.318 364.17 100.341V61.8182H371.216V99.7727C371.216 102.614 371.841 105.142 373.091 107.358C374.341 109.555 376.121 111.288 378.432 112.557C380.761 113.807 383.545 114.432 386.784 114.432C390.023 114.432 392.807 113.807 395.136 112.557C397.466 111.288 399.246 109.555 400.477 107.358C401.727 105.142 402.352 102.614 402.352 99.7727V61.8182ZM453.467 86.1364L447.445 87.8409C447.066 86.8371 446.507 85.8617 445.768 84.9148C445.049 83.9489 444.064 83.1534 442.814 82.5284C441.564 81.9034 439.964 81.5909 438.013 81.5909C435.342 81.5909 433.117 82.2064 431.337 83.4375C429.575 84.6496 428.695 86.1932 428.695 88.0682C428.695 89.7348 429.301 91.0511 430.513 92.017C431.725 92.983 433.619 93.7879 436.195 94.4318L442.672 96.0227C446.573 96.9697 449.481 98.4186 451.393 100.369C453.306 102.301 454.263 104.792 454.263 107.841C454.263 110.341 453.543 112.576 452.104 114.545C450.683 116.515 448.695 118.068 446.138 119.205C443.581 120.341 440.607 120.909 437.217 120.909C432.767 120.909 429.083 119.943 426.166 118.011C423.25 116.08 421.403 113.258 420.626 109.545L426.99 107.955C427.596 110.303 428.742 112.064 430.428 113.239C432.132 114.413 434.357 115 437.104 115C440.229 115 442.71 114.337 444.547 113.011C446.403 111.667 447.331 110.057 447.331 108.182C447.331 106.667 446.801 105.398 445.74 104.375C444.679 103.333 443.051 102.557 440.854 102.045L433.581 100.341C429.585 99.3939 426.649 97.9261 424.774 95.9375C422.918 93.9299 421.99 91.4205 421.99 88.4091C421.99 85.947 422.681 83.7689 424.064 81.875C425.465 79.9811 427.369 78.4943 429.774 77.4148C432.198 76.3352 434.945 75.7955 438.013 75.7955C442.331 75.7955 445.721 76.7424 448.183 78.6364C450.664 80.5303 452.426 83.0303 453.467 86.1364Z" fill="#FF2D87"/>
<rect x="30" y="180" width="570" height="50" rx="10" fill="#F5F5F7"/>
<path d="M76.6136 196.636V217H74.2273L63.1307 201.011H62.9318V217H60.4659V196.636H62.8523L73.9886 212.665H74.1875V196.636H76.6136ZM85.7241 217.358C84.7563 217.358 83.878 217.176 83.0891 216.811C82.3003 216.44 81.6739 215.906 81.2099 215.21C80.7459 214.508 80.5138 213.659 80.5138 212.665C80.5138 211.79 80.6862 211.08 81.0309 210.537C81.3756 209.987 81.8363 209.556 82.413 209.244C82.9897 208.933 83.6261 208.701 84.3221 208.548C85.0247 208.389 85.7307 208.263 86.44 208.17C87.368 208.051 88.1204 207.962 88.6971 207.902C89.2804 207.836 89.7047 207.726 89.9698 207.574C90.2416 207.421 90.3775 207.156 90.3775 206.778V206.699C90.3775 205.718 90.109 204.955 89.5721 204.412C89.0418 203.868 88.2364 203.597 87.1559 203.597C86.0356 203.597 85.1573 203.842 84.521 204.332C83.8846 204.823 83.4371 205.347 83.1786 205.903L80.9513 205.108C81.3491 204.18 81.8794 203.457 82.5423 202.94C83.2118 202.417 83.9409 202.052 84.7298 201.847C85.5252 201.634 86.3074 201.528 87.0763 201.528C87.5669 201.528 88.1303 201.588 88.7667 201.707C89.4097 201.82 90.0295 202.055 90.6261 202.413C91.2293 202.771 91.7298 203.312 92.1275 204.034C92.5252 204.757 92.7241 205.724 92.7241 206.938V217H90.3775V214.932H90.2582C90.0991 215.263 89.8339 215.618 89.4627 215.996C89.0915 216.374 88.5977 216.695 87.9812 216.96C87.3647 217.225 86.6123 217.358 85.7241 217.358ZM86.082 215.25C87.0101 215.25 87.7923 215.068 88.4286 214.703C89.0716 214.339 89.5555 213.868 89.8803 213.291C90.2118 212.714 90.3775 212.108 90.3775 211.472V209.324C90.2781 209.443 90.0593 209.553 89.7212 209.652C89.3898 209.745 89.0053 209.828 88.5678 209.901C88.137 209.967 87.716 210.027 87.305 210.08C86.9007 210.126 86.5726 210.166 86.3207 210.199C85.7108 210.278 85.1407 210.408 84.6104 210.587C84.0868 210.759 83.6625 211.021 83.3377 211.372C83.0195 211.717 82.8604 212.187 82.8604 212.784C82.8604 213.599 83.1621 214.216 83.7653 214.634C84.3751 215.045 85.1474 215.25 86.082 215.25ZM97.0071 217V201.727H99.2741V204.114H99.473C99.7912 203.298 100.305 202.665 101.014 202.214C101.723 201.757 102.575 201.528 103.57 201.528C104.577 201.528 105.416 201.757 106.085 202.214C106.761 202.665 107.288 203.298 107.666 204.114H107.825C108.216 203.325 108.803 202.698 109.585 202.234C110.367 201.764 111.305 201.528 112.399 201.528C113.765 201.528 114.882 201.956 115.75 202.811C116.618 203.66 117.053 204.982 117.053 206.778V217H114.706V206.778C114.706 205.652 114.398 204.846 113.781 204.362C113.165 203.878 112.439 203.636 111.604 203.636C110.53 203.636 109.698 203.961 109.108 204.611C108.518 205.254 108.223 206.069 108.223 207.057V217H105.837V206.54C105.837 205.671 105.555 204.972 104.991 204.442C104.428 203.905 103.702 203.636 102.814 203.636C102.204 203.636 101.634 203.799 101.104 204.124C100.58 204.448 100.156 204.899 99.831 205.476C99.5128 206.046 99.3537 206.705 99.3537 207.455V217H97.0071ZM127.746 217.318C126.275 217.318 125.005 216.993 123.938 216.344C122.878 215.688 122.059 214.773 121.482 213.599C120.912 212.42 120.627 211.047 120.627 209.483C120.627 207.919 120.912 206.54 121.482 205.347C122.059 204.147 122.861 203.212 123.888 202.543C124.923 201.866 126.129 201.528 127.508 201.528C128.303 201.528 129.089 201.661 129.864 201.926C130.64 202.191 131.346 202.622 131.982 203.219C132.619 203.809 133.126 204.591 133.504 205.565C133.881 206.54 134.07 207.74 134.07 209.165V210.159H122.298V208.131H131.684C131.684 207.269 131.512 206.5 131.167 205.824C130.829 205.148 130.345 204.614 129.715 204.223C129.092 203.832 128.356 203.636 127.508 203.636C126.573 203.636 125.764 203.868 125.082 204.332C124.406 204.79 123.885 205.386 123.521 206.122C123.156 206.858 122.974 207.647 122.974 208.489V209.841C122.974 210.994 123.173 211.972 123.57 212.774C123.975 213.57 124.535 214.176 125.251 214.594C125.967 215.005 126.799 215.21 127.746 215.21C128.363 215.21 128.92 215.124 129.417 214.952C129.921 214.773 130.355 214.508 130.719 214.156C131.084 213.798 131.366 213.354 131.565 212.824L133.832 213.46C133.593 214.229 133.192 214.905 132.629 215.489C132.065 216.065 131.369 216.516 130.54 216.841C129.712 217.159 128.781 217.318 127.746 217.318Z" fill="#0A0A0F"/>
<rect x="30" y="260" width="570" height="50" rx="10" fill="#F5F5F7"/>
<path d="M60.4659 297V276.636H72.7557V278.824H62.9318V285.705H72.1193V287.892H62.9318V294.812H72.9148V297H60.4659ZM85.6321 287.176V289.364H76.723V287.176H85.6321ZM89.761 297V281.727H92.0281V284.114H92.2269C92.5451 283.298 93.0588 282.665 93.7681 282.214C94.4774 281.757 95.3292 281.528 96.3235 281.528C97.3311 281.528 98.1696 281.757 98.8391 282.214C99.5153 282.665 100.042 283.298 100.42 284.114H100.579C100.97 283.325 101.557 282.698 102.339 282.234C103.121 281.764 104.059 281.528 105.153 281.528C106.519 281.528 107.636 281.956 108.504 282.811C109.372 283.66 109.806 284.982 109.806 286.778V297H107.46V286.778C107.46 285.652 107.152 284.846 106.535 284.362C105.919 283.878 105.193 283.636 104.358 283.636C103.284 283.636 102.452 283.961 101.862 284.611C101.272 285.254 100.977 286.069 100.977 287.057V297H98.5906V286.54C98.5906 285.671 98.3088 284.972 97.7454 284.442C97.1819 283.905 96.4561 283.636 95.5678 283.636C94.958 283.636 94.3879 283.799 93.8576 284.124C93.3339 284.448 92.9097 284.899 92.5849 285.476C92.2667 286.046 92.1076 286.705 92.1076 287.455V297H89.761ZM118.591 297.358C117.623 297.358 116.745 297.176 115.956 296.811C115.167 296.44 114.541 295.906 114.077 295.21C113.613 294.508 113.381 293.659 113.381 292.665C113.381 291.79 113.553 291.08 113.898 290.537C114.243 289.987 114.703 289.556 115.28 289.244C115.857 288.933 116.493 288.701 117.189 288.548C117.892 288.389 118.598 288.263 119.307 288.17C120.235 288.051 120.988 287.962 121.564 287.902C122.148 287.836 122.572 287.726 122.837 287.574C123.109 287.421 123.245 287.156 123.245 286.778V286.699C123.245 285.718 122.976 284.955 122.439 284.412C121.909 283.868 121.104 283.597 120.023 283.597C118.903 283.597 118.025 283.842 117.388 284.332C116.752 284.823 116.304 285.347 116.046 285.903L113.819 285.108C114.216 284.18 114.747 283.457 115.409 282.94C116.079 282.417 116.808 282.052 117.597 281.847C118.392 281.634 119.175 281.528 119.944 281.528C120.434 281.528 120.998 281.588 121.634 281.707C122.277 281.82 122.897 282.055 123.493 282.413C124.096 282.771 124.597 283.312 124.995 284.034C125.392 284.757 125.591 285.724 125.591 286.938V297H123.245V294.932H123.125C122.966 295.263 122.701 295.618 122.33 295.996C121.959 296.374 121.465 296.695 120.848 296.96C120.232 297.225 119.48 297.358 118.591 297.358ZM118.949 295.25C119.877 295.25 120.659 295.068 121.296 294.703C121.939 294.339 122.423 293.868 122.748 293.291C123.079 292.714 123.245 292.108 123.245 291.472V289.324C123.145 289.443 122.926 289.553 122.588 289.652C122.257 289.745 121.873 289.828 121.435 289.901C121.004 289.967 120.583 290.027 120.172 290.08C119.768 290.126 119.44 290.166 119.188 290.199C118.578 290.278 118.008 290.408 117.478 290.587C116.954 290.759 116.53 291.021 116.205 291.372C115.887 291.717 115.728 292.187 115.728 292.784C115.728 293.599 116.029 294.216 116.632 294.634C117.242 295.045 118.015 295.25 118.949 295.25ZM129.874 297V281.727H132.221V297H129.874ZM131.067 279.182C130.61 279.182 130.216 279.026 129.884 278.714C129.559 278.403 129.397 278.028 129.397 277.591C129.397 277.153 129.559 276.779 129.884 276.467C130.216 276.156 130.61 276 131.067 276C131.525 276 131.916 276.156 132.241 276.467C132.572 276.779 132.738 277.153 132.738 277.591C132.738 278.028 132.572 278.403 132.241 278.714C131.916 279.026 131.525 279.182 131.067 279.182ZM138.865 276.636V297H136.519V276.636H138.865Z" fill="#0A0A0F"/>
<rect x="30" y="340" width="570" height="50" rx="10" fill="#F5F5F7"/>
<path d="M62.9318 356.636V377H60.4659V356.636H62.9318ZM69.6261 356.636V358.426C69.6261 358.97 69.5266 359.55 69.3278 360.166C69.1355 360.776 68.8505 361.369 68.4727 361.946C68.1014 362.516 67.6507 363.013 67.1204 363.438L65.8477 362.403C66.2653 361.807 66.6265 361.187 66.9315 360.544C67.243 359.894 67.3988 359.202 67.3988 358.466V356.636H69.6261ZM72.1243 377V361.727H74.3913V364.114H74.5902C74.9084 363.298 75.4221 362.665 76.1314 362.214C76.8407 361.757 77.6925 361.528 78.6868 361.528C79.6944 361.528 80.5329 361.757 81.2024 362.214C81.8786 362.665 82.4055 363.298 82.7834 364.114H82.9425C83.3336 363.325 83.9202 362.698 84.7024 362.234C85.4846 361.764 86.4226 361.528 87.5163 361.528C88.8819 361.528 89.9988 361.956 90.8672 362.811C91.7356 363.66 92.1697 364.982 92.1697 366.778V377H89.8232V366.778C89.8232 365.652 89.5149 364.846 88.8984 364.362C88.282 363.878 87.5561 363.636 86.7209 363.636C85.647 363.636 84.8151 363.961 84.2251 364.611C83.6352 365.254 83.3402 366.069 83.3402 367.057V377H80.9538V366.54C80.9538 365.671 80.6721 364.972 80.1087 364.442C79.5452 363.905 78.8194 363.636 77.9311 363.636C77.3213 363.636 76.7512 363.799 76.2209 364.124C75.6972 364.448 75.273 364.899 74.9482 365.476C74.63 366.046 74.4709 366.705 74.4709 367.455V377H72.1243ZM105.489 377H102.903L110.381 356.636H112.926L120.403 377H117.818L111.733 359.858H111.574L105.489 377ZM106.443 369.045H116.864V371.233H106.443V369.045ZM123.257 382.727V361.727H125.524V364.153H125.803C125.975 363.888 126.214 363.55 126.518 363.139C126.83 362.722 127.274 362.35 127.851 362.026C128.434 361.694 129.223 361.528 130.217 361.528C131.503 361.528 132.637 361.85 133.618 362.493C134.599 363.136 135.365 364.047 135.915 365.227C136.465 366.407 136.74 367.799 136.74 369.403C136.74 371.021 136.465 372.423 135.915 373.609C135.365 374.789 134.602 375.704 133.628 376.354C132.653 376.997 131.53 377.318 130.257 377.318C129.276 377.318 128.491 377.156 127.901 376.831C127.311 376.5 126.857 376.125 126.538 375.707C126.22 375.283 125.975 374.932 125.803 374.653H125.604V382.727H123.257ZM125.564 369.364C125.564 370.517 125.733 371.535 126.071 372.416C126.409 373.291 126.903 373.977 127.553 374.474C128.202 374.965 128.998 375.21 129.939 375.21C130.92 375.21 131.739 374.952 132.395 374.435C133.058 373.911 133.555 373.208 133.886 372.327C134.224 371.438 134.393 370.451 134.393 369.364C134.393 368.29 134.228 367.322 133.896 366.46C133.571 365.592 133.078 364.906 132.415 364.402C131.759 363.892 130.933 363.636 129.939 363.636C128.984 363.636 128.182 363.878 127.533 364.362C126.883 364.839 126.393 365.509 126.061 366.371C125.73 367.226 125.564 368.223 125.564 369.364ZM140.32 382.727V361.727H142.587V364.153H142.865C143.037 363.888 143.276 363.55 143.581 363.139C143.893 362.722 144.337 362.35 144.913 362.026C145.497 361.694 146.286 361.528 147.28 361.528C148.566 361.528 149.699 361.85 150.68 362.493C151.661 363.136 152.427 364.047 152.977 365.227C153.527 366.407 153.803 367.799 153.803 369.403C153.803 371.021 153.527 372.423 152.977 373.609C152.427 374.789 151.665 375.704 150.69 376.354C149.716 376.997 148.592 377.318 147.32 377.318C146.339 377.318 145.553 377.156 144.963 376.831C144.373 376.5 143.919 376.125 143.601 375.707C143.283 375.283 143.037 374.932 142.865 374.653H142.666V382.727H140.32ZM142.626 369.364C142.626 370.517 142.795 371.535 143.134 372.416C143.472 373.291 143.965 373.977 144.615 374.474C145.265 374.965 146.06 375.21 147.001 375.21C147.982 375.21 148.801 374.952 149.457 374.435C150.12 373.911 150.617 373.208 150.949 372.327C151.287 371.438 151.456 370.451 151.456 369.364C151.456 368.29 151.29 367.322 150.959 366.46C150.634 365.592 150.14 364.906 149.477 364.402C148.821 363.892 147.996 363.636 147.001 363.636C146.047 363.636 145.245 363.878 144.595 364.362C143.946 364.839 143.455 365.509 143.124 366.371C142.792 367.226 142.626 368.223 142.626 369.364ZM159.729 356.636V377H157.382V356.636H159.729ZM165.538 382.727C165.14 382.727 164.786 382.694 164.474 382.628C164.163 382.568 163.947 382.509 163.828 382.449L164.424 380.381C164.994 380.527 165.498 380.58 165.936 380.54C166.373 380.5 166.761 380.304 167.099 379.953C167.444 379.608 167.759 379.048 168.044 378.273L168.481 377.08L162.833 361.727H165.379L169.595 373.898H169.754L173.97 361.727H176.515L170.032 379.227C169.741 380.016 169.379 380.669 168.949 381.186C168.518 381.71 168.017 382.098 167.447 382.349C166.884 382.601 166.247 382.727 165.538 382.727ZM179.613 377V361.727H181.959V377H179.613ZM180.806 359.182C180.348 359.182 179.954 359.026 179.623 358.714C179.298 358.403 179.135 358.028 179.135 357.591C179.135 357.153 179.298 356.779 179.623 356.467C179.954 356.156 180.348 356 180.806 356C181.263 356 181.654 356.156 181.979 356.467C182.31 356.779 182.476 357.153 182.476 357.591C182.476 358.028 182.31 358.403 181.979 358.714C181.654 359.026 181.263 359.182 180.806 359.182ZM188.604 367.812V377H186.257V361.727H188.524V364.114H188.723C189.081 363.338 189.625 362.715 190.354 362.244C191.083 361.767 192.024 361.528 193.178 361.528C194.212 361.528 195.116 361.741 195.892 362.165C196.668 362.582 197.271 363.219 197.702 364.074C198.133 364.922 198.348 365.996 198.348 367.295V377H196.001V367.455C196.001 366.255 195.69 365.32 195.067 364.651C194.444 363.974 193.589 363.636 192.501 363.636C191.752 363.636 191.083 363.799 190.493 364.124C189.91 364.448 189.449 364.922 189.111 365.545C188.773 366.169 188.604 366.924 188.604 367.812ZM208.801 383.045C207.667 383.045 206.693 382.9 205.877 382.608C205.062 382.323 204.383 381.945 203.839 381.474C203.302 381.01 202.875 380.513 202.556 379.983L204.426 378.67C204.638 378.949 204.906 379.267 205.231 379.625C205.556 379.99 206 380.304 206.564 380.57C207.134 380.841 207.879 380.977 208.801 380.977C210.034 380.977 211.051 380.679 211.853 380.082C212.655 379.486 213.056 378.551 213.056 377.278V374.176H212.858C212.685 374.455 212.44 374.799 212.122 375.21C211.81 375.615 211.359 375.976 210.77 376.294C210.186 376.606 209.397 376.761 208.403 376.761C207.17 376.761 206.063 376.47 205.082 375.886C204.108 375.303 203.335 374.455 202.765 373.341C202.202 372.227 201.92 370.875 201.92 369.284C201.92 367.72 202.195 366.357 202.745 365.197C203.296 364.031 204.061 363.129 205.042 362.493C206.023 361.85 207.157 361.528 208.443 361.528C209.437 361.528 210.226 361.694 210.809 362.026C211.399 362.35 211.85 362.722 212.162 363.139C212.48 363.55 212.725 363.888 212.897 364.153H213.136V361.727H215.403V377.438C215.403 378.75 215.105 379.817 214.508 380.639C213.918 381.468 213.123 382.074 212.122 382.459C211.127 382.85 210.02 383.045 208.801 383.045ZM208.721 374.653C209.663 374.653 210.458 374.438 211.108 374.007C211.757 373.576 212.251 372.956 212.589 372.148C212.927 371.339 213.096 370.371 213.096 369.244C213.096 368.144 212.931 367.173 212.599 366.331C212.268 365.489 211.777 364.83 211.127 364.352C210.478 363.875 209.676 363.636 208.721 363.636C207.727 363.636 206.898 363.888 206.235 364.392C205.579 364.896 205.085 365.572 204.754 366.42C204.429 367.269 204.267 368.21 204.267 369.244C204.267 370.305 204.432 371.243 204.764 372.058C205.102 372.867 205.599 373.503 206.255 373.967C206.918 374.425 207.74 374.653 208.721 374.653ZM232.068 377.358C231.1 377.358 230.222 377.176 229.433 376.811C228.644 376.44 228.018 375.906 227.554 375.21C227.09 374.508 226.858 373.659 226.858 372.665C226.858 371.79 227.03 371.08 227.375 370.537C227.719 369.987 228.18 369.556 228.757 369.244C229.333 368.933 229.97 368.701 230.666 368.548C231.368 368.389 232.074 368.263 232.784 368.17C233.712 368.051 234.464 367.962 235.041 367.902C235.624 367.836 236.048 367.726 236.314 367.574C236.585 367.421 236.721 367.156 236.721 366.778V366.699C236.721 365.718 236.453 364.955 235.916 364.412C235.386 363.868 234.58 363.597 233.5 363.597C232.379 363.597 231.501 363.842 230.865 364.332C230.228 364.823 229.781 365.347 229.522 365.903L227.295 365.108C227.693 364.18 228.223 363.457 228.886 362.94C229.556 362.417 230.285 362.052 231.074 361.847C231.869 361.634 232.651 361.528 233.42 361.528C233.911 361.528 234.474 361.588 235.11 361.707C235.753 361.82 236.373 362.055 236.97 362.413C237.573 362.771 238.074 363.312 238.471 364.034C238.869 364.757 239.068 365.724 239.068 366.938V377H236.721V374.932H236.602C236.443 375.263 236.178 375.618 235.806 375.996C235.435 376.374 234.941 376.695 234.325 376.96C233.708 377.225 232.956 377.358 232.068 377.358ZM232.426 375.25C233.354 375.25 234.136 375.068 234.772 374.703C235.415 374.339 235.899 373.868 236.224 373.291C236.556 372.714 236.721 372.108 236.721 371.472V369.324C236.622 369.443 236.403 369.553 236.065 369.652C235.734 369.745 235.349 369.828 234.912 369.901C234.481 369.967 234.06 370.027 233.649 370.08C233.244 370.126 232.916 370.166 232.664 370.199C232.055 370.278 231.484 370.408 230.954 370.587C230.431 370.759 230.006 371.021 229.681 371.372C229.363 371.717 229.204 372.187 229.204 372.784C229.204 373.599 229.506 374.216 230.109 374.634C230.719 375.045 231.491 375.25 232.426 375.25ZM254.169 365.148L252.061 365.744C251.929 365.393 251.733 365.052 251.474 364.72C251.223 364.382 250.878 364.104 250.44 363.885C250.003 363.666 249.443 363.557 248.76 363.557C247.825 363.557 247.046 363.772 246.423 364.203C245.807 364.627 245.499 365.168 245.499 365.824C245.499 366.407 245.711 366.868 246.135 367.206C246.559 367.544 247.222 367.826 248.124 368.051L250.391 368.608C251.756 368.939 252.774 369.446 253.443 370.129C254.113 370.805 254.447 371.677 254.447 372.744C254.447 373.619 254.196 374.402 253.692 375.091C253.195 375.78 252.499 376.324 251.604 376.722C250.709 377.119 249.668 377.318 248.482 377.318C246.924 377.318 245.634 376.98 244.614 376.304C243.593 375.628 242.946 374.64 242.675 373.341L244.902 372.784C245.114 373.606 245.515 374.223 246.105 374.634C246.702 375.045 247.481 375.25 248.442 375.25C249.536 375.25 250.404 375.018 251.047 374.554C251.696 374.083 252.021 373.52 252.021 372.864C252.021 372.333 251.836 371.889 251.464 371.531C251.093 371.167 250.523 370.895 249.754 370.716L247.209 370.119C245.81 369.788 244.783 369.274 244.126 368.578C243.477 367.875 243.152 366.997 243.152 365.943C243.152 365.081 243.394 364.319 243.878 363.656C244.368 362.993 245.035 362.473 245.876 362.095C246.725 361.717 247.686 361.528 248.76 361.528C250.271 361.528 251.458 361.86 252.32 362.523C253.188 363.186 253.804 364.061 254.169 365.148ZM259.69 377.159C259.199 377.159 258.779 376.983 258.427 376.632C258.076 376.281 257.9 375.86 257.9 375.369C257.9 374.879 258.076 374.458 258.427 374.107C258.779 373.755 259.199 373.58 259.69 373.58C260.181 373.58 260.601 373.755 260.953 374.107C261.304 374.458 261.48 374.879 261.48 375.369C261.48 375.694 261.397 375.992 261.231 376.264C261.072 376.536 260.857 376.755 260.585 376.92C260.32 377.08 260.021 377.159 259.69 377.159ZM267.401 377.159C266.91 377.159 266.489 376.983 266.138 376.632C265.787 376.281 265.611 375.86 265.611 375.369C265.611 374.879 265.787 374.458 266.138 374.107C266.489 373.755 266.91 373.58 267.401 373.58C267.891 373.58 268.312 373.755 268.664 374.107C269.015 374.458 269.191 374.879 269.191 375.369C269.191 375.694 269.108 375.992 268.942 376.264C268.783 376.536 268.568 376.755 268.296 376.92C268.031 377.08 267.732 377.159 267.401 377.159ZM275.112 377.159C274.621 377.159 274.2 376.983 273.849 376.632C273.498 376.281 273.322 375.86 273.322 375.369C273.322 374.879 273.498 374.458 273.849 374.107C274.2 373.755 274.621 373.58 275.112 373.58C275.602 373.58 276.023 373.755 276.375 374.107C276.726 374.458 276.902 374.879 276.902 375.369C276.902 375.694 276.819 375.992 276.653 376.264C276.494 376.536 276.279 376.755 276.007 376.92C275.742 377.08 275.443 377.159 275.112 377.159Z" fill="#0A0A0F"/>
<rect x="30" y="420" width="570" height="330" rx="20" fill="#F5F5F7"/>
<path d="M60.7159 436.636H63.5398L69.1875 446.142H69.4261L75.0739 436.636H77.8977L70.5398 448.608V457H68.0739V448.608L60.7159 436.636ZM84.8132 457.318C83.4344 457.318 82.2247 456.99 81.1839 456.334C80.1499 455.678 79.3411 454.759 78.7578 453.58C78.1811 452.4 77.8928 451.021 77.8928 449.443C77.8928 447.852 78.1811 446.464 78.7578 445.277C79.3411 444.09 80.1499 443.169 81.1839 442.513C82.2247 441.857 83.4344 441.528 84.8132 441.528C86.192 441.528 87.3984 441.857 88.4325 442.513C89.4732 443.169 90.282 444.09 90.8587 445.277C91.442 446.464 91.7337 447.852 91.7337 449.443C91.7337 451.021 91.442 452.4 90.8587 453.58C90.282 454.759 89.4732 455.678 88.4325 456.334C87.3984 456.99 86.192 457.318 84.8132 457.318ZM84.8132 455.21C85.8606 455.21 86.7223 454.942 87.3984 454.405C88.0746 453.868 88.575 453.162 88.8999 452.287C89.2247 451.412 89.3871 450.464 89.3871 449.443C89.3871 448.422 89.2247 447.471 88.8999 446.589C88.575 445.708 88.0746 444.995 87.3984 444.452C86.7223 443.908 85.8606 443.636 84.8132 443.636C83.7659 443.636 82.9041 443.908 82.228 444.452C81.5518 444.995 81.0514 445.708 80.7266 446.589C80.4018 447.471 80.2393 448.422 80.2393 449.443C80.2393 450.464 80.4018 451.412 80.7266 452.287C81.0514 453.162 81.5518 453.868 82.228 454.405C82.9041 454.942 83.7659 455.21 84.8132 455.21ZM104.941 450.756V441.727H107.287V457H104.941V454.415H104.782C104.424 455.19 103.867 455.85 103.111 456.393C102.355 456.93 101.401 457.199 100.248 457.199C99.293 457.199 98.4445 456.99 97.7021 456.572C96.9596 456.148 96.3763 455.512 95.9521 454.663C95.5278 453.808 95.3157 452.731 95.3157 451.432V441.727H97.6623V451.273C97.6623 452.386 97.9738 453.275 98.5969 453.938C99.2267 454.6 100.029 454.932 101.003 454.932C101.587 454.932 102.18 454.783 102.783 454.484C103.393 454.186 103.903 453.729 104.314 453.112C104.732 452.496 104.941 451.71 104.941 450.756ZM111.585 457V441.727H113.852V444.034H114.011C114.29 443.278 114.794 442.665 115.523 442.195C116.252 441.724 117.074 441.489 117.989 441.489C118.161 441.489 118.376 441.492 118.635 441.499C118.893 441.505 119.089 441.515 119.222 441.528V443.915C119.142 443.895 118.96 443.865 118.675 443.825C118.396 443.779 118.101 443.756 117.79 443.756C117.047 443.756 116.384 443.911 115.801 444.223C115.224 444.528 114.767 444.952 114.429 445.496C114.098 446.033 113.932 446.646 113.932 447.335V457H111.585ZM129.878 457V441.727H132.145V444.114H132.344C132.662 443.298 133.176 442.665 133.885 442.214C134.595 441.757 135.446 441.528 136.441 441.528C137.448 441.528 138.287 441.757 138.956 442.214C139.632 442.665 140.159 443.298 140.537 444.114H140.696C141.087 443.325 141.674 442.698 142.456 442.234C143.239 441.764 144.176 441.528 145.27 441.528C146.636 441.528 147.753 441.956 148.621 442.811C149.489 443.66 149.924 444.982 149.924 446.778V457H147.577V446.778C147.577 445.652 147.269 444.846 146.652 444.362C146.036 443.878 145.31 443.636 144.475 443.636C143.401 443.636 142.569 443.961 141.979 444.611C141.389 445.254 141.094 446.069 141.094 447.057V457H138.708V446.54C138.708 445.671 138.426 444.972 137.863 444.442C137.299 443.905 136.573 443.636 135.685 443.636C135.075 443.636 134.505 443.799 133.975 444.124C133.451 444.448 133.027 444.899 132.702 445.476C132.384 446.046 132.225 446.705 132.225 447.455V457H129.878ZM160.618 457.318C159.146 457.318 157.877 456.993 156.809 456.344C155.749 455.688 154.93 454.773 154.353 453.599C153.783 452.42 153.498 451.047 153.498 449.483C153.498 447.919 153.783 446.54 154.353 445.347C154.93 444.147 155.732 443.212 156.76 442.543C157.794 441.866 159 441.528 160.379 441.528C161.174 441.528 161.96 441.661 162.735 441.926C163.511 442.191 164.217 442.622 164.853 443.219C165.49 443.809 165.997 444.591 166.375 445.565C166.752 446.54 166.941 447.74 166.941 449.165V450.159H155.169V448.131H164.555C164.555 447.269 164.383 446.5 164.038 445.824C163.7 445.148 163.216 444.614 162.586 444.223C161.963 443.832 161.227 443.636 160.379 443.636C159.444 443.636 158.636 443.868 157.953 444.332C157.277 444.79 156.756 445.386 156.392 446.122C156.027 446.858 155.845 447.647 155.845 448.489V449.841C155.845 450.994 156.044 451.972 156.441 452.774C156.846 453.57 157.406 454.176 158.122 454.594C158.838 455.005 159.67 455.21 160.618 455.21C161.234 455.21 161.791 455.124 162.288 454.952C162.792 454.773 163.226 454.508 163.591 454.156C163.955 453.798 164.237 453.354 164.436 452.824L166.703 453.46C166.464 454.229 166.063 454.905 165.5 455.489C164.936 456.065 164.24 456.516 163.412 456.841C162.583 457.159 161.652 457.318 160.618 457.318ZM181.329 445.148L179.221 445.744C179.089 445.393 178.893 445.052 178.635 444.72C178.383 444.382 178.038 444.104 177.6 443.885C177.163 443.666 176.603 443.557 175.92 443.557C174.985 443.557 174.207 443.772 173.583 444.203C172.967 444.627 172.659 445.168 172.659 445.824C172.659 446.407 172.871 446.868 173.295 447.206C173.719 447.544 174.382 447.826 175.284 448.051L177.551 448.608C178.916 448.939 179.934 449.446 180.603 450.129C181.273 450.805 181.608 451.677 181.608 452.744C181.608 453.619 181.356 454.402 180.852 455.091C180.355 455.78 179.659 456.324 178.764 456.722C177.869 457.119 176.828 457.318 175.642 457.318C174.084 457.318 172.795 456.98 171.774 456.304C170.753 455.628 170.107 454.64 169.835 453.341L172.062 452.784C172.274 453.606 172.675 454.223 173.265 454.634C173.862 455.045 174.641 455.25 175.602 455.25C176.696 455.25 177.564 455.018 178.207 454.554C178.857 454.083 179.181 453.52 179.181 452.864C179.181 452.333 178.996 451.889 178.625 451.531C178.253 451.167 177.683 450.895 176.914 450.716L174.369 450.119C172.97 449.788 171.943 449.274 171.287 448.578C170.637 447.875 170.312 446.997 170.312 445.943C170.312 445.081 170.554 444.319 171.038 443.656C171.529 442.993 172.195 442.473 173.037 442.095C173.885 441.717 174.846 441.528 175.92 441.528C177.431 441.528 178.618 441.86 179.48 442.523C180.348 443.186 180.965 444.061 181.329 445.148ZM195.958 445.148L193.85 445.744C193.718 445.393 193.522 445.052 193.263 444.72C193.012 444.382 192.667 444.104 192.229 443.885C191.792 443.666 191.232 443.557 190.549 443.557C189.614 443.557 188.835 443.772 188.212 444.203C187.596 444.627 187.288 445.168 187.288 445.824C187.288 446.407 187.5 446.868 187.924 447.206C188.348 447.544 189.011 447.826 189.913 448.051L192.18 448.608C193.545 448.939 194.563 449.446 195.232 450.129C195.902 450.805 196.237 451.677 196.237 452.744C196.237 453.619 195.985 454.402 195.481 455.091C194.984 455.78 194.288 456.324 193.393 456.722C192.498 457.119 191.457 457.318 190.271 457.318C188.713 457.318 187.424 456.98 186.403 456.304C185.382 455.628 184.736 454.64 184.464 453.341L186.691 452.784C186.903 453.606 187.304 454.223 187.894 454.634C188.491 455.045 189.27 455.25 190.231 455.25C191.325 455.25 192.193 455.018 192.836 454.554C193.486 454.083 193.81 453.52 193.81 452.864C193.81 452.333 193.625 451.889 193.254 451.531C192.882 451.167 192.312 450.895 191.543 450.716L188.998 450.119C187.599 449.788 186.572 449.274 185.915 448.578C185.266 447.875 184.941 446.997 184.941 445.943C184.941 445.081 185.183 444.319 185.667 443.656C186.157 442.993 186.824 442.473 187.665 442.095C188.514 441.717 189.475 441.528 190.549 441.528C192.06 441.528 193.247 441.86 194.109 442.523C194.977 443.186 195.594 444.061 195.958 445.148ZM204.263 457.358C203.295 457.358 202.417 457.176 201.628 456.811C200.839 456.44 200.213 455.906 199.749 455.21C199.285 454.508 199.053 453.659 199.053 452.665C199.053 451.79 199.225 451.08 199.57 450.537C199.915 449.987 200.375 449.556 200.952 449.244C201.529 448.933 202.165 448.701 202.861 448.548C203.564 448.389 204.27 448.263 204.979 448.17C205.907 448.051 206.659 447.962 207.236 447.902C207.819 447.836 208.244 447.726 208.509 447.574C208.781 447.421 208.917 447.156 208.917 446.778V446.699C208.917 445.718 208.648 444.955 208.111 444.412C207.581 443.868 206.775 443.597 205.695 443.597C204.575 443.597 203.696 443.842 203.06 444.332C202.424 444.823 201.976 445.347 201.718 445.903L199.49 445.108C199.888 444.18 200.418 443.457 201.081 442.94C201.751 442.417 202.48 442.052 203.269 441.847C204.064 441.634 204.846 441.528 205.615 441.528C206.106 441.528 206.669 441.588 207.306 441.707C207.949 441.82 208.569 442.055 209.165 442.413C209.768 442.771 210.269 443.312 210.667 444.034C211.064 444.757 211.263 445.724 211.263 446.938V457H208.917V454.932H208.797C208.638 455.263 208.373 455.618 208.002 455.996C207.631 456.374 207.137 456.695 206.52 456.96C205.904 457.225 205.151 457.358 204.263 457.358ZM204.621 455.25C205.549 455.25 206.331 455.068 206.968 454.703C207.611 454.339 208.095 453.868 208.419 453.291C208.751 452.714 208.917 452.108 208.917 451.472V449.324C208.817 449.443 208.598 449.553 208.26 449.652C207.929 449.745 207.544 449.828 207.107 449.901C206.676 449.967 206.255 450.027 205.844 450.08C205.44 450.126 205.112 450.166 204.86 450.199C204.25 450.278 203.68 450.408 203.15 450.587C202.626 450.759 202.202 451.021 201.877 451.372C201.559 451.717 201.4 452.187 201.4 452.784C201.4 453.599 201.701 454.216 202.304 454.634C202.914 455.045 203.686 455.25 204.621 455.25ZM221.711 463.045C220.577 463.045 219.603 462.9 218.788 462.608C217.972 462.323 217.293 461.945 216.749 461.474C216.212 461.01 215.785 460.513 215.467 459.983L217.336 458.67C217.548 458.949 217.817 459.267 218.141 459.625C218.466 459.99 218.91 460.304 219.474 460.57C220.044 460.841 220.79 460.977 221.711 460.977C222.944 460.977 223.961 460.679 224.763 460.082C225.566 459.486 225.967 458.551 225.967 457.278V454.176H225.768C225.595 454.455 225.35 454.799 225.032 455.21C224.72 455.615 224.27 455.976 223.68 456.294C223.096 456.606 222.308 456.761 221.313 456.761C220.08 456.761 218.973 456.47 217.992 455.886C217.018 455.303 216.246 454.455 215.675 453.341C215.112 452.227 214.83 450.875 214.83 449.284C214.83 447.72 215.105 446.357 215.656 445.197C216.206 444.031 216.971 443.129 217.952 442.493C218.933 441.85 220.067 441.528 221.353 441.528C222.347 441.528 223.136 441.694 223.719 442.026C224.309 442.35 224.76 442.722 225.072 443.139C225.39 443.55 225.635 443.888 225.808 444.153H226.046V441.727H228.313V457.438C228.313 458.75 228.015 459.817 227.418 460.639C226.828 461.468 226.033 462.074 225.032 462.459C224.038 462.85 222.931 463.045 221.711 463.045ZM221.631 454.653C222.573 454.653 223.368 454.438 224.018 454.007C224.667 453.576 225.161 452.956 225.499 452.148C225.837 451.339 226.006 450.371 226.006 449.244C226.006 448.144 225.841 447.173 225.509 446.331C225.178 445.489 224.687 444.83 224.038 444.352C223.388 443.875 222.586 443.636 221.631 443.636C220.637 443.636 219.808 443.888 219.146 444.392C218.489 444.896 217.996 445.572 217.664 446.42C217.339 447.269 217.177 448.21 217.177 449.244C217.177 450.305 217.343 451.243 217.674 452.058C218.012 452.867 218.509 453.503 219.165 453.967C219.828 454.425 220.65 454.653 221.631 454.653ZM239.012 457.318C237.54 457.318 236.271 456.993 235.204 456.344C234.143 455.688 233.325 454.773 232.748 453.599C232.178 452.42 231.893 451.047 231.893 449.483C231.893 447.919 232.178 446.54 232.748 445.347C233.325 444.147 234.127 443.212 235.154 442.543C236.188 441.866 237.395 441.528 238.773 441.528C239.569 441.528 240.354 441.661 241.13 441.926C241.906 442.191 242.612 442.622 243.248 443.219C243.884 443.809 244.391 444.591 244.769 445.565C245.147 446.54 245.336 447.74 245.336 449.165V450.159H233.563V448.131H242.95C242.95 447.269 242.777 446.5 242.433 445.824C242.094 445.148 241.611 444.614 240.981 444.223C240.358 443.832 239.622 443.636 238.773 443.636C237.839 443.636 237.03 443.868 236.347 444.332C235.671 444.79 235.151 445.386 234.786 446.122C234.422 446.858 234.239 447.647 234.239 448.489V449.841C234.239 450.994 234.438 451.972 234.836 452.774C235.24 453.57 235.8 454.176 236.516 454.594C237.232 455.005 238.064 455.21 239.012 455.21C239.629 455.21 240.185 455.124 240.683 454.952C241.186 454.773 241.621 454.508 241.985 454.156C242.35 453.798 242.631 453.354 242.83 452.824L245.097 453.46C244.859 454.229 244.458 454.905 243.894 455.489C243.331 456.065 242.635 456.516 241.806 456.841C240.978 457.159 240.046 457.318 239.012 457.318Z" fill="#0A0A0F"/>
</svg>
