<svg width="473" height="270" viewBox="0 0 473 270" fill="none" xmlns="http://www.w3.org/2000/svg">
<rect width="473" height="270" fill="black" fill-opacity="0.01"/>
<path d="M133.091 62.4545V57.4545H168V62.4545H153.364V104H147.727V62.4545H133.091ZM185.091 104.727C181.939 104.727 179.174 103.977 176.795 102.477C174.432 100.977 172.583 98.8788 171.25 96.1818C169.932 93.4848 169.273 90.3333 169.273 86.7273C169.273 83.0909 169.932 79.9167 171.25 77.2045C172.583 74.4924 174.432 72.3864 176.795 70.8864C179.174 69.3864 181.939 68.6364 185.091 68.6364C188.242 68.6364 191 69.3864 193.364 70.8864C195.742 72.3864 197.591 74.4924 198.909 77.2045C200.242 79.9167 200.909 83.0909 200.909 86.7273C200.909 90.3333 200.242 93.4848 198.909 96.1818C197.591 98.8788 195.742 100.977 193.364 102.477C191 103.977 188.242 104.727 185.091 104.727ZM185.091 99.9091C187.485 99.9091 189.455 99.2955 191 98.0682C192.545 96.8409 193.689 95.2273 194.432 93.2273C195.174 91.2273 195.545 89.0606 195.545 86.7273C195.545 84.3939 195.174 82.2197 194.432 80.2045C193.689 78.1894 192.545 76.5606 191 75.3182C189.455 74.0758 187.485 73.4545 185.091 73.4545C182.697 73.4545 180.727 74.0758 179.182 75.3182C177.636 76.5606 176.492 78.1894 175.75 80.2045C175.008 82.2197 174.636 84.3939 174.636 86.7273C174.636 89.0606 175.008 91.2273 175.75 93.2273C176.492 95.2273 177.636 96.8409 179.182 98.0682C180.727 99.2955 182.697 99.9091 185.091 99.9091ZM209.097 117.091V69.0909H214.278V74.6364H214.915C215.309 74.0303 215.854 73.2576 216.551 72.3182C217.263 71.3636 218.278 70.5152 219.597 69.7727C220.93 69.0152 222.733 68.6364 225.006 68.6364C227.945 68.6364 230.536 69.3712 232.778 70.8409C235.021 72.3106 236.771 74.3939 238.028 77.0909C239.286 79.7879 239.915 82.9697 239.915 86.6364C239.915 90.3333 239.286 93.5379 238.028 96.25C236.771 98.947 235.028 101.038 232.801 102.523C230.574 103.992 228.006 104.727 225.097 104.727C222.854 104.727 221.059 104.356 219.71 103.614C218.362 102.856 217.324 102 216.597 101.045C215.869 100.076 215.309 99.2727 214.915 98.6364H214.46V117.091H209.097ZM214.369 86.5455C214.369 89.1818 214.756 91.5076 215.528 93.5227C216.301 95.5227 217.43 97.0909 218.915 98.2273C220.4 99.3485 222.218 99.9091 224.369 99.9091C226.612 99.9091 228.483 99.3182 229.983 98.1364C231.498 96.9394 232.634 95.3333 233.392 93.3182C234.165 91.2879 234.551 89.0303 234.551 86.5455C234.551 84.0909 234.172 81.8788 233.415 79.9091C232.672 77.9242 231.544 76.3561 230.028 75.2045C228.528 74.0379 226.642 73.4545 224.369 73.4545C222.188 73.4545 220.354 74.0076 218.869 75.1136C217.384 76.2045 216.263 77.7348 215.506 79.7045C214.748 81.6591 214.369 83.9394 214.369 86.5455ZM282.369 57.4545V104H276.733V63.3636H276.46L265.097 70.9091V65.1818L276.733 57.4545H282.369ZM319.483 95.2727V92.8182C319.483 91.1212 319.831 89.5682 320.528 88.1591C321.241 86.7348 322.271 85.5985 323.619 84.75C324.983 83.8864 326.634 83.4545 328.574 83.4545C330.544 83.4545 332.195 83.8864 333.528 84.75C334.862 85.5985 335.869 86.7348 336.551 88.1591C337.233 89.5682 337.574 91.1212 337.574 92.8182V95.2727C337.574 96.9697 337.225 98.5303 336.528 99.9545C335.847 101.364 334.831 102.5 333.483 103.364C332.15 104.212 330.513 104.636 328.574 104.636C326.604 104.636 324.945 104.212 323.597 103.364C322.248 102.5 321.225 101.364 320.528 99.9545C319.831 98.5303 319.483 96.9697 319.483 95.2727ZM324.119 92.8182V95.2727C324.119 96.6818 324.453 97.947 325.119 99.0682C325.786 100.174 326.938 100.727 328.574 100.727C330.165 100.727 331.286 100.174 331.938 99.0682C332.604 97.947 332.938 96.6818 332.938 95.2727V92.8182C332.938 91.4091 332.619 90.1515 331.983 89.0455C331.347 87.9242 330.21 87.3636 328.574 87.3636C326.983 87.3636 325.839 87.9242 325.142 89.0455C324.46 90.1515 324.119 91.4091 324.119 92.8182ZM296.301 68.6364V66.1818C296.301 64.4848 296.65 62.9318 297.347 61.5227C298.059 60.0985 299.089 58.9621 300.438 58.1136C301.801 57.25 303.453 56.8182 305.392 56.8182C307.362 56.8182 309.013 57.25 310.347 58.1136C311.68 58.9621 312.688 60.0985 313.369 61.5227C314.051 62.9318 314.392 64.4848 314.392 66.1818V68.6364C314.392 70.3333 314.044 71.8939 313.347 73.3182C312.665 74.7273 311.65 75.8636 310.301 76.7273C308.968 77.5758 307.331 78 305.392 78C303.422 78 301.763 77.5758 300.415 76.7273C299.066 75.8636 298.044 74.7273 297.347 73.3182C296.65 71.8939 296.301 70.3333 296.301 68.6364ZM300.938 66.1818V68.6364C300.938 70.0455 301.271 71.3106 301.938 72.4318C302.604 73.5379 303.756 74.0909 305.392 74.0909C306.983 74.0909 308.104 73.5379 308.756 72.4318C309.422 71.3106 309.756 70.0455 309.756 68.6364V66.1818C309.756 64.7727 309.438 63.5151 308.801 62.4091C308.165 61.2879 307.028 60.7273 305.392 60.7273C303.801 60.7273 302.657 61.2879 301.96 62.4091C301.278 63.5151 300.938 64.7727 300.938 66.1818ZM298.028 104L330.028 57.4545H335.21L303.21 104H298.028Z" fill="#F5F5F7"/>
<path d="M234.402 166.909V178.125H236.243V184.227H234.232V180H224.107V166.909H226.118V178.125H232.391V166.909H234.402ZM249.636 166.909V178.125H251.477V184.227H249.466V180H239.341V166.909H241.352V178.125H247.625V166.909H249.636ZM205.396 191.545V209H203.35L193.839 195.295H193.669V209H191.555V191.545H193.6L203.146 205.284H203.316V191.545H205.396ZM214.841 209.273C213.58 209.273 212.492 208.994 211.577 208.438C210.668 207.875 209.966 207.091 209.472 206.085C208.983 205.074 208.739 203.898 208.739 202.557C208.739 201.216 208.983 200.034 209.472 199.011C209.966 197.983 210.654 197.182 211.534 196.608C212.421 196.028 213.455 195.739 214.637 195.739C215.319 195.739 215.992 195.852 216.657 196.08C217.321 196.307 217.926 196.676 218.472 197.188C219.017 197.693 219.452 198.364 219.776 199.199C220.1 200.034 220.262 201.062 220.262 202.284V203.136H210.171V201.398H218.216C218.216 200.659 218.069 200 217.773 199.42C217.483 198.841 217.069 198.384 216.529 198.048C215.995 197.713 215.364 197.545 214.637 197.545C213.836 197.545 213.142 197.744 212.557 198.142C211.978 198.534 211.532 199.045 211.219 199.676C210.907 200.307 210.75 200.983 210.75 201.705V202.864C210.75 203.852 210.921 204.69 211.262 205.378C211.608 206.06 212.088 206.58 212.702 206.938C213.316 207.29 214.029 207.466 214.841 207.466C215.37 207.466 215.847 207.392 216.273 207.244C216.705 207.091 217.077 206.864 217.39 206.562C217.702 206.256 217.944 205.875 218.114 205.42L220.057 205.966C219.853 206.625 219.509 207.205 219.026 207.705C218.543 208.199 217.946 208.585 217.236 208.864C216.526 209.136 215.728 209.273 214.841 209.273ZM229.015 195.909V197.614H222.23V195.909H229.015ZM224.208 192.773H226.219V205.25C226.219 205.818 226.301 206.244 226.466 206.528C226.637 206.807 226.853 206.994 227.114 207.091C227.381 207.182 227.662 207.227 227.958 207.227C228.179 207.227 228.361 207.216 228.503 207.193C228.645 207.165 228.759 207.142 228.844 207.125L229.253 208.932C229.117 208.983 228.926 209.034 228.682 209.085C228.438 209.142 228.128 209.17 227.753 209.17C227.185 209.17 226.628 209.048 226.083 208.804C225.543 208.56 225.094 208.188 224.736 207.688C224.384 207.188 224.208 206.557 224.208 205.795V192.773ZM235.006 209L231.017 195.909H233.131L235.961 205.932H236.097L238.892 195.909H241.04L243.801 205.898H243.938L246.767 195.909H248.881L244.892 209H242.915L240.051 198.943H239.847L236.983 209H235.006ZM256.413 209.273C255.231 209.273 254.194 208.991 253.302 208.429C252.416 207.866 251.723 207.08 251.223 206.068C250.728 205.057 250.481 203.875 250.481 202.523C250.481 201.159 250.728 199.969 251.223 198.952C251.723 197.935 252.416 197.145 253.302 196.582C254.194 196.02 255.231 195.739 256.413 195.739C257.595 195.739 258.629 196.02 259.515 196.582C260.407 197.145 261.1 197.935 261.595 198.952C262.095 199.969 262.345 201.159 262.345 202.523C262.345 203.875 262.095 205.057 261.595 206.068C261.1 207.08 260.407 207.866 259.515 208.429C258.629 208.991 257.595 209.273 256.413 209.273ZM256.413 207.466C257.311 207.466 258.049 207.236 258.629 206.776C259.208 206.315 259.637 205.71 259.916 204.96C260.194 204.21 260.333 203.398 260.333 202.523C260.333 201.648 260.194 200.832 259.916 200.077C259.637 199.321 259.208 198.71 258.629 198.244C258.049 197.778 257.311 197.545 256.413 197.545C255.515 197.545 254.777 197.778 254.197 198.244C253.618 198.71 253.189 199.321 252.91 200.077C252.632 200.832 252.493 201.648 252.493 202.523C252.493 203.398 252.632 204.21 252.91 204.96C253.189 205.71 253.618 206.315 254.197 206.776C254.777 207.236 255.515 207.466 256.413 207.466ZM265.415 209V195.909H267.358V197.886H267.495C267.733 197.239 268.165 196.713 268.79 196.31C269.415 195.906 270.12 195.705 270.904 195.705C271.051 195.705 271.236 195.707 271.458 195.713C271.679 195.719 271.847 195.727 271.961 195.739V197.784C271.892 197.767 271.736 197.741 271.492 197.707C271.253 197.668 271 197.648 270.733 197.648C270.097 197.648 269.529 197.781 269.029 198.048C268.534 198.31 268.142 198.673 267.853 199.139C267.569 199.599 267.426 200.125 267.426 200.716V209H265.415ZM276.22 204.227L276.186 201.739H276.595L282.322 195.909H284.811L278.708 202.08H278.538L276.22 204.227ZM274.345 209V191.545H276.356V209H274.345ZM282.663 209L277.549 202.523L278.981 201.125L285.22 209H282.663Z" fill="#F5F5F7"/>
<g opacity="0.2" filter="url(#filter1_f_212_12)">
<line x1="471" y1="39" x2="471" y2="215" stroke="#F5F5F7" stroke-width="2" stroke-linecap="round"/>
</g>
<defs>
<filter id="filter1_f_212_12" x="469" y="37" width="4" height="180" filterUnits="userSpaceOnUse" color-interpolation-filters="sRGB">
<feFlood flood-opacity="0" result="BackgroundImageFix"/>
<feBlend mode="normal" in="SourceGraphic" in2="BackgroundImageFix" result="shape"/>
<feGaussianBlur stdDeviation="0.5" result="effect1_foregroundBlur_212_12"/>
</filter>
</defs>
</svg>
