<svg width="472" height="270" viewBox="0 0 472 270" fill="none" xmlns="http://www.w3.org/2000/svg">
<rect width="472" height="270" fill="black" fill-opacity="0.01"/>
<path d="M146.545 104.636C143.545 104.636 140.871 104.121 138.523 103.091C136.189 102.061 134.333 100.629 132.955 98.7955C131.591 96.947 130.848 94.803 130.727 92.3636H136.455C136.576 93.8636 137.091 95.1591 138 96.25C138.909 97.3258 140.098 98.1591 141.568 98.75C143.038 99.3409 144.667 99.6364 146.455 99.6364C148.455 99.6364 150.227 99.2879 151.773 98.5909C153.318 97.8939 154.53 96.9242 155.409 95.6818C156.288 94.4394 156.727 93 156.727 91.3636C156.727 89.6515 156.303 88.1439 155.455 86.8409C154.606 85.5227 153.364 84.4924 151.727 83.75C150.091 83.0076 148.091 82.6364 145.727 82.6364H142V77.6364H145.727C147.576 77.6364 149.197 77.303 150.591 76.6364C152 75.9697 153.098 75.0303 153.886 73.8182C154.689 72.6061 155.091 71.1818 155.091 69.5455C155.091 67.9697 154.742 66.5985 154.045 65.4318C153.348 64.2651 152.364 63.3561 151.091 62.7045C149.833 62.053 148.348 61.7273 146.636 61.7273C145.03 61.7273 143.515 62.0227 142.091 62.6136C140.682 63.1894 139.53 64.0303 138.636 65.1364C137.742 66.2273 137.258 67.5455 137.182 69.0909H131.727C131.818 66.6515 132.553 64.5151 133.932 62.6818C135.311 60.8333 137.114 59.3939 139.341 58.3636C141.583 57.3333 144.045 56.8182 146.727 56.8182C149.606 56.8182 152.076 57.4015 154.136 58.5682C156.197 59.7197 157.78 61.2424 158.886 63.1364C159.992 65.0303 160.545 67.0758 160.545 69.2727C160.545 71.8939 159.856 74.1288 158.477 75.9773C157.114 77.8258 155.258 79.1061 152.909 79.8182V80.1818C155.848 80.6667 158.144 81.9167 159.795 83.9318C161.447 85.9318 162.273 88.4091 162.273 91.3636C162.273 93.8939 161.583 96.1667 160.205 98.1818C158.841 100.182 156.977 101.758 154.614 102.909C152.25 104.061 149.561 104.636 146.545 104.636ZM186.75 104.636C183.326 104.636 180.409 103.705 178 101.841C175.591 99.9621 173.75 97.2424 172.477 93.6818C171.205 90.1061 170.568 85.7879 170.568 80.7273C170.568 75.697 171.205 71.4015 172.477 67.8409C173.765 64.2652 175.614 61.5379 178.023 59.6591C180.447 57.7651 183.356 56.8182 186.75 56.8182C190.144 56.8182 193.045 57.7651 195.455 59.6591C197.879 61.5379 199.727 64.2652 201 67.8409C202.288 71.4015 202.932 75.697 202.932 80.7273C202.932 85.7879 202.295 90.1061 201.023 93.6818C199.75 97.2424 197.909 99.9621 195.5 101.841C193.091 103.705 190.174 104.636 186.75 104.636ZM186.75 99.6364C190.144 99.6364 192.78 98 194.659 94.7273C196.538 91.4545 197.477 86.7879 197.477 80.7273C197.477 76.697 197.045 73.2652 196.182 70.4318C195.333 67.5985 194.106 65.4394 192.5 63.9545C190.909 62.4697 188.992 61.7273 186.75 61.7273C183.386 61.7273 180.758 63.3864 178.864 66.7045C176.97 70.0076 176.023 74.6818 176.023 80.7273C176.023 84.7576 176.447 88.1818 177.295 91C178.144 93.8182 179.364 95.9621 180.955 97.4318C182.561 98.9015 184.492 99.6364 186.75 99.6364ZM226.75 104.636C223.326 104.636 220.409 103.705 218 101.841C215.591 99.9621 213.75 97.2424 212.477 93.6818C211.205 90.1061 210.568 85.7879 210.568 80.7273C210.568 75.697 211.205 71.4015 212.477 67.8409C213.765 64.2652 215.614 61.5379 218.023 59.6591C220.447 57.7651 223.356 56.8182 226.75 56.8182C230.144 56.8182 233.045 57.7651 235.455 59.6591C237.879 61.5379 239.727 64.2652 241 67.8409C242.288 71.4015 242.932 75.697 242.932 80.7273C242.932 85.7879 242.295 90.1061 241.023 93.6818C239.75 97.2424 237.909 99.9621 235.5 101.841C233.091 103.705 230.174 104.636 226.75 104.636ZM226.75 99.6364C230.144 99.6364 232.78 98 234.659 94.7273C236.538 91.4545 237.477 86.7879 237.477 80.7273C237.477 76.697 237.045 73.2652 236.182 70.4318C235.333 67.5985 234.106 65.4394 232.5 63.9545C230.909 62.4697 228.992 61.7273 226.75 61.7273C223.386 61.7273 220.758 63.3864 218.864 66.7045C216.97 70.0076 216.023 74.6818 216.023 80.7273C216.023 84.7576 216.447 88.1818 217.295 91C218.144 93.8182 219.364 95.9621 220.955 97.4318C222.561 98.9015 224.492 99.6364 226.75 99.6364ZM252.386 57.4545H259.114L274.932 96.0909H275.477L291.295 57.4545H298.023V104H292.75V68.6364H292.295L277.75 104H272.659L258.114 68.6364H257.659V104H252.386V57.4545ZM322.233 95.8182V65.8182H327.324V95.8182H322.233ZM309.778 83.3636V78.2727H339.778V83.3636H309.778Z" fill="#F5F5F7"/>
<path d="M154.179 164.42V162.545H167.27V164.42H161.781V180H159.667V164.42H154.179ZM173.679 180.273C172.497 180.273 171.46 179.991 170.568 179.429C169.681 178.866 168.988 178.08 168.488 177.068C167.994 176.057 167.747 174.875 167.747 173.523C167.747 172.159 167.994 170.969 168.488 169.952C168.988 168.935 169.681 168.145 170.568 167.582C171.46 167.02 172.497 166.739 173.679 166.739C174.86 166.739 175.895 167.02 176.781 167.582C177.673 168.145 178.366 168.935 178.86 169.952C179.36 170.969 179.61 172.159 179.61 173.523C179.61 174.875 179.36 176.057 178.86 177.068C178.366 178.08 177.673 178.866 176.781 179.429C175.895 179.991 174.86 180.273 173.679 180.273ZM173.679 178.466C174.576 178.466 175.315 178.236 175.895 177.776C176.474 177.315 176.903 176.71 177.181 175.96C177.46 175.21 177.599 174.398 177.599 173.523C177.599 172.648 177.46 171.832 177.181 171.077C176.903 170.321 176.474 169.71 175.895 169.244C175.315 168.778 174.576 168.545 173.679 168.545C172.781 168.545 172.042 168.778 171.463 169.244C170.883 169.71 170.454 170.321 170.176 171.077C169.897 171.832 169.758 172.648 169.758 173.523C169.758 174.398 169.897 175.21 170.176 175.96C170.454 176.71 170.883 177.315 171.463 177.776C172.042 178.236 172.781 178.466 173.679 178.466ZM188.374 166.909V168.614H181.59V166.909H188.374ZM183.567 163.773H185.578V176.25C185.578 176.818 185.661 177.244 185.826 177.528C185.996 177.807 186.212 177.994 186.473 178.091C186.74 178.182 187.022 178.227 187.317 178.227C187.539 178.227 187.721 178.216 187.863 178.193C188.005 178.165 188.118 178.142 188.203 178.125L188.613 179.932C188.476 179.983 188.286 180.034 188.042 180.085C187.797 180.142 187.488 180.17 187.113 180.17C186.544 180.17 185.988 180.048 185.442 179.804C184.902 179.56 184.453 179.188 184.096 178.688C183.743 178.188 183.567 177.557 183.567 176.795V163.773ZM195.252 180.307C194.422 180.307 193.669 180.151 192.993 179.838C192.317 179.52 191.78 179.062 191.382 178.466C190.985 177.864 190.786 177.136 190.786 176.284C190.786 175.534 190.934 174.926 191.229 174.46C191.525 173.989 191.919 173.619 192.414 173.352C192.908 173.085 193.453 172.886 194.05 172.756C194.652 172.619 195.257 172.511 195.865 172.432C196.661 172.33 197.306 172.253 197.8 172.202C198.3 172.145 198.664 172.051 198.891 171.92C199.124 171.79 199.24 171.562 199.24 171.239V171.17C199.24 170.33 199.01 169.676 198.55 169.21C198.096 168.744 197.405 168.511 196.479 168.511C195.519 168.511 194.766 168.722 194.221 169.142C193.675 169.562 193.292 170.011 193.07 170.489L191.161 169.807C191.502 169.011 191.956 168.392 192.525 167.949C193.098 167.5 193.723 167.187 194.4 167.011C195.081 166.83 195.752 166.739 196.411 166.739C196.831 166.739 197.314 166.79 197.86 166.892C198.411 166.989 198.942 167.19 199.453 167.497C199.971 167.804 200.4 168.267 200.74 168.886C201.081 169.506 201.252 170.335 201.252 171.375V180H199.24V178.227H199.138C199.002 178.511 198.775 178.815 198.456 179.139C198.138 179.463 197.715 179.739 197.186 179.966C196.658 180.193 196.013 180.307 195.252 180.307ZM195.559 178.5C196.354 178.5 197.025 178.344 197.57 178.031C198.121 177.719 198.536 177.315 198.814 176.821C199.098 176.327 199.24 175.807 199.24 175.261V173.42C199.155 173.523 198.968 173.616 198.678 173.702C198.394 173.781 198.064 173.852 197.689 173.915C197.32 173.972 196.959 174.023 196.607 174.068C196.26 174.108 195.979 174.142 195.763 174.17C195.24 174.239 194.752 174.349 194.297 174.503C193.848 174.651 193.485 174.875 193.206 175.176C192.934 175.472 192.797 175.875 192.797 176.386C192.797 177.085 193.056 177.614 193.573 177.972C194.096 178.324 194.757 178.5 195.559 178.5ZM206.934 162.545V180H204.923V162.545H206.934ZM221.221 180.307C220.391 180.307 219.638 180.151 218.962 179.838C218.286 179.52 217.749 179.062 217.351 178.466C216.953 177.864 216.755 177.136 216.755 176.284C216.755 175.534 216.902 174.926 217.198 174.46C217.493 173.989 217.888 173.619 218.382 173.352C218.877 173.085 219.422 172.886 220.019 172.756C220.621 172.619 221.226 172.511 221.834 172.432C222.63 172.33 223.275 172.253 223.769 172.202C224.269 172.145 224.632 172.051 224.86 171.92C225.093 171.79 225.209 171.562 225.209 171.239V171.17C225.209 170.33 224.979 169.676 224.519 169.21C224.064 168.744 223.374 168.511 222.448 168.511C221.488 168.511 220.735 168.722 220.189 169.142C219.644 169.562 219.26 170.011 219.039 170.489L217.13 169.807C217.471 169.011 217.925 168.392 218.493 167.949C219.067 167.5 219.692 167.187 220.368 167.011C221.05 166.83 221.721 166.739 222.38 166.739C222.8 166.739 223.283 166.79 223.828 166.892C224.38 166.989 224.911 167.19 225.422 167.497C225.939 167.804 226.368 168.267 226.709 168.886C227.05 169.506 227.221 170.335 227.221 171.375V180H225.209V178.227H225.107C224.971 178.511 224.743 178.815 224.425 179.139C224.107 179.463 223.684 179.739 223.155 179.966C222.627 180.193 221.982 180.307 221.221 180.307ZM221.527 178.5C222.323 178.5 222.993 178.344 223.539 178.031C224.09 177.719 224.505 177.315 224.783 176.821C225.067 176.327 225.209 175.807 225.209 175.261V173.42C225.124 173.523 224.936 173.616 224.647 173.702C224.363 173.781 224.033 173.852 223.658 173.915C223.289 173.972 222.928 174.023 222.576 174.068C222.229 174.108 221.948 174.142 221.732 174.17C221.209 174.239 220.721 174.349 220.266 174.503C219.817 174.651 219.453 174.875 219.175 175.176C218.902 175.472 218.766 175.875 218.766 176.386C218.766 177.085 219.025 177.614 219.542 177.972C220.064 178.324 220.726 178.5 221.527 178.5ZM239.142 174.648V166.909H241.153V180H239.142V177.784H239.005C238.699 178.449 238.221 179.014 237.574 179.48C236.926 179.94 236.108 180.17 235.119 180.17C234.301 180.17 233.574 179.991 232.937 179.634C232.301 179.27 231.801 178.724 231.437 177.997C231.074 177.264 230.892 176.341 230.892 175.227V166.909H232.903V175.091C232.903 176.045 233.17 176.807 233.704 177.375C234.244 177.943 234.931 178.227 235.767 178.227C236.267 178.227 236.775 178.099 237.292 177.844C237.815 177.588 238.252 177.196 238.605 176.668C238.963 176.139 239.142 175.466 239.142 174.648ZM249.78 180.273C248.689 180.273 247.726 179.997 246.891 179.446C246.056 178.889 245.402 178.105 244.931 177.094C244.459 176.077 244.223 174.875 244.223 173.489C244.223 172.114 244.459 170.92 244.931 169.909C245.402 168.898 246.059 168.116 246.9 167.565C247.74 167.014 248.712 166.739 249.814 166.739C250.667 166.739 251.34 166.881 251.834 167.165C252.334 167.443 252.715 167.761 252.976 168.119C253.243 168.472 253.451 168.761 253.598 168.989H253.769V162.545H255.78V180H253.837V177.989H253.598C253.451 178.227 253.24 178.528 252.968 178.892C252.695 179.25 252.306 179.571 251.8 179.855C251.294 180.134 250.621 180.273 249.78 180.273ZM250.053 178.466C250.86 178.466 251.542 178.256 252.098 177.835C252.655 177.409 253.078 176.821 253.368 176.071C253.658 175.315 253.803 174.443 253.803 173.455C253.803 172.477 253.661 171.622 253.377 170.889C253.093 170.151 252.672 169.577 252.115 169.168C251.559 168.753 250.871 168.545 250.053 168.545C249.201 168.545 248.49 168.764 247.922 169.202C247.36 169.634 246.936 170.222 246.652 170.966C246.374 171.705 246.235 172.534 246.235 173.455C246.235 174.386 246.377 175.233 246.661 175.994C246.951 176.75 247.377 177.352 247.939 177.801C248.507 178.244 249.212 178.466 250.053 178.466ZM259.743 180V166.909H261.755V180H259.743ZM260.766 164.727C260.374 164.727 260.036 164.594 259.752 164.327C259.473 164.06 259.334 163.739 259.334 163.364C259.334 162.989 259.473 162.668 259.752 162.401C260.036 162.134 260.374 162 260.766 162C261.158 162 261.493 162.134 261.772 162.401C262.056 162.668 262.198 162.989 262.198 163.364C262.198 163.739 262.056 164.06 261.772 164.327C261.493 164.594 261.158 164.727 260.766 164.727ZM270.927 180.273C269.666 180.273 268.578 179.994 267.663 179.438C266.754 178.875 266.052 178.091 265.558 177.085C265.069 176.074 264.825 174.898 264.825 173.557C264.825 172.216 265.069 171.034 265.558 170.011C266.052 168.983 266.74 168.182 267.62 167.608C268.507 167.028 269.541 166.739 270.723 166.739C271.404 166.739 272.078 166.852 272.743 167.08C273.407 167.307 274.012 167.676 274.558 168.188C275.103 168.693 275.538 169.364 275.862 170.199C276.186 171.034 276.348 172.062 276.348 173.284V174.136H266.257V172.398H274.302C274.302 171.659 274.154 171 273.859 170.42C273.569 169.841 273.154 169.384 272.615 169.048C272.081 168.713 271.45 168.545 270.723 168.545C269.922 168.545 269.228 168.744 268.643 169.142C268.064 169.534 267.618 170.045 267.305 170.676C266.993 171.307 266.836 171.983 266.836 172.705V173.864C266.836 174.852 267.007 175.69 267.348 176.378C267.694 177.06 268.174 177.58 268.788 177.938C269.402 178.29 270.115 178.466 270.927 178.466C271.456 178.466 271.933 178.392 272.359 178.244C272.791 178.091 273.163 177.864 273.475 177.562C273.788 177.256 274.029 176.875 274.2 176.42L276.143 176.966C275.939 177.625 275.595 178.205 275.112 178.705C274.629 179.199 274.032 179.585 273.322 179.864C272.612 180.136 271.814 180.273 270.927 180.273ZM281.419 172.125V180H279.407V166.909H281.35V168.955H281.521C281.828 168.29 282.294 167.756 282.919 167.352C283.544 166.943 284.35 166.739 285.339 166.739C286.225 166.739 287.001 166.92 287.666 167.284C288.331 167.642 288.848 168.188 289.217 168.92C289.586 169.648 289.771 170.568 289.771 171.682V180H287.76V171.818C287.76 170.79 287.493 169.989 286.958 169.415C286.424 168.835 285.691 168.545 284.76 168.545C284.118 168.545 283.544 168.685 283.038 168.963C282.538 169.241 282.143 169.648 281.853 170.182C281.564 170.716 281.419 171.364 281.419 172.125ZM298.765 180.273C297.537 180.273 296.48 179.983 295.594 179.403C294.708 178.824 294.026 178.026 293.549 177.009C293.071 175.991 292.833 174.83 292.833 173.523C292.833 172.193 293.077 171.02 293.566 170.003C294.06 168.98 294.748 168.182 295.628 167.608C296.515 167.028 297.549 166.739 298.73 166.739C299.651 166.739 300.48 166.909 301.219 167.25C301.958 167.591 302.563 168.068 303.034 168.682C303.506 169.295 303.799 170.011 303.912 170.83H301.901C301.748 170.233 301.407 169.705 300.878 169.244C300.355 168.778 299.651 168.545 298.765 168.545C297.98 168.545 297.293 168.75 296.702 169.159C296.117 169.562 295.659 170.134 295.33 170.872C295.006 171.605 294.844 172.466 294.844 173.455C294.844 174.466 295.003 175.347 295.321 176.097C295.645 176.847 296.1 177.429 296.685 177.844C297.276 178.259 297.969 178.466 298.765 178.466C299.287 178.466 299.762 178.375 300.188 178.193C300.614 178.011 300.975 177.75 301.27 177.409C301.566 177.068 301.776 176.659 301.901 176.182H303.912C303.799 176.955 303.517 177.651 303.069 178.27C302.625 178.884 302.037 179.372 301.304 179.736C300.577 180.094 299.73 180.273 298.765 180.273ZM312.341 180.273C311.08 180.273 309.992 179.994 309.077 179.438C308.168 178.875 307.466 178.091 306.972 177.085C306.483 176.074 306.239 174.898 306.239 173.557C306.239 172.216 306.483 171.034 306.972 170.011C307.466 168.983 308.154 168.182 309.034 167.608C309.921 167.028 310.955 166.739 312.137 166.739C312.819 166.739 313.492 166.852 314.157 167.08C314.821 167.307 315.426 167.676 315.972 168.188C316.517 168.693 316.952 169.364 317.276 170.199C317.6 171.034 317.762 172.062 317.762 173.284V174.136H307.671V172.398H315.716C315.716 171.659 315.569 171 315.273 170.42C314.983 169.841 314.569 169.384 314.029 169.048C313.495 168.713 312.864 168.545 312.137 168.545C311.336 168.545 310.642 168.744 310.057 169.142C309.478 169.534 309.032 170.045 308.719 170.676C308.407 171.307 308.25 171.983 308.25 172.705V173.864C308.25 174.852 308.421 175.69 308.762 176.378C309.108 177.06 309.588 177.58 310.202 177.938C310.816 178.29 311.529 178.466 312.341 178.466C312.87 178.466 313.347 178.392 313.773 178.244C314.205 178.091 314.577 177.864 314.89 177.562C315.202 177.256 315.444 176.875 315.614 176.42L317.557 176.966C317.353 177.625 317.009 178.205 316.526 178.705C316.043 179.199 315.446 179.585 314.736 179.864C314.026 180.136 313.228 180.273 312.341 180.273ZM184.871 214.182C183.9 214.182 183.064 214.057 182.365 213.807C181.667 213.562 181.084 213.239 180.618 212.835C180.158 212.438 179.792 212.011 179.519 211.557L181.121 210.432C181.303 210.67 181.533 210.943 181.811 211.25C182.09 211.562 182.471 211.832 182.953 212.06C183.442 212.293 184.081 212.409 184.871 212.409C185.928 212.409 186.8 212.153 187.488 211.642C188.175 211.131 188.519 210.33 188.519 209.239V206.58H188.348C188.201 206.818 187.99 207.114 187.718 207.466C187.451 207.812 187.064 208.122 186.559 208.395C186.059 208.662 185.382 208.795 184.53 208.795C183.473 208.795 182.525 208.545 181.684 208.045C180.848 207.545 180.186 206.818 179.698 205.864C179.215 204.909 178.973 203.75 178.973 202.386C178.973 201.045 179.209 199.878 179.681 198.884C180.152 197.884 180.809 197.111 181.65 196.565C182.49 196.014 183.462 195.739 184.564 195.739C185.417 195.739 186.093 195.881 186.593 196.165C187.098 196.443 187.485 196.761 187.752 197.119C188.025 197.472 188.235 197.761 188.382 197.989H188.587V195.909H190.53V209.375C190.53 210.5 190.275 211.415 189.763 212.119C189.257 212.83 188.576 213.349 187.718 213.679C186.865 214.014 185.917 214.182 184.871 214.182ZM184.803 206.989C185.61 206.989 186.292 206.804 186.848 206.435C187.405 206.065 187.828 205.534 188.118 204.841C188.408 204.148 188.553 203.318 188.553 202.352C188.553 201.409 188.411 200.577 188.127 199.855C187.843 199.134 187.422 198.568 186.865 198.159C186.309 197.75 185.621 197.545 184.803 197.545C183.951 197.545 183.24 197.761 182.672 198.193C182.11 198.625 181.686 199.205 181.402 199.932C181.124 200.659 180.985 201.466 180.985 202.352C180.985 203.261 181.127 204.065 181.411 204.764C181.701 205.457 182.127 206.003 182.689 206.401C183.257 206.793 183.962 206.989 184.803 206.989ZM199.701 209.273C198.439 209.273 197.351 208.994 196.436 208.438C195.527 207.875 194.826 207.091 194.331 206.085C193.843 205.074 193.598 203.898 193.598 202.557C193.598 201.216 193.843 200.034 194.331 199.011C194.826 197.983 195.513 197.182 196.394 196.608C197.28 196.028 198.314 195.739 199.496 195.739C200.178 195.739 200.851 195.852 201.516 196.08C202.181 196.307 202.786 196.676 203.331 197.188C203.877 197.693 204.311 198.364 204.635 199.199C204.959 200.034 205.121 201.062 205.121 202.284V203.136H195.03V201.398H203.076C203.076 200.659 202.928 200 202.632 199.42C202.343 198.841 201.928 198.384 201.388 198.048C200.854 197.713 200.223 197.545 199.496 197.545C198.695 197.545 198.002 197.744 197.417 198.142C196.837 198.534 196.391 199.045 196.078 199.676C195.766 200.307 195.61 200.983 195.61 201.705V202.864C195.61 203.852 195.78 204.69 196.121 205.378C196.468 206.06 196.948 206.58 197.561 206.938C198.175 207.29 198.888 207.466 199.701 207.466C200.229 207.466 200.706 207.392 201.132 207.244C201.564 207.091 201.936 206.864 202.249 206.562C202.561 206.256 202.803 205.875 202.973 205.42L204.917 205.966C204.712 206.625 204.368 207.205 203.885 207.705C203.402 208.199 202.806 208.585 202.096 208.864C201.385 209.136 200.587 209.273 199.701 209.273ZM210.192 201.125V209H208.181V195.909H210.124V197.955H210.294C210.601 197.29 211.067 196.756 211.692 196.352C212.317 195.943 213.124 195.739 214.113 195.739C214.999 195.739 215.775 195.92 216.439 196.284C217.104 196.642 217.621 197.188 217.99 197.92C218.36 198.648 218.544 199.568 218.544 200.682V209H216.533V200.818C216.533 199.79 216.266 198.989 215.732 198.415C215.198 197.835 214.465 197.545 213.533 197.545C212.891 197.545 212.317 197.685 211.811 197.963C211.311 198.241 210.917 198.648 210.627 199.182C210.337 199.716 210.192 200.364 210.192 201.125ZM227.708 209.273C226.447 209.273 225.359 208.994 224.444 208.438C223.535 207.875 222.833 207.091 222.339 206.085C221.85 205.074 221.606 203.898 221.606 202.557C221.606 201.216 221.85 200.034 222.339 199.011C222.833 197.983 223.521 197.182 224.402 196.608C225.288 196.028 226.322 195.739 227.504 195.739C228.186 195.739 228.859 195.852 229.524 196.08C230.189 196.307 230.794 196.676 231.339 197.188C231.885 197.693 232.319 198.364 232.643 199.199C232.967 200.034 233.129 201.062 233.129 202.284V203.136H223.038V201.398H231.083C231.083 200.659 230.936 200 230.64 199.42C230.35 198.841 229.936 198.384 229.396 198.048C228.862 197.713 228.231 197.545 227.504 197.545C226.703 197.545 226.01 197.744 225.424 198.142C224.845 198.534 224.399 199.045 224.086 199.676C223.774 200.307 223.618 200.983 223.618 201.705V202.864C223.618 203.852 223.788 204.69 224.129 205.378C224.475 206.06 224.956 206.58 225.569 206.938C226.183 207.29 226.896 207.466 227.708 207.466C228.237 207.466 228.714 207.392 229.14 207.244C229.572 207.091 229.944 206.864 230.257 206.562C230.569 206.256 230.811 205.875 230.981 205.42L232.924 205.966C232.72 206.625 232.376 207.205 231.893 207.705C231.41 208.199 230.814 208.585 230.103 208.864C229.393 209.136 228.595 209.273 227.708 209.273ZM236.189 209V195.909H238.132V197.886H238.268C238.507 197.239 238.939 196.713 239.564 196.31C240.189 195.906 240.893 195.705 241.677 195.705C241.825 195.705 242.01 195.707 242.231 195.713C242.453 195.719 242.62 195.727 242.734 195.739V197.784C242.666 197.767 242.51 197.741 242.265 197.707C242.027 197.668 241.774 197.648 241.507 197.648C240.87 197.648 240.302 197.781 239.802 198.048C239.308 198.31 238.916 198.673 238.626 199.139C238.342 199.599 238.2 200.125 238.2 200.716V209H236.189ZM248.971 209.307C248.141 209.307 247.388 209.151 246.712 208.838C246.036 208.52 245.499 208.062 245.101 207.466C244.703 206.864 244.505 206.136 244.505 205.284C244.505 204.534 244.652 203.926 244.948 203.46C245.243 202.989 245.638 202.619 246.132 202.352C246.627 202.085 247.172 201.886 247.769 201.756C248.371 201.619 248.976 201.511 249.584 201.432C250.38 201.33 251.025 201.253 251.519 201.202C252.019 201.145 252.382 201.051 252.61 200.92C252.843 200.79 252.959 200.562 252.959 200.239V200.17C252.959 199.33 252.729 198.676 252.269 198.21C251.814 197.744 251.124 197.511 250.198 197.511C249.238 197.511 248.485 197.722 247.939 198.142C247.394 198.562 247.01 199.011 246.789 199.489L244.88 198.807C245.221 198.011 245.675 197.392 246.243 196.949C246.817 196.5 247.442 196.187 248.118 196.011C248.8 195.83 249.471 195.739 250.13 195.739C250.55 195.739 251.033 195.79 251.578 195.892C252.13 195.989 252.661 196.19 253.172 196.497C253.689 196.804 254.118 197.267 254.459 197.886C254.8 198.506 254.971 199.335 254.971 200.375V209H252.959V207.227H252.857C252.721 207.511 252.493 207.815 252.175 208.139C251.857 208.463 251.434 208.739 250.905 208.966C250.377 209.193 249.732 209.307 248.971 209.307ZM249.277 207.5C250.073 207.5 250.743 207.344 251.289 207.031C251.84 206.719 252.255 206.315 252.533 205.821C252.817 205.327 252.959 204.807 252.959 204.261V202.42C252.874 202.523 252.686 202.616 252.397 202.702C252.113 202.781 251.783 202.852 251.408 202.915C251.039 202.972 250.678 203.023 250.326 203.068C249.979 203.108 249.698 203.142 249.482 203.17C248.959 203.239 248.471 203.349 248.016 203.503C247.567 203.651 247.203 203.875 246.925 204.176C246.652 204.472 246.516 204.875 246.516 205.386C246.516 206.085 246.775 206.614 247.292 206.972C247.814 207.324 248.476 207.5 249.277 207.5ZM264.335 195.909V197.614H257.551V195.909H264.335ZM259.528 192.773H261.539V205.25C261.539 205.818 261.622 206.244 261.787 206.528C261.957 206.807 262.173 206.994 262.434 207.091C262.701 207.182 262.983 207.227 263.278 207.227C263.5 207.227 263.681 207.216 263.824 207.193C263.966 207.165 264.079 207.142 264.164 207.125L264.574 208.932C264.437 208.983 264.247 209.034 264.002 209.085C263.758 209.142 263.449 209.17 263.074 209.17C262.505 209.17 261.949 209.048 261.403 208.804C260.863 208.56 260.414 208.188 260.056 207.688C259.704 207.188 259.528 206.557 259.528 205.795V192.773ZM272.708 209.273C271.447 209.273 270.359 208.994 269.444 208.438C268.535 207.875 267.833 207.091 267.339 206.085C266.85 205.074 266.606 203.898 266.606 202.557C266.606 201.216 266.85 200.034 267.339 199.011C267.833 197.983 268.521 197.182 269.402 196.608C270.288 196.028 271.322 195.739 272.504 195.739C273.186 195.739 273.859 195.852 274.524 196.08C275.189 196.307 275.794 196.676 276.339 197.188C276.885 197.693 277.319 198.364 277.643 199.199C277.967 200.034 278.129 201.062 278.129 202.284V203.136H268.038V201.398H276.083C276.083 200.659 275.936 200 275.64 199.42C275.35 198.841 274.936 198.384 274.396 198.048C273.862 197.713 273.231 197.545 272.504 197.545C271.703 197.545 271.01 197.744 270.424 198.142C269.845 198.534 269.399 199.045 269.086 199.676C268.774 200.307 268.618 200.983 268.618 201.705V202.864C268.618 203.852 268.788 204.69 269.129 205.378C269.475 206.06 269.956 206.58 270.569 206.938C271.183 207.29 271.896 207.466 272.708 207.466C273.237 207.466 273.714 207.392 274.14 207.244C274.572 207.091 274.944 206.864 275.257 206.562C275.569 206.256 275.811 205.875 275.981 205.42L277.924 205.966C277.72 206.625 277.376 207.205 276.893 207.705C276.41 208.199 275.814 208.585 275.103 208.864C274.393 209.136 273.595 209.273 272.708 209.273ZM286.132 209.273C285.041 209.273 284.078 208.997 283.243 208.446C282.407 207.889 281.754 207.105 281.282 206.094C280.811 205.077 280.575 203.875 280.575 202.489C280.575 201.114 280.811 199.92 281.282 198.909C281.754 197.898 282.41 197.116 283.251 196.565C284.092 196.014 285.064 195.739 286.166 195.739C287.018 195.739 287.691 195.881 288.186 196.165C288.686 196.443 289.066 196.761 289.328 197.119C289.595 197.472 289.802 197.761 289.95 197.989H290.12V191.545H292.132V209H290.189V206.989H289.95C289.802 207.227 289.592 207.528 289.319 207.892C289.047 208.25 288.657 208.571 288.152 208.855C287.646 209.134 286.973 209.273 286.132 209.273ZM286.404 207.466C287.211 207.466 287.893 207.256 288.45 206.835C289.007 206.409 289.43 205.821 289.72 205.071C290.01 204.315 290.154 203.443 290.154 202.455C290.154 201.477 290.012 200.622 289.728 199.889C289.444 199.151 289.024 198.577 288.467 198.168C287.91 197.753 287.223 197.545 286.404 197.545C285.552 197.545 284.842 197.764 284.274 198.202C283.711 198.634 283.288 199.222 283.004 199.966C282.725 200.705 282.586 201.534 282.586 202.455C282.586 203.386 282.728 204.233 283.012 204.994C283.302 205.75 283.728 206.352 284.291 206.801C284.859 207.244 285.564 207.466 286.404 207.466Z" fill="#F5F5F7"/>
<g opacity="0.2" filter="url(#filter1_f_212_8)">
<line x1="470" y1="39" x2="470" y2="215" stroke="#F5F5F7" stroke-width="2" stroke-linecap="round"/>
</g>
<defs>
<filter id="filter1_f_212_8" x="468" y="37" width="4" height="180" filterUnits="userSpaceOnUse" color-interpolation-filters="sRGB">
<feFlood flood-opacity="0" result="BackgroundImageFix"/>
<feBlend mode="normal" in="SourceGraphic" in2="BackgroundImageFix" result="shape"/>
<feGaussianBlur stdDeviation="0.5" result="effect1_foregroundBlur_212_8"/>
</filter>
</defs>
</svg>
