<svg width="442" height="270" viewBox="0 0 442 270" fill="none" xmlns="http://www.w3.org/2000/svg">
<path d="M0 0H432C437.523 0 442 4.47715 442 10V260C442 265.523 437.523 270 432 270H0V0Z" fill="black" fill-opacity="0.01"/>
<path d="M162.455 72C161.955 70.4697 161.295 69.0985 160.477 67.8864C159.674 66.6591 158.712 65.6136 157.591 64.75C156.485 63.8864 155.227 63.2273 153.818 62.7727C152.409 62.3182 150.864 62.0909 149.182 62.0909C146.424 62.0909 143.917 62.803 141.659 64.2273C139.402 65.6515 137.606 67.75 136.273 70.5227C134.939 73.2955 134.273 76.697 134.273 80.7273C134.273 84.7576 134.947 88.1591 136.295 90.9318C137.644 93.7045 139.47 95.803 141.773 97.2273C144.076 98.6515 146.667 99.3636 149.545 99.3636C152.212 99.3636 154.561 98.7955 156.591 97.6591C158.636 96.5076 160.227 94.8864 161.364 92.7955C162.515 90.6894 163.091 88.2121 163.091 85.3636L164.818 85.7273H150.818V80.7273H168.545V85.7273C168.545 89.5606 167.727 92.8939 166.091 95.7273C164.47 98.5606 162.227 100.758 159.364 102.318C156.515 103.864 153.242 104.636 149.545 104.636C145.424 104.636 141.803 103.667 138.682 101.727C135.576 99.7879 133.152 97.0303 131.409 93.4545C129.682 89.8788 128.818 85.6364 128.818 80.7273C128.818 77.0455 129.311 73.7348 130.295 70.7955C131.295 67.8409 132.705 65.3258 134.523 63.25C136.341 61.1742 138.492 59.5833 140.977 58.4773C143.462 57.3712 146.197 56.8182 149.182 56.8182C151.636 56.8182 153.924 57.1894 156.045 57.9318C158.182 58.6591 160.083 59.697 161.75 61.0455C163.432 62.3788 164.833 63.9773 165.955 65.8409C167.076 67.6894 167.848 69.7424 168.273 72H162.455ZM182.835 57.4545V104H177.472V57.4545H182.835ZM206.841 104.727C203.689 104.727 200.924 103.977 198.545 102.477C196.182 100.977 194.333 98.8788 193 96.1818C191.682 93.4848 191.023 90.3333 191.023 86.7273C191.023 83.0909 191.682 79.9167 193 77.2045C194.333 74.4924 196.182 72.3864 198.545 70.8864C200.924 69.3864 203.689 68.6364 206.841 68.6364C209.992 68.6364 212.75 69.3864 215.114 70.8864C217.492 72.3864 219.341 74.4924 220.659 77.2045C221.992 79.9167 222.659 83.0909 222.659 86.7273C222.659 90.3333 221.992 93.4848 220.659 96.1818C219.341 98.8788 217.492 100.977 215.114 102.477C212.75 103.977 209.992 104.727 206.841 104.727ZM206.841 99.9091C209.235 99.9091 211.205 99.2955 212.75 98.0682C214.295 96.8409 215.439 95.2273 216.182 93.2273C216.924 91.2273 217.295 89.0606 217.295 86.7273C217.295 84.3939 216.924 82.2197 216.182 80.2045C215.439 78.1894 214.295 76.5606 212.75 75.3182C211.205 74.0758 209.235 73.4545 206.841 73.4545C204.447 73.4545 202.477 74.0758 200.932 75.3182C199.386 76.5606 198.242 78.1894 197.5 80.2045C196.758 82.2197 196.386 84.3939 196.386 86.7273C196.386 89.0606 196.758 91.2273 197.5 93.2273C198.242 95.2273 199.386 96.8409 200.932 98.0682C202.477 99.2955 204.447 99.9091 206.841 99.9091ZM231.574 104V57.4545H236.938V74.6364H237.392C237.786 74.0303 238.331 73.2576 239.028 72.3182C239.741 71.3636 240.756 70.5152 242.074 69.7727C243.407 69.0152 245.21 68.6364 247.483 68.6364C250.422 68.6364 253.013 69.3712 255.256 70.8409C257.498 72.3106 259.248 74.3939 260.506 77.0909C261.763 79.7879 262.392 82.9697 262.392 86.6364C262.392 90.3333 261.763 93.5379 260.506 96.25C259.248 98.947 257.506 101.038 255.278 102.523C253.051 103.992 250.483 104.727 247.574 104.727C245.331 104.727 243.536 104.356 242.188 103.614C240.839 102.856 239.801 102 239.074 101.045C238.347 100.076 237.786 99.2727 237.392 98.6364H236.756V104H231.574ZM236.847 86.5455C236.847 89.1818 237.233 91.5076 238.006 93.5227C238.778 95.5227 239.907 97.0909 241.392 98.2273C242.877 99.3485 244.695 99.9091 246.847 99.9091C249.089 99.9091 250.96 99.3182 252.46 98.1364C253.975 96.9394 255.112 95.3333 255.869 93.3182C256.642 91.2879 257.028 89.0303 257.028 86.5455C257.028 84.0909 256.65 81.8788 255.892 79.9091C255.15 77.9242 254.021 76.3561 252.506 75.2045C251.006 74.0379 249.119 73.4545 246.847 73.4545C244.665 73.4545 242.831 74.0076 241.347 75.1136C239.862 76.2045 238.741 77.7348 237.983 79.7045C237.225 81.6591 236.847 83.9394 236.847 86.5455ZM280.869 104.818C278.657 104.818 276.65 104.402 274.847 103.568C273.044 102.72 271.612 101.5 270.551 99.9091C269.491 98.303 268.96 96.3636 268.96 94.0909C268.96 92.0909 269.354 90.4697 270.142 89.2273C270.93 87.9697 271.983 86.9848 273.301 86.2727C274.619 85.5606 276.074 85.0303 277.665 84.6818C279.271 84.3182 280.884 84.0303 282.506 83.8182C284.627 83.5455 286.347 83.3409 287.665 83.2045C288.998 83.053 289.968 82.803 290.574 82.4545C291.195 82.1061 291.506 81.5 291.506 80.6364V80.4545C291.506 78.2121 290.892 76.4697 289.665 75.2273C288.453 73.9848 286.612 73.3636 284.142 73.3636C281.581 73.3636 279.574 73.9242 278.119 75.0455C276.665 76.1667 275.642 77.3636 275.051 78.6364L269.96 76.8182C270.869 74.697 272.081 73.0455 273.597 71.8636C275.127 70.6667 276.794 69.8333 278.597 69.3636C280.415 68.8788 282.203 68.6364 283.96 68.6364C285.081 68.6364 286.369 68.7727 287.824 69.0455C289.294 69.303 290.71 69.8409 292.074 70.6591C293.453 71.4773 294.597 72.7121 295.506 74.3636C296.415 76.0152 296.869 78.2273 296.869 81V104H291.506V99.2727H291.233C290.869 100.03 290.263 100.841 289.415 101.705C288.566 102.568 287.438 103.303 286.028 103.909C284.619 104.515 282.9 104.818 280.869 104.818ZM281.688 100C283.809 100 285.597 99.5833 287.051 98.75C288.521 97.9167 289.627 96.8409 290.369 95.5227C291.127 94.2045 291.506 92.8182 291.506 91.3636V86.4545C291.278 86.7273 290.778 86.9773 290.006 87.2045C289.248 87.4167 288.369 87.6061 287.369 87.7727C286.384 87.9242 285.422 88.0606 284.483 88.1818C283.559 88.2879 282.809 88.3788 282.233 88.4545C280.839 88.6364 279.536 88.9318 278.324 89.3409C277.127 89.7348 276.157 90.3333 275.415 91.1364C274.688 91.9242 274.324 93 274.324 94.3636C274.324 96.2273 275.013 97.6364 276.392 98.5909C277.786 99.5303 279.551 100 281.688 100ZM312.023 57.4545V104H306.659V57.4545H312.023Z" fill="#F5F5F7"/>
<path d="M160.88 171.273C160.88 173.114 160.548 174.705 159.883 176.045C159.218 177.386 158.306 178.42 157.147 179.148C155.988 179.875 154.664 180.239 153.175 180.239C151.687 180.239 150.363 179.875 149.204 179.148C148.045 178.42 147.133 177.386 146.468 176.045C145.803 174.705 145.471 173.114 145.471 171.273C145.471 169.432 145.803 167.841 146.468 166.5C147.133 165.159 148.045 164.125 149.204 163.398C150.363 162.67 151.687 162.307 153.175 162.307C154.664 162.307 155.988 162.67 157.147 163.398C158.306 164.125 159.218 165.159 159.883 166.5C160.548 167.841 160.88 169.432 160.88 171.273ZM158.835 171.273C158.835 169.761 158.582 168.486 158.076 167.446C157.576 166.406 156.897 165.619 156.039 165.085C155.187 164.551 154.232 164.284 153.175 164.284C152.119 164.284 151.161 164.551 150.303 165.085C149.451 165.619 148.772 166.406 148.266 167.446C147.766 168.486 147.516 169.761 147.516 171.273C147.516 172.784 147.766 174.06 148.266 175.099C148.772 176.139 149.451 176.926 150.303 177.46C151.161 177.994 152.119 178.261 153.175 178.261C154.232 178.261 155.187 177.994 156.039 177.46C156.897 176.926 157.576 176.139 158.076 175.099C158.582 174.06 158.835 172.784 158.835 171.273ZM164.161 184.909V166.909H166.104V168.989H166.343C166.491 168.761 166.695 168.472 166.957 168.119C167.224 167.761 167.604 167.443 168.099 167.165C168.599 166.881 169.275 166.739 170.127 166.739C171.229 166.739 172.201 167.014 173.042 167.565C173.883 168.116 174.539 168.898 175.011 169.909C175.482 170.92 175.718 172.114 175.718 173.489C175.718 174.875 175.482 176.077 175.011 177.094C174.539 178.105 173.886 178.889 173.05 179.446C172.215 179.997 171.252 180.273 170.161 180.273C169.32 180.273 168.647 180.134 168.141 179.855C167.636 179.571 167.246 179.25 166.974 178.892C166.701 178.528 166.491 178.227 166.343 177.989H166.173V184.909H164.161ZM166.138 173.455C166.138 174.443 166.283 175.315 166.573 176.071C166.863 176.821 167.286 177.409 167.843 177.835C168.4 178.256 169.082 178.466 169.888 178.466C170.729 178.466 171.431 178.244 171.994 177.801C172.562 177.352 172.988 176.75 173.272 175.994C173.562 175.233 173.707 174.386 173.707 173.455C173.707 172.534 173.565 171.705 173.281 170.966C173.002 170.222 172.579 169.634 172.011 169.202C171.448 168.764 170.741 168.545 169.888 168.545C169.07 168.545 168.383 168.753 167.826 169.168C167.269 169.577 166.849 170.151 166.565 170.889C166.281 171.622 166.138 172.477 166.138 173.455ZM178.786 184.909V166.909H180.729V168.989H180.968C181.116 168.761 181.32 168.472 181.582 168.119C181.849 167.761 182.229 167.443 182.724 167.165C183.224 166.881 183.9 166.739 184.752 166.739C185.854 166.739 186.826 167.014 187.667 167.565C188.508 168.116 189.164 168.898 189.636 169.909C190.107 170.92 190.343 172.114 190.343 173.489C190.343 174.875 190.107 176.077 189.636 177.094C189.164 178.105 188.511 178.889 187.675 179.446C186.84 179.997 185.877 180.273 184.786 180.273C183.945 180.273 183.272 180.134 182.766 179.855C182.261 179.571 181.871 179.25 181.599 178.892C181.326 178.528 181.116 178.227 180.968 177.989H180.798V184.909H178.786ZM180.763 173.455C180.763 174.443 180.908 175.315 181.198 176.071C181.488 176.821 181.911 177.409 182.468 177.835C183.025 178.256 183.707 178.466 184.513 178.466C185.354 178.466 186.056 178.244 186.619 177.801C187.187 177.352 187.613 176.75 187.897 175.994C188.187 175.233 188.332 174.386 188.332 173.455C188.332 172.534 188.19 171.705 187.906 170.966C187.627 170.222 187.204 169.634 186.636 169.202C186.073 168.764 185.366 168.545 184.513 168.545C183.695 168.545 183.008 168.753 182.451 169.168C181.894 169.577 181.474 170.151 181.19 170.889C180.906 171.622 180.763 172.477 180.763 173.455ZM198.729 180.273C197.548 180.273 196.511 179.991 195.619 179.429C194.732 178.866 194.039 178.08 193.539 177.068C193.045 176.057 192.798 174.875 192.798 173.523C192.798 172.159 193.045 170.969 193.539 169.952C194.039 168.935 194.732 168.145 195.619 167.582C196.511 167.02 197.548 166.739 198.729 166.739C199.911 166.739 200.945 167.02 201.832 167.582C202.724 168.145 203.417 168.935 203.911 169.952C204.411 170.969 204.661 172.159 204.661 173.523C204.661 174.875 204.411 176.057 203.911 177.068C203.417 178.08 202.724 178.866 201.832 179.429C200.945 179.991 199.911 180.273 198.729 180.273ZM198.729 178.466C199.627 178.466 200.366 178.236 200.945 177.776C201.525 177.315 201.954 176.71 202.232 175.96C202.511 175.21 202.65 174.398 202.65 173.523C202.65 172.648 202.511 171.832 202.232 171.077C201.954 170.321 201.525 169.71 200.945 169.244C200.366 168.778 199.627 168.545 198.729 168.545C197.832 168.545 197.093 168.778 196.513 169.244C195.934 169.71 195.505 170.321 195.227 171.077C194.948 171.832 194.809 172.648 194.809 173.523C194.809 174.398 194.948 175.21 195.227 175.96C195.505 176.71 195.934 177.315 196.513 177.776C197.093 178.236 197.832 178.466 198.729 178.466ZM207.732 180V166.909H209.675V168.886H209.811C210.05 168.239 210.482 167.713 211.107 167.31C211.732 166.906 212.436 166.705 213.22 166.705C213.368 166.705 213.553 166.707 213.774 166.713C213.996 166.719 214.163 166.727 214.277 166.739V168.784C214.209 168.767 214.053 168.741 213.808 168.707C213.57 168.668 213.317 168.648 213.05 168.648C212.413 168.648 211.845 168.781 211.345 169.048C210.851 169.31 210.459 169.673 210.169 170.139C209.885 170.599 209.743 171.125 209.743 171.716V180H207.732ZM223.175 166.909V168.614H216.391V166.909H223.175ZM218.368 163.773H220.379V176.25C220.379 176.818 220.462 177.244 220.626 177.528C220.797 177.807 221.013 177.994 221.274 178.091C221.541 178.182 221.822 178.227 222.118 178.227C222.339 178.227 222.521 178.216 222.663 178.193C222.805 178.165 222.919 178.142 223.004 178.125L223.413 179.932C223.277 179.983 223.087 180.034 222.842 180.085C222.598 180.142 222.288 180.17 221.913 180.17C221.345 180.17 220.788 180.048 220.243 179.804C219.703 179.56 219.254 179.188 218.896 178.688C218.544 178.188 218.368 177.557 218.368 176.795V163.773ZM234.45 174.648V166.909H236.462V180H234.45V177.784H234.314C234.007 178.449 233.53 179.014 232.882 179.48C232.234 179.94 231.416 180.17 230.428 180.17C229.609 180.17 228.882 179.991 228.246 179.634C227.609 179.27 227.109 178.724 226.746 177.997C226.382 177.264 226.2 176.341 226.2 175.227V166.909H228.212V175.091C228.212 176.045 228.479 176.807 229.013 177.375C229.553 177.943 230.24 178.227 231.075 178.227C231.575 178.227 232.084 178.099 232.601 177.844C233.124 177.588 233.561 177.196 233.913 176.668C234.271 176.139 234.45 175.466 234.45 174.648ZM242.157 172.125V180H240.146V166.909H242.089V168.955H242.259C242.566 168.29 243.032 167.756 243.657 167.352C244.282 166.943 245.089 166.739 246.077 166.739C246.964 166.739 247.739 166.92 248.404 167.284C249.069 167.642 249.586 168.188 249.955 168.92C250.325 169.648 250.509 170.568 250.509 171.682V180H248.498V171.818C248.498 170.79 248.231 169.989 247.697 169.415C247.163 168.835 246.43 168.545 245.498 168.545C244.856 168.545 244.282 168.685 243.776 168.963C243.276 169.241 242.881 169.648 242.592 170.182C242.302 170.716 242.157 171.364 242.157 172.125ZM254.185 180V166.909H256.196V180H254.185ZM255.207 164.727C254.815 164.727 254.477 164.594 254.193 164.327C253.915 164.06 253.776 163.739 253.776 163.364C253.776 162.989 253.915 162.668 254.193 162.401C254.477 162.134 254.815 162 255.207 162C255.599 162 255.935 162.134 256.213 162.401C256.497 162.668 256.639 162.989 256.639 163.364C256.639 163.739 256.497 164.06 256.213 164.327C255.935 164.594 255.599 164.727 255.207 164.727ZM265.573 166.909V168.614H258.789V166.909H265.573ZM260.766 163.773H262.778V176.25C262.778 176.818 262.86 177.244 263.025 177.528C263.195 177.807 263.411 177.994 263.673 178.091C263.94 178.182 264.221 178.227 264.516 178.227C264.738 178.227 264.92 178.216 265.062 178.193C265.204 178.165 265.317 178.142 265.403 178.125L265.812 179.932C265.675 179.983 265.485 180.034 265.241 180.085C264.996 180.142 264.687 180.17 264.312 180.17C263.744 180.17 263.187 180.048 262.641 179.804C262.102 179.56 261.653 179.188 261.295 178.688C260.942 178.188 260.766 177.557 260.766 176.795V163.773ZM268.599 180V166.909H270.61V180H268.599ZM269.621 164.727C269.229 164.727 268.891 164.594 268.607 164.327C268.329 164.06 268.19 163.739 268.19 163.364C268.19 162.989 268.329 162.668 268.607 162.401C268.891 162.134 269.229 162 269.621 162C270.013 162 270.349 162.134 270.627 162.401C270.911 162.668 271.053 162.989 271.053 163.364C271.053 163.739 270.911 164.06 270.627 164.327C270.349 164.594 270.013 164.727 269.621 164.727ZM279.783 180.273C278.521 180.273 277.433 179.994 276.518 179.438C275.609 178.875 274.908 178.091 274.413 177.085C273.925 176.074 273.68 174.898 273.68 173.557C273.68 172.216 273.925 171.034 274.413 170.011C274.908 168.983 275.595 168.182 276.476 167.608C277.362 167.028 278.396 166.739 279.578 166.739C280.26 166.739 280.933 166.852 281.598 167.08C282.263 167.307 282.868 167.676 283.413 168.188C283.959 168.693 284.393 169.364 284.717 170.199C285.041 171.034 285.203 172.062 285.203 173.284V174.136H275.112V172.398H283.158C283.158 171.659 283.01 171 282.714 170.42C282.425 169.841 282.01 169.384 281.47 169.048C280.936 168.713 280.305 168.545 279.578 168.545C278.777 168.545 278.084 168.744 277.499 169.142C276.919 169.534 276.473 170.045 276.161 170.676C275.848 171.307 275.692 171.983 275.692 172.705V173.864C275.692 174.852 275.862 175.69 276.203 176.378C276.55 177.06 277.03 177.58 277.643 177.938C278.257 178.29 278.97 178.466 279.783 178.466C280.311 178.466 280.788 178.392 281.214 178.244C281.646 178.091 282.018 177.864 282.331 177.562C282.643 177.256 282.885 176.875 283.055 176.42L284.999 176.966C284.794 177.625 284.45 178.205 283.967 178.705C283.484 179.199 282.888 179.585 282.178 179.864C281.467 180.136 280.669 180.273 279.783 180.273ZM297.536 169.841L295.729 170.352C295.615 170.051 295.447 169.759 295.226 169.474C295.01 169.185 294.714 168.946 294.339 168.759C293.964 168.571 293.484 168.477 292.899 168.477C292.098 168.477 291.43 168.662 290.896 169.031C290.368 169.395 290.104 169.858 290.104 170.42C290.104 170.92 290.286 171.315 290.649 171.605C291.013 171.895 291.581 172.136 292.354 172.33L294.297 172.807C295.467 173.091 296.339 173.526 296.913 174.111C297.487 174.69 297.774 175.437 297.774 176.352C297.774 177.102 297.558 177.773 297.126 178.364C296.7 178.955 296.104 179.42 295.337 179.761C294.57 180.102 293.678 180.273 292.661 180.273C291.325 180.273 290.22 179.983 289.345 179.403C288.47 178.824 287.916 177.977 287.683 176.864L289.592 176.386C289.774 177.091 290.118 177.619 290.624 177.972C291.135 178.324 291.803 178.5 292.626 178.5C293.564 178.5 294.308 178.301 294.859 177.903C295.416 177.5 295.695 177.017 295.695 176.455C295.695 176 295.536 175.619 295.217 175.312C294.899 175 294.411 174.767 293.751 174.614L291.57 174.102C290.371 173.818 289.49 173.378 288.928 172.781C288.371 172.179 288.092 171.426 288.092 170.523C288.092 169.784 288.3 169.131 288.714 168.562C289.135 167.994 289.706 167.548 290.428 167.224C291.155 166.901 291.979 166.739 292.899 166.739C294.195 166.739 295.212 167.023 295.95 167.591C296.695 168.159 297.223 168.909 297.536 169.841ZM167.819 209L163.83 195.909H165.944L168.773 205.932H168.909L171.705 195.909H173.853L176.614 205.898H176.75L179.58 195.909H181.694L177.705 209H175.728L172.864 198.943H172.659L169.796 209H167.819ZM189.225 209.273C188.044 209.273 187.007 208.991 186.115 208.429C185.228 207.866 184.535 207.08 184.035 206.068C183.541 205.057 183.294 203.875 183.294 202.523C183.294 201.159 183.541 199.969 184.035 198.952C184.535 197.935 185.228 197.145 186.115 196.582C187.007 196.02 188.044 195.739 189.225 195.739C190.407 195.739 191.441 196.02 192.328 196.582C193.22 197.145 193.913 197.935 194.407 198.952C194.907 199.969 195.157 201.159 195.157 202.523C195.157 203.875 194.907 205.057 194.407 206.068C193.913 207.08 193.22 207.866 192.328 208.429C191.441 208.991 190.407 209.273 189.225 209.273ZM189.225 207.466C190.123 207.466 190.862 207.236 191.441 206.776C192.021 206.315 192.45 205.71 192.728 204.96C193.007 204.21 193.146 203.398 193.146 202.523C193.146 201.648 193.007 200.832 192.728 200.077C192.45 199.321 192.021 198.71 191.441 198.244C190.862 197.778 190.123 197.545 189.225 197.545C188.328 197.545 187.589 197.778 187.01 198.244C186.43 198.71 186.001 199.321 185.723 200.077C185.444 200.832 185.305 201.648 185.305 202.523C185.305 203.398 185.444 204.21 185.723 204.96C186.001 205.71 186.43 206.315 187.01 206.776C187.589 207.236 188.328 207.466 189.225 207.466ZM198.228 209V195.909H200.171V197.886H200.307C200.546 197.239 200.978 196.713 201.603 196.31C202.228 195.906 202.932 195.705 203.716 195.705C203.864 195.705 204.049 195.707 204.27 195.713C204.492 195.719 204.659 195.727 204.773 195.739V197.784C204.705 197.767 204.549 197.741 204.304 197.707C204.066 197.668 203.813 197.648 203.546 197.648C202.909 197.648 202.341 197.781 201.841 198.048C201.347 198.31 200.955 198.673 200.665 199.139C200.381 199.599 200.239 200.125 200.239 200.716V209H198.228ZM209.169 191.545V209H207.157V191.545H209.169ZM217.796 209.273C216.705 209.273 215.742 208.997 214.907 208.446C214.071 207.889 213.418 207.105 212.946 206.094C212.475 205.077 212.239 203.875 212.239 202.489C212.239 201.114 212.475 199.92 212.946 198.909C213.418 197.898 214.074 197.116 214.915 196.565C215.756 196.014 216.728 195.739 217.83 195.739C218.682 195.739 219.355 195.881 219.85 196.165C220.35 196.443 220.73 196.761 220.992 197.119C221.259 197.472 221.466 197.761 221.614 197.989H221.784V191.545H223.796V209H221.853V206.989H221.614C221.466 207.227 221.256 207.528 220.983 207.892C220.711 208.25 220.321 208.571 219.816 208.855C219.31 209.134 218.637 209.273 217.796 209.273ZM218.069 207.466C218.875 207.466 219.557 207.256 220.114 206.835C220.671 206.409 221.094 205.821 221.384 205.071C221.674 204.315 221.819 203.443 221.819 202.455C221.819 201.477 221.676 200.622 221.392 199.889C221.108 199.151 220.688 198.577 220.131 198.168C219.574 197.753 218.887 197.545 218.069 197.545C217.216 197.545 216.506 197.764 215.938 198.202C215.375 198.634 214.952 199.222 214.668 199.966C214.39 200.705 214.25 201.534 214.25 202.455C214.25 203.386 214.392 204.233 214.676 204.994C214.966 205.75 215.392 206.352 215.955 206.801C216.523 207.244 217.228 207.466 218.069 207.466ZM230.725 209L226.736 195.909H228.85L231.679 205.932H231.816L234.611 195.909H236.759L239.52 205.898H239.657L242.486 195.909H244.6L240.611 209H238.634L235.77 198.943H235.566L232.702 209H230.725ZM247.259 209V195.909H249.27V209H247.259ZM248.282 193.727C247.89 193.727 247.551 193.594 247.267 193.327C246.989 193.06 246.85 192.739 246.85 192.364C246.85 191.989 246.989 191.668 247.267 191.401C247.551 191.134 247.89 191 248.282 191C248.674 191 249.009 191.134 249.287 191.401C249.571 191.668 249.713 191.989 249.713 192.364C249.713 192.739 249.571 193.06 249.287 193.327C249.009 193.594 248.674 193.727 248.282 193.727ZM257.897 209.273C256.806 209.273 255.843 208.997 255.008 208.446C254.173 207.889 253.52 207.105 253.048 206.094C252.576 205.077 252.341 203.875 252.341 202.489C252.341 201.114 252.576 199.92 253.048 198.909C253.52 197.898 254.176 197.116 255.017 196.565C255.858 196.014 256.829 195.739 257.931 195.739C258.784 195.739 259.457 195.881 259.951 196.165C260.451 196.443 260.832 196.761 261.093 197.119C261.36 197.472 261.568 197.761 261.716 197.989H261.886V191.545H263.897V209H261.954V206.989H261.716C261.568 207.227 261.358 207.528 261.085 207.892C260.812 208.25 260.423 208.571 259.917 208.855C259.412 209.134 258.738 209.273 257.897 209.273ZM258.17 207.466C258.977 207.466 259.659 207.256 260.216 206.835C260.772 206.409 261.196 205.821 261.485 205.071C261.775 204.315 261.92 203.443 261.92 202.455C261.92 201.477 261.778 200.622 261.494 199.889C261.21 199.151 260.789 198.577 260.233 198.168C259.676 197.753 258.988 197.545 258.17 197.545C257.318 197.545 256.608 197.764 256.039 198.202C255.477 198.634 255.054 199.222 254.77 199.966C254.491 200.705 254.352 201.534 254.352 202.455C254.352 203.386 254.494 204.233 254.778 204.994C255.068 205.75 255.494 206.352 256.056 206.801C256.625 207.244 257.329 207.466 258.17 207.466ZM273.349 209.273C272.088 209.273 271 208.994 270.085 208.438C269.176 207.875 268.474 207.091 267.98 206.085C267.491 205.074 267.247 203.898 267.247 202.557C267.247 201.216 267.491 200.034 267.98 199.011C268.474 197.983 269.162 197.182 270.042 196.608C270.929 196.028 271.963 195.739 273.145 195.739C273.826 195.739 274.5 195.852 275.164 196.08C275.829 196.307 276.434 196.676 276.98 197.188C277.525 197.693 277.96 198.364 278.284 199.199C278.608 200.034 278.77 201.062 278.77 202.284V203.136H268.679V201.398H276.724C276.724 200.659 276.576 200 276.281 199.42C275.991 198.841 275.576 198.384 275.037 198.048C274.502 197.713 273.872 197.545 273.145 197.545C272.343 197.545 271.65 197.744 271.065 198.142C270.485 198.534 270.039 199.045 269.727 199.676C269.414 200.307 269.258 200.983 269.258 201.705V202.864C269.258 203.852 269.429 204.69 269.77 205.378C270.116 206.06 270.596 206.58 271.21 206.938C271.824 207.29 272.537 207.466 273.349 207.466C273.877 207.466 274.355 207.392 274.781 207.244C275.213 207.091 275.585 206.864 275.897 206.562C276.21 206.256 276.451 205.875 276.622 205.42L278.565 205.966C278.36 206.625 278.017 207.205 277.534 207.705C277.051 208.199 276.454 208.585 275.744 208.864C275.034 209.136 274.235 209.273 273.349 209.273Z" fill="#F5F5F7"/>
</svg>
