<svg width="1860" height="254" viewBox="0 0 1860 254" fill="none" xmlns="http://www.w3.org/2000/svg">
<rect width="1860" height="254" rx="20" fill="black" fill-opacity="0.01"/>
<path d="M146.182 55.9545V102.5H140.545V61.8636H140.273L128.909 69.4091V63.6818L140.545 55.9545H146.182ZM174.114 103.136C171.447 103.136 169.045 102.606 166.909 101.545C164.773 100.485 163.061 99.0303 161.773 97.1818C160.485 95.3333 159.78 93.2273 159.659 90.8636H165.114C165.326 92.9697 166.28 94.7121 167.977 96.0909C169.689 97.4545 171.735 98.1364 174.114 98.1364C176.023 98.1364 177.72 97.6894 179.205 96.7955C180.705 95.9015 181.879 94.6742 182.727 93.1136C183.591 91.5379 184.023 89.7576 184.023 87.7727C184.023 85.7424 183.576 83.9318 182.682 82.3409C181.803 80.7348 180.591 79.4697 179.045 78.5455C177.5 77.6212 175.735 77.1515 173.75 77.1364C172.326 77.1212 170.864 77.3409 169.364 77.7955C167.864 78.2348 166.629 78.803 165.659 79.5L160.386 78.8636L163.205 55.9545H187.386V60.9545H167.932L166.295 74.6818H166.568C167.523 73.9242 168.72 73.2955 170.159 72.7955C171.598 72.2955 173.098 72.0455 174.659 72.0455C177.508 72.0455 180.045 72.7273 182.273 74.0909C184.515 75.4394 186.273 77.2879 187.545 79.6364C188.833 81.9848 189.477 84.6667 189.477 87.6818C189.477 90.6515 188.811 93.303 187.477 95.6364C186.159 97.9545 184.341 99.7879 182.023 101.136C179.705 102.47 177.068 103.136 174.114 103.136ZM213.688 103.136C210.263 103.136 207.347 102.205 204.938 100.341C202.528 98.4621 200.688 95.7424 199.415 92.1818C198.142 88.6061 197.506 84.2879 197.506 79.2273C197.506 74.197 198.142 69.9015 199.415 66.3409C200.703 62.7652 202.551 60.0379 204.96 58.1591C207.384 56.2651 210.294 55.3182 213.688 55.3182C217.081 55.3182 219.983 56.2651 222.392 58.1591C224.816 60.0379 226.665 62.7652 227.938 66.3409C229.225 69.9015 229.869 74.197 229.869 79.2273C229.869 84.2879 229.233 88.6061 227.96 92.1818C226.688 95.7424 224.847 98.4621 222.438 100.341C220.028 102.205 217.112 103.136 213.688 103.136ZM213.688 98.1364C217.081 98.1364 219.718 96.5 221.597 93.2273C223.475 89.9545 224.415 85.2879 224.415 79.2273C224.415 75.197 223.983 71.7652 223.119 68.9318C222.271 66.0985 221.044 63.9394 219.438 62.4545C217.847 60.9697 215.93 60.2273 213.688 60.2273C210.324 60.2273 207.695 61.8864 205.801 65.2045C203.907 68.5076 202.96 73.1818 202.96 79.2273C202.96 83.2576 203.384 86.6818 204.233 89.5C205.081 92.3182 206.301 94.4621 207.892 95.9318C209.498 97.4015 211.43 98.1364 213.688 98.1364ZM252.233 94.3182V64.3182H257.324V94.3182H252.233ZM239.778 81.8636V76.7727H269.778V81.8636H239.778Z" fill="#F5F5F7"/>
<path d="M160.761 178.773C159.533 178.773 158.477 178.483 157.59 177.903C156.704 177.324 156.022 176.526 155.545 175.509C155.067 174.491 154.829 173.33 154.829 172.023C154.829 170.693 155.073 169.52 155.562 168.503C156.056 167.48 156.744 166.682 157.624 166.108C158.511 165.528 159.545 165.239 160.727 165.239C161.647 165.239 162.477 165.409 163.215 165.75C163.954 166.091 164.559 166.568 165.031 167.182C165.502 167.795 165.795 168.511 165.908 169.33H163.897C163.744 168.733 163.403 168.205 162.874 167.744C162.352 167.278 161.647 167.045 160.761 167.045C159.977 167.045 159.289 167.25 158.698 167.659C158.113 168.062 157.656 168.634 157.326 169.372C157.002 170.105 156.84 170.966 156.84 171.955C156.84 172.966 156.999 173.847 157.317 174.597C157.641 175.347 158.096 175.929 158.681 176.344C159.272 176.759 159.965 176.966 160.761 176.966C161.283 176.966 161.758 176.875 162.184 176.693C162.61 176.511 162.971 176.25 163.266 175.909C163.562 175.568 163.772 175.159 163.897 174.682H165.908C165.795 175.455 165.513 176.151 165.065 176.77C164.621 177.384 164.033 177.872 163.3 178.236C162.573 178.594 161.727 178.773 160.761 178.773ZM168.849 178.5V165.409H170.792V167.386H170.928C171.167 166.739 171.599 166.213 172.224 165.81C172.849 165.406 173.553 165.205 174.337 165.205C174.485 165.205 174.67 165.207 174.891 165.213C175.113 165.219 175.281 165.227 175.394 165.239V167.284C175.326 167.267 175.17 167.241 174.925 167.207C174.687 167.168 174.434 167.148 174.167 167.148C173.531 167.148 172.962 167.281 172.462 167.548C171.968 167.81 171.576 168.173 171.286 168.639C171.002 169.099 170.86 169.625 170.86 170.216V178.5H168.849ZM182.869 178.773C181.607 178.773 180.519 178.494 179.604 177.938C178.695 177.375 177.994 176.591 177.499 175.585C177.011 174.574 176.766 173.398 176.766 172.057C176.766 170.716 177.011 169.534 177.499 168.511C177.994 167.483 178.681 166.682 179.562 166.108C180.448 165.528 181.482 165.239 182.664 165.239C183.346 165.239 184.019 165.352 184.684 165.58C185.349 165.807 185.954 166.176 186.499 166.688C187.045 167.193 187.479 167.864 187.803 168.699C188.127 169.534 188.289 170.562 188.289 171.784V172.636H178.198V170.898H186.244C186.244 170.159 186.096 169.5 185.8 168.92C185.511 168.341 185.096 167.884 184.556 167.548C184.022 167.213 183.391 167.045 182.664 167.045C181.863 167.045 181.17 167.244 180.585 167.642C180.005 168.034 179.559 168.545 179.246 169.176C178.934 169.807 178.778 170.483 178.778 171.205V172.364C178.778 173.352 178.948 174.19 179.289 174.878C179.636 175.56 180.116 176.08 180.729 176.438C181.343 176.79 182.056 176.966 182.869 176.966C183.397 176.966 183.874 176.892 184.3 176.744C184.732 176.591 185.104 176.364 185.417 176.062C185.729 175.756 185.971 175.375 186.141 174.92L188.085 175.466C187.88 176.125 187.536 176.705 187.053 177.205C186.57 177.699 185.974 178.085 185.263 178.364C184.553 178.636 183.755 178.773 182.869 178.773ZM195.201 178.807C194.371 178.807 193.619 178.651 192.942 178.338C192.266 178.02 191.729 177.562 191.332 176.966C190.934 176.364 190.735 175.636 190.735 174.784C190.735 174.034 190.883 173.426 191.178 172.96C191.474 172.489 191.869 172.119 192.363 171.852C192.857 171.585 193.403 171.386 193.999 171.256C194.602 171.119 195.207 171.011 195.815 170.932C196.61 170.83 197.255 170.753 197.749 170.702C198.249 170.645 198.613 170.551 198.84 170.42C199.073 170.29 199.19 170.062 199.19 169.739V169.67C199.19 168.83 198.96 168.176 198.499 167.71C198.045 167.244 197.354 167.011 196.428 167.011C195.468 167.011 194.715 167.222 194.17 167.642C193.624 168.062 193.241 168.511 193.019 168.989L191.11 168.307C191.451 167.511 191.906 166.892 192.474 166.449C193.048 166 193.673 165.687 194.349 165.511C195.031 165.33 195.701 165.239 196.36 165.239C196.781 165.239 197.263 165.29 197.809 165.392C198.36 165.489 198.891 165.69 199.403 165.997C199.92 166.304 200.349 166.767 200.69 167.386C201.031 168.006 201.201 168.835 201.201 169.875V178.5H199.19V176.727H199.087C198.951 177.011 198.724 177.315 198.406 177.639C198.087 177.963 197.664 178.239 197.136 178.466C196.607 178.693 195.962 178.807 195.201 178.807ZM195.508 177C196.303 177 196.974 176.844 197.519 176.531C198.07 176.219 198.485 175.815 198.763 175.321C199.048 174.827 199.19 174.307 199.19 173.761V171.92C199.104 172.023 198.917 172.116 198.627 172.202C198.343 172.281 198.013 172.352 197.638 172.415C197.269 172.472 196.908 172.523 196.556 172.568C196.21 172.608 195.928 172.642 195.712 172.67C195.19 172.739 194.701 172.849 194.246 173.003C193.798 173.151 193.434 173.375 193.156 173.676C192.883 173.972 192.746 174.375 192.746 174.886C192.746 175.585 193.005 176.114 193.522 176.472C194.045 176.824 194.707 177 195.508 177ZM210.565 165.409V167.114H203.781V165.409H210.565ZM205.759 162.273H207.77V174.75C207.77 175.318 207.852 175.744 208.017 176.028C208.188 176.307 208.403 176.494 208.665 176.591C208.932 176.682 209.213 176.727 209.509 176.727C209.73 176.727 209.912 176.716 210.054 176.693C210.196 176.665 210.31 176.642 210.395 176.625L210.804 178.432C210.668 178.483 210.477 178.534 210.233 178.585C209.989 178.642 209.679 178.67 209.304 178.67C208.736 178.67 208.179 178.548 207.634 178.304C207.094 178.06 206.645 177.688 206.287 177.188C205.935 176.688 205.759 176.057 205.759 175.295V162.273ZM218.768 178.773C217.587 178.773 216.55 178.491 215.658 177.929C214.771 177.366 214.078 176.58 213.578 175.568C213.084 174.557 212.837 173.375 212.837 172.023C212.837 170.659 213.084 169.469 213.578 168.452C214.078 167.435 214.771 166.645 215.658 166.082C216.55 165.52 217.587 165.239 218.768 165.239C219.95 165.239 220.984 165.52 221.871 166.082C222.763 166.645 223.456 167.435 223.95 168.452C224.45 169.469 224.7 170.659 224.7 172.023C224.7 173.375 224.45 174.557 223.95 175.568C223.456 176.58 222.763 177.366 221.871 177.929C220.984 178.491 219.95 178.773 218.768 178.773ZM218.768 176.966C219.666 176.966 220.405 176.736 220.984 176.276C221.564 175.815 221.993 175.21 222.271 174.46C222.55 173.71 222.689 172.898 222.689 172.023C222.689 171.148 222.55 170.332 222.271 169.577C221.993 168.821 221.564 168.21 220.984 167.744C220.405 167.278 219.666 167.045 218.768 167.045C217.871 167.045 217.132 167.278 216.553 167.744C215.973 168.21 215.544 168.821 215.266 169.577C214.987 170.332 214.848 171.148 214.848 172.023C214.848 172.898 214.987 173.71 215.266 174.46C215.544 175.21 215.973 175.815 216.553 176.276C217.132 176.736 217.871 176.966 218.768 176.966ZM227.771 178.5V165.409H229.714V167.386H229.85C230.089 166.739 230.521 166.213 231.146 165.81C231.771 165.406 232.475 165.205 233.259 165.205C233.407 165.205 233.592 165.207 233.813 165.213C234.035 165.219 234.202 165.227 234.316 165.239V167.284C234.248 167.267 234.092 167.241 233.847 167.207C233.609 167.168 233.356 167.148 233.089 167.148C232.452 167.148 231.884 167.281 231.384 167.548C230.89 167.81 230.498 168.173 230.208 168.639C229.924 169.099 229.782 169.625 229.782 170.216V178.5H227.771ZM245.973 168.341L244.166 168.852C244.053 168.551 243.885 168.259 243.663 167.974C243.447 167.685 243.152 167.446 242.777 167.259C242.402 167.071 241.922 166.977 241.337 166.977C240.536 166.977 239.868 167.162 239.334 167.531C238.805 167.895 238.541 168.358 238.541 168.92C238.541 169.42 238.723 169.815 239.087 170.105C239.45 170.395 240.018 170.636 240.791 170.83L242.734 171.307C243.905 171.591 244.777 172.026 245.351 172.611C245.925 173.19 246.212 173.937 246.212 174.852C246.212 175.602 245.996 176.273 245.564 176.864C245.138 177.455 244.541 177.92 243.774 178.261C243.007 178.602 242.115 178.773 241.098 178.773C239.763 178.773 238.658 178.483 237.783 177.903C236.908 177.324 236.354 176.477 236.121 175.364L238.03 174.886C238.212 175.591 238.555 176.119 239.061 176.472C239.572 176.824 240.24 177 241.064 177C242.001 177 242.746 176.801 243.297 176.403C243.854 176 244.132 175.517 244.132 174.955C244.132 174.5 243.973 174.119 243.655 173.812C243.337 173.5 242.848 173.267 242.189 173.114L240.007 172.602C238.808 172.318 237.928 171.878 237.365 171.281C236.808 170.679 236.53 169.926 236.53 169.023C236.53 168.284 236.737 167.631 237.152 167.062C237.572 166.494 238.143 166.048 238.865 165.724C239.592 165.401 240.416 165.239 241.337 165.239C242.632 165.239 243.649 165.523 244.388 166.091C245.132 166.659 245.661 167.409 245.973 168.341ZM147.858 207.773C146.767 207.773 145.804 207.497 144.969 206.946C144.134 206.389 143.48 205.605 143.009 204.594C142.537 203.577 142.301 202.375 142.301 200.989C142.301 199.614 142.537 198.42 143.009 197.409C143.48 196.398 144.137 195.616 144.978 195.065C145.819 194.514 146.79 194.239 147.892 194.239C148.745 194.239 149.418 194.381 149.912 194.665C150.412 194.943 150.793 195.261 151.054 195.619C151.321 195.972 151.529 196.261 151.676 196.489H151.847V190.045H153.858V207.5H151.915V205.489H151.676C151.529 205.727 151.319 206.028 151.046 206.392C150.773 206.75 150.384 207.071 149.878 207.355C149.373 207.634 148.699 207.773 147.858 207.773ZM148.131 205.966C148.938 205.966 149.62 205.756 150.176 205.335C150.733 204.909 151.157 204.321 151.446 203.571C151.736 202.815 151.881 201.943 151.881 200.955C151.881 199.977 151.739 199.122 151.455 198.389C151.171 197.651 150.75 197.077 150.194 196.668C149.637 196.253 148.949 196.045 148.131 196.045C147.279 196.045 146.569 196.264 146 196.702C145.438 197.134 145.015 197.722 144.73 198.466C144.452 199.205 144.313 200.034 144.313 200.955C144.313 201.886 144.455 202.733 144.739 203.494C145.029 204.25 145.455 204.852 146.017 205.301C146.586 205.744 147.29 205.966 148.131 205.966ZM163.31 207.773C162.049 207.773 160.961 207.494 160.046 206.938C159.137 206.375 158.435 205.591 157.941 204.585C157.452 203.574 157.208 202.398 157.208 201.057C157.208 199.716 157.452 198.534 157.941 197.511C158.435 196.483 159.123 195.682 160.003 195.108C160.89 194.528 161.924 194.239 163.105 194.239C163.787 194.239 164.461 194.352 165.125 194.58C165.79 194.807 166.395 195.176 166.941 195.688C167.486 196.193 167.921 196.864 168.245 197.699C168.569 198.534 168.73 199.562 168.73 200.784V201.636H158.64V199.898H166.685C166.685 199.159 166.537 198.5 166.242 197.92C165.952 197.341 165.537 196.884 164.998 196.548C164.463 196.213 163.833 196.045 163.105 196.045C162.304 196.045 161.611 196.244 161.026 196.642C160.446 197.034 160 197.545 159.688 198.176C159.375 198.807 159.219 199.483 159.219 200.205V201.364C159.219 202.352 159.39 203.19 159.73 203.878C160.077 204.56 160.557 205.08 161.171 205.438C161.784 205.79 162.498 205.966 163.31 205.966C163.838 205.966 164.316 205.892 164.742 205.744C165.174 205.591 165.546 205.364 165.858 205.062C166.171 204.756 166.412 204.375 166.583 203.92L168.526 204.466C168.321 205.125 167.978 205.705 167.495 206.205C167.012 206.699 166.415 207.085 165.705 207.364C164.995 207.636 164.196 207.773 163.31 207.773ZM182.096 194.409L177.255 207.5H175.21L170.369 194.409H172.551L176.164 204.841H176.301L179.914 194.409H182.096ZM189.771 207.773C188.51 207.773 187.422 207.494 186.507 206.938C185.598 206.375 184.896 205.591 184.402 204.585C183.913 203.574 183.669 202.398 183.669 201.057C183.669 199.716 183.913 198.534 184.402 197.511C184.896 196.483 185.583 195.682 186.464 195.108C187.35 194.528 188.385 194.239 189.566 194.239C190.248 194.239 190.922 194.352 191.586 194.58C192.251 194.807 192.856 195.176 193.402 195.688C193.947 196.193 194.382 196.864 194.706 197.699C195.029 198.534 195.191 199.562 195.191 200.784V201.636H185.1V199.898H193.146C193.146 199.159 192.998 198.5 192.703 197.92C192.413 197.341 191.998 196.884 191.458 196.548C190.924 196.213 190.294 196.045 189.566 196.045C188.765 196.045 188.072 196.244 187.487 196.642C186.907 197.034 186.461 197.545 186.149 198.176C185.836 198.807 185.68 199.483 185.68 200.205V201.364C185.68 202.352 185.85 203.19 186.191 203.878C186.538 204.56 187.018 205.08 187.632 205.438C188.245 205.79 188.958 205.966 189.771 205.966C190.299 205.966 190.777 205.892 191.203 205.744C191.635 205.591 192.007 205.364 192.319 205.062C192.632 204.756 192.873 204.375 193.044 203.92L194.987 204.466C194.782 205.125 194.439 205.705 193.956 206.205C193.473 206.699 192.876 207.085 192.166 207.364C191.456 207.636 190.657 207.773 189.771 207.773ZM200.262 190.045V207.5H198.251V190.045H200.262ZM209.265 207.773C208.083 207.773 207.046 207.491 206.154 206.929C205.267 206.366 204.574 205.58 204.074 204.568C203.58 203.557 203.333 202.375 203.333 201.023C203.333 199.659 203.58 198.469 204.074 197.452C204.574 196.435 205.267 195.645 206.154 195.082C207.046 194.52 208.083 194.239 209.265 194.239C210.446 194.239 211.48 194.52 212.367 195.082C213.259 195.645 213.952 196.435 214.446 197.452C214.946 198.469 215.196 199.659 215.196 201.023C215.196 202.375 214.946 203.557 214.446 204.568C213.952 205.58 213.259 206.366 212.367 206.929C211.48 207.491 210.446 207.773 209.265 207.773ZM209.265 205.966C210.162 205.966 210.901 205.736 211.48 205.276C212.06 204.815 212.489 204.21 212.767 203.46C213.046 202.71 213.185 201.898 213.185 201.023C213.185 200.148 213.046 199.332 212.767 198.577C212.489 197.821 212.06 197.21 211.48 196.744C210.901 196.278 210.162 196.045 209.265 196.045C208.367 196.045 207.628 196.278 207.049 196.744C206.469 197.21 206.04 197.821 205.762 198.577C205.483 199.332 205.344 200.148 205.344 201.023C205.344 201.898 205.483 202.71 205.762 203.46C206.04 204.21 206.469 204.815 207.049 205.276C207.628 205.736 208.367 205.966 209.265 205.966ZM218.267 212.409V194.409H220.21V196.489H220.449C220.596 196.261 220.801 195.972 221.062 195.619C221.329 195.261 221.71 194.943 222.204 194.665C222.704 194.381 223.38 194.239 224.233 194.239C225.335 194.239 226.306 194.514 227.147 195.065C227.988 195.616 228.645 196.398 229.116 197.409C229.588 198.42 229.824 199.614 229.824 200.989C229.824 202.375 229.588 203.577 229.116 204.594C228.645 205.605 227.991 206.389 227.156 206.946C226.321 207.497 225.358 207.773 224.267 207.773C223.426 207.773 222.752 207.634 222.247 207.355C221.741 207.071 221.352 206.75 221.079 206.392C220.806 206.028 220.596 205.727 220.449 205.489H220.278V212.409H218.267ZM220.244 200.955C220.244 201.943 220.389 202.815 220.679 203.571C220.968 204.321 221.392 204.909 221.949 205.335C222.505 205.756 223.187 205.966 223.994 205.966C224.835 205.966 225.537 205.744 226.099 205.301C226.667 204.852 227.093 204.25 227.377 203.494C227.667 202.733 227.812 201.886 227.812 200.955C227.812 200.034 227.67 199.205 227.386 198.466C227.108 197.722 226.684 197.134 226.116 196.702C225.554 196.264 224.846 196.045 223.994 196.045C223.176 196.045 222.488 196.253 221.931 196.668C221.375 197.077 220.954 197.651 220.67 198.389C220.386 199.122 220.244 199.977 220.244 200.955ZM238.38 207.773C237.119 207.773 236.031 207.494 235.116 206.938C234.207 206.375 233.505 205.591 233.011 204.585C232.522 203.574 232.278 202.398 232.278 201.057C232.278 199.716 232.522 198.534 233.011 197.511C233.505 196.483 234.193 195.682 235.074 195.108C235.96 194.528 236.994 194.239 238.176 194.239C238.858 194.239 239.531 194.352 240.196 194.58C240.86 194.807 241.466 195.176 242.011 195.688C242.556 196.193 242.991 196.864 243.315 197.699C243.639 198.534 243.801 199.562 243.801 200.784V201.636H233.71V199.898H241.755C241.755 199.159 241.608 198.5 241.312 197.92C241.022 197.341 240.608 196.884 240.068 196.548C239.534 196.213 238.903 196.045 238.176 196.045C237.375 196.045 236.681 196.244 236.096 196.642C235.517 197.034 235.071 197.545 234.758 198.176C234.446 198.807 234.289 199.483 234.289 200.205V201.364C234.289 202.352 234.46 203.19 234.801 203.878C235.147 204.56 235.627 205.08 236.241 205.438C236.855 205.79 237.568 205.966 238.38 205.966C238.909 205.966 239.386 205.892 239.812 205.744C240.244 205.591 240.616 205.364 240.929 205.062C241.241 204.756 241.483 204.375 241.653 203.92L243.596 204.466C243.392 205.125 243.048 205.705 242.565 206.205C242.082 206.699 241.485 207.085 240.775 207.364C240.065 207.636 239.267 207.773 238.38 207.773ZM251.804 207.773C250.713 207.773 249.75 207.497 248.914 206.946C248.079 206.389 247.426 205.605 246.954 204.594C246.483 203.577 246.247 202.375 246.247 200.989C246.247 199.614 246.483 198.42 246.954 197.409C247.426 196.398 248.082 195.616 248.923 195.065C249.764 194.514 250.735 194.239 251.838 194.239C252.69 194.239 253.363 194.381 253.858 194.665C254.358 194.943 254.738 195.261 255 195.619C255.267 195.972 255.474 196.261 255.622 196.489H255.792V190.045H257.804V207.5H255.86V205.489H255.622C255.474 205.727 255.264 206.028 254.991 206.392C254.718 206.75 254.329 207.071 253.824 207.355C253.318 207.634 252.645 207.773 251.804 207.773ZM252.076 205.966C252.883 205.966 253.565 205.756 254.122 205.335C254.679 204.909 255.102 204.321 255.392 203.571C255.681 202.815 255.826 201.943 255.826 200.955C255.826 199.977 255.684 199.122 255.4 198.389C255.116 197.651 254.696 197.077 254.139 196.668C253.582 196.253 252.895 196.045 252.076 196.045C251.224 196.045 250.514 196.264 249.946 196.702C249.383 197.134 248.96 197.722 248.676 198.466C248.397 199.205 248.258 200.034 248.258 200.955C248.258 201.886 248.4 202.733 248.684 203.494C248.974 204.25 249.4 204.852 249.963 205.301C250.531 205.744 251.235 205.966 252.076 205.966Z" fill="#F5F5F7"/>
<g opacity="0.2" filter="url(#filter1_f_238_115)">
<line x1="416" y1="39" x2="416" y2="215" stroke="#F5F5F7" stroke-width="2" stroke-linecap="round"/>
</g>
<path d="M574.545 103.136C571.545 103.136 568.871 102.621 566.523 101.591C564.189 100.561 562.333 99.1288 560.955 97.2955C559.591 95.447 558.848 93.303 558.727 90.8636H564.455C564.576 92.3636 565.091 93.6591 566 94.75C566.909 95.8258 568.098 96.6591 569.568 97.25C571.038 97.8409 572.667 98.1364 574.455 98.1364C576.455 98.1364 578.227 97.7879 579.773 97.0909C581.318 96.3939 582.53 95.4242 583.409 94.1818C584.288 92.9394 584.727 91.5 584.727 89.8636C584.727 88.1515 584.303 86.6439 583.455 85.3409C582.606 84.0227 581.364 82.9924 579.727 82.25C578.091 81.5076 576.091 81.1364 573.727 81.1364H570V76.1364H573.727C575.576 76.1364 577.197 75.803 578.591 75.1364C580 74.4697 581.098 73.5303 581.886 72.3182C582.689 71.1061 583.091 69.6818 583.091 68.0455C583.091 66.4697 582.742 65.0985 582.045 63.9318C581.348 62.7651 580.364 61.8561 579.091 61.2045C577.833 60.553 576.348 60.2273 574.636 60.2273C573.03 60.2273 571.515 60.5227 570.091 61.1136C568.682 61.6894 567.53 62.5303 566.636 63.6364C565.742 64.7273 565.258 66.0455 565.182 67.5909H559.727C559.818 65.1515 560.553 63.0151 561.932 61.1818C563.311 59.3333 565.114 57.8939 567.341 56.8636C569.583 55.8333 572.045 55.3182 574.727 55.3182C577.606 55.3182 580.076 55.9015 582.136 57.0682C584.197 58.2197 585.78 59.7424 586.886 61.6364C587.992 63.5303 588.545 65.5758 588.545 67.7727C588.545 70.3939 587.856 72.6288 586.477 74.4773C585.114 76.3258 583.258 77.6061 580.909 78.3182V78.6818C583.848 79.1667 586.144 80.4167 587.795 82.4318C589.447 84.4318 590.273 86.9091 590.273 89.8636C590.273 92.3939 589.583 94.6667 588.205 96.6818C586.841 98.6818 584.977 100.258 582.614 101.409C580.25 102.561 577.561 103.136 574.545 103.136ZM614.75 103.136C611.326 103.136 608.409 102.205 606 100.341C603.591 98.4621 601.75 95.7424 600.477 92.1818C599.205 88.6061 598.568 84.2879 598.568 79.2273C598.568 74.197 599.205 69.9015 600.477 66.3409C601.765 62.7652 603.614 60.0379 606.023 58.1591C608.447 56.2651 611.356 55.3182 614.75 55.3182C618.144 55.3182 621.045 56.2651 623.455 58.1591C625.879 60.0379 627.727 62.7652 629 66.3409C630.288 69.9015 630.932 74.197 630.932 79.2273C630.932 84.2879 630.295 88.6061 629.023 92.1818C627.75 95.7424 625.909 98.4621 623.5 100.341C621.091 102.205 618.174 103.136 614.75 103.136ZM614.75 98.1364C618.144 98.1364 620.78 96.5 622.659 93.2273C624.538 89.9545 625.477 85.2879 625.477 79.2273C625.477 75.197 625.045 71.7652 624.182 68.9318C623.333 66.0985 622.106 63.9394 620.5 62.4545C618.909 60.9697 616.992 60.2273 614.75 60.2273C611.386 60.2273 608.758 61.8864 606.864 65.2045C604.97 68.5076 604.023 73.1818 604.023 79.2273C604.023 83.2576 604.447 86.6818 605.295 89.5C606.144 92.3182 607.364 94.4621 608.955 95.9318C610.561 97.4015 612.492 98.1364 614.75 98.1364ZM654.75 103.136C651.326 103.136 648.409 102.205 646 100.341C643.591 98.4621 641.75 95.7424 640.477 92.1818C639.205 88.6061 638.568 84.2879 638.568 79.2273C638.568 74.197 639.205 69.9015 640.477 66.3409C641.765 62.7652 643.614 60.0379 646.023 58.1591C648.447 56.2651 651.356 55.3182 654.75 55.3182C658.144 55.3182 661.045 56.2651 663.455 58.1591C665.879 60.0379 667.727 62.7652 669 66.3409C670.288 69.9015 670.932 74.197 670.932 79.2273C670.932 84.2879 670.295 88.6061 669.023 92.1818C667.75 95.7424 665.909 98.4621 663.5 100.341C661.091 102.205 658.174 103.136 654.75 103.136ZM654.75 98.1364C658.144 98.1364 660.78 96.5 662.659 93.2273C664.538 89.9545 665.477 85.2879 665.477 79.2273C665.477 75.197 665.045 71.7652 664.182 68.9318C663.333 66.0985 662.106 63.9394 660.5 62.4545C658.909 60.9697 656.992 60.2273 654.75 60.2273C651.386 60.2273 648.758 61.8864 646.864 65.2045C644.97 68.5076 644.023 73.1818 644.023 79.2273C644.023 83.2576 644.447 86.6818 645.295 89.5C646.144 92.3182 647.364 94.4621 648.955 95.9318C650.561 97.4015 652.492 98.1364 654.75 98.1364ZM680.386 55.9545H687.114L702.932 94.5909H703.477L719.295 55.9545H726.023V102.5H720.75V67.1364H720.295L705.75 102.5H700.659L686.114 67.1364H685.659V102.5H680.386V55.9545ZM750.233 94.3182V64.3182H755.324V94.3182H750.233ZM737.778 81.8636V76.7727H767.778V81.8636H737.778Z" fill="#F5F5F7"/>
<path d="M582.179 162.92V161.045H595.27V162.92H589.781V178.5H587.667V162.92H582.179ZM601.679 178.773C600.497 178.773 599.46 178.491 598.568 177.929C597.681 177.366 596.988 176.58 596.488 175.568C595.994 174.557 595.747 173.375 595.747 172.023C595.747 170.659 595.994 169.469 596.488 168.452C596.988 167.435 597.681 166.645 598.568 166.082C599.46 165.52 600.497 165.239 601.679 165.239C602.86 165.239 603.895 165.52 604.781 166.082C605.673 166.645 606.366 167.435 606.86 168.452C607.36 169.469 607.61 170.659 607.61 172.023C607.61 173.375 607.36 174.557 606.86 175.568C606.366 176.58 605.673 177.366 604.781 177.929C603.895 178.491 602.86 178.773 601.679 178.773ZM601.679 176.966C602.576 176.966 603.315 176.736 603.895 176.276C604.474 175.815 604.903 175.21 605.181 174.46C605.46 173.71 605.599 172.898 605.599 172.023C605.599 171.148 605.46 170.332 605.181 169.577C604.903 168.821 604.474 168.21 603.895 167.744C603.315 167.278 602.576 167.045 601.679 167.045C600.781 167.045 600.042 167.278 599.463 167.744C598.883 168.21 598.454 168.821 598.176 169.577C597.897 170.332 597.758 171.148 597.758 172.023C597.758 172.898 597.897 173.71 598.176 174.46C598.454 175.21 598.883 175.815 599.463 176.276C600.042 176.736 600.781 176.966 601.679 176.966ZM616.374 165.409V167.114H609.59V165.409H616.374ZM611.567 162.273H613.578V174.75C613.578 175.318 613.661 175.744 613.826 176.028C613.996 176.307 614.212 176.494 614.473 176.591C614.74 176.682 615.022 176.727 615.317 176.727C615.539 176.727 615.721 176.716 615.863 176.693C616.005 176.665 616.118 176.642 616.203 176.625L616.613 178.432C616.476 178.483 616.286 178.534 616.042 178.585C615.797 178.642 615.488 178.67 615.113 178.67C614.544 178.67 613.988 178.548 613.442 178.304C612.902 178.06 612.453 177.688 612.096 177.188C611.743 176.688 611.567 176.057 611.567 175.295V162.273ZM623.252 178.807C622.422 178.807 621.669 178.651 620.993 178.338C620.317 178.02 619.78 177.562 619.382 176.966C618.985 176.364 618.786 175.636 618.786 174.784C618.786 174.034 618.934 173.426 619.229 172.96C619.525 172.489 619.919 172.119 620.414 171.852C620.908 171.585 621.453 171.386 622.05 171.256C622.652 171.119 623.257 171.011 623.865 170.932C624.661 170.83 625.306 170.753 625.8 170.702C626.3 170.645 626.664 170.551 626.891 170.42C627.124 170.29 627.24 170.062 627.24 169.739V169.67C627.24 168.83 627.01 168.176 626.55 167.71C626.096 167.244 625.405 167.011 624.479 167.011C623.519 167.011 622.766 167.222 622.221 167.642C621.675 168.062 621.292 168.511 621.07 168.989L619.161 168.307C619.502 167.511 619.956 166.892 620.525 166.449C621.098 166 621.723 165.687 622.4 165.511C623.081 165.33 623.752 165.239 624.411 165.239C624.831 165.239 625.314 165.29 625.86 165.392C626.411 165.489 626.942 165.69 627.453 165.997C627.971 166.304 628.4 166.767 628.74 167.386C629.081 168.006 629.252 168.835 629.252 169.875V178.5H627.24V176.727H627.138C627.002 177.011 626.775 177.315 626.456 177.639C626.138 177.963 625.715 178.239 625.186 178.466C624.658 178.693 624.013 178.807 623.252 178.807ZM623.559 177C624.354 177 625.025 176.844 625.57 176.531C626.121 176.219 626.536 175.815 626.814 175.321C627.098 174.827 627.24 174.307 627.24 173.761V171.92C627.155 172.023 626.968 172.116 626.678 172.202C626.394 172.281 626.064 172.352 625.689 172.415C625.32 172.472 624.959 172.523 624.607 172.568C624.26 172.608 623.979 172.642 623.763 172.67C623.24 172.739 622.752 172.849 622.297 173.003C621.848 173.151 621.485 173.375 621.206 173.676C620.934 173.972 620.797 174.375 620.797 174.886C620.797 175.585 621.056 176.114 621.573 176.472C622.096 176.824 622.757 177 623.559 177ZM634.934 161.045V178.5H632.923V161.045H634.934ZM649.221 178.807C648.391 178.807 647.638 178.651 646.962 178.338C646.286 178.02 645.749 177.562 645.351 176.966C644.953 176.364 644.755 175.636 644.755 174.784C644.755 174.034 644.902 173.426 645.198 172.96C645.493 172.489 645.888 172.119 646.382 171.852C646.877 171.585 647.422 171.386 648.019 171.256C648.621 171.119 649.226 171.011 649.834 170.932C650.63 170.83 651.275 170.753 651.769 170.702C652.269 170.645 652.632 170.551 652.86 170.42C653.093 170.29 653.209 170.062 653.209 169.739V169.67C653.209 168.83 652.979 168.176 652.519 167.71C652.064 167.244 651.374 167.011 650.448 167.011C649.488 167.011 648.735 167.222 648.189 167.642C647.644 168.062 647.26 168.511 647.039 168.989L645.13 168.307C645.471 167.511 645.925 166.892 646.493 166.449C647.067 166 647.692 165.687 648.368 165.511C649.05 165.33 649.721 165.239 650.38 165.239C650.8 165.239 651.283 165.29 651.828 165.392C652.38 165.489 652.911 165.69 653.422 165.997C653.939 166.304 654.368 166.767 654.709 167.386C655.05 168.006 655.221 168.835 655.221 169.875V178.5H653.209V176.727H653.107C652.971 177.011 652.743 177.315 652.425 177.639C652.107 177.963 651.684 178.239 651.155 178.466C650.627 178.693 649.982 178.807 649.221 178.807ZM649.527 177C650.323 177 650.993 176.844 651.539 176.531C652.09 176.219 652.505 175.815 652.783 175.321C653.067 174.827 653.209 174.307 653.209 173.761V171.92C653.124 172.023 652.936 172.116 652.647 172.202C652.363 172.281 652.033 172.352 651.658 172.415C651.289 172.472 650.928 172.523 650.576 172.568C650.229 172.608 649.948 172.642 649.732 172.67C649.209 172.739 648.721 172.849 648.266 173.003C647.817 173.151 647.453 173.375 647.175 173.676C646.902 173.972 646.766 174.375 646.766 174.886C646.766 175.585 647.025 176.114 647.542 176.472C648.064 176.824 648.726 177 649.527 177ZM667.142 173.148V165.409H669.153V178.5H667.142V176.284H667.005C666.699 176.949 666.221 177.514 665.574 177.98C664.926 178.44 664.108 178.67 663.119 178.67C662.301 178.67 661.574 178.491 660.937 178.134C660.301 177.77 659.801 177.224 659.437 176.497C659.074 175.764 658.892 174.841 658.892 173.727V165.409H660.903V173.591C660.903 174.545 661.17 175.307 661.704 175.875C662.244 176.443 662.931 176.727 663.767 176.727C664.267 176.727 664.775 176.599 665.292 176.344C665.815 176.088 666.252 175.696 666.605 175.168C666.963 174.639 667.142 173.966 667.142 173.148ZM677.78 178.773C676.689 178.773 675.726 178.497 674.891 177.946C674.056 177.389 673.402 176.605 672.931 175.594C672.459 174.577 672.223 173.375 672.223 171.989C672.223 170.614 672.459 169.42 672.931 168.409C673.402 167.398 674.059 166.616 674.9 166.065C675.74 165.514 676.712 165.239 677.814 165.239C678.667 165.239 679.34 165.381 679.834 165.665C680.334 165.943 680.715 166.261 680.976 166.619C681.243 166.972 681.451 167.261 681.598 167.489H681.769V161.045H683.78V178.5H681.837V176.489H681.598C681.451 176.727 681.24 177.028 680.968 177.392C680.695 177.75 680.306 178.071 679.8 178.355C679.294 178.634 678.621 178.773 677.78 178.773ZM678.053 176.966C678.86 176.966 679.542 176.756 680.098 176.335C680.655 175.909 681.078 175.321 681.368 174.571C681.658 173.815 681.803 172.943 681.803 171.955C681.803 170.977 681.661 170.122 681.377 169.389C681.093 168.651 680.672 168.077 680.115 167.668C679.559 167.253 678.871 167.045 678.053 167.045C677.201 167.045 676.49 167.264 675.922 167.702C675.36 168.134 674.936 168.722 674.652 169.466C674.374 170.205 674.235 171.034 674.235 171.955C674.235 172.886 674.377 173.733 674.661 174.494C674.951 175.25 675.377 175.852 675.939 176.301C676.507 176.744 677.212 176.966 678.053 176.966ZM687.743 178.5V165.409H689.755V178.5H687.743ZM688.766 163.227C688.374 163.227 688.036 163.094 687.752 162.827C687.473 162.56 687.334 162.239 687.334 161.864C687.334 161.489 687.473 161.168 687.752 160.901C688.036 160.634 688.374 160.5 688.766 160.5C689.158 160.5 689.493 160.634 689.772 160.901C690.056 161.168 690.198 161.489 690.198 161.864C690.198 162.239 690.056 162.56 689.772 162.827C689.493 163.094 689.158 163.227 688.766 163.227ZM698.927 178.773C697.666 178.773 696.578 178.494 695.663 177.938C694.754 177.375 694.052 176.591 693.558 175.585C693.069 174.574 692.825 173.398 692.825 172.057C692.825 170.716 693.069 169.534 693.558 168.511C694.052 167.483 694.74 166.682 695.62 166.108C696.507 165.528 697.541 165.239 698.723 165.239C699.404 165.239 700.078 165.352 700.743 165.58C701.407 165.807 702.012 166.176 702.558 166.688C703.103 167.193 703.538 167.864 703.862 168.699C704.186 169.534 704.348 170.562 704.348 171.784V172.636H694.257V170.898H702.302C702.302 170.159 702.154 169.5 701.859 168.92C701.569 168.341 701.154 167.884 700.615 167.548C700.081 167.213 699.45 167.045 698.723 167.045C697.922 167.045 697.228 167.244 696.643 167.642C696.064 168.034 695.618 168.545 695.305 169.176C694.993 169.807 694.836 170.483 694.836 171.205V172.364C694.836 173.352 695.007 174.19 695.348 174.878C695.694 175.56 696.174 176.08 696.788 176.438C697.402 176.79 698.115 176.966 698.927 176.966C699.456 176.966 699.933 176.892 700.359 176.744C700.791 176.591 701.163 176.364 701.475 176.062C701.788 175.756 702.029 175.375 702.2 174.92L704.143 175.466C703.939 176.125 703.595 176.705 703.112 177.205C702.629 177.699 702.032 178.085 701.322 178.364C700.612 178.636 699.814 178.773 698.927 178.773ZM709.419 170.625V178.5H707.407V165.409H709.35V167.455H709.521C709.828 166.79 710.294 166.256 710.919 165.852C711.544 165.443 712.35 165.239 713.339 165.239C714.225 165.239 715.001 165.42 715.666 165.784C716.331 166.142 716.848 166.688 717.217 167.42C717.586 168.148 717.771 169.068 717.771 170.182V178.5H715.76V170.318C715.76 169.29 715.493 168.489 714.958 167.915C714.424 167.335 713.691 167.045 712.76 167.045C712.118 167.045 711.544 167.185 711.038 167.463C710.538 167.741 710.143 168.148 709.853 168.682C709.564 169.216 709.419 169.864 709.419 170.625ZM726.765 178.773C725.537 178.773 724.48 178.483 723.594 177.903C722.708 177.324 722.026 176.526 721.549 175.509C721.071 174.491 720.833 173.33 720.833 172.023C720.833 170.693 721.077 169.52 721.566 168.503C722.06 167.48 722.748 166.682 723.628 166.108C724.515 165.528 725.549 165.239 726.73 165.239C727.651 165.239 728.48 165.409 729.219 165.75C729.958 166.091 730.563 166.568 731.034 167.182C731.506 167.795 731.799 168.511 731.912 169.33H729.901C729.748 168.733 729.407 168.205 728.878 167.744C728.355 167.278 727.651 167.045 726.765 167.045C725.98 167.045 725.293 167.25 724.702 167.659C724.117 168.062 723.659 168.634 723.33 169.372C723.006 170.105 722.844 170.966 722.844 171.955C722.844 172.966 723.003 173.847 723.321 174.597C723.645 175.347 724.1 175.929 724.685 176.344C725.276 176.759 725.969 176.966 726.765 176.966C727.287 176.966 727.762 176.875 728.188 176.693C728.614 176.511 728.975 176.25 729.27 175.909C729.566 175.568 729.776 175.159 729.901 174.682H731.912C731.799 175.455 731.517 176.151 731.069 176.77C730.625 177.384 730.037 177.872 729.304 178.236C728.577 178.594 727.73 178.773 726.765 178.773ZM740.341 178.773C739.08 178.773 737.992 178.494 737.077 177.938C736.168 177.375 735.466 176.591 734.972 175.585C734.483 174.574 734.239 173.398 734.239 172.057C734.239 170.716 734.483 169.534 734.972 168.511C735.466 167.483 736.154 166.682 737.034 166.108C737.921 165.528 738.955 165.239 740.137 165.239C740.819 165.239 741.492 165.352 742.157 165.58C742.821 165.807 743.426 166.176 743.972 166.688C744.517 167.193 744.952 167.864 745.276 168.699C745.6 169.534 745.762 170.562 745.762 171.784V172.636H735.671V170.898H743.716C743.716 170.159 743.569 169.5 743.273 168.92C742.983 168.341 742.569 167.884 742.029 167.548C741.495 167.213 740.864 167.045 740.137 167.045C739.336 167.045 738.642 167.244 738.057 167.642C737.478 168.034 737.032 168.545 736.719 169.176C736.407 169.807 736.25 170.483 736.25 171.205V172.364C736.25 173.352 736.421 174.19 736.762 174.878C737.108 175.56 737.588 176.08 738.202 176.438C738.816 176.79 739.529 176.966 740.341 176.966C740.87 176.966 741.347 176.892 741.773 176.744C742.205 176.591 742.577 176.364 742.89 176.062C743.202 175.756 743.444 175.375 743.614 174.92L745.557 175.466C745.353 176.125 745.009 176.705 744.526 177.205C744.043 177.699 743.446 178.085 742.736 178.364C742.026 178.636 741.228 178.773 740.341 178.773ZM612.871 212.682C611.9 212.682 611.064 212.557 610.365 212.307C609.667 212.062 609.084 211.739 608.618 211.335C608.158 210.938 607.792 210.511 607.519 210.057L609.121 208.932C609.303 209.17 609.533 209.443 609.811 209.75C610.09 210.062 610.471 210.332 610.953 210.56C611.442 210.793 612.081 210.909 612.871 210.909C613.928 210.909 614.8 210.653 615.488 210.142C616.175 209.631 616.519 208.83 616.519 207.739V205.08H616.348C616.201 205.318 615.99 205.614 615.718 205.966C615.451 206.312 615.064 206.622 614.559 206.895C614.059 207.162 613.382 207.295 612.53 207.295C611.473 207.295 610.525 207.045 609.684 206.545C608.848 206.045 608.186 205.318 607.698 204.364C607.215 203.409 606.973 202.25 606.973 200.886C606.973 199.545 607.209 198.378 607.681 197.384C608.152 196.384 608.809 195.611 609.65 195.065C610.49 194.514 611.462 194.239 612.564 194.239C613.417 194.239 614.093 194.381 614.593 194.665C615.098 194.943 615.485 195.261 615.752 195.619C616.025 195.972 616.235 196.261 616.382 196.489H616.587V194.409H618.53V207.875C618.53 209 618.275 209.915 617.763 210.619C617.257 211.33 616.576 211.849 615.718 212.179C614.865 212.514 613.917 212.682 612.871 212.682ZM612.803 205.489C613.61 205.489 614.292 205.304 614.848 204.935C615.405 204.565 615.828 204.034 616.118 203.341C616.408 202.648 616.553 201.818 616.553 200.852C616.553 199.909 616.411 199.077 616.127 198.355C615.843 197.634 615.422 197.068 614.865 196.659C614.309 196.25 613.621 196.045 612.803 196.045C611.951 196.045 611.24 196.261 610.672 196.693C610.11 197.125 609.686 197.705 609.402 198.432C609.124 199.159 608.985 199.966 608.985 200.852C608.985 201.761 609.127 202.565 609.411 203.264C609.701 203.957 610.127 204.503 610.689 204.901C611.257 205.293 611.962 205.489 612.803 205.489ZM627.701 207.773C626.439 207.773 625.351 207.494 624.436 206.938C623.527 206.375 622.826 205.591 622.331 204.585C621.843 203.574 621.598 202.398 621.598 201.057C621.598 199.716 621.843 198.534 622.331 197.511C622.826 196.483 623.513 195.682 624.394 195.108C625.28 194.528 626.314 194.239 627.496 194.239C628.178 194.239 628.851 194.352 629.516 194.58C630.181 194.807 630.786 195.176 631.331 195.688C631.877 196.193 632.311 196.864 632.635 197.699C632.959 198.534 633.121 199.562 633.121 200.784V201.636H623.03V199.898H631.076C631.076 199.159 630.928 198.5 630.632 197.92C630.343 197.341 629.928 196.884 629.388 196.548C628.854 196.213 628.223 196.045 627.496 196.045C626.695 196.045 626.002 196.244 625.417 196.642C624.837 197.034 624.391 197.545 624.078 198.176C623.766 198.807 623.61 199.483 623.61 200.205V201.364C623.61 202.352 623.78 203.19 624.121 203.878C624.468 204.56 624.948 205.08 625.561 205.438C626.175 205.79 626.888 205.966 627.701 205.966C628.229 205.966 628.706 205.892 629.132 205.744C629.564 205.591 629.936 205.364 630.249 205.062C630.561 204.756 630.803 204.375 630.973 203.92L632.917 204.466C632.712 205.125 632.368 205.705 631.885 206.205C631.402 206.699 630.806 207.085 630.096 207.364C629.385 207.636 628.587 207.773 627.701 207.773ZM638.192 199.625V207.5H636.181V194.409H638.124V196.455H638.294C638.601 195.79 639.067 195.256 639.692 194.852C640.317 194.443 641.124 194.239 642.113 194.239C642.999 194.239 643.775 194.42 644.439 194.784C645.104 195.142 645.621 195.688 645.99 196.42C646.36 197.148 646.544 198.068 646.544 199.182V207.5H644.533V199.318C644.533 198.29 644.266 197.489 643.732 196.915C643.198 196.335 642.465 196.045 641.533 196.045C640.891 196.045 640.317 196.185 639.811 196.463C639.311 196.741 638.917 197.148 638.627 197.682C638.337 198.216 638.192 198.864 638.192 199.625ZM655.708 207.773C654.447 207.773 653.359 207.494 652.444 206.938C651.535 206.375 650.833 205.591 650.339 204.585C649.85 203.574 649.606 202.398 649.606 201.057C649.606 199.716 649.85 198.534 650.339 197.511C650.833 196.483 651.521 195.682 652.402 195.108C653.288 194.528 654.322 194.239 655.504 194.239C656.186 194.239 656.859 194.352 657.524 194.58C658.189 194.807 658.794 195.176 659.339 195.688C659.885 196.193 660.319 196.864 660.643 197.699C660.967 198.534 661.129 199.562 661.129 200.784V201.636H651.038V199.898H659.083C659.083 199.159 658.936 198.5 658.64 197.92C658.35 197.341 657.936 196.884 657.396 196.548C656.862 196.213 656.231 196.045 655.504 196.045C654.703 196.045 654.01 196.244 653.424 196.642C652.845 197.034 652.399 197.545 652.086 198.176C651.774 198.807 651.618 199.483 651.618 200.205V201.364C651.618 202.352 651.788 203.19 652.129 203.878C652.475 204.56 652.956 205.08 653.569 205.438C654.183 205.79 654.896 205.966 655.708 205.966C656.237 205.966 656.714 205.892 657.14 205.744C657.572 205.591 657.944 205.364 658.257 205.062C658.569 204.756 658.811 204.375 658.981 203.92L660.924 204.466C660.72 205.125 660.376 205.705 659.893 206.205C659.41 206.699 658.814 207.085 658.103 207.364C657.393 207.636 656.595 207.773 655.708 207.773ZM664.189 207.5V194.409H666.132V196.386H666.268C666.507 195.739 666.939 195.213 667.564 194.81C668.189 194.406 668.893 194.205 669.677 194.205C669.825 194.205 670.01 194.207 670.231 194.213C670.453 194.219 670.62 194.227 670.734 194.239V196.284C670.666 196.267 670.51 196.241 670.265 196.207C670.027 196.168 669.774 196.148 669.507 196.148C668.87 196.148 668.302 196.281 667.802 196.548C667.308 196.81 666.916 197.173 666.626 197.639C666.342 198.099 666.2 198.625 666.2 199.216V207.5H664.189ZM676.971 207.807C676.141 207.807 675.388 207.651 674.712 207.338C674.036 207.02 673.499 206.562 673.101 205.966C672.703 205.364 672.505 204.636 672.505 203.784C672.505 203.034 672.652 202.426 672.948 201.96C673.243 201.489 673.638 201.119 674.132 200.852C674.627 200.585 675.172 200.386 675.769 200.256C676.371 200.119 676.976 200.011 677.584 199.932C678.38 199.83 679.025 199.753 679.519 199.702C680.019 199.645 680.382 199.551 680.61 199.42C680.843 199.29 680.959 199.062 680.959 198.739V198.67C680.959 197.83 680.729 197.176 680.269 196.71C679.814 196.244 679.124 196.011 678.198 196.011C677.238 196.011 676.485 196.222 675.939 196.642C675.394 197.062 675.01 197.511 674.789 197.989L672.88 197.307C673.221 196.511 673.675 195.892 674.243 195.449C674.817 195 675.442 194.687 676.118 194.511C676.8 194.33 677.471 194.239 678.13 194.239C678.55 194.239 679.033 194.29 679.578 194.392C680.13 194.489 680.661 194.69 681.172 194.997C681.689 195.304 682.118 195.767 682.459 196.386C682.8 197.006 682.971 197.835 682.971 198.875V207.5H680.959V205.727H680.857C680.721 206.011 680.493 206.315 680.175 206.639C679.857 206.963 679.434 207.239 678.905 207.466C678.377 207.693 677.732 207.807 676.971 207.807ZM677.277 206C678.073 206 678.743 205.844 679.289 205.531C679.84 205.219 680.255 204.815 680.533 204.321C680.817 203.827 680.959 203.307 680.959 202.761V200.92C680.874 201.023 680.686 201.116 680.397 201.202C680.113 201.281 679.783 201.352 679.408 201.415C679.039 201.472 678.678 201.523 678.326 201.568C677.979 201.608 677.698 201.642 677.482 201.67C676.959 201.739 676.471 201.849 676.016 202.003C675.567 202.151 675.203 202.375 674.925 202.676C674.652 202.972 674.516 203.375 674.516 203.886C674.516 204.585 674.775 205.114 675.292 205.472C675.814 205.824 676.476 206 677.277 206ZM692.335 194.409V196.114H685.551V194.409H692.335ZM687.528 191.273H689.539V203.75C689.539 204.318 689.622 204.744 689.787 205.028C689.957 205.307 690.173 205.494 690.434 205.591C690.701 205.682 690.983 205.727 691.278 205.727C691.5 205.727 691.681 205.716 691.824 205.693C691.966 205.665 692.079 205.642 692.164 205.625L692.574 207.432C692.437 207.483 692.247 207.534 692.002 207.585C691.758 207.642 691.449 207.67 691.074 207.67C690.505 207.67 689.949 207.548 689.403 207.304C688.863 207.06 688.414 206.688 688.056 206.188C687.704 205.688 687.528 205.057 687.528 204.295V191.273ZM700.708 207.773C699.447 207.773 698.359 207.494 697.444 206.938C696.535 206.375 695.833 205.591 695.339 204.585C694.85 203.574 694.606 202.398 694.606 201.057C694.606 199.716 694.85 198.534 695.339 197.511C695.833 196.483 696.521 195.682 697.402 195.108C698.288 194.528 699.322 194.239 700.504 194.239C701.186 194.239 701.859 194.352 702.524 194.58C703.189 194.807 703.794 195.176 704.339 195.688C704.885 196.193 705.319 196.864 705.643 197.699C705.967 198.534 706.129 199.562 706.129 200.784V201.636H696.038V199.898H704.083C704.083 199.159 703.936 198.5 703.64 197.92C703.35 197.341 702.936 196.884 702.396 196.548C701.862 196.213 701.231 196.045 700.504 196.045C699.703 196.045 699.01 196.244 698.424 196.642C697.845 197.034 697.399 197.545 697.086 198.176C696.774 198.807 696.618 199.483 696.618 200.205V201.364C696.618 202.352 696.788 203.19 697.129 203.878C697.475 204.56 697.956 205.08 698.569 205.438C699.183 205.79 699.896 205.966 700.708 205.966C701.237 205.966 701.714 205.892 702.14 205.744C702.572 205.591 702.944 205.364 703.257 205.062C703.569 204.756 703.811 204.375 703.981 203.92L705.924 204.466C705.72 205.125 705.376 205.705 704.893 206.205C704.41 206.699 703.814 207.085 703.103 207.364C702.393 207.636 701.595 207.773 700.708 207.773ZM714.132 207.773C713.041 207.773 712.078 207.497 711.243 206.946C710.407 206.389 709.754 205.605 709.282 204.594C708.811 203.577 708.575 202.375 708.575 200.989C708.575 199.614 708.811 198.42 709.282 197.409C709.754 196.398 710.41 195.616 711.251 195.065C712.092 194.514 713.064 194.239 714.166 194.239C715.018 194.239 715.691 194.381 716.186 194.665C716.686 194.943 717.066 195.261 717.328 195.619C717.595 195.972 717.802 196.261 717.95 196.489H718.12V190.045H720.132V207.5H718.189V205.489H717.95C717.802 205.727 717.592 206.028 717.319 206.392C717.047 206.75 716.657 207.071 716.152 207.355C715.646 207.634 714.973 207.773 714.132 207.773ZM714.404 205.966C715.211 205.966 715.893 205.756 716.45 205.335C717.007 204.909 717.43 204.321 717.72 203.571C718.01 202.815 718.154 201.943 718.154 200.955C718.154 199.977 718.012 199.122 717.728 198.389C717.444 197.651 717.024 197.077 716.467 196.668C715.91 196.253 715.223 196.045 714.404 196.045C713.552 196.045 712.842 196.264 712.274 196.702C711.711 197.134 711.288 197.722 711.004 198.466C710.725 199.205 710.586 200.034 710.586 200.955C710.586 201.886 710.728 202.733 711.012 203.494C711.302 204.25 711.728 204.852 712.291 205.301C712.859 205.744 713.564 205.966 714.404 205.966Z" fill="#F5F5F7"/>
<g opacity="0.2" filter="url(#filter2_f_238_115)">
<line x1="914" y1="39" x2="914" y2="215" stroke="#F5F5F7" stroke-width="2" stroke-linecap="round"/>
</g>
<path d="M1055.09 60.9545V55.9545H1090V60.9545H1075.36V102.5H1069.73V60.9545H1055.09ZM1107.09 103.227C1103.94 103.227 1101.17 102.477 1098.8 100.977C1096.43 99.4773 1094.58 97.3788 1093.25 94.6818C1091.93 91.9848 1091.27 88.8333 1091.27 85.2273C1091.27 81.5909 1091.93 78.4167 1093.25 75.7045C1094.58 72.9924 1096.43 70.8864 1098.8 69.3864C1101.17 67.8864 1103.94 67.1364 1107.09 67.1364C1110.24 67.1364 1113 67.8864 1115.36 69.3864C1117.74 70.8864 1119.59 72.9924 1120.91 75.7045C1122.24 78.4167 1122.91 81.5909 1122.91 85.2273C1122.91 88.8333 1122.24 91.9848 1120.91 94.6818C1119.59 97.3788 1117.74 99.4773 1115.36 100.977C1113 102.477 1110.24 103.227 1107.09 103.227ZM1107.09 98.4091C1109.48 98.4091 1111.45 97.7955 1113 96.5682C1114.55 95.3409 1115.69 93.7273 1116.43 91.7273C1117.17 89.7273 1117.55 87.5606 1117.55 85.2273C1117.55 82.8939 1117.17 80.7197 1116.43 78.7045C1115.69 76.6894 1114.55 75.0606 1113 73.8182C1111.45 72.5758 1109.48 71.9545 1107.09 71.9545C1104.7 71.9545 1102.73 72.5758 1101.18 73.8182C1099.64 75.0606 1098.49 76.6894 1097.75 78.7045C1097.01 80.7197 1096.64 82.8939 1096.64 85.2273C1096.64 87.5606 1097.01 89.7273 1097.75 91.7273C1098.49 93.7273 1099.64 95.3409 1101.18 96.5682C1102.73 97.7955 1104.7 98.4091 1107.09 98.4091ZM1131.1 115.591V67.5909H1136.28V73.1364H1136.91C1137.31 72.5303 1137.85 71.7576 1138.55 70.8182C1139.26 69.8636 1140.28 69.0152 1141.6 68.2727C1142.93 67.5152 1144.73 67.1364 1147.01 67.1364C1149.95 67.1364 1152.54 67.8712 1154.78 69.3409C1157.02 70.8106 1158.77 72.8939 1160.03 75.5909C1161.29 78.2879 1161.91 81.4697 1161.91 85.1364C1161.91 88.8333 1161.29 92.0379 1160.03 94.75C1158.77 97.447 1157.03 99.5379 1154.8 101.023C1152.57 102.492 1150.01 103.227 1147.1 103.227C1144.85 103.227 1143.06 102.856 1141.71 102.114C1140.36 101.356 1139.32 100.5 1138.6 99.5455C1137.87 98.5758 1137.31 97.7727 1136.91 97.1364H1136.46V115.591H1131.1ZM1136.37 85.0455C1136.37 87.6818 1136.76 90.0076 1137.53 92.0227C1138.3 94.0227 1139.43 95.5909 1140.91 96.7273C1142.4 97.8485 1144.22 98.4091 1146.37 98.4091C1148.61 98.4091 1150.48 97.8182 1151.98 96.6364C1153.5 95.4394 1154.63 93.8333 1155.39 91.8182C1156.16 89.7879 1156.55 87.5303 1156.55 85.0455C1156.55 82.5909 1156.17 80.3788 1155.41 78.4091C1154.67 76.4242 1153.54 74.8561 1152.03 73.7045C1150.53 72.5379 1148.64 71.9545 1146.37 71.9545C1144.19 71.9545 1142.35 72.5076 1140.87 73.6136C1139.38 74.7045 1138.26 76.2348 1137.51 78.2045C1136.75 80.1591 1136.37 82.4394 1136.37 85.0455ZM1204.37 55.9545V102.5H1198.73V61.8636H1198.46L1187.1 69.4091V63.6818L1198.73 55.9545H1204.37ZM1241.48 93.7727V91.3182C1241.48 89.6212 1241.83 88.0682 1242.53 86.6591C1243.24 85.2348 1244.27 84.0985 1245.62 83.25C1246.98 82.3864 1248.63 81.9545 1250.57 81.9545C1252.54 81.9545 1254.2 82.3864 1255.53 83.25C1256.86 84.0985 1257.87 85.2348 1258.55 86.6591C1259.23 88.0682 1259.57 89.6212 1259.57 91.3182V93.7727C1259.57 95.4697 1259.23 97.0303 1258.53 98.4545C1257.85 99.8636 1256.83 101 1255.48 101.864C1254.15 102.712 1252.51 103.136 1250.57 103.136C1248.6 103.136 1246.95 102.712 1245.6 101.864C1244.25 101 1243.23 99.8636 1242.53 98.4545C1241.83 97.0303 1241.48 95.4697 1241.48 93.7727ZM1246.12 91.3182V93.7727C1246.12 95.1818 1246.45 96.447 1247.12 97.5682C1247.79 98.6742 1248.94 99.2273 1250.57 99.2273C1252.16 99.2273 1253.29 98.6742 1253.94 97.5682C1254.6 96.447 1254.94 95.1818 1254.94 93.7727V91.3182C1254.94 89.9091 1254.62 88.6515 1253.98 87.5455C1253.35 86.4242 1252.21 85.8636 1250.57 85.8636C1248.98 85.8636 1247.84 86.4242 1247.14 87.5455C1246.46 88.6515 1246.12 89.9091 1246.12 91.3182ZM1218.3 67.1364V64.6818C1218.3 62.9848 1218.65 61.4318 1219.35 60.0227C1220.06 58.5985 1221.09 57.4621 1222.44 56.6136C1223.8 55.75 1225.45 55.3182 1227.39 55.3182C1229.36 55.3182 1231.01 55.75 1232.35 56.6136C1233.68 57.4621 1234.69 58.5985 1235.37 60.0227C1236.05 61.4318 1236.39 62.9848 1236.39 64.6818V67.1364C1236.39 68.8333 1236.04 70.3939 1235.35 71.8182C1234.66 73.2273 1233.65 74.3636 1232.3 75.2273C1230.97 76.0758 1229.33 76.5 1227.39 76.5C1225.42 76.5 1223.76 76.0758 1222.41 75.2273C1221.07 74.3636 1220.04 73.2273 1219.35 71.8182C1218.65 70.3939 1218.3 68.8333 1218.3 67.1364ZM1222.94 64.6818V67.1364C1222.94 68.5455 1223.27 69.8106 1223.94 70.9318C1224.6 72.0379 1225.76 72.5909 1227.39 72.5909C1228.98 72.5909 1230.1 72.0379 1230.76 70.9318C1231.42 69.8106 1231.76 68.5455 1231.76 67.1364V64.6818C1231.76 63.2727 1231.44 62.0151 1230.8 60.9091C1230.16 59.7879 1229.03 59.2273 1227.39 59.2273C1225.8 59.2273 1224.66 59.7879 1223.96 60.9091C1223.28 62.0151 1222.94 63.2727 1222.94 64.6818ZM1220.03 102.5L1252.03 55.9545H1257.21L1225.21 102.5H1220.03Z" fill="#F5F5F7"/>
<path d="M1086.2 178.5V161.045H1096.73V162.92H1088.31V168.818H1096.19V170.693H1088.31V176.625H1096.87V178.5H1086.2ZM1102.28 161.045V178.5H1100.27V161.045H1102.28ZM1105.97 178.5V165.409H1107.98V178.5H1105.97ZM1106.99 163.227C1106.6 163.227 1106.26 163.094 1105.97 162.827C1105.7 162.56 1105.56 162.239 1105.56 161.864C1105.56 161.489 1105.7 161.168 1105.97 160.901C1106.26 160.634 1106.6 160.5 1106.99 160.5C1107.38 160.5 1107.72 160.634 1107.99 160.901C1108.28 161.168 1108.42 161.489 1108.42 161.864C1108.42 162.239 1108.28 162.56 1107.99 162.827C1107.72 163.094 1107.38 163.227 1106.99 163.227ZM1117.35 165.409V167.114H1110.57V165.409H1117.35ZM1112.55 162.273H1114.56V174.75C1114.56 175.318 1114.64 175.744 1114.81 176.028C1114.98 176.307 1115.19 176.494 1115.45 176.591C1115.72 176.682 1116 176.727 1116.3 176.727C1116.52 176.727 1116.7 176.716 1116.84 176.693C1116.99 176.665 1117.1 176.642 1117.18 176.625L1117.59 178.432C1117.46 178.483 1117.27 178.534 1117.02 178.585C1116.78 178.642 1116.47 178.67 1116.09 178.67C1115.52 178.67 1114.97 178.548 1114.42 178.304C1113.88 178.06 1113.43 177.688 1113.08 177.188C1112.72 176.688 1112.55 176.057 1112.55 175.295V162.273ZM1125.73 178.773C1124.47 178.773 1123.38 178.494 1122.46 177.938C1121.55 177.375 1120.85 176.591 1120.36 175.585C1119.87 174.574 1119.63 173.398 1119.63 172.057C1119.63 170.716 1119.87 169.534 1120.36 168.511C1120.85 167.483 1121.54 166.682 1122.42 166.108C1123.31 165.528 1124.34 165.239 1125.52 165.239C1126.21 165.239 1126.88 165.352 1127.54 165.58C1128.21 165.807 1128.81 166.176 1129.36 166.688C1129.9 167.193 1130.34 167.864 1130.66 168.699C1130.99 169.534 1131.15 170.562 1131.15 171.784V172.636H1121.06V170.898H1129.1C1129.1 170.159 1128.96 169.5 1128.66 168.92C1128.37 168.341 1127.96 167.884 1127.42 167.548C1126.88 167.213 1126.25 167.045 1125.52 167.045C1124.72 167.045 1124.03 167.244 1123.44 167.642C1122.86 168.034 1122.42 168.545 1122.11 169.176C1121.79 169.807 1121.64 170.483 1121.64 171.205V172.364C1121.64 173.352 1121.81 174.19 1122.15 174.878C1122.5 175.56 1122.98 176.08 1123.59 176.438C1124.2 176.79 1124.92 176.966 1125.73 176.966C1126.26 176.966 1126.73 176.892 1127.16 176.744C1127.59 176.591 1127.96 176.364 1128.28 176.062C1128.59 175.756 1128.83 175.375 1129 174.92L1130.94 175.466C1130.74 176.125 1130.4 176.705 1129.91 177.205C1129.43 177.699 1128.83 178.085 1128.12 178.364C1127.41 178.636 1126.61 178.773 1125.73 178.773ZM1146.28 178.773C1145.05 178.773 1143.99 178.483 1143.11 177.903C1142.22 177.324 1141.54 176.526 1141.06 175.509C1140.58 174.491 1140.34 173.33 1140.34 172.023C1140.34 170.693 1140.59 169.52 1141.08 168.503C1141.57 167.48 1142.26 166.682 1143.14 166.108C1144.03 165.528 1145.06 165.239 1146.24 165.239C1147.16 165.239 1147.99 165.409 1148.73 165.75C1149.47 166.091 1150.07 166.568 1150.55 167.182C1151.02 167.795 1151.31 168.511 1151.42 169.33H1149.41C1149.26 168.733 1148.92 168.205 1148.39 167.744C1147.87 167.278 1147.16 167.045 1146.28 167.045C1145.49 167.045 1144.8 167.25 1144.21 167.659C1143.63 168.062 1143.17 168.634 1142.84 169.372C1142.52 170.105 1142.36 170.966 1142.36 171.955C1142.36 172.966 1142.51 173.847 1142.83 174.597C1143.16 175.347 1143.61 175.929 1144.2 176.344C1144.79 176.759 1145.48 176.966 1146.28 176.966C1146.8 176.966 1147.27 176.875 1147.7 176.693C1148.13 176.511 1148.49 176.25 1148.78 175.909C1149.08 175.568 1149.29 175.159 1149.41 174.682H1151.42C1151.31 175.455 1151.03 176.151 1150.58 176.77C1150.14 177.384 1149.55 177.872 1148.82 178.236C1148.09 178.594 1147.24 178.773 1146.28 178.773ZM1154.36 178.5V165.409H1156.31V167.386H1156.44C1156.68 166.739 1157.11 166.213 1157.74 165.81C1158.36 165.406 1159.07 165.205 1159.85 165.205C1160 165.205 1160.19 165.207 1160.41 165.213C1160.63 165.219 1160.8 165.227 1160.91 165.239V167.284C1160.84 167.267 1160.69 167.241 1160.44 167.207C1160.2 167.168 1159.95 167.148 1159.68 167.148C1159.05 167.148 1158.48 167.281 1157.98 167.548C1157.48 167.81 1157.09 168.173 1156.8 168.639C1156.52 169.099 1156.38 169.625 1156.38 170.216V178.5H1154.36ZM1168.38 178.773C1167.12 178.773 1166.03 178.494 1165.12 177.938C1164.21 177.375 1163.51 176.591 1163.01 175.585C1162.53 174.574 1162.28 173.398 1162.28 172.057C1162.28 170.716 1162.53 169.534 1163.01 168.511C1163.51 167.483 1164.2 166.682 1165.08 166.108C1165.96 165.528 1167 165.239 1168.18 165.239C1168.86 165.239 1169.53 165.352 1170.2 165.58C1170.86 165.807 1171.47 166.176 1172.01 166.688C1172.56 167.193 1173 167.864 1173.32 168.699C1173.64 169.534 1173.8 170.562 1173.8 171.784V172.636H1163.71V170.898H1171.76C1171.76 170.159 1171.61 169.5 1171.32 168.92C1171.03 168.341 1170.61 167.884 1170.07 167.548C1169.54 167.213 1168.91 167.045 1168.18 167.045C1167.38 167.045 1166.69 167.244 1166.1 167.642C1165.52 168.034 1165.07 168.545 1164.76 169.176C1164.45 169.807 1164.29 170.483 1164.29 171.205V172.364C1164.29 173.352 1164.46 174.19 1164.8 174.878C1165.15 175.56 1165.63 176.08 1166.25 176.438C1166.86 176.79 1167.57 176.966 1168.38 176.966C1168.91 176.966 1169.39 176.892 1169.82 176.744C1170.25 176.591 1170.62 176.364 1170.93 176.062C1171.25 175.756 1171.49 175.375 1171.66 174.92L1173.6 175.466C1173.4 176.125 1173.05 176.705 1172.57 177.205C1172.09 177.699 1171.49 178.085 1170.78 178.364C1170.07 178.636 1169.27 178.773 1168.38 178.773ZM1180.72 178.807C1179.89 178.807 1179.13 178.651 1178.46 178.338C1177.78 178.02 1177.25 177.562 1176.85 176.966C1176.45 176.364 1176.25 175.636 1176.25 174.784C1176.25 174.034 1176.4 173.426 1176.69 172.96C1176.99 172.489 1177.38 172.119 1177.88 171.852C1178.37 171.585 1178.92 171.386 1179.51 171.256C1180.12 171.119 1180.72 171.011 1181.33 170.932C1182.13 170.83 1182.77 170.753 1183.26 170.702C1183.76 170.645 1184.13 170.551 1184.36 170.42C1184.59 170.29 1184.71 170.062 1184.71 169.739V169.67C1184.71 168.83 1184.48 168.176 1184.01 167.71C1183.56 167.244 1182.87 167.011 1181.94 167.011C1180.98 167.011 1180.23 167.222 1179.69 167.642C1179.14 168.062 1178.76 168.511 1178.53 168.989L1176.63 168.307C1176.97 167.511 1177.42 166.892 1177.99 166.449C1178.56 166 1179.19 165.687 1179.86 165.511C1180.55 165.33 1181.22 165.239 1181.88 165.239C1182.3 165.239 1182.78 165.29 1183.32 165.392C1183.88 165.489 1184.41 165.69 1184.92 165.997C1185.44 166.304 1185.86 166.767 1186.21 167.386C1186.55 168.006 1186.72 168.835 1186.72 169.875V178.5H1184.71V176.727H1184.6C1184.47 177.011 1184.24 177.315 1183.92 177.639C1183.6 177.963 1183.18 178.239 1182.65 178.466C1182.12 178.693 1181.48 178.807 1180.72 178.807ZM1181.02 177C1181.82 177 1182.49 176.844 1183.03 176.531C1183.59 176.219 1184 175.815 1184.28 175.321C1184.56 174.827 1184.71 174.307 1184.71 173.761V171.92C1184.62 172.023 1184.43 172.116 1184.14 172.202C1183.86 172.281 1183.53 172.352 1183.15 172.415C1182.78 172.472 1182.42 172.523 1182.07 172.568C1181.73 172.608 1181.44 172.642 1181.23 172.67C1180.71 172.739 1180.22 172.849 1179.76 173.003C1179.31 173.151 1178.95 173.375 1178.67 173.676C1178.4 173.972 1178.26 174.375 1178.26 174.886C1178.26 175.585 1178.52 176.114 1179.04 176.472C1179.56 176.824 1180.22 177 1181.02 177ZM1196.08 165.409V167.114H1189.3V165.409H1196.08ZM1191.27 162.273H1193.29V174.75C1193.29 175.318 1193.37 175.744 1193.53 176.028C1193.7 176.307 1193.92 176.494 1194.18 176.591C1194.45 176.682 1194.73 176.727 1195.02 176.727C1195.25 176.727 1195.43 176.716 1195.57 176.693C1195.71 176.665 1195.83 176.642 1195.91 176.625L1196.32 178.432C1196.18 178.483 1195.99 178.534 1195.75 178.585C1195.5 178.642 1195.19 178.67 1194.82 178.67C1194.25 178.67 1193.69 178.548 1193.15 178.304C1192.61 178.06 1192.16 177.688 1191.8 177.188C1191.45 176.688 1191.27 176.057 1191.27 175.295V162.273ZM1204.28 178.773C1203.1 178.773 1202.07 178.491 1201.17 177.929C1200.29 177.366 1199.59 176.58 1199.09 175.568C1198.6 174.557 1198.35 173.375 1198.35 172.023C1198.35 170.659 1198.6 169.469 1199.09 168.452C1199.59 167.435 1200.29 166.645 1201.17 166.082C1202.07 165.52 1203.1 165.239 1204.28 165.239C1205.47 165.239 1206.5 165.52 1207.39 166.082C1208.28 166.645 1208.97 167.435 1209.47 168.452C1209.97 169.469 1210.22 170.659 1210.22 172.023C1210.22 173.375 1209.97 174.557 1209.47 175.568C1208.97 176.58 1208.28 177.366 1207.39 177.929C1206.5 178.491 1205.47 178.773 1204.28 178.773ZM1204.28 176.966C1205.18 176.966 1205.92 176.736 1206.5 176.276C1207.08 175.815 1207.51 175.21 1207.79 174.46C1208.07 173.71 1208.2 172.898 1208.2 172.023C1208.2 171.148 1208.07 170.332 1207.79 169.577C1207.51 168.821 1207.08 168.21 1206.5 167.744C1205.92 167.278 1205.18 167.045 1204.28 167.045C1203.39 167.045 1202.65 167.278 1202.07 167.744C1201.49 168.21 1201.06 168.821 1200.78 169.577C1200.5 170.332 1200.36 171.148 1200.36 172.023C1200.36 172.898 1200.5 173.71 1200.78 174.46C1201.06 175.21 1201.49 175.815 1202.07 176.276C1202.65 176.736 1203.39 176.966 1204.28 176.966ZM1213.29 178.5V165.409H1215.23V167.386H1215.37C1215.6 166.739 1216.04 166.213 1216.66 165.81C1217.29 165.406 1217.99 165.205 1218.77 165.205C1218.92 165.205 1219.11 165.207 1219.33 165.213C1219.55 165.219 1219.72 165.227 1219.83 165.239V167.284C1219.76 167.267 1219.61 167.241 1219.36 167.207C1219.12 167.168 1218.87 167.148 1218.6 167.148C1217.97 167.148 1217.4 167.281 1216.9 167.548C1216.41 167.81 1216.01 168.173 1215.72 168.639C1215.44 169.099 1215.3 169.625 1215.3 170.216V178.5H1213.29ZM1231.49 168.341L1229.68 168.852C1229.57 168.551 1229.4 168.259 1229.18 167.974C1228.96 167.685 1228.67 167.446 1228.29 167.259C1227.92 167.071 1227.44 166.977 1226.85 166.977C1226.05 166.977 1225.38 167.162 1224.85 167.531C1224.32 167.895 1224.06 168.358 1224.06 168.92C1224.06 169.42 1224.24 169.815 1224.6 170.105C1224.97 170.395 1225.53 170.636 1226.31 170.83L1228.25 171.307C1229.42 171.591 1230.29 172.026 1230.87 172.611C1231.44 173.19 1231.73 173.937 1231.73 174.852C1231.73 175.602 1231.51 176.273 1231.08 176.864C1230.65 177.455 1230.06 177.92 1229.29 178.261C1228.52 178.602 1227.63 178.773 1226.61 178.773C1225.28 178.773 1224.17 178.483 1223.3 177.903C1222.42 177.324 1221.87 176.477 1221.64 175.364L1223.55 174.886C1223.73 175.591 1224.07 176.119 1224.58 176.472C1225.09 176.824 1225.76 177 1226.58 177C1227.52 177 1228.26 176.801 1228.81 176.403C1229.37 176 1229.65 175.517 1229.65 174.955C1229.65 174.5 1229.49 174.119 1229.17 173.812C1228.85 173.5 1228.36 173.267 1227.7 173.114L1225.52 172.602C1224.32 172.318 1223.44 171.878 1222.88 171.281C1222.32 170.679 1222.05 169.926 1222.05 169.023C1222.05 168.284 1222.25 167.631 1222.67 167.062C1223.09 166.494 1223.66 166.048 1224.38 165.724C1225.11 165.401 1225.93 165.239 1226.85 165.239C1228.15 165.239 1229.16 165.523 1229.9 166.091C1230.65 166.659 1231.18 167.409 1231.49 168.341ZM1126.4 190.045V207.5H1124.35L1114.84 193.795H1114.67V207.5H1112.56V190.045H1114.6L1124.15 203.784H1124.32V190.045H1126.4ZM1135.84 207.773C1134.58 207.773 1133.49 207.494 1132.58 206.938C1131.67 206.375 1130.97 205.591 1130.47 204.585C1129.98 203.574 1129.74 202.398 1129.74 201.057C1129.74 199.716 1129.98 198.534 1130.47 197.511C1130.97 196.483 1131.65 195.682 1132.53 195.108C1133.42 194.528 1134.45 194.239 1135.64 194.239C1136.32 194.239 1136.99 194.352 1137.66 194.58C1138.32 194.807 1138.93 195.176 1139.47 195.688C1140.02 196.193 1140.45 196.864 1140.78 197.699C1141.1 198.534 1141.26 199.562 1141.26 200.784V201.636H1131.17V199.898H1139.22C1139.22 199.159 1139.07 198.5 1138.77 197.92C1138.48 197.341 1138.07 196.884 1137.53 196.548C1136.99 196.213 1136.36 196.045 1135.64 196.045C1134.84 196.045 1134.14 196.244 1133.56 196.642C1132.98 197.034 1132.53 197.545 1132.22 198.176C1131.91 198.807 1131.75 199.483 1131.75 200.205V201.364C1131.75 202.352 1131.92 203.19 1132.26 203.878C1132.61 204.56 1133.09 205.08 1133.7 205.438C1134.32 205.79 1135.03 205.966 1135.84 205.966C1136.37 205.966 1136.85 205.892 1137.27 205.744C1137.7 205.591 1138.08 205.364 1138.39 205.062C1138.7 204.756 1138.94 204.375 1139.11 203.92L1141.06 204.466C1140.85 205.125 1140.51 205.705 1140.03 206.205C1139.54 206.699 1138.95 207.085 1138.24 207.364C1137.53 207.636 1136.73 207.773 1135.84 207.773ZM1150.01 194.409V196.114H1143.23V194.409H1150.01ZM1145.21 191.273H1147.22V203.75C1147.22 204.318 1147.3 204.744 1147.47 205.028C1147.64 205.307 1147.85 205.494 1148.11 205.591C1148.38 205.682 1148.66 205.727 1148.96 205.727C1149.18 205.727 1149.36 205.716 1149.5 205.693C1149.65 205.665 1149.76 205.642 1149.84 205.625L1150.25 207.432C1150.12 207.483 1149.93 207.534 1149.68 207.585C1149.44 207.642 1149.13 207.67 1148.75 207.67C1148.19 207.67 1147.63 207.548 1147.08 207.304C1146.54 207.06 1146.09 206.688 1145.74 206.188C1145.38 205.688 1145.21 205.057 1145.21 204.295V191.273ZM1156.01 207.5L1152.02 194.409H1154.13L1156.96 204.432H1157.1L1159.89 194.409H1162.04L1164.8 204.398H1164.94L1167.77 194.409H1169.88L1165.89 207.5H1163.92L1161.05 197.443H1160.85L1157.98 207.5H1156.01ZM1177.41 207.773C1176.23 207.773 1175.19 207.491 1174.3 206.929C1173.42 206.366 1172.72 205.58 1172.22 204.568C1171.73 203.557 1171.48 202.375 1171.48 201.023C1171.48 199.659 1171.73 198.469 1172.22 197.452C1172.72 196.435 1173.42 195.645 1174.3 195.082C1175.19 194.52 1176.23 194.239 1177.41 194.239C1178.59 194.239 1179.63 194.52 1180.52 195.082C1181.41 195.645 1182.1 196.435 1182.59 197.452C1183.09 198.469 1183.34 199.659 1183.34 201.023C1183.34 202.375 1183.09 203.557 1182.59 204.568C1182.1 205.58 1181.41 206.366 1180.52 206.929C1179.63 207.491 1178.59 207.773 1177.41 207.773ZM1177.41 205.966C1178.31 205.966 1179.05 205.736 1179.63 205.276C1180.21 204.815 1180.64 204.21 1180.92 203.46C1181.19 202.71 1181.33 201.898 1181.33 201.023C1181.33 200.148 1181.19 199.332 1180.92 198.577C1180.64 197.821 1180.21 197.21 1179.63 196.744C1179.05 196.278 1178.31 196.045 1177.41 196.045C1176.52 196.045 1175.78 196.278 1175.2 196.744C1174.62 197.21 1174.19 197.821 1173.91 198.577C1173.63 199.332 1173.49 200.148 1173.49 201.023C1173.49 201.898 1173.63 202.71 1173.91 203.46C1174.19 204.21 1174.62 204.815 1175.2 205.276C1175.78 205.736 1176.52 205.966 1177.41 205.966ZM1186.42 207.5V194.409H1188.36V196.386H1188.49C1188.73 195.739 1189.17 195.213 1189.79 194.81C1190.42 194.406 1191.12 194.205 1191.9 194.205C1192.05 194.205 1192.24 194.207 1192.46 194.213C1192.68 194.219 1192.85 194.227 1192.96 194.239V196.284C1192.89 196.267 1192.74 196.241 1192.49 196.207C1192.25 196.168 1192 196.148 1191.73 196.148C1191.1 196.148 1190.53 196.281 1190.03 196.548C1189.53 196.81 1189.14 197.173 1188.85 197.639C1188.57 198.099 1188.43 198.625 1188.43 199.216V207.5H1186.42ZM1197.22 202.727L1197.19 200.239H1197.59L1203.32 194.409H1205.81L1199.71 200.58H1199.54L1197.22 202.727ZM1195.34 207.5V190.045H1197.36V207.5H1195.34ZM1203.66 207.5L1198.55 201.023L1199.98 199.625L1206.22 207.5H1203.66Z" fill="#F5F5F7"/>
<g opacity="0.2" filter="url(#filter3_f_238_115)">
<line x1="1405" y1="39" x2="1405" y2="215" stroke="#F5F5F7" stroke-width="2" stroke-linecap="round"/>
</g>
<path d="M1580.45 70.5C1579.95 68.9697 1579.3 67.5985 1578.48 66.3864C1577.67 65.1591 1576.71 64.1136 1575.59 63.25C1574.48 62.3864 1573.23 61.7273 1571.82 61.2727C1570.41 60.8182 1568.86 60.5909 1567.18 60.5909C1564.42 60.5909 1561.92 61.303 1559.66 62.7273C1557.4 64.1515 1555.61 66.25 1554.27 69.0227C1552.94 71.7955 1552.27 75.197 1552.27 79.2273C1552.27 83.2576 1552.95 86.6591 1554.3 89.4318C1555.64 92.2045 1557.47 94.303 1559.77 95.7273C1562.08 97.1515 1564.67 97.8636 1567.55 97.8636C1570.21 97.8636 1572.56 97.2955 1574.59 96.1591C1576.64 95.0076 1578.23 93.3864 1579.36 91.2955C1580.52 89.1894 1581.09 86.7121 1581.09 83.8636L1582.82 84.2273H1568.82V79.2273H1586.55V84.2273C1586.55 88.0606 1585.73 91.3939 1584.09 94.2273C1582.47 97.0606 1580.23 99.2576 1577.36 100.818C1574.52 102.364 1571.24 103.136 1567.55 103.136C1563.42 103.136 1559.8 102.167 1556.68 100.227C1553.58 98.2879 1551.15 95.5303 1549.41 91.9545C1547.68 88.3788 1546.82 84.1364 1546.82 79.2273C1546.82 75.5455 1547.31 72.2348 1548.3 69.2955C1549.3 66.3409 1550.7 63.8258 1552.52 61.75C1554.34 59.6742 1556.49 58.0833 1558.98 56.9773C1561.46 55.8712 1564.2 55.3182 1567.18 55.3182C1569.64 55.3182 1571.92 55.6894 1574.05 56.4318C1576.18 57.1591 1578.08 58.197 1579.75 59.5455C1581.43 60.8788 1582.83 62.4773 1583.95 64.3409C1585.08 66.1894 1585.85 68.2424 1586.27 70.5H1580.45ZM1600.84 55.9545V102.5H1595.47V55.9545H1600.84ZM1624.84 103.227C1621.69 103.227 1618.92 102.477 1616.55 100.977C1614.18 99.4773 1612.33 97.3788 1611 94.6818C1609.68 91.9848 1609.02 88.8333 1609.02 85.2273C1609.02 81.5909 1609.68 78.4167 1611 75.7045C1612.33 72.9924 1614.18 70.8864 1616.55 69.3864C1618.92 67.8864 1621.69 67.1364 1624.84 67.1364C1627.99 67.1364 1630.75 67.8864 1633.11 69.3864C1635.49 70.8864 1637.34 72.9924 1638.66 75.7045C1639.99 78.4167 1640.66 81.5909 1640.66 85.2273C1640.66 88.8333 1639.99 91.9848 1638.66 94.6818C1637.34 97.3788 1635.49 99.4773 1633.11 100.977C1630.75 102.477 1627.99 103.227 1624.84 103.227ZM1624.84 98.4091C1627.23 98.4091 1629.2 97.7955 1630.75 96.5682C1632.3 95.3409 1633.44 93.7273 1634.18 91.7273C1634.92 89.7273 1635.3 87.5606 1635.3 85.2273C1635.3 82.8939 1634.92 80.7197 1634.18 78.7045C1633.44 76.6894 1632.3 75.0606 1630.75 73.8182C1629.2 72.5758 1627.23 71.9545 1624.84 71.9545C1622.45 71.9545 1620.48 72.5758 1618.93 73.8182C1617.39 75.0606 1616.24 76.6894 1615.5 78.7045C1614.76 80.7197 1614.39 82.8939 1614.39 85.2273C1614.39 87.5606 1614.76 89.7273 1615.5 91.7273C1616.24 93.7273 1617.39 95.3409 1618.93 96.5682C1620.48 97.7955 1622.45 98.4091 1624.84 98.4091ZM1649.57 102.5V55.9545H1654.94V73.1364H1655.39C1655.79 72.5303 1656.33 71.7576 1657.03 70.8182C1657.74 69.8636 1658.76 69.0152 1660.07 68.2727C1661.41 67.5152 1663.21 67.1364 1665.48 67.1364C1668.42 67.1364 1671.01 67.8712 1673.26 69.3409C1675.5 70.8106 1677.25 72.8939 1678.51 75.5909C1679.76 78.2879 1680.39 81.4697 1680.39 85.1364C1680.39 88.8333 1679.76 92.0379 1678.51 94.75C1677.25 97.447 1675.51 99.5379 1673.28 101.023C1671.05 102.492 1668.48 103.227 1665.57 103.227C1663.33 103.227 1661.54 102.856 1660.19 102.114C1658.84 101.356 1657.8 100.5 1657.07 99.5455C1656.35 98.5758 1655.79 97.7727 1655.39 97.1364H1654.76V102.5H1649.57ZM1654.85 85.0455C1654.85 87.6818 1655.23 90.0076 1656.01 92.0227C1656.78 94.0227 1657.91 95.5909 1659.39 96.7273C1660.88 97.8485 1662.7 98.4091 1664.85 98.4091C1667.09 98.4091 1668.96 97.8182 1670.46 96.6364C1671.98 95.4394 1673.11 93.8333 1673.87 91.8182C1674.64 89.7879 1675.03 87.5303 1675.03 85.0455C1675.03 82.5909 1674.65 80.3788 1673.89 78.4091C1673.15 76.4242 1672.02 74.8561 1670.51 73.7045C1669.01 72.5379 1667.12 71.9545 1664.85 71.9545C1662.66 71.9545 1660.83 72.5076 1659.35 73.6136C1657.86 74.7045 1656.74 76.2348 1655.98 78.2045C1655.23 80.1591 1654.85 82.4394 1654.85 85.0455ZM1698.87 103.318C1696.66 103.318 1694.65 102.902 1692.85 102.068C1691.04 101.22 1689.61 100 1688.55 98.4091C1687.49 96.803 1686.96 94.8636 1686.96 92.5909C1686.96 90.5909 1687.35 88.9697 1688.14 87.7273C1688.93 86.4697 1689.98 85.4848 1691.3 84.7727C1692.62 84.0606 1694.07 83.5303 1695.66 83.1818C1697.27 82.8182 1698.88 82.5303 1700.51 82.3182C1702.63 82.0455 1704.35 81.8409 1705.66 81.7045C1707 81.553 1707.97 81.303 1708.57 80.9545C1709.2 80.6061 1709.51 80 1709.51 79.1364V78.9545C1709.51 76.7121 1708.89 74.9697 1707.66 73.7273C1706.45 72.4848 1704.61 71.8636 1702.14 71.8636C1699.58 71.8636 1697.57 72.4242 1696.12 73.5455C1694.66 74.6667 1693.64 75.8636 1693.05 77.1364L1687.96 75.3182C1688.87 73.197 1690.08 71.5455 1691.6 70.3636C1693.13 69.1667 1694.79 68.3333 1696.6 67.8636C1698.41 67.3788 1700.2 67.1364 1701.96 67.1364C1703.08 67.1364 1704.37 67.2727 1705.82 67.5455C1707.29 67.803 1708.71 68.3409 1710.07 69.1591C1711.45 69.9773 1712.6 71.2121 1713.51 72.8636C1714.41 74.5152 1714.87 76.7273 1714.87 79.5V102.5H1709.51V97.7727H1709.23C1708.87 98.5303 1708.26 99.3409 1707.41 100.205C1706.57 101.068 1705.44 101.803 1704.03 102.409C1702.62 103.015 1700.9 103.318 1698.87 103.318ZM1699.69 98.5C1701.81 98.5 1703.6 98.0833 1705.05 97.25C1706.52 96.4167 1707.63 95.3409 1708.37 94.0227C1709.13 92.7045 1709.51 91.3182 1709.51 89.8636V84.9545C1709.28 85.2273 1708.78 85.4773 1708.01 85.7045C1707.25 85.9167 1706.37 86.1061 1705.37 86.2727C1704.38 86.4242 1703.42 86.5606 1702.48 86.6818C1701.56 86.7879 1700.81 86.8788 1700.23 86.9545C1698.84 87.1364 1697.54 87.4318 1696.32 87.8409C1695.13 88.2348 1694.16 88.8333 1693.41 89.6364C1692.69 90.4242 1692.32 91.5 1692.32 92.8636C1692.32 94.7273 1693.01 96.1364 1694.39 97.0909C1695.79 98.0303 1697.55 98.5 1699.69 98.5ZM1730.02 55.9545V102.5H1724.66V55.9545H1730.02Z" fill="#F5F5F7"/>
<path d="M1578.38 169.773C1578.38 171.614 1578.05 173.205 1577.38 174.545C1576.72 175.886 1575.81 176.92 1574.65 177.648C1573.49 178.375 1572.16 178.739 1570.68 178.739C1569.19 178.739 1567.86 178.375 1566.7 177.648C1565.54 176.92 1564.63 175.886 1563.97 174.545C1563.3 173.205 1562.97 171.614 1562.97 169.773C1562.97 167.932 1563.3 166.341 1563.97 165C1564.63 163.659 1565.54 162.625 1566.7 161.898C1567.86 161.17 1569.19 160.807 1570.68 160.807C1572.16 160.807 1573.49 161.17 1574.65 161.898C1575.81 162.625 1576.72 163.659 1577.38 165C1578.05 166.341 1578.38 167.932 1578.38 169.773ZM1576.33 169.773C1576.33 168.261 1576.08 166.986 1575.58 165.946C1575.08 164.906 1574.4 164.119 1573.54 163.585C1572.69 163.051 1571.73 162.784 1570.68 162.784C1569.62 162.784 1568.66 163.051 1567.8 163.585C1566.95 164.119 1566.27 164.906 1565.77 165.946C1565.27 166.986 1565.02 168.261 1565.02 169.773C1565.02 171.284 1565.27 172.56 1565.77 173.599C1566.27 174.639 1566.95 175.426 1567.8 175.96C1568.66 176.494 1569.62 176.761 1570.68 176.761C1571.73 176.761 1572.69 176.494 1573.54 175.96C1574.4 175.426 1575.08 174.639 1575.58 173.599C1576.08 172.56 1576.33 171.284 1576.33 169.773ZM1581.66 183.409V165.409H1583.6V167.489H1583.84C1583.99 167.261 1584.2 166.972 1584.46 166.619C1584.72 166.261 1585.1 165.943 1585.6 165.665C1586.1 165.381 1586.77 165.239 1587.63 165.239C1588.73 165.239 1589.7 165.514 1590.54 166.065C1591.38 166.616 1592.04 167.398 1592.51 168.409C1592.98 169.42 1593.22 170.614 1593.22 171.989C1593.22 173.375 1592.98 174.577 1592.51 175.594C1592.04 176.605 1591.39 177.389 1590.55 177.946C1589.72 178.497 1588.75 178.773 1587.66 178.773C1586.82 178.773 1586.15 178.634 1585.64 178.355C1585.14 178.071 1584.75 177.75 1584.47 177.392C1584.2 177.028 1583.99 176.727 1583.84 176.489H1583.67V183.409H1581.66ZM1583.64 171.955C1583.64 172.943 1583.78 173.815 1584.07 174.571C1584.36 175.321 1584.79 175.909 1585.34 176.335C1585.9 176.756 1586.58 176.966 1587.39 176.966C1588.23 176.966 1588.93 176.744 1589.49 176.301C1590.06 175.852 1590.49 175.25 1590.77 174.494C1591.06 173.733 1591.21 172.886 1591.21 171.955C1591.21 171.034 1591.06 170.205 1590.78 169.466C1590.5 168.722 1590.08 168.134 1589.51 167.702C1588.95 167.264 1588.24 167.045 1587.39 167.045C1586.57 167.045 1585.88 167.253 1585.33 167.668C1584.77 168.077 1584.35 168.651 1584.06 169.389C1583.78 170.122 1583.64 170.977 1583.64 171.955ZM1596.29 183.409V165.409H1598.23V167.489H1598.47C1598.62 167.261 1598.82 166.972 1599.08 166.619C1599.35 166.261 1599.73 165.943 1600.22 165.665C1600.72 165.381 1601.4 165.239 1602.25 165.239C1603.35 165.239 1604.33 165.514 1605.17 166.065C1606.01 166.616 1606.66 167.398 1607.14 168.409C1607.61 169.42 1607.84 170.614 1607.84 171.989C1607.84 173.375 1607.61 174.577 1607.14 175.594C1606.66 176.605 1606.01 177.389 1605.18 177.946C1604.34 178.497 1603.38 178.773 1602.29 178.773C1601.45 178.773 1600.77 178.634 1600.27 178.355C1599.76 178.071 1599.37 177.75 1599.1 177.392C1598.83 177.028 1598.62 176.727 1598.47 176.489H1598.3V183.409H1596.29ZM1598.26 171.955C1598.26 172.943 1598.41 173.815 1598.7 174.571C1598.99 175.321 1599.41 175.909 1599.97 176.335C1600.52 176.756 1601.21 176.966 1602.01 176.966C1602.85 176.966 1603.56 176.744 1604.12 176.301C1604.69 175.852 1605.11 175.25 1605.4 174.494C1605.69 173.733 1605.83 172.886 1605.83 171.955C1605.83 171.034 1605.69 170.205 1605.41 169.466C1605.13 168.722 1604.7 168.134 1604.14 167.702C1603.57 167.264 1602.87 167.045 1602.01 167.045C1601.2 167.045 1600.51 167.253 1599.95 167.668C1599.39 168.077 1598.97 168.651 1598.69 169.389C1598.41 170.122 1598.26 170.977 1598.26 171.955ZM1616.23 178.773C1615.05 178.773 1614.01 178.491 1613.12 177.929C1612.23 177.366 1611.54 176.58 1611.04 175.568C1610.54 174.557 1610.3 173.375 1610.3 172.023C1610.3 170.659 1610.54 169.469 1611.04 168.452C1611.54 167.435 1612.23 166.645 1613.12 166.082C1614.01 165.52 1615.05 165.239 1616.23 165.239C1617.41 165.239 1618.45 165.52 1619.33 166.082C1620.22 166.645 1620.92 167.435 1621.41 168.452C1621.91 169.469 1622.16 170.659 1622.16 172.023C1622.16 173.375 1621.91 174.557 1621.41 175.568C1620.92 176.58 1620.22 177.366 1619.33 177.929C1618.45 178.491 1617.41 178.773 1616.23 178.773ZM1616.23 176.966C1617.13 176.966 1617.87 176.736 1618.45 176.276C1619.02 175.815 1619.45 175.21 1619.73 174.46C1620.01 173.71 1620.15 172.898 1620.15 172.023C1620.15 171.148 1620.01 170.332 1619.73 169.577C1619.45 168.821 1619.02 168.21 1618.45 167.744C1617.87 167.278 1617.13 167.045 1616.23 167.045C1615.33 167.045 1614.59 167.278 1614.01 167.744C1613.43 168.21 1613 168.821 1612.73 169.577C1612.45 170.332 1612.31 171.148 1612.31 172.023C1612.31 172.898 1612.45 173.71 1612.73 174.46C1613 175.21 1613.43 175.815 1614.01 176.276C1614.59 176.736 1615.33 176.966 1616.23 176.966ZM1625.23 178.5V165.409H1627.17V167.386H1627.31C1627.55 166.739 1627.98 166.213 1628.61 165.81C1629.23 165.406 1629.94 165.205 1630.72 165.205C1630.87 165.205 1631.05 165.207 1631.27 165.213C1631.5 165.219 1631.66 165.227 1631.78 165.239V167.284C1631.71 167.267 1631.55 167.241 1631.31 167.207C1631.07 167.168 1630.82 167.148 1630.55 167.148C1629.91 167.148 1629.35 167.281 1628.85 167.548C1628.35 167.81 1627.96 168.173 1627.67 168.639C1627.38 169.099 1627.24 169.625 1627.24 170.216V178.5H1625.23ZM1640.67 165.409V167.114H1633.89V165.409H1640.67ZM1635.87 162.273H1637.88V174.75C1637.88 175.318 1637.96 175.744 1638.13 176.028C1638.3 176.307 1638.51 176.494 1638.77 176.591C1639.04 176.682 1639.32 176.727 1639.62 176.727C1639.84 176.727 1640.02 176.716 1640.16 176.693C1640.31 176.665 1640.42 176.642 1640.5 176.625L1640.91 178.432C1640.78 178.483 1640.59 178.534 1640.34 178.585C1640.1 178.642 1639.79 178.67 1639.41 178.67C1638.85 178.67 1638.29 178.548 1637.74 178.304C1637.2 178.06 1636.75 177.688 1636.4 177.188C1636.04 176.688 1635.87 176.057 1635.87 175.295V162.273ZM1651.95 173.148V165.409H1653.96V178.5H1651.95V176.284H1651.81C1651.51 176.949 1651.03 177.514 1650.38 177.98C1649.73 178.44 1648.92 178.67 1647.93 178.67C1647.11 178.67 1646.38 178.491 1645.75 178.134C1645.11 177.77 1644.61 177.224 1644.25 176.497C1643.88 175.764 1643.7 174.841 1643.7 173.727V165.409H1645.71V173.591C1645.71 174.545 1645.98 175.307 1646.51 175.875C1647.05 176.443 1647.74 176.727 1648.58 176.727C1649.08 176.727 1649.58 176.599 1650.1 176.344C1650.62 176.088 1651.06 175.696 1651.41 175.168C1651.77 174.639 1651.95 173.966 1651.95 173.148ZM1659.66 170.625V178.5H1657.65V165.409H1659.59V167.455H1659.76C1660.07 166.79 1660.53 166.256 1661.16 165.852C1661.78 165.443 1662.59 165.239 1663.58 165.239C1664.46 165.239 1665.24 165.42 1665.9 165.784C1666.57 166.142 1667.09 166.688 1667.46 167.42C1667.82 168.148 1668.01 169.068 1668.01 170.182V178.5H1666V170.318C1666 169.29 1665.73 168.489 1665.2 167.915C1664.66 167.335 1663.93 167.045 1663 167.045C1662.36 167.045 1661.78 167.185 1661.28 167.463C1660.78 167.741 1660.38 168.148 1660.09 168.682C1659.8 169.216 1659.66 169.864 1659.66 170.625ZM1671.68 178.5V165.409H1673.7V178.5H1671.68ZM1672.71 163.227C1672.32 163.227 1671.98 163.094 1671.69 162.827C1671.41 162.56 1671.28 162.239 1671.28 161.864C1671.28 161.489 1671.41 161.168 1671.69 160.901C1671.98 160.634 1672.32 160.5 1672.71 160.5C1673.1 160.5 1673.43 160.634 1673.71 160.901C1674 161.168 1674.14 161.489 1674.14 161.864C1674.14 162.239 1674 162.56 1673.71 162.827C1673.43 163.094 1673.1 163.227 1672.71 163.227ZM1683.07 165.409V167.114H1676.29V165.409H1683.07ZM1678.27 162.273H1680.28V174.75C1680.28 175.318 1680.36 175.744 1680.52 176.028C1680.7 176.307 1680.91 176.494 1681.17 176.591C1681.44 176.682 1681.72 176.727 1682.02 176.727C1682.24 176.727 1682.42 176.716 1682.56 176.693C1682.7 176.665 1682.82 176.642 1682.9 176.625L1683.31 178.432C1683.18 178.483 1682.99 178.534 1682.74 178.585C1682.5 178.642 1682.19 178.67 1681.81 178.67C1681.24 178.67 1680.69 178.548 1680.14 178.304C1679.6 178.06 1679.15 177.688 1678.79 177.188C1678.44 176.688 1678.27 176.057 1678.27 175.295V162.273ZM1686.1 178.5V165.409H1688.11V178.5H1686.1ZM1687.12 163.227C1686.73 163.227 1686.39 163.094 1686.11 162.827C1685.83 162.56 1685.69 162.239 1685.69 161.864C1685.69 161.489 1685.83 161.168 1686.11 160.901C1686.39 160.634 1686.73 160.5 1687.12 160.5C1687.51 160.5 1687.85 160.634 1688.13 160.901C1688.41 161.168 1688.55 161.489 1688.55 161.864C1688.55 162.239 1688.41 162.56 1688.13 162.827C1687.85 163.094 1687.51 163.227 1687.12 163.227ZM1697.28 178.773C1696.02 178.773 1694.93 178.494 1694.02 177.938C1693.11 177.375 1692.41 176.591 1691.91 175.585C1691.42 174.574 1691.18 173.398 1691.18 172.057C1691.18 170.716 1691.42 169.534 1691.91 168.511C1692.41 167.483 1693.1 166.682 1693.98 166.108C1694.86 165.528 1695.9 165.239 1697.08 165.239C1697.76 165.239 1698.43 165.352 1699.1 165.58C1699.76 165.807 1700.37 166.176 1700.91 166.688C1701.46 167.193 1701.89 167.864 1702.22 168.699C1702.54 169.534 1702.7 170.562 1702.7 171.784V172.636H1692.61V170.898H1700.66C1700.66 170.159 1700.51 169.5 1700.21 168.92C1699.92 168.341 1699.51 167.884 1698.97 167.548C1698.44 167.213 1697.81 167.045 1697.08 167.045C1696.28 167.045 1695.58 167.244 1695 167.642C1694.42 168.034 1693.97 168.545 1693.66 169.176C1693.35 169.807 1693.19 170.483 1693.19 171.205V172.364C1693.19 173.352 1693.36 174.19 1693.7 174.878C1694.05 175.56 1694.53 176.08 1695.14 176.438C1695.76 176.79 1696.47 176.966 1697.28 176.966C1697.81 176.966 1698.29 176.892 1698.71 176.744C1699.15 176.591 1699.52 176.364 1699.83 176.062C1700.14 175.756 1700.38 175.375 1700.56 174.92L1702.5 175.466C1702.29 176.125 1701.95 176.705 1701.47 177.205C1700.98 177.699 1700.39 178.085 1699.68 178.364C1698.97 178.636 1698.17 178.773 1697.28 178.773ZM1715.04 168.341L1713.23 168.852C1713.12 168.551 1712.95 168.259 1712.73 167.974C1712.51 167.685 1712.21 167.446 1711.84 167.259C1711.46 167.071 1710.98 166.977 1710.4 166.977C1709.6 166.977 1708.93 167.162 1708.4 167.531C1707.87 167.895 1707.6 168.358 1707.6 168.92C1707.6 169.42 1707.79 169.815 1708.15 170.105C1708.51 170.395 1709.08 170.636 1709.85 170.83L1711.8 171.307C1712.97 171.591 1713.84 172.026 1714.41 172.611C1714.99 173.19 1715.27 173.937 1715.27 174.852C1715.27 175.602 1715.06 176.273 1714.63 176.864C1714.2 177.455 1713.6 177.92 1712.84 178.261C1712.07 178.602 1711.18 178.773 1710.16 178.773C1708.83 178.773 1707.72 178.483 1706.85 177.903C1705.97 177.324 1705.42 176.477 1705.18 175.364L1707.09 174.886C1707.27 175.591 1707.62 176.119 1708.12 176.472C1708.63 176.824 1709.3 177 1710.13 177C1711.06 177 1711.81 176.801 1712.36 176.403C1712.92 176 1713.19 175.517 1713.19 174.955C1713.19 174.5 1713.04 174.119 1712.72 173.812C1712.4 173.5 1711.91 173.267 1711.25 173.114L1709.07 172.602C1707.87 172.318 1706.99 171.878 1706.43 171.281C1705.87 170.679 1705.59 169.926 1705.59 169.023C1705.59 168.284 1705.8 167.631 1706.21 167.062C1706.63 166.494 1707.21 166.048 1707.93 165.724C1708.65 165.401 1709.48 165.239 1710.4 165.239C1711.69 165.239 1712.71 165.523 1713.45 166.091C1714.19 166.659 1714.72 167.409 1715.04 168.341ZM1585.32 207.5L1581.33 194.409H1583.44L1586.27 204.432H1586.41L1589.2 194.409H1591.35L1594.11 204.398H1594.25L1597.08 194.409H1599.19L1595.2 207.5H1593.23L1590.36 197.443H1590.16L1587.3 207.5H1585.32ZM1606.73 207.773C1605.54 207.773 1604.51 207.491 1603.61 206.929C1602.73 206.366 1602.04 205.58 1601.54 204.568C1601.04 203.557 1600.79 202.375 1600.79 201.023C1600.79 199.659 1601.04 198.469 1601.54 197.452C1602.04 196.435 1602.73 195.645 1603.61 195.082C1604.51 194.52 1605.54 194.239 1606.73 194.239C1607.91 194.239 1608.94 194.52 1609.83 195.082C1610.72 195.645 1611.41 196.435 1611.91 197.452C1612.41 198.469 1612.66 199.659 1612.66 201.023C1612.66 202.375 1612.41 203.557 1611.91 204.568C1611.41 205.58 1610.72 206.366 1609.83 206.929C1608.94 207.491 1607.91 207.773 1606.73 207.773ZM1606.73 205.966C1607.62 205.966 1608.36 205.736 1608.94 205.276C1609.52 204.815 1609.95 204.21 1610.23 203.46C1610.51 202.71 1610.65 201.898 1610.65 201.023C1610.65 200.148 1610.51 199.332 1610.23 198.577C1609.95 197.821 1609.52 197.21 1608.94 196.744C1608.36 196.278 1607.62 196.045 1606.73 196.045C1605.83 196.045 1605.09 196.278 1604.51 196.744C1603.93 197.21 1603.5 197.821 1603.22 198.577C1602.94 199.332 1602.81 200.148 1602.81 201.023C1602.81 201.898 1602.94 202.71 1603.22 203.46C1603.5 204.21 1603.93 204.815 1604.51 205.276C1605.09 205.736 1605.83 205.966 1606.73 205.966ZM1615.73 207.5V194.409H1617.67V196.386H1617.81C1618.05 195.739 1618.48 195.213 1619.1 194.81C1619.73 194.406 1620.43 194.205 1621.22 194.205C1621.36 194.205 1621.55 194.207 1621.77 194.213C1621.99 194.219 1622.16 194.227 1622.27 194.239V196.284C1622.2 196.267 1622.05 196.241 1621.8 196.207C1621.57 196.168 1621.31 196.148 1621.05 196.148C1620.41 196.148 1619.84 196.281 1619.34 196.548C1618.85 196.81 1618.45 197.173 1618.17 197.639C1617.88 198.099 1617.74 198.625 1617.74 199.216V207.5H1615.73ZM1626.67 190.045V207.5H1624.66V190.045H1626.67ZM1635.3 207.773C1634.2 207.773 1633.24 207.497 1632.41 206.946C1631.57 206.389 1630.92 205.605 1630.45 204.594C1629.97 203.577 1629.74 202.375 1629.74 200.989C1629.74 199.614 1629.97 198.42 1630.45 197.409C1630.92 196.398 1631.57 195.616 1632.42 195.065C1633.26 194.514 1634.23 194.239 1635.33 194.239C1636.18 194.239 1636.86 194.381 1637.35 194.665C1637.85 194.943 1638.23 195.261 1638.49 195.619C1638.76 195.972 1638.97 196.261 1639.11 196.489H1639.28V190.045H1641.3V207.5H1639.35V205.489H1639.11C1638.97 205.727 1638.76 206.028 1638.48 206.392C1638.21 206.75 1637.82 207.071 1637.32 207.355C1636.81 207.634 1636.14 207.773 1635.3 207.773ZM1635.57 205.966C1636.38 205.966 1637.06 205.756 1637.61 205.335C1638.17 204.909 1638.59 204.321 1638.88 203.571C1639.17 202.815 1639.32 201.943 1639.32 200.955C1639.32 199.977 1639.18 199.122 1638.89 198.389C1638.61 197.651 1638.19 197.077 1637.63 196.668C1637.07 196.253 1636.39 196.045 1635.57 196.045C1634.72 196.045 1634.01 196.264 1633.44 196.702C1632.88 197.134 1632.45 197.722 1632.17 198.466C1631.89 199.205 1631.75 200.034 1631.75 200.955C1631.75 201.886 1631.89 202.733 1632.18 203.494C1632.47 204.25 1632.89 204.852 1633.45 205.301C1634.02 205.744 1634.73 205.966 1635.57 205.966ZM1648.22 207.5L1644.24 194.409H1646.35L1649.18 204.432H1649.32L1652.11 194.409H1654.26L1657.02 204.398H1657.16L1659.99 194.409H1662.1L1658.11 207.5H1656.13L1653.27 197.443H1653.07L1650.2 207.5H1648.22ZM1664.76 207.5V194.409H1666.77V207.5H1664.76ZM1665.78 192.227C1665.39 192.227 1665.05 192.094 1664.77 191.827C1664.49 191.56 1664.35 191.239 1664.35 190.864C1664.35 190.489 1664.49 190.168 1664.77 189.901C1665.05 189.634 1665.39 189.5 1665.78 189.5C1666.17 189.5 1666.51 189.634 1666.79 189.901C1667.07 190.168 1667.21 190.489 1667.21 190.864C1667.21 191.239 1667.07 191.56 1666.79 191.827C1666.51 192.094 1666.17 192.227 1665.78 192.227ZM1675.4 207.773C1674.31 207.773 1673.34 207.497 1672.51 206.946C1671.67 206.389 1671.02 205.605 1670.55 204.594C1670.08 203.577 1669.84 202.375 1669.84 200.989C1669.84 199.614 1670.08 198.42 1670.55 197.409C1671.02 196.398 1671.68 195.616 1672.52 195.065C1673.36 194.514 1674.33 194.239 1675.43 194.239C1676.28 194.239 1676.96 194.381 1677.45 194.665C1677.95 194.943 1678.33 195.261 1678.59 195.619C1678.86 195.972 1679.07 196.261 1679.22 196.489H1679.39V190.045H1681.4V207.5H1679.45V205.489H1679.22C1679.07 205.727 1678.86 206.028 1678.58 206.392C1678.31 206.75 1677.92 207.071 1677.42 207.355C1676.91 207.634 1676.24 207.773 1675.4 207.773ZM1675.67 205.966C1676.48 205.966 1677.16 205.756 1677.72 205.335C1678.27 204.909 1678.7 204.321 1678.99 203.571C1679.28 202.815 1679.42 201.943 1679.42 200.955C1679.42 199.977 1679.28 199.122 1678.99 198.389C1678.71 197.651 1678.29 197.077 1677.73 196.668C1677.18 196.253 1676.49 196.045 1675.67 196.045C1674.82 196.045 1674.11 196.264 1673.54 196.702C1672.98 197.134 1672.55 197.722 1672.27 198.466C1671.99 199.205 1671.85 200.034 1671.85 200.955C1671.85 201.886 1671.99 202.733 1672.28 203.494C1672.57 204.25 1672.99 204.852 1673.56 205.301C1674.12 205.744 1674.83 205.966 1675.67 205.966ZM1690.85 207.773C1689.59 207.773 1688.5 207.494 1687.58 206.938C1686.68 206.375 1685.97 205.591 1685.48 204.585C1684.99 203.574 1684.75 202.398 1684.75 201.057C1684.75 199.716 1684.99 198.534 1685.48 197.511C1685.97 196.483 1686.66 195.682 1687.54 195.108C1688.43 194.528 1689.46 194.239 1690.64 194.239C1691.33 194.239 1692 194.352 1692.66 194.58C1693.33 194.807 1693.93 195.176 1694.48 195.688C1695.03 196.193 1695.46 196.864 1695.78 197.699C1696.11 198.534 1696.27 199.562 1696.27 200.784V201.636H1686.18V199.898H1694.22C1694.22 199.159 1694.08 198.5 1693.78 197.92C1693.49 197.341 1693.08 196.884 1692.54 196.548C1692 196.213 1691.37 196.045 1690.64 196.045C1689.84 196.045 1689.15 196.244 1688.56 196.642C1687.99 197.034 1687.54 197.545 1687.23 198.176C1686.91 198.807 1686.76 199.483 1686.76 200.205V201.364C1686.76 202.352 1686.93 203.19 1687.27 203.878C1687.62 204.56 1688.1 205.08 1688.71 205.438C1689.32 205.79 1690.04 205.966 1690.85 205.966C1691.38 205.966 1691.85 205.892 1692.28 205.744C1692.71 205.591 1693.08 205.364 1693.4 205.062C1693.71 204.756 1693.95 204.375 1694.12 203.92L1696.06 204.466C1695.86 205.125 1695.52 205.705 1695.03 206.205C1694.55 206.699 1693.95 207.085 1693.24 207.364C1692.53 207.636 1691.74 207.773 1690.85 207.773Z" fill="#F5F5F7"/>
<defs>
<filter id="filter1_f_238_115" x="414" y="37" width="4" height="180" filterUnits="userSpaceOnUse" color-interpolation-filters="sRGB">
<feFlood flood-opacity="0" result="BackgroundImageFix"/>
<feBlend mode="normal" in="SourceGraphic" in2="BackgroundImageFix" result="shape"/>
<feGaussianBlur stdDeviation="0.5" result="effect1_foregroundBlur_238_115"/>
</filter>
<filter id="filter2_f_238_115" x="912" y="37" width="4" height="180" filterUnits="userSpaceOnUse" color-interpolation-filters="sRGB">
<feFlood flood-opacity="0" result="BackgroundImageFix"/>
<feBlend mode="normal" in="SourceGraphic" in2="BackgroundImageFix" result="shape"/>
<feGaussianBlur stdDeviation="0.5" result="effect1_foregroundBlur_238_115"/>
</filter>
<filter id="filter3_f_238_115" x="1403" y="37" width="4" height="180" filterUnits="userSpaceOnUse" color-interpolation-filters="sRGB">
<feFlood flood-opacity="0" result="BackgroundImageFix"/>
<feBlend mode="normal" in="SourceGraphic" in2="BackgroundImageFix" result="shape"/>
<feGaussianBlur stdDeviation="0.5" result="effect1_foregroundBlur_238_115"/>
</filter>
</defs>
</svg>
